<svg width="103" height="62" viewBox="0 0 103 62" fill="none" xmlns="http://www.w3.org/2000/svg">
<path d="M91.151 7.03465C87.5562 4.14228 83.3829 2.11763 78.879 1.04332C76.3172 0.423524 73.7141 0.13429 71.0696 0.0516507C69.1276 -0.0309884 67.1443 0.0103286 65.2023 0.0103286H37.3942C35.4522 0.0103286 33.4689 0.0103312 31.5268 0.0516507C28.8824 0.13429 26.3206 0.423524 23.7174 1.04332C19.2136 2.11763 15.0817 4.14228 11.4869 7.03465C4.21461 12.8607 0 21.6618 0 31C0 40.3382 4.21461 49.1393 11.4869 54.9653C15.0817 57.8577 19.2549 59.8824 23.7587 60.9567C26.3206 61.5765 28.9237 61.8657 31.5682 61.9484C33.5102 62.031 35.4935 61.9897 37.4355 61.9897H65.2436C67.1856 61.9897 69.169 61.9897 71.111 61.9484C73.7554 61.8657 76.3172 61.5765 78.9204 60.9567C83.4242 59.8824 87.5562 57.8577 91.151 54.9653C98.4232 49.1393 102.638 40.3382 102.638 31C102.638 21.6618 98.4232 12.8607 91.151 7.03465ZM77.5568 39.3465C76.1933 40.2969 74.6645 40.8754 73.053 41.1233C71.4415 41.3712 69.7887 41.3299 68.1773 41.3299H34.5018C32.849 41.3299 31.2376 41.3712 29.6261 41.1233C27.9733 40.8754 26.4859 40.2969 25.1223 39.3465C22.3952 37.4459 20.7424 34.3469 20.7424 31C20.7424 27.6531 22.3952 24.5541 25.1223 22.6534C26.4859 21.7031 28.0147 21.1246 29.6261 20.8767C31.2376 20.6288 32.8904 20.6701 34.5018 20.6701H68.1773C69.8301 20.6701 71.4415 20.6288 73.053 20.8767C74.7058 21.1246 76.1933 21.7031 77.5568 22.6534C80.2839 24.5541 81.9367 27.6531 81.9367 31C81.978 34.3469 80.3252 37.4459 77.5568 39.3465Z" fill="#394056"/>
</svg>
