<svg width="112" height="82" viewBox="0 0 112 82" fill="none" xmlns="http://www.w3.org/2000/svg">
<circle cx="74.5" cy="38.498" r="37.5" fill="#D2F7FF"/>
<path d="M53.9562 37.0243C53.7526 36.393 53.3656 35.8341 52.842 35.4206C52.2513 34.954 51.5209 34.6995 50.7681 34.698C50.768 34.698 50.7679 34.698 50.7677 34.698M53.9562 37.0243L50.7681 34.498L50.7677 34.698M53.9562 37.0243H26.0438H53.9562ZM50.7677 34.698H29.2322M50.7677 34.698H29.2322M29.2322 34.698L29.2319 34.698L29.2322 34.698ZM4.0625 68.173H23.2919V73.2855L23.2919 73.2859C23.2944 74.8604 23.921 76.3698 25.0344 77.4832C26.1477 78.5967 27.657 79.2234 29.2315 79.2262H29.2319H50.7681H50.7685C52.343 79.2234 53.8523 78.5967 54.9656 77.4832C56.079 76.3698 56.7056 74.8604 56.7081 73.2859V73.2855V68.173H75.9375C76.2806 68.173 76.6097 68.0367 76.8523 67.7941C77.0949 67.5515 77.2312 67.2224 77.2312 66.8793V6.06055C77.2313 5.89072 77.1979 5.72243 77.133 5.5654C77.068 5.40838 76.9727 5.26571 76.8525 5.14555C76.7323 5.02538 76.5897 4.93008 76.4326 4.86509C76.2756 4.8001 76.1073 4.7667 75.9375 4.7668H4.0625C3.89258 4.76671 3.72437 4.80011 3.56736 4.86509C3.41034 4.93008 3.26766 5.02538 3.1475 5.14554C3.02733 5.26571 2.93203 5.40838 2.86704 5.56541C2.80207 5.72239 2.76867 5.89065 2.76875 6.06055C2.76875 6.06059 2.76875 6.06062 2.76875 6.06066L2.76875 66.8793C2.76875 67.2224 2.90505 67.5515 3.14768 67.7941C3.39031 68.0367 3.71938 68.173 4.0625 68.173ZM23.2919 38.0512V65.5855H5.35625V16.1924H74.6438V65.5855H56.7081V38.0512V38.0508C56.7056 36.4763 56.079 34.9669 54.9656 33.8535C53.8523 32.74 52.343 32.1133 50.7685 32.1105H50.7681H29.2319L29.2315 32.1105C27.657 32.1133 26.1477 32.74 25.0344 33.8535C23.921 34.9669 23.2944 36.4763 23.2919 38.0508V38.0512ZM5.35625 7.3543H74.6438V13.6049H5.35625V7.3543ZM25.8794 66.8974V66.8974V66.8973V66.8973V66.8973V66.8972V66.8972V66.8972V66.8971V66.8971V66.897V66.897V66.897V66.8969V66.8969V66.8969V66.8968V66.8968V66.8968V66.8967V66.8967V66.8966V66.8966V66.8966V66.8965V66.8965V66.8965V66.8964V66.8964V66.8964V66.8963V66.8963V66.8963V66.8962V66.8962V66.8961V66.8961V66.8961V66.896V66.896V66.896V66.8959V66.8959V66.8959V66.8958V66.8958V66.8957V66.8957V66.8957V66.8956V66.8956V66.8956V66.8955V66.8955V66.8955V66.8954V66.8954V66.8953V66.8953V66.8953V66.8952V66.8952V66.8952V66.8951V66.8951V66.8951V66.895V66.895V66.895V66.8949V66.8949V66.8948V66.8948V66.8948V66.8947V66.8947V66.8947V66.8946V66.8946V66.8946V66.8945V66.8945V66.8945V66.8944V66.8944V66.8943V66.8943V66.8943V66.8942V66.8942V66.8942V66.8941V66.8941V66.8941V66.894V66.894V66.894V66.8939V66.8939V66.8938V66.8938V66.8938V66.8937V66.8937V66.8937V66.8936V66.8936V66.8936V66.8935V66.8935V66.8935V66.8934V66.8934V66.8934V66.8933V66.8933V66.8932V66.8932V66.8932V66.8931V66.8931V66.8931V66.893V66.893V66.893V66.8929V66.8929V66.8929V66.8928V66.8928V66.8928V66.8927V66.8927V66.8926V66.8926V66.8926V66.8925V66.8925V66.8925V66.8924V66.8924V66.8924V66.8923V66.8923V66.8923V66.8922V66.8922V66.8922V66.8921V66.8921V66.8921V66.892V66.892V66.8919V66.8919V66.8919V66.8918V66.8918V66.8918V66.8917V66.8917V66.8917V66.8916V66.8916V66.8916V66.8915V66.8915V66.8915V66.8914V66.8914V66.8913V66.8913V66.8913V66.8912V66.8912V66.8912V66.8911V66.8911V66.8911V66.891V66.891V66.891V66.8909V66.8909V66.8909V66.8908V66.8908V66.8908V66.8907V66.8907V66.8907V66.8906V66.8906V66.8905V66.8905V66.8905V66.8904V66.8904V66.8904V66.8903V66.8903V66.8903V66.8902V66.8902V66.8902V66.8901V66.8901V66.8901V66.89V66.89V66.89V66.8899V66.8899V66.8898V66.8898V66.8898V66.8897V66.8897V66.8897V66.8896V66.8896V66.8896V66.8895V66.8895V66.8895V66.8894V66.8894V66.8894V66.8893V66.8893V66.8893V66.8892V66.8892V66.8892V66.8891V66.8891V66.889V66.889V66.889V66.8889V66.8889V66.8889V66.8888V66.8888V66.8888V66.8887V66.8887V66.8887V66.8886V66.8886V66.8886V66.8885V66.8885V66.8885V66.8884V66.8884V66.8884V66.8883V66.8883V66.8882V66.8882V66.8882V66.8881V66.8881V66.8881V66.888V66.888V66.888V66.8879V66.8879V66.8879V66.8878V66.8878V66.8878V66.8877V66.8877V66.8877V66.8876V66.8876V66.8876V66.8875V66.8875V66.8874V66.8874V66.8874V66.8873V66.8873V66.8873V66.8872V66.8872V66.8872V66.8871V66.8871V66.8871V66.887V66.887V66.887V66.8869V66.8869V66.8869V66.8868V66.8868V66.8867V66.8867V66.8867V66.8866V66.8866V66.8866V66.8865V66.8865V66.8865V66.8864V66.8864V66.8864V66.8863V66.8863V66.8863V66.8862V66.8862V66.8862V66.8861V66.8861V66.8861V66.886V66.886V66.8859V66.8859V66.8859V66.8858V66.8858V66.8858V66.8857V66.8857V66.8857V66.8856V66.8856V66.8856V66.8855V66.8855V66.8855V66.8854V66.8854V66.8854V66.8853V66.8853V66.8853V66.8852V66.8852V66.8851V66.8851V66.8851V66.885V66.885V66.885V66.8849V66.8849V66.8849V66.8848V66.8848V66.8848V66.8847V66.8847V66.8847V66.8846V66.8846V66.8845V66.8845V66.8845V66.8844V66.8844V66.8844V66.8843V66.8843V66.8843V66.8842V66.8842V66.8842V66.8841V66.8841V66.8841V66.884V66.884V66.8839V66.8839V66.8839V66.8838V66.8838V66.8838V66.8837V66.8837V66.8837V66.8836V66.8836V66.8836V66.8835V66.8835V66.8835V66.8834V66.8834V66.8834V66.8833V66.8833V66.8832V66.8832V66.8832V66.8831V66.8831V66.8831V66.883V66.883V66.883V66.8829V66.8829V66.8829V66.8828V66.8828V66.8827V66.8827V66.8827V66.8826V66.8826V66.8826V66.8825V66.8825V66.8825V66.8824V66.8824V66.8824V66.8823V66.8823V66.8822V66.8822V66.8822V66.8821V66.8821V66.8821V66.882V66.882V66.882V66.8819V66.8819V66.8819V66.8818V66.8818V66.8817V66.8817V66.8817V66.8816V66.8816V66.8816V66.8815V66.8815V66.8815V66.8814V66.8814V66.8814V66.8813V66.8813V66.8812V66.8812V66.8812V66.8811V66.8811V66.8811V66.881V66.881V66.881V66.8809V66.8809V66.8809V66.8808V66.8808V66.8807V66.8807V66.8807V66.8806V66.8806V66.8806V66.8805V66.8805V66.8805V66.8804V66.8804V66.8803V66.8803V66.8803V66.8802V66.8802V66.8802V66.8801V66.8801V66.8801V66.88V66.88V66.8799V66.8799V66.8799V66.8798V66.8798V66.8798V66.8797V66.8797V66.8797V66.8796V66.8796V66.8795V66.8795V66.8795V66.8794V66.8794V66.8794V66.8793V66.8793V66.8792V66.8792V66.8792V66.8791V66.8791V66.8791V66.879V66.879V66.879V66.8789V66.8789V66.8788V66.8788V66.8788V66.8787V66.8787V66.8787V66.8786V66.8786V66.8786V66.8785V66.8785V66.8784V66.8784V66.8784V66.8783V66.8783V66.8783V66.8782V66.8782V66.8782V66.8781V66.8781V66.878V66.878V66.878V66.8779V66.8779V66.8779V66.8778V66.8778V66.8778V66.8777V66.8777V66.8776V66.8776V66.8776V66.8775V66.8775V66.8775V66.8774V66.8774V66.8773V66.8773V66.8773V66.8772V66.8772V66.8772V66.8771V66.8771V66.8771V66.877V66.877V66.8769V66.8769V66.8769V66.8768V66.8768V66.8768V66.8767V66.8767V66.8767V66.8766V66.8766V66.8765V66.8765V66.8765V66.8764V66.8764V66.8764V66.8763V66.8763V66.8763V66.8762V66.8762V66.8761V66.8761V66.8761V66.876V66.876V66.876V66.8759V66.8759V66.8759V66.8758V66.8758V66.8757V66.8757V66.8757V66.8756V66.8756V66.8756V66.8755V66.8755V66.8755V66.8754V66.8754V66.8753V66.8753V66.8753V66.8752V66.8752V66.8752V66.8751V66.8751V66.875V66.875V66.875V66.8749V66.8749V66.8749V66.8748V66.8748V66.8748V66.8747V66.8747V66.8746V66.8746V66.8746V66.8745V66.8745V66.8745V66.8744V66.8744V66.8744V66.8743V66.8743V66.8742V66.8742V66.8742V66.8741V66.8741V66.8741V66.874V66.874V66.874V66.8739V66.8739V66.8738V66.8738V66.8738V66.8737V66.8737V66.8737V66.8736V66.8736V66.8736V66.8735V66.8735V66.8734V66.8734V66.8734V66.8733V66.8733V66.8733V66.8732V66.8732V66.8732V66.8731V66.8731V66.8731V66.873V66.873V66.8729V66.8729V66.8729V66.8728V66.8728V66.8728V66.8727V66.8727V66.8727V66.8726V66.8726V66.8725V66.8725V66.8725V66.8724V66.8724V66.8724V66.8723V66.8723V66.8723V66.8722V66.8722V66.8721V66.8721V66.8721V66.872V66.872V66.872V66.8719V66.8719V66.8719V66.8718V66.8718V66.8717V66.8717V66.8717V66.8716V66.8716V66.8716V66.8715V66.8715V66.8715V66.8714V66.8714V66.8714V66.8713V66.8713V66.8712V66.8712V66.8712V66.8711V66.8711V66.8711V66.871V66.871V66.871V66.8709V66.8709V66.8709V66.8708V66.8708V66.8707V66.8707V66.8707V66.8706V66.8706V66.8706V66.8705V66.8705V66.8705V66.8704V66.8704V66.8703V66.8703V66.8703V66.8702V66.8702V66.8702V66.8701V66.8701V66.8701V66.87V66.87V66.87V66.8699V66.8699V66.8699V66.8698V66.8698V66.8697V66.8697V66.8697V66.8696V66.8696V66.8696V66.8695V66.8695V66.8695V66.8694V66.8694V66.8694V66.8693V66.8693V66.8692V66.8692V66.8692V66.8691V66.8691V66.8691V66.869V66.869V66.869V66.8689V66.8689V66.8689V66.8688V66.8688V66.8687V66.8687V66.8687V66.8686V66.8686V66.8686V66.8685V66.8685V66.8685V66.8684V66.8684V66.8684V66.8683V66.8683V66.8683V66.8682V66.8682V66.8681V66.8681V66.8681V66.868V66.868V66.868V66.8679V66.8679V66.8679V66.8678V66.8678V66.8678V66.8677V66.8677V66.8677V66.8676V66.8676V66.8675V66.8675V66.8675V66.8674V66.8674V66.8674V66.8673V66.8673V66.8673V66.8672V66.8672V66.8672V66.8671V66.8671V66.8671V66.867V66.867V66.867V66.8669V66.8669V66.8668V66.8668V66.8668V66.8667V66.8667V66.8667V66.8666V66.8666V66.8666V66.8665V66.8665V66.8665V66.8664V66.8664V66.8664V66.8663V66.8663V66.8663V66.8662V66.8662V66.8661V66.8661V66.8661V66.866V66.866V66.866V66.8659V66.8659V66.8659V66.8658V66.8658V66.8658V66.8657V66.8657V66.8657V66.8656V66.8656V66.8656V66.8655V66.8655V66.8655V66.8654V66.8654V66.8654V66.8653V66.8653V66.8652V66.8652V66.8652V66.8651V66.8651V66.8651V66.865V66.865V66.865V66.8649V66.8649V66.8649V66.8648V66.8648V66.8648V66.8647V66.8647V66.8647V66.8646V66.8646V66.8646V66.8645V66.8645V66.8645V66.8644V66.8644V66.8644V66.8643V66.8643V66.8643V66.8642V66.8642V66.8642V66.8641V66.8641V66.864V66.864V66.864V66.8639V66.8639V66.8639V66.8638V66.8638V66.8638V66.8637V66.8637V66.8637V66.8636V66.8636V66.8636V66.8635V66.8635V66.8635V66.8634V66.8634V66.8634V66.8633V66.8633V66.8633V66.8632V66.8632V66.8632V66.8631V66.8631V66.8631V66.863V66.863V66.863V66.8629V66.8629V66.8629V66.8628V66.8628V66.8628V66.8627V66.8627V66.8627V66.8626V66.8626V66.8626V66.8625V66.8625V66.8625V66.8624V66.8624V66.8624V66.8623V66.8623V66.8623V66.8622V66.8622V66.8622V66.8621V66.8621V66.8621V66.862V66.862V66.862V66.8619V66.8619V66.8619V66.8618V66.8618V66.8618V66.8617V66.8617V66.8617V66.8616V66.8616V66.8616V66.8615V66.8615V66.8615V66.8614V66.8614V66.8614V66.8613V66.8613V66.8613V66.8612V66.8612V66.8612V39.6118H54.1206V66.8612V66.8793V66.8793V66.8794V66.8794V66.8794V66.8794V66.8795V66.8795V66.8795V66.8796V66.8796V66.8797V66.8797V66.8797V66.8798V66.8798V66.8798V66.8799V66.8799V66.8799V66.88V66.88V66.88V66.8801V66.8801V66.8801V66.8802V66.8802V66.8803V66.8803V66.8804V66.8804V66.8804V66.8805V66.8805V66.8806V66.8806V66.8807V66.8807V66.8808V66.8808V66.8809V66.8809V66.881V66.881V66.8811V66.8811V66.8812V66.8812V66.8813V66.8813V66.8813V66.8814V66.8814V66.8815V66.8815V66.8815V66.8816V66.8816V66.8817V66.8817V66.8817V66.8817V66.8818V66.8818V66.8818V66.8819V66.8819V66.8819V66.882V66.882V66.882V66.8821V66.8821V66.8821V66.8822V66.8822V66.8822V66.8823V66.8823V66.8823V66.8824V66.8824V66.8824V66.8825V66.8825V66.8825V66.8826V66.8826V66.8826V66.8827V66.8827V66.8828V66.8828V66.8828V66.8829V66.8829V66.8829V66.883V66.883V66.883V66.8831V66.8831V66.8832V66.8832V66.8832V66.8833V66.8833V66.8833V66.8834V66.8834V66.8834V66.8835V66.8835V66.8836V66.8836V66.8836V66.8837V66.8837V66.8838V66.8838V66.8838V66.8839V66.8839V66.884V66.884V66.884V66.8841V66.8841V66.8842V66.8842V66.8842V66.8843V66.8843V66.8844V66.8844V66.8844V66.8845V66.8845V66.8846V66.8846V66.8846V66.8847V66.8847V66.8848V66.8848V66.8848V66.8849V66.8849V66.885V66.885V66.8851V66.8851V66.8851V66.8852V66.8852V66.8853V66.8853V66.8854V66.8854V66.8854V66.8855V66.8855V66.8856V66.8856V66.8857V66.8857V66.8857V66.8858V66.8858V66.8859V66.8859V66.886V66.886V66.8861V66.8861V66.8861V66.8862V66.8862V66.8863V66.8863V66.8864V66.8864V66.8864V66.8865V66.8865V66.8866V66.8866V66.8867V66.8867V66.8868V66.8868V66.8869V66.8869V66.8869V66.887V66.887V66.8871V66.8871V66.8872V66.8872V66.8873V66.8873V66.8874V66.8874V66.8874V66.8875V66.8875V66.8876V66.8876V66.8877V66.8877V66.8878V66.8878V66.8879V66.8879V66.888V66.888V66.888V66.8881V66.8881V66.8882V66.8882V66.8883V66.8883V66.8884V66.8884V66.8885V66.8885V66.8886V66.8886V66.8886V66.8887V66.8887V66.8888V66.8888V66.8889V66.8889V66.889V66.889V66.8891V66.8891V66.8892V66.8892V66.8893V66.8893V66.8894V66.8894V66.8895V66.8895V66.8895V66.8896V66.8896V66.8897V66.8897V66.8898V66.8898V66.8899V66.8899V66.89V66.89V66.8901V66.8901V66.8902V66.8902V66.8903V66.8903V66.8903V66.8904V66.8904V66.8905V66.8905V66.8906V66.8906V66.8907V66.8907V66.8908V66.8908V66.8909V66.8909V66.891V66.891V66.8911V66.8911V66.8911V66.8912V66.8912V66.8913V66.8913V66.8914V66.8914V66.8915V66.8915V66.8916V66.8916V66.8917V66.8917V66.8918V66.8918V66.8919V66.8919V66.8919V66.892V66.892V66.8921V66.8921V66.8922V66.8922V66.8923V66.8923V66.8924V66.8924V66.8925V66.8925V66.8925V66.8926V66.8926V66.8927V66.8927V66.8928V66.8928V66.8929V66.8929V66.893V66.893V66.8931V66.8931V66.8931V66.8932V66.8932V66.8933V66.8933V66.8934V66.8934V66.8935V66.8935V66.8936V66.8936V66.8936V66.8937V66.8937V66.8938V66.8938V66.8939V66.8939V66.894V66.894V66.8941V66.8941V66.8941V66.8942V66.8942V66.8943V66.8943V66.8944V66.8944V66.8944V66.8945V66.8945V66.8946V66.8946V66.8947V66.8947V66.8948V66.8948V66.8948V66.8949V66.8949V66.895V66.895V66.8951V66.8951V66.8951V66.8952V66.8952V66.8953V66.8953V66.8954V66.8954V66.8954V66.8955V66.8955V66.8956V66.8956V66.8956V66.8957V66.8957V66.8958V66.8958V66.8959V66.8959V66.8959V66.896V66.896V66.8961V66.8961V66.8961V66.8962V66.8962V66.8963V66.8963V66.8963V66.8964V66.8964V66.8965V66.8965V66.8965V66.8966V66.8966V66.8967V66.8967V66.8967V66.8968V66.8968V66.8969V66.8969V66.8969V66.897V66.897V66.897V66.8971V66.8971V66.8972V66.8972V66.8972V66.8973V66.8973V66.8973V66.8974V66.8974V68.6387H25.8794V66.8974ZM50.7679 76.6418H29.2321C28.3431 76.6407 27.4909 76.287 26.8624 75.6584C26.2338 75.0297 25.8803 74.1774 25.8794 73.2885V71.2262H54.1206V73.2885C54.1197 74.1774 53.7662 75.0297 53.1376 75.6584C52.5091 76.287 51.6568 76.6407 50.7679 76.6418Z" fill="#3D3D3D" stroke="#3D3D3D" stroke-width="0.4"/>
<path d="M51.849 8.38984C51.4356 8.38984 51.0315 8.51242 50.6878 8.74207C50.3441 8.97172 50.0763 9.29814 49.9181 9.68004C49.7599 10.0619 49.7185 10.4822 49.7991 10.8876C49.8798 11.293 50.0788 11.6654 50.3711 11.9577C50.6634 12.25 51.0358 12.449 51.4413 12.5297C51.8467 12.6103 52.2669 12.5689 52.6488 12.4108C53.0307 12.2526 53.3571 11.9847 53.5868 11.641C53.8164 11.2973 53.939 10.8932 53.939 10.4798C53.939 9.92554 53.7188 9.39394 53.3268 9.00199C52.9349 8.61004 52.4033 8.38984 51.849 8.38984Z" fill="#3D3D3D" stroke="#3D3D3D" stroke-width="0.4"/>
<path d="M59.2454 8.38984C58.832 8.38971 58.4279 8.51217 58.0841 8.74174C57.7403 8.97131 57.4723 9.29767 57.314 9.67956C57.1557 10.0614 57.1142 10.4817 57.1948 10.8872C57.2754 11.2926 57.4744 11.6651 57.7666 11.9575C58.0589 12.2498 58.4313 12.4489 58.8367 12.5296C59.2422 12.6103 59.6624 12.569 60.0444 12.4108C60.4263 12.2527 60.7528 11.9848 60.9825 11.6411C61.2121 11.2973 61.3347 10.8932 61.3347 10.4798C61.3347 9.92566 61.1146 9.39417 60.7228 9.00224C60.331 8.6103 59.7996 8.39003 59.2454 8.38984Z" fill="#3D3D3D" stroke="#3D3D3D" stroke-width="0.4"/>
<path d="M65.4794 8.74174C65.8231 8.51218 66.2273 8.38972 66.6406 8.38984L65.4794 8.74174ZM65.4794 8.74174C65.1356 8.97131 64.8676 9.29767 64.7093 9.67956M65.4794 8.74174L64.7093 9.67956M64.7093 9.67956C64.551 10.0614 64.5095 10.4817 64.5901 10.8872M64.7093 9.67956L64.5901 10.8872M64.5901 10.8872C64.6706 11.2926 64.8696 11.6651 65.1619 11.9575M64.5901 10.8872L65.1619 11.9575M65.1619 11.9575C65.4542 12.2498 65.8266 12.4489 66.232 12.5296M65.1619 11.9575L66.232 12.5296M66.232 12.5296C66.6374 12.6103 67.0577 12.569 67.4396 12.4108M66.232 12.5296L67.4396 12.4108M67.4396 12.4108C67.8216 12.2527 68.148 11.9848 68.3777 11.6411M67.4396 12.4108L68.3777 11.6411M68.3777 11.6411C68.6074 11.2974 68.73 10.8933 68.73 10.4799L68.3777 11.6411ZM68.73 10.4798C68.7301 10.2054 68.6761 9.93368 68.5712 9.68013C68.4662 9.42656 68.3123 9.19614 68.1183 9.00205C67.9243 8.80796 67.6939 8.654 67.4404 8.54895C67.1868 8.44392 66.9151 8.38985 66.6407 8.38984L68.73 10.4798Z" fill="#3D3D3D" stroke="#3D3D3D" stroke-width="0.4"/>
<path d="M40 71.798C39.5772 71.798 39.164 71.9234 38.8125 72.1583C38.461 72.3932 38.187 72.727 38.0252 73.1176C37.8634 73.5081 37.8211 73.9379 37.9036 74.3525C37.986 74.7672 38.1896 75.148 38.4886 75.447C38.7875 75.7459 39.1684 75.9495 39.583 76.032C39.9976 76.1144 40.4274 76.0721 40.818 75.9103C41.2086 75.7485 41.5424 75.4746 41.7773 75.1231C42.0122 74.7716 42.1375 74.3583 42.1375 73.9355C42.1375 73.3686 41.9123 72.825 41.5115 72.4241C41.1106 72.0232 40.5669 71.798 40 71.798Z" fill="#3D3D3D" stroke="#3D3D3D" stroke-width="0.4"/>
<path d="M47.1937 48.7612V50.8196C47.1937 51.1627 47.33 51.4918 47.5726 51.7344C47.8153 51.977 48.1443 52.1133 48.4875 52.1133C48.8306 52.1133 49.1596 51.977 49.4023 51.7344C49.6449 51.4918 49.7812 51.1627 49.7812 50.8196V45.6377L49.7812 45.6371C49.781 45.5525 49.7726 45.4681 49.7561 45.3851L49.7561 45.3847C49.7485 45.347 49.731 45.2952 49.7241 45.2748C49.7234 45.2729 49.7229 45.2712 49.7224 45.2699C49.7123 45.2298 49.7001 45.1903 49.6859 45.1515L49.6829 45.1433L49.6793 45.1355C49.6579 45.0898 49.6339 45.0454 49.6075 45.0024C49.6054 44.9986 49.6035 44.9948 49.6 44.9881C49.5984 44.9849 49.5965 44.9811 49.594 44.9764C49.5872 44.9631 49.5764 44.9427 49.5621 44.9212C49.4671 44.7786 49.3447 44.6562 49.202 44.5612L49.2021 44.5611L49.1954 44.557C49.17 44.5415 49.1438 44.527 49.1171 44.5138C49.0356 44.462 48.9459 44.4243 48.8519 44.4022C48.851 44.4019 48.85 44.4016 48.8489 44.4012C48.8295 44.3946 48.7797 44.3776 48.7381 44.3696C48.6551 44.3527 48.5706 44.3441 48.4858 44.3439H48.4856H43.3062C42.9631 44.3439 42.634 44.4803 42.3914 44.7229C42.1488 44.9655 42.0125 45.2946 42.0125 45.6377C42.0125 45.9808 42.1488 46.3099 42.3914 46.5525C42.634 46.7951 42.9631 46.9314 43.3062 46.9314H45.3646L32.8062 59.4905V57.4314C32.8062 57.0883 32.6699 56.7593 32.4273 56.5166C32.1846 56.274 31.8556 56.1377 31.5125 56.1377C31.1693 56.1377 30.8403 56.274 30.5976 56.5166C30.355 56.7593 30.2187 57.0883 30.2187 57.4314L30.2187 62.6133L30.2187 62.6139C30.2189 62.6987 30.2273 62.7832 30.2437 62.8664L30.2437 62.8664L30.244 62.8676C30.2499 62.8965 30.2578 62.9212 30.2636 62.9389C30.2655 62.9446 30.2671 62.9493 30.2685 62.9535C30.2718 62.9634 30.2741 62.9701 30.2763 62.9778C30.2871 63.0195 30.3 63.0607 30.315 63.101L30.3145 63.1012L30.32 63.1134C30.3403 63.1586 30.3633 63.2027 30.3886 63.2453C30.3908 63.2492 30.3926 63.2527 30.3955 63.2586C30.3974 63.2623 30.3997 63.267 30.403 63.2734C30.4104 63.2879 30.4218 63.3097 30.4374 63.3325L30.6025 63.2196M47.1937 48.7612L34.6353 61.3196H36.6937C37.0368 61.3196 37.3659 61.4559 37.6085 61.6985C37.8511 61.9411 37.9875 62.2702 37.9875 62.6133C37.9875 62.9564 37.8511 63.2855 37.6085 63.5281C37.3659 63.7708 37.0368 63.9071 36.6937 63.9071H31.5125H31.5119C31.4271 63.9068 31.3425 63.8984 31.2594 63.882L31.2567 63.8815C31.2216 63.8741 31.1857 63.8623 31.1611 63.8543C31.1544 63.8521 31.1486 63.8502 31.1438 63.8487C31.1413 63.8479 31.1364 63.8466 31.1299 63.8448C31.1045 63.8377 31.0539 63.8235 31.0183 63.8089L31.0117 63.8062L31.0117 63.8061C30.9675 63.786 30.9244 63.7634 30.8828 63.7383C30.8782 63.7358 30.8736 63.7335 30.8661 63.7298C30.8629 63.7281 30.8591 63.7262 30.8545 63.7239C30.8402 63.7168 30.8193 63.706 30.7972 63.6916L30.7947 63.69C30.6529 63.5948 30.5311 63.4727 30.4362 63.3307L30.6025 63.2196M47.1937 48.7612L47.3937 48.5612V50.8196C47.3937 51.1096 47.5089 51.3879 47.7141 51.593C47.9192 51.7981 48.1974 51.9133 48.4875 51.9133C48.7775 51.9133 49.0557 51.7981 49.2608 51.593C49.466 51.3879 49.5812 51.1096 49.5812 50.8196V45.6377M30.6025 63.2196C30.5922 63.2046 30.5842 63.1887 30.5763 63.1729C30.5716 63.1636 30.5669 63.1542 30.5618 63.1452L31.0943 63.6239C31.0561 63.6066 31.019 63.587 30.9831 63.5652C30.973 63.5595 30.9628 63.5544 30.9526 63.5494C30.937 63.5416 30.9214 63.5338 30.9062 63.5239C30.7861 63.4433 30.6829 63.3399 30.6025 63.2196Z" fill="#3D3D3D" stroke="#3D3D3D" stroke-width="0.4"/>
</svg>
