<svg width="111" height="92" viewBox="0 0 111 92" fill="none" xmlns="http://www.w3.org/2000/svg">
<circle cx="73.5" cy="54.498" r="37.5" fill="#D2F7FF"/>
<g clip-path="url(#clip0)">
<path d="M50.625 90.998H39.375C36.75 90.998 33.75 88.748 33.75 84.248V76.373C33.75 72.623 31.875 69.248 28.875 66.623C22.125 61.373 18.75 53.873 18.75 45.623C19.125 31.373 30.75 20.123 44.625 19.748C51.75 19.748 58.5 22.373 63.375 27.248C68.25 32.123 71.25 38.873 71.25 45.998C71.25 53.873 67.875 61.373 61.5 66.248C58.125 68.873 56.25 72.9981 56.25 76.7481V85.373C56.25 88.373 53.625 90.998 50.625 90.998ZM45 23.498C33 23.498 22.875 33.623 22.5 45.623C22.5 52.748 25.5 59.4981 31.125 63.6231C35.25 66.9981 37.5 71.498 37.5 76.373V84.248C37.5 84.998 37.5 87.248 39.375 87.248H50.625C51.75 87.248 52.5 86.498 52.5 85.373V76.7481C52.5 71.8731 55.125 66.623 59.25 63.248C64.5 59.123 67.5 52.748 67.5 45.998C67.5 39.998 65.25 34.373 60.75 29.873C56.625 25.748 51 23.498 45 23.498Z" fill="#3D3D3D"/>
<path d="M54.375 79.748H35.625C34.5 79.748 33.75 78.998 33.75 77.873C33.75 76.748 34.5 75.998 35.625 75.998H54.375C55.5 75.998 56.25 76.748 56.25 77.873C56.25 78.998 55.5 79.748 54.375 79.748Z" fill="#3D3D3D"/>
<path d="M45 12.248C43.875 12.248 43.125 11.498 43.125 10.373V2.87305C43.125 1.74805 43.875 0.998047 45 0.998047C46.125 0.998047 46.875 1.74805 46.875 2.87305V10.373C46.875 11.498 46.125 12.248 45 12.248Z" fill="#3D3D3D"/>
<path d="M70.125 22.748C69.75 22.748 69 22.748 68.625 22.373C67.875 21.623 67.875 20.498 68.625 19.748L73.875 14.498C74.625 13.748 75.75 13.748 76.5 14.498C77.25 15.248 77.25 16.373 76.5 17.123L71.25 22.373C71.25 22.373 70.5 22.748 70.125 22.748Z" fill="#3D3D3D"/>
<path d="M88.125 47.873H80.625C79.5 47.873 78.75 47.123 78.75 45.998C78.75 44.873 79.5 44.123 80.625 44.123H88.125C89.25 44.123 90 44.873 90 45.998C90 47.123 89.25 47.873 88.125 47.873Z" fill="#3D3D3D"/>
<path d="M75.375 78.248C75 78.248 74.25 78.248 73.875 77.873L68.625 72.623C67.875 71.873 67.875 70.748 68.625 69.998C69.375 69.248 70.5 69.248 71.25 69.998L76.5 75.248C77.25 75.998 77.25 77.123 76.5 77.873C76.5 78.248 76.125 78.248 75.375 78.248Z" fill="#3D3D3D"/>
<path d="M14.625 78.248C14.25 78.248 13.5 78.248 13.125 77.873C12.375 77.123 12.375 75.998 13.125 75.248L18.375 69.998C19.125 69.248 20.25 69.248 21 69.998C21.75 70.748 21.75 71.873 21 72.623L15.75 77.873C15.375 78.248 15 78.248 14.625 78.248Z" fill="#3D3D3D"/>
<path d="M9.375 47.873H1.875C0.75 47.873 0 47.123 0 45.998C0 44.873 0.75 44.123 1.875 44.123H9.375C10.5 44.123 11.25 44.873 11.25 45.998C11.25 47.123 10.5 47.873 9.375 47.873Z" fill="#3D3D3D"/>
<path d="M19.875 22.748C19.5 22.748 18.75 22.748 18.375 22.373L13.125 16.748C12.375 15.998 12.375 14.873 13.125 14.123C13.875 13.373 15 13.373 15.75 14.123L21 19.373C21.75 20.123 21.75 21.248 21 21.998C20.625 22.373 20.25 22.748 19.875 22.748Z" fill="#3D3D3D"/>
<path d="M60 47.873C58.875 47.873 58.125 47.123 58.125 45.998C58.125 38.873 52.125 32.873 45 32.873C43.875 32.873 43.125 32.123 43.125 30.998C43.125 29.873 43.875 29.123 45 29.123C54.375 29.123 61.875 36.623 61.875 45.998C61.875 47.123 61.125 47.873 60 47.873Z" fill="#3D3D3D"/>
</g>
<defs>
<clipPath id="clip0">
<rect width="90" height="90" fill="white" transform="translate(0 0.998047)"/>
</clipPath>
</defs>
</svg>
