<svg width="113" height="80" viewBox="0 0 113 80" fill="none" xmlns="http://www.w3.org/2000/svg">
<circle cx="75.5" cy="42.498" r="37.5" fill="#D2F7FF"/>
<g clip-path="url(#clip0)">
<path d="M9.375 47.873C4.20625 47.873 0 43.6668 0 38.498C0 33.3293 4.20625 29.123 9.375 29.123C14.5437 29.123 18.75 33.3293 18.75 38.498C18.75 43.6668 14.5437 47.873 9.375 47.873ZM9.375 32.248C5.92812 32.248 3.125 35.0512 3.125 38.498C3.125 41.9449 5.92812 44.748 9.375 44.748C12.8219 44.748 15.625 41.9449 15.625 38.498C15.625 35.0512 12.8219 32.248 9.375 32.248Z" fill="#3D3D3D"/>
<path d="M9.375 75.998C4.20625 75.998 0 71.7918 0 66.623C0 61.4543 4.20625 57.248 9.375 57.248C14.5437 57.248 18.75 61.4543 18.75 66.623C18.75 71.7918 14.5437 75.998 9.375 75.998ZM9.375 60.373C5.92812 60.373 3.125 63.1762 3.125 66.623C3.125 70.0699 5.92812 72.873 9.375 72.873C12.8219 72.873 15.625 70.0699 15.625 66.623C15.625 63.1762 12.8219 60.373 9.375 60.373Z" fill="#3D3D3D"/>
<path d="M70.3125 75.998H29.6875C27.1031 75.998 25 73.8949 25 71.3105V33.8105C25 31.2262 27.1031 29.123 29.6875 29.123H70.3125C72.8969 29.123 75 31.2262 75 33.8105V71.3105C75 73.8949 72.8969 75.998 70.3125 75.998ZM29.6875 32.248C28.8281 32.248 28.125 32.9512 28.125 33.8105V71.3105C28.125 72.1699 28.8281 72.873 29.6875 72.873H70.3125C71.1719 72.873 71.875 72.1699 71.875 71.3105V33.8105C71.875 32.9512 71.1719 32.248 70.3125 32.248H29.6875Z" fill="#3D3D3D"/>
<path d="M72.4375 75.1544C72.0531 75.1544 71.6719 75.0138 71.3687 74.7326L26.4969 32.6701C25.8656 32.0763 25.8344 31.0888 26.4219 30.4607C27.0125 29.8263 28.0031 29.8013 28.6312 30.3888L73.5031 72.4544C74.1312 73.0451 74.1656 74.0357 73.575 74.6638C73.2687 74.9919 72.85 75.1544 72.4375 75.1544Z" fill="#3D3D3D"/>
<path d="M27.5626 75.1546C27.147 75.1546 26.7282 74.989 26.422 74.6609C25.8345 74.0328 25.8657 73.0421 26.4938 72.4515L71.3688 30.3859C71.9938 29.7984 72.9845 29.8234 73.5782 30.4578C74.1657 31.0859 74.1345 32.0765 73.5063 32.6671L28.6313 74.7359C28.3282 75.0171 27.947 75.1546 27.5626 75.1546Z" fill="#3D3D3D"/>
<path d="M64.0625 16.623C59.7531 16.623 56.25 13.1199 56.25 8.81055C56.25 4.50117 59.7531 0.998047 64.0625 0.998047C68.3719 0.998047 71.875 4.50117 71.875 8.81055C71.875 13.1199 68.3719 16.623 64.0625 16.623ZM64.0625 4.12305C61.4781 4.12305 59.375 6.22617 59.375 8.81055C59.375 11.3949 61.4781 13.498 64.0625 13.498C66.6469 13.498 68.75 11.3949 68.75 8.81055C68.75 6.22617 66.6469 4.12305 64.0625 4.12305Z" fill="#3D3D3D"/>
<path d="M73.4375 19.7477C73.0375 19.7477 72.6375 19.5945 72.3313 19.2914L67.6438 14.6039C67.0344 13.9945 67.0344 13.0039 67.6438 12.3945C68.2532 11.7852 69.2438 11.7852 69.8532 12.3945L74.5407 17.082C75.15 17.6914 75.15 18.682 74.5407 19.2914C74.2375 19.5945 73.8375 19.7477 73.4375 19.7477Z" fill="#3D3D3D"/>
<path d="M45.3125 19.748H4.6875C2.10312 19.748 0 17.6449 0 15.0605V5.68555C0 3.10117 2.10312 0.998047 4.6875 0.998047H45.3125C47.8969 0.998047 50 3.10117 50 5.68555V15.0605C50 17.6449 47.8969 19.748 45.3125 19.748ZM4.6875 4.12305C3.82812 4.12305 3.125 4.82617 3.125 5.68555V15.0605C3.125 15.9199 3.82812 16.623 4.6875 16.623H45.3125C46.1719 16.623 46.875 15.9199 46.875 15.0605V5.68555C46.875 4.82617 46.1719 4.12305 45.3125 4.12305H4.6875Z" fill="#3D3D3D"/>
</g>
<defs>
<clipPath id="clip0">
<rect width="75" height="75" fill="white" transform="translate(0 0.998047)"/>
</clipPath>
</defs>
</svg>
