<svg width="89" height="72" viewBox="0 0 89 72" fill="none" xmlns="http://www.w3.org/2000/svg">
<path d="M46.2064 40.4802C46.3707 37.527 47.8195 34.9225 50.0007 33.0759C52.1439 31.2614 55.0264 30.1558 58.1715 30.1538C61.3155 30.1558 64.1981 31.2614 66.3412 33.0754C68.5229 34.9225 69.9712 37.527 70.1375 40.4802C70.3039 43.5171 69.0845 46.3415 66.9419 48.431C64.7597 50.5581 61.6502 51.8947 58.173 51.8947C54.6938 51.8947 51.5823 50.5581 49.3981 48.431C47.2574 46.341 46.0381 43.5171 46.2069 40.4807L46.2064 40.4802Z" fill="#394056"/>
<path d="M27.148 46.4602C27.168 47.6129 27.5397 49.8597 28.0913 51.6186C29.2535 55.3328 31.2263 58.7714 33.9736 61.8023C36.7916 64.9138 40.2572 67.4166 44.265 69.1895C48.4781 71.0566 53.0439 72.0099 57.7775 71.9999C62.5131 71.9919 67.0764 71.0235 71.2896 69.1449C75.2938 67.3525 78.7595 64.8436 81.5754 61.7241C84.3187 58.6813 86.2875 55.2371 87.4517 51.521C88.0334 49.6705 88.4043 47.7602 88.5573 45.8265C88.7031 43.9403 88.6421 42.0439 88.3755 40.1711C87.853 36.498 86.581 33.0498 84.6263 29.9068C82.8313 27.0212 80.5264 24.4923 77.7831 22.3632L77.7866 22.3592L50.1022 1.09975C50.0791 1.07978 50.0557 1.06007 50.0321 1.04064C48.2101 -0.350544 45.1577 -0.346536 43.1613 1.05066C41.1379 2.46538 40.911 4.79988 42.7055 6.27723L42.6994 6.28124L54.2472 15.6743L19.0463 15.7114H18.9978C16.0896 15.7134 13.2953 17.6256 12.7397 20.0363C12.1736 22.4945 14.1504 24.5314 17.1737 24.5429L17.1697 24.555L35.0111 24.5199L3.17225 48.9555C3.13317 48.9866 3.09009 49.0161 3.05101 49.0472C0.0507279 51.3466 -0.921647 55.1725 0.968497 57.5937C2.8902 60.0549 6.97057 60.0569 10.0059 57.6037L27.3809 43.3863C27.3809 43.3863 27.1284 45.306 27.148 46.4602ZM71.7945 52.8851C68.2156 56.5371 63.206 58.6031 57.7795 58.6126C52.351 58.6226 47.3394 56.5717 43.758 52.9297C42.0086 51.1532 40.7231 49.1158 39.9286 46.9381C39.1507 44.7989 38.851 42.5152 39.0504 40.2477C39.241 38.0353 39.8951 35.8877 40.9701 33.9446C42.0171 32.0464 43.4554 30.3326 45.2303 28.8803C48.7095 26.0428 53.1381 24.5084 57.776 24.5024C62.4139 24.4974 66.8405 26.0193 70.3217 28.8447C72.0951 30.289 73.5329 31.9973 74.5779 33.892C75.6535 35.8329 76.3089 37.9784 76.5016 40.1891C76.7001 42.4576 76.3996 44.7421 75.6209 46.882C74.8284 49.0617 73.5444 51.1026 71.795 52.8856L71.7945 52.8851Z" fill="#394056"/>
</svg>
