<svg width="72" height="72" viewBox="0 0 72 72" fill="none" xmlns="http://www.w3.org/2000/svg">
<path d="M10.5439 41.9372C10.5439 41.9372 9.21519 35.3336 16.2427 27.3363C23.2708 19.3392 28.5437 16.4311 34.2387 14.9163L34.2288 14.9222L34.2504 14.9163C34.2504 14.9163 29.7767 17.5219 29.7767 21.4593C29.7767 22.6023 29.959 23.3876 30.2114 23.9122C30.5464 24.6092 31.077 24.8461 31.5534 24.8484C31.9547 24.8507 32.1896 24.6858 32.6976 24.4885V45.8139C32.6976 45.8139 32.7526 46.1577 33.0612 46.5651C33.5057 47.1509 34.2041 47.8659 35.5166 47.8732C37.7554 47.8588 40.5713 45.33 40.5713 45.33V28.0633C40.5713 26.3067 39.314 24.1862 37.9818 23.4586C37.9818 23.4586 38.1634 23.4472 38.4573 23.4473C39.3369 23.4471 41.2238 23.5476 42.2751 24.3509C42.5672 24.0124 47.281 18.6787 55.6687 17.0374L55.6647 17.0421L55.6875 17.0374C55.6875 17.0374 51.0483 22.5002 49.5942 25.2092C49.3358 25.2246 49.2981 30.3488 49.3411 35.4691C49.3829 40.4117 49.5002 45.3516 49.5683 45.6933C49.5683 45.6933 50.0633 46.4291 51.3239 46.4354C52.7457 46.4427 55.1417 45.5217 58.8982 41.5731C58.8982 41.5731 58.799 41.798 58.5996 42.1964C57.5232 44.3474 53.5232 51.5585 46.4178 55.7499L46.4174 55.7495L46.4168 55.7499L41.8082 51.852L41.6905 51.7537L36.664 57.0833L36.6564 57.0825L36.6558 57.0833C36.6558 57.0833 25.1968 56.1139 20.4106 49.2077L20.4334 49.216L20.4274 49.2077C20.4274 49.2077 21.1522 49.4898 21.9701 49.5052C22.9286 49.5227 23.935 49.1726 23.935 47.5712V31.3349C23.935 30.5058 23.3641 29.5757 22.1111 29.5792C20.9841 29.5821 19.3662 30.3404 17.157 32.6072C12.492 37.3929 10.5546 41.9372 10.5546 41.9372L10.5514 41.9199L10.5439 41.9372ZM35.9995 69.4641C44.9381 69.4641 53.3418 65.9832 59.6623 59.6627C65.9828 53.342 69.4638 44.9384 69.4638 35.9998C69.4638 27.0612 65.9828 18.6576 59.6623 12.3369C53.3418 6.01643 44.9381 2.53551 35.9995 2.53551C27.0608 2.53551 18.6571 6.01643 12.3366 12.3369C6.01607 18.6576 2.53516 27.0612 2.53516 35.9998C2.53516 44.9384 6.01607 53.342 12.3366 59.6627C18.6571 65.9832 27.0608 69.4641 35.9995 69.4641Z" fill="#394056"/>
<path d="M36 0.99501C55.3326 0.99501 71.0049 16.6673 71.0049 35.9997C71.0049 55.3325 55.3326 71.0047 36 71.0047C16.6674 71.0047 0.995128 55.3324 0.995128 35.9999C0.995128 16.6673 16.6674 0.99501 36 0.99501ZM36 72C45.616 72 54.6564 68.2553 61.4559 61.4557C68.2554 54.6562 72 45.6159 72 35.9999C72 26.3839 68.2554 17.3435 61.4559 10.5438C54.6564 3.74456 45.616 0 36 0C26.384 0 17.3436 3.74456 10.5441 10.5441C3.74456 17.3436 0 26.3841 0 36C0 45.616 3.74456 54.6564 10.5441 61.4559C17.3436 68.2554 26.384 72 36 72Z" fill="#394056"/>
</svg>
