<svg width="129" height="73" viewBox="0 0 129 73" fill="none" xmlns="http://www.w3.org/2000/svg">
<path d="M0.735 56.65C0.735 55.208 1.057 53.92 1.701 52.786C2.359 51.638 3.248 50.749 4.368 50.119C5.502 49.475 6.769 49.153 8.169 49.153C9.807 49.153 11.242 49.573 12.474 50.413C13.706 51.253 14.567 52.415 15.057 53.899H11.676C11.34 53.199 10.864 52.674 10.248 52.324C9.646 51.974 8.946 51.799 8.148 51.799C7.294 51.799 6.531 52.002 5.859 52.408C5.201 52.8 4.683 53.36 4.305 54.088C3.941 54.816 3.759 55.67 3.759 56.65C3.759 57.616 3.941 58.47 4.305 59.212C4.683 59.94 5.201 60.507 5.859 60.913C6.531 61.305 7.294 61.501 8.148 61.501C8.946 61.501 9.646 61.326 10.248 60.976C10.864 60.612 11.34 60.08 11.676 59.38H15.057C14.567 60.878 13.706 62.047 12.474 62.887C11.256 63.713 9.821 64.126 8.169 64.126C6.769 64.126 5.502 63.811 4.368 63.181C3.248 62.537 2.359 61.648 1.701 60.514C1.057 59.38 0.735 58.092 0.735 56.65ZM20.5081 48.46V64H17.5681V48.46H20.5081ZM28.5789 64.189C27.4589 64.189 26.4509 63.944 25.5549 63.454C24.6589 62.95 23.9519 62.243 23.4339 61.333C22.9299 60.423 22.6779 59.373 22.6779 58.183C22.6779 56.993 22.9369 55.943 23.4549 55.033C23.9869 54.123 24.7079 53.423 25.6179 52.933C26.5279 52.429 27.5429 52.177 28.6629 52.177C29.7829 52.177 30.7979 52.429 31.7079 52.933C32.6179 53.423 33.3319 54.123 33.8499 55.033C34.3819 55.943 34.6479 56.993 34.6479 58.183C34.6479 59.373 34.3749 60.423 33.8289 61.333C33.2969 62.243 32.5689 62.95 31.6449 63.454C30.7349 63.944 29.7129 64.189 28.5789 64.189ZM28.5789 61.627C29.1109 61.627 29.6079 61.501 30.0699 61.249C30.5459 60.983 30.9239 60.591 31.2039 60.073C31.4839 59.555 31.6239 58.925 31.6239 58.183C31.6239 57.077 31.3299 56.23 30.7419 55.642C30.1679 55.04 29.4609 54.739 28.6209 54.739C27.7809 54.739 27.0739 55.04 26.4999 55.642C25.9399 56.23 25.6599 57.077 25.6599 58.183C25.6599 59.289 25.9329 60.143 26.4789 60.745C27.0389 61.333 27.7389 61.627 28.5789 61.627ZM47.7875 52.366V64H44.8265V62.53C44.4485 63.034 43.9515 63.433 43.3355 63.727C42.7335 64.007 42.0755 64.147 41.3615 64.147C40.4515 64.147 39.6465 63.958 38.9465 63.58C38.2465 63.188 37.6935 62.621 37.2875 61.879C36.8955 61.123 36.6995 60.227 36.6995 59.191V52.366H39.6395V58.771C39.6395 59.695 39.8705 60.409 40.3325 60.913C40.7945 61.403 41.4245 61.648 42.2225 61.648C43.0345 61.648 43.6715 61.403 44.1335 60.913C44.5955 60.409 44.8265 59.695 44.8265 58.771V52.366H47.7875ZM49.9323 58.141C49.9323 56.965 50.1633 55.922 50.6253 55.012C51.1013 54.102 51.7453 53.402 52.5573 52.912C53.3693 52.422 54.2723 52.177 55.2663 52.177C56.0223 52.177 56.7433 52.345 57.4293 52.681C58.1153 53.003 58.6613 53.437 59.0673 53.983V48.46H62.0493V64H59.0673V62.278C58.7033 62.852 58.1923 63.314 57.5343 63.664C56.8763 64.014 56.1133 64.189 55.2453 64.189C54.2653 64.189 53.3693 63.937 52.5573 63.433C51.7453 62.929 51.1013 62.222 50.6253 61.312C50.1633 60.388 49.9323 59.331 49.9323 58.141ZM59.0883 58.183C59.0883 57.469 58.9483 56.86 58.6683 56.356C58.3883 55.838 58.0103 55.446 57.5343 55.18C57.0583 54.9 56.5473 54.76 56.0013 54.76C55.4553 54.76 54.9513 54.893 54.4893 55.159C54.0273 55.425 53.6493 55.817 53.3553 56.335C53.0753 56.839 52.9353 57.441 52.9353 58.141C52.9353 58.841 53.0753 59.457 53.3553 59.989C53.6493 60.507 54.0273 60.906 54.4893 61.186C54.9653 61.466 55.4693 61.606 56.0013 61.606C56.5473 61.606 57.0583 61.473 57.5343 61.207C58.0103 60.927 58.3883 60.535 58.6683 60.031C58.9483 59.513 59.0883 58.897 59.0883 58.183Z" fill="black"/>
<path d="M85.9056 49.342V64H82.9656V54.466L79.0386 64H76.8126L72.8646 54.466V64H69.9246V49.342H73.2636L77.9256 60.241L82.5876 49.342H85.9056ZM99.6273 57.931C99.6273 58.351 99.5993 58.729 99.5433 59.065H91.0383C91.1083 59.905 91.4023 60.563 91.9203 61.039C92.4383 61.515 93.0753 61.753 93.8313 61.753C94.9233 61.753 95.7003 61.284 96.1623 60.346H99.3333C98.9973 61.466 98.3533 62.39 97.4013 63.118C96.4493 63.832 95.2803 64.189 93.8943 64.189C92.7743 64.189 91.7663 63.944 90.8703 63.454C89.9883 62.95 89.2953 62.243 88.7913 61.333C88.3013 60.423 88.0563 59.373 88.0563 58.183C88.0563 56.979 88.3013 55.922 88.7913 55.012C89.2813 54.102 89.9673 53.402 90.8493 52.912C91.7313 52.422 92.7463 52.177 93.8943 52.177C95.0003 52.177 95.9873 52.415 96.8553 52.891C97.7373 53.367 98.4163 54.046 98.8923 54.928C99.3823 55.796 99.6273 56.797 99.6273 57.931ZM96.5823 57.091C96.5683 56.335 96.2953 55.733 95.7633 55.285C95.2313 54.823 94.5803 54.592 93.8103 54.592C93.0823 54.592 92.4663 54.816 91.9623 55.264C91.4723 55.698 91.1713 56.307 91.0593 57.091H96.5823ZM108.22 52.198C109.606 52.198 110.726 52.639 111.58 53.521C112.434 54.389 112.861 55.607 112.861 57.175V64H109.921V57.574C109.921 56.65 109.69 55.943 109.228 55.453C108.766 54.949 108.136 54.697 107.338 54.697C106.526 54.697 105.882 54.949 105.406 55.453C104.944 55.943 104.713 56.65 104.713 57.574V64H101.773V52.366H104.713V53.815C105.105 53.311 105.602 52.919 106.204 52.639C106.82 52.345 107.492 52.198 108.22 52.198ZM126.64 52.366V64H123.679V62.53C123.301 63.034 122.804 63.433 122.188 63.727C121.586 64.007 120.928 64.147 120.214 64.147C119.304 64.147 118.499 63.958 117.799 63.58C117.099 63.188 116.546 62.621 116.14 61.879C115.748 61.123 115.552 60.227 115.552 59.191V52.366H118.492V58.771C118.492 59.695 118.723 60.409 119.185 60.913C119.647 61.403 120.277 61.648 121.075 61.648C121.887 61.648 122.524 61.403 122.986 60.913C123.448 60.409 123.679 59.695 123.679 58.771V52.366H126.64Z" fill="#DA3643"/>
<path d="M40.05 22.5C40.05 20.44 40.51 18.6 41.43 16.98C42.37 15.34 43.64 14.07 45.24 13.17C46.86 12.25 48.67 11.79 50.67 11.79C53.01 11.79 55.06 12.39 56.82 13.59C58.58 14.79 59.81 16.45 60.51 18.57H55.68C55.2 17.57 54.52 16.82 53.64 16.32C52.78 15.82 51.78 15.57 50.64 15.57C49.42 15.57 48.33 15.86 47.37 16.44C46.43 17 45.69 17.8 45.15 18.84C44.63 19.88 44.37 21.1 44.37 22.5C44.37 23.88 44.63 25.1 45.15 26.16C45.69 27.2 46.43 28.01 47.37 28.59C48.33 29.15 49.42 29.43 50.64 29.43C51.78 29.43 52.78 29.18 53.64 28.68C54.52 28.16 55.2 27.4 55.68 26.4H60.51C59.81 28.54 58.58 30.21 56.82 31.41C55.08 32.59 53.03 33.18 50.67 33.18C48.67 33.18 46.86 32.73 45.24 31.83C43.64 30.91 42.37 29.64 41.43 28.02C40.51 26.4 40.05 24.56 40.05 22.5Z" fill="black"/>
<path d="M86.9273 12.06V33H82.7273V19.38L77.1173 33H73.9373L68.2973 19.38V33H64.0973V12.06H68.8673L75.5273 27.63L82.1873 12.06H86.9273Z" fill="#DA3643"/>
</svg>
