<svg width="77" height="65" viewBox="0 0 77 65" fill="none" xmlns="http://www.w3.org/2000/svg">
<circle cx="47" cy="33" r="30" fill="#E0F9FF"/>
<path d="M34.5083 64.8622H5.49406C2.46086 64.8596 0.00261935 62.4014 0 59.3682V5.49406C0.00261935 2.46086 2.46086 0.00261935 5.49406 0H34.5083C37.5406 0.00392838 39.9974 2.46179 40 5.49406V59.3682C40.0012 60.0166 39.887 60.66 39.6627 61.2684C38.8622 63.4241 36.8078 64.8565 34.5083 64.8622ZM5.49406 2.22328C3.68874 2.22589 2.22589 3.68874 2.22328 5.49406V59.3682C2.22589 61.1735 3.68874 62.6363 5.49406 62.6389H34.5083C35.3762 62.6402 36.2088 62.296 36.8225 61.6823C37.4362 61.0687 37.7804 60.236 37.7791 59.3682V5.49406C37.7778 3.6882 36.3142 2.22459 34.5083 2.22328H5.49406Z" fill="#3D3D3D"/>
<path d="M38.8735 25.4323H2.12531C1.51137 25.4323 1.01367 24.9346 1.01367 24.3206C1.01367 23.7067 1.51137 23.209 2.12531 23.209H38.8735C39.4875 23.209 39.9852 23.7067 39.9852 24.3206C39.9852 24.9346 39.4875 25.4323 38.8735 25.4323Z" fill="#3D3D3D"/>
<path d="M5.63898 38.1922C5.02504 38.1922 4.52734 37.6945 4.52734 37.0806V31.3514C4.52734 30.7374 5.02504 30.2397 5.63898 30.2397C6.25292 30.2397 6.75062 30.7374 6.75062 31.3514V37.0711C6.75316 37.3676 6.63716 37.6528 6.42841 37.8633C6.21966 38.0738 5.93546 38.1922 5.63898 38.1922Z" fill="#3D3D3D"/>
<path d="M5.63898 16.4061C5.34416 16.4061 5.06141 16.289 4.85294 16.0805C4.64446 15.8721 4.52734 15.5893 4.52734 15.2945V9.57477C4.52734 8.96083 5.02504 8.46313 5.63898 8.46313C6.25292 8.46313 6.75062 8.96083 6.75062 9.57477V15.304C6.74541 15.9142 6.24923 16.4061 5.63898 16.4061Z" fill="#3D3D3D"/>
<path d="M27.3437 11.0832C27.0831 11.073 26.8367 10.9613 26.6573 10.772C25.5794 9.69435 24.253 8.89822 22.795 8.45375C19.4553 7.41785 15.8165 8.31156 13.3366 10.7768C13.1617 10.9602 12.9208 11.0661 12.6675 11.071C12.4141 11.0759 12.1693 10.9794 11.9874 10.8029C11.8071 10.6216 11.7075 10.3753 11.711 10.1196C11.7146 9.86389 11.8211 9.62043 12.0064 9.44424C13.6689 7.75269 15.8366 6.64799 18.1822 6.29698C21.9566 5.73403 25.2368 6.78866 27.9946 9.43474C28.2471 9.67254 28.35 10.0291 28.263 10.3649C28.176 10.7007 27.9128 10.9624 27.5765 11.0476C27.4997 11.0643 27.422 11.0762 27.3437 11.0832Z" fill="#3D3D3D"/>
<path d="M20.1893 9.5724C22.2094 9.60797 24.1364 10.4283 25.5622 11.8598C25.8587 12.0815 25.9994 12.4553 25.9227 12.8175C25.846 13.1798 25.5659 13.4644 25.205 13.5469C24.844 13.6294 24.468 13.4948 24.2416 13.2019C22.9939 11.9488 21.2515 11.3189 19.491 11.4845C18.0785 11.5858 16.7505 12.195 15.7523 13.1995C15.5318 13.4988 15.1571 13.642 14.7932 13.5661C14.4294 13.4902 14.1432 13.2091 14.0608 12.8466C13.9784 12.4842 14.1149 12.1069 14.4102 11.8812C15.3946 10.895 16.6247 10.1897 17.9732 9.83843C18.697 9.6528 19.4421 9.56335 20.1893 9.5724Z" fill="#3D3D3D"/>
<path d="M19.9897 12.9429C21.1954 12.9371 22.3527 13.4165 23.2011 14.2731C23.5063 14.4924 23.6535 14.871 23.5767 15.2389C23.4998 15.6068 23.2134 15.8948 22.8459 15.9736C22.4785 16.0524 22.0991 15.9072 21.8781 15.6033C20.843 14.5774 19.1762 14.5721 18.1346 15.5914C17.9646 15.7647 17.7358 15.8681 17.4933 15.8812C17.1076 15.8924 16.7534 15.6692 16.5971 15.3164C16.4408 14.9636 16.5133 14.5513 16.7807 14.2731C17.6301 13.4193 18.7854 12.9404 19.9897 12.9429Z" fill="#3D3D3D"/>
<path d="M19.9945 16.259C20.6754 16.2578 21.229 16.8078 21.232 17.4887C21.235 18.1696 20.6864 18.7245 20.0055 18.7293C19.3246 18.7341 18.7683 18.1869 18.7618 17.5061C18.7592 17.177 18.8878 16.8605 19.1192 16.6265C19.3505 16.3925 19.6655 16.2603 19.9945 16.259Z" fill="#3D3D3D"/>
</svg>
