<svg width="123" height="112" viewBox="0 0 123 112" fill="none" xmlns="http://www.w3.org/2000/svg">
<path d="M75.5199 25.0837C79.4572 25.2803 83.3908 25.5434 87.3257 25.7877C88.2145 25.8427 89.1048 25.9132 89.9873 26.0299C91.9212 26.2864 93.1367 27.4609 93.3823 29.426C93.8632 33.2763 93.1117 36.8525 90.7583 40.0009C89.2546 42.013 86.666 42.4816 84.0983 41.063C81.9579 39.8807 79.9293 38.4935 77.8668 37.1725C73.8861 34.6231 69.8935 32.0905 65.9518 29.4819C64.0281 28.2093 62.2114 26.7743 60.3355 25.4291C59.7618 25.0177 59.0994 24.7303 58.5234 24.3223C64.1887 24.5751 69.8559 24.8011 75.5199 25.0837Z" fill="#5B49CD"/>
<path d="M51.5475 24.8403C50.7168 25.5088 49.9307 26.2539 49.0398 26.8396C42.7598 30.9702 36.4603 35.0719 30.1608 39.1729C29.0201 39.9155 27.8845 40.6768 26.6865 41.3169C24.1401 42.6769 21.9423 42.0867 20.4095 39.9108C18.6297 37.3835 17.6062 34.6287 17.3553 31.5505C17.1098 28.5371 18.8237 26.2783 21.8114 26.0157C25.5997 25.683 29.398 25.4584 33.1943 25.2167C37.8078 24.9228 42.421 24.6014 47.0395 24.4173C48.5425 24.3573 50.0615 24.6896 51.5475 24.8403Z" fill="#5B49CD"/>
<path d="M46.7705 42.3887C45.2074 45.9558 43.6579 49.5308 41.9962 53.0521C41.3923 54.3322 40.5757 55.542 39.6904 56.6516C38.4193 58.2437 36.6665 58.4078 34.8273 57.8315C32.6112 57.1369 30.8039 55.7816 29.3216 54.0418C28.4235 52.9881 27.6131 51.8269 26.9496 50.6119C25.9092 48.7071 26.3529 46.9596 28.099 45.6439C31.5515 43.0424 35.0227 40.4654 38.4936 37.8883C42.0236 35.2677 45.5389 32.626 49.1118 30.0651C50.3495 29.1781 51.7926 28.5779 53.1084 27.7998C50.9964 32.6629 48.8987 37.5323 46.7705 42.3887Z" fill="#5B49CD"/>
<path d="M66.8812 33.2162C69.3301 34.9439 71.772 36.6832 74.1795 38.4681C77.2704 40.7597 80.3361 43.0859 83.3871 45.4305C84.6219 46.3793 85.1295 48.3201 84.4483 49.7262C82.8045 53.1192 80.3906 55.7856 76.8234 57.2249C73.7995 58.4461 71.756 57.4005 70.339 54.8182C68.7646 51.9496 67.5024 48.9076 66.1461 45.9217C64.4927 42.2818 62.8543 38.6346 61.2645 34.9667C60.1339 32.3582 59.1212 29.6985 58.0391 27.0693C60.9858 29.1194 63.9479 31.1472 66.8812 33.2162Z" fill="#5B49CD"/>
<path d="M53.8577 29.8221C54.1018 27.7431 54.5025 25.5866 53.3903 23.5946C53.0945 23.0643 52.7023 22.5795 52.3056 22.1148C50.373 19.8498 51.3406 16.2652 54.1587 15.2973C55.9803 14.6716 58.0406 15.1333 59.1433 16.4147C60.3912 17.865 60.576 19.7257 59.6329 21.5736C59.339 22.1494 59.0775 22.7718 58.6602 23.2503C57.236 24.884 57.1209 26.7889 57.4523 28.769C57.7516 30.5569 58.1988 32.3197 58.5184 34.1044C58.8713 36.0763 59.0173 38.0699 58.3006 39.9922C57.9481 40.9381 57.3199 41.7237 56.2039 41.8834C54.7929 42.0853 53.9128 41.5784 53.3988 40.2389C53.2032 39.7296 53.0411 39.1979 52.9471 38.6611C52.8349 38.0225 52.813 37.3676 52.7515 36.7203C52.7089 36.7085 53.5873 32.1265 53.8577 29.8221Z" fill="#5B49CD"/>
<path d="M73.3709 74.7369C73.3155 74.5158 73.4661 74.2957 73.6881 74.2435C73.8739 74.1996 74.0517 74.1632 74.2205 74.1874C76.8406 74.5617 79.4066 75.114 81.6409 76.6499C82.3279 77.1221 82.643 77.7814 82.4158 78.5975C82.1751 79.4626 81.3102 79.5151 80.7215 79.4316C77.6196 78.991 75.2548 77.2926 73.4078 74.8199C73.3902 74.7971 73.3791 74.7695 73.3709 74.7369Z" fill="#5B49CD"/>
<path d="M58.2267 45.7278C58.1536 47.2371 57.5412 48.2924 56.5918 48.4278C55.7255 48.5515 54.9122 47.6691 54.682 46.1524C54.5748 45.4442 54.6401 44.6776 54.7873 43.9711C54.9268 43.301 55.2619 42.6833 56.1394 42.672C56.9932 42.6616 57.4799 43.1773 57.7623 43.8538C58.0073 44.4404 58.0785 45.1 58.2267 45.7278Z" fill="#5B49CD"/>
<path d="M64.1888 12.7479C63.8027 12.6378 63.2708 12.0846 63.287 11.7591C63.307 11.3524 63.7765 10.9131 64.1453 10.5978C64.375 10.402 64.778 10.408 65.2208 10.2926C64.7723 9.07217 63.8904 8.67214 62.8771 8.54356C61.718 8.39618 60.5924 8.69737 60.0342 9.75529C59.3419 11.0695 58.8728 12.5038 58.3433 13.9005C58.2577 14.127 58.2081 14.3745 58.0832 14.5286C57.8836 14.4202 57.6729 14.3275 57.4531 14.2511C57.9716 12.2071 58.4174 10.152 60.1505 8.64552C61.8917 7.13172 65.4221 8.04818 66.0689 10.2293C66.5286 11.7786 65.5486 13.1366 64.1888 12.7479Z" fill="#5B49CD"/>
<path d="M54.3782 14.1877C54.3053 14.2085 54.2334 14.2318 54.161 14.2563C54.0423 14.2972 53.9268 14.343 53.8141 14.3925C53.721 14.2894 53.6385 14.1808 53.5891 14.06C53.1014 12.8589 52.7714 11.5805 52.1764 10.4391C51.0012 8.18701 48.0364 8.08539 46.5517 10.362C46.9437 10.4567 47.2767 10.4539 47.5008 10.6093C47.9169 10.8972 48.4392 11.2179 48.5866 11.6402C48.6908 11.9379 48.3221 12.6886 48.032 12.7712C47.5193 12.9179 46.7582 12.9068 46.3604 12.6115C45.1024 11.6776 45.496 9.53585 47.129 8.70953C49.7515 7.38069 51.9483 7.9568 53.2674 10.9903C53.7154 12.0221 54.026 13.1142 54.3782 14.1877Z" fill="#5B49CD"/>
<path d="M58.8716 51.7155C59.26 52.5837 59.1377 53.6082 58.5234 54.3345C58.3665 54.5203 58.1979 54.6644 58.0028 54.7345C57.1419 55.0427 56.511 54.2914 56.1783 53.4767C55.7859 52.5166 55.5407 51.5408 55.9957 50.5109C56.4095 49.5732 57.4205 49.307 58.0176 50.1324C58.3583 50.6036 58.6127 51.1371 58.8716 51.7155Z" fill="#5B49CD"/>
<path d="M61.1163 58.5668C61.427 59.1806 61.3922 59.9224 60.9959 60.4844C60.8944 60.6288 60.7852 60.739 60.6531 60.7943C60.2882 60.9466 59.4953 60.7882 59.3008 60.4947C58.7984 59.7354 58.4184 58.8516 58.2054 57.966C58.1151 57.5905 58.4784 56.8078 58.7936 56.7079C59.2047 56.5776 59.9569 56.7885 60.2348 57.1241C60.5891 57.552 60.8556 58.0523 61.1163 58.5668Z" fill="#5B49CD"/>
<path d="M61.2539 63.3931C61.4004 62.896 61.5711 62.3726 62.3971 62.5732C63.4451 62.8273 64.3793 64.0124 64.3061 65.0776C64.2556 65.8149 63.6746 66.1994 62.9431 65.9798C62.1119 65.7301 61.2482 64.4592 61.2539 63.3931Z" fill="#5B49CD"/>
<path d="M64.5524 67.9459C64.4341 67.5518 64.578 67.116 64.9291 66.9012C65.0043 66.8555 65.0824 66.824 65.163 66.8193C65.9914 66.7775 67.2999 68.148 67.1722 68.9292C67.1245 69.2207 66.7248 69.6324 66.4398 69.6741C65.7471 69.7747 64.8451 68.9231 64.5524 67.9459Z" fill="#5B49CD"/>
<path d="M68.3973 71.1397C68.6332 70.7822 69.1023 70.6703 69.4963 70.8384C70.1552 71.1188 70.7454 71.7534 70.6803 72.2152C70.6443 72.4713 70.3515 72.8268 70.1103 72.8909C69.5674 73.0342 68.2129 71.8509 68.314 71.3318C68.327 71.2641 68.3573 71.2003 68.3973 71.1397Z" fill="#5B49CD"/>
<path d="M0.945 107V96.095H7.26C8.03 96.095 8.74 96.225 9.39 96.485C10.04 96.745 10.6 97.11 11.07 97.58C11.54 98.05 11.905 98.615 12.165 99.275C12.435 99.925 12.57 100.645 12.57 101.435C12.57 102.225 12.435 102.96 12.165 103.64C11.905 104.32 11.54 104.91 11.07 105.41C10.6 105.9 10.04 106.29 9.39 106.58C8.74 106.86 8.03 107 7.26 107H0.945ZM7.26 105.095C7.75 105.095 8.2 105.005 8.61 104.825C9.03 104.645 9.39 104.4 9.69 104.09C10 103.77 10.24 103.39 10.41 102.95C10.58 102.51 10.665 102.035 10.665 101.525C10.665 101.015 10.58 100.545 10.41 100.115C10.24 99.675 10 99.3 9.69 98.99C9.39 98.68 9.03 98.44 8.61 98.27C8.2 98.09 7.75 98 7.26 98H2.835V105.095H7.26ZM25.2536 107L22.4936 103.97H18.4136V102.29H22.9586C23.6486 102.29 24.1686 102.105 24.5186 101.735C24.8686 101.355 25.0436 100.81 25.0436 100.1C25.0436 99.39 24.8586 98.865 24.4886 98.525C24.1286 98.175 23.6186 98 22.9586 98H17.0186V107H15.1286V96.095H22.9586C23.5786 96.095 24.1336 96.19 24.6236 96.38C25.1136 96.56 25.5286 96.825 25.8686 97.175C26.2086 97.515 26.4686 97.93 26.6486 98.42C26.8286 98.91 26.9186 99.46 26.9186 100.07C26.9186 100.98 26.7186 101.745 26.3186 102.365C25.9286 102.975 25.3786 103.415 24.6686 103.685L27.9536 107H25.2536ZM41.3121 107L39.6771 104.255H34.5171L35.4171 102.71H38.7621L36.3321 98.63L31.3821 107H29.2071L35.4771 96.56C35.5871 96.37 35.7171 96.22 35.8671 96.11C36.0171 96 36.1971 95.945 36.4071 95.945C36.6171 95.945 36.7921 96 36.9321 96.11C37.0821 96.22 37.2121 96.37 37.3221 96.56L43.6071 107H41.3121ZM49.3107 107C48.5507 107 47.8457 106.86 47.1957 106.58C46.5557 106.29 45.9957 105.9 45.5157 105.41C45.0457 104.91 44.6757 104.32 44.4057 103.64C44.1457 102.96 44.0157 102.225 44.0157 101.435C44.0157 100.635 44.1457 99.905 44.4057 99.245C44.6757 98.585 45.0457 98.025 45.5157 97.565C45.9957 97.095 46.5557 96.735 47.1957 96.485C47.8457 96.225 48.5507 96.095 49.3107 96.095H55.2207V98H49.3107C48.8207 98 48.3657 98.09 47.9457 98.27C47.5357 98.44 47.1807 98.68 46.8807 98.99C46.5807 99.3 46.3457 99.67 46.1757 100.1C46.0057 100.53 45.9207 101.005 45.9207 101.525C45.9207 102.035 46.0057 102.51 46.1757 102.95C46.3457 103.39 46.5807 103.77 46.8807 104.09C47.1807 104.4 47.5357 104.645 47.9457 104.825C48.3657 105.005 48.8207 105.095 49.3107 105.095H53.9757V102.26H49.0557V100.655H55.8957V107H49.3107ZM63.6262 107C62.8662 107 62.1612 106.86 61.5112 106.58C60.8712 106.29 60.3112 105.9 59.8312 105.41C59.3612 104.91 58.9912 104.32 58.7212 103.64C58.4612 102.96 58.3312 102.225 58.3312 101.435C58.3312 100.635 58.4612 99.905 58.7212 99.245C58.9912 98.585 59.3612 98.025 59.8312 97.565C60.3112 97.095 60.8712 96.735 61.5112 96.485C62.1612 96.225 62.8662 96.095 63.6262 96.095H66.2812C67.0712 96.095 67.7912 96.225 68.4412 96.485C69.1012 96.745 69.6662 97.11 70.1362 97.58C70.6062 98.05 70.9712 98.615 71.2312 99.275C71.4912 99.925 71.6212 100.645 71.6212 101.435C71.6212 102.225 71.4862 102.96 71.2162 103.64C70.9562 104.32 70.5862 104.91 70.1062 105.41C69.6362 105.9 69.0762 106.29 68.4262 106.58C67.7762 106.86 67.0612 107 66.2812 107H63.6262ZM66.2812 105.095C66.7812 105.095 67.2412 105.005 67.6612 104.825C68.0812 104.645 68.4412 104.4 68.7412 104.09C69.0512 103.77 69.2912 103.39 69.4612 102.95C69.6312 102.51 69.7162 102.035 69.7162 101.525C69.7162 101.015 69.6312 100.545 69.4612 100.115C69.2912 99.675 69.0512 99.3 68.7412 98.99C68.4412 98.68 68.0812 98.44 67.6612 98.27C67.2412 98.09 66.7812 98 66.2812 98H63.6262C63.1362 98 62.6812 98.09 62.2612 98.27C61.8512 98.44 61.4962 98.68 61.1962 98.99C60.8962 99.3 60.6612 99.67 60.4912 100.1C60.3212 100.53 60.2362 101.005 60.2362 101.525C60.2362 102.035 60.3212 102.51 60.4912 102.95C60.6612 103.39 60.8962 103.77 61.1962 104.09C61.4962 104.4 61.8512 104.645 62.2612 104.825C62.6812 105.005 63.1362 105.095 63.6262 105.095H66.2812ZM75.9328 99.02V107H74.1178V97.1C74.1178 96.75 74.2028 96.475 74.3728 96.275C74.5528 96.065 74.7928 95.96 75.0928 95.96C75.2328 95.96 75.3678 95.99 75.4978 96.05C75.6278 96.11 75.7628 96.21 75.9028 96.35L83.5978 103.985V96.005H85.4128V105.995C85.4128 106.355 85.3228 106.635 85.1428 106.835C84.9728 107.035 84.7478 107.135 84.4678 107.135C84.1578 107.135 83.8678 107 83.5978 106.73L75.9328 99.02ZM88.2585 107V96.095H97.5135V98H90.1485V107H88.2585ZM91.5435 102.485V100.82H97.0635V102.485H91.5435ZM99.8346 107V96.095H101.74V105.095H109.075V107H99.8346ZM114.18 107V102.86L108.39 96.095H110.955L115.2 101.12L119.46 96.095H121.89L116.085 102.86V107H114.18Z" fill="#5B49CD"/>
</svg>
