<svg width="92" height="61" viewBox="0 0 92 61" fill="none" xmlns="http://www.w3.org/2000/svg">
<circle cx="61.334" cy="30" r="30" fill="#E0F9FF"/>
<rect x="1" y="1" width="60" height="48.8" rx="4.8" stroke="#3D3D3D" stroke-width="1.6"/>
<path d="M1 39.3999H61V44.9999C61 47.6509 58.851 49.7999 56.2 49.7999H5.8C3.14903 49.7999 1 47.6509 1 44.9999V39.3999Z" stroke="#3D3D3D" stroke-width="1.6"/>
<path d="M1 5.8C1 3.14903 3.14903 1 5.8 1H56.2C58.851 1 61 3.14903 61 5.8V10.6H1V5.8Z" stroke="#3D3D3D" stroke-width="1.6"/>
<path d="M22.5593 24.9288C22.5593 24.0307 22.3824 23.1413 22.0387 22.3116C21.695 21.4818 21.1912 20.7278 20.5561 20.0928C19.921 19.4577 19.1671 18.9539 18.3373 18.6102C17.5075 18.2665 16.6182 18.0896 15.7201 18.0896L15.7201 24.9288H22.5593Z" fill="#3D3D3D"/>
<path d="M11.1894 31.1894C12.1943 31.9746 13.3987 32.4631 14.6666 32.5998C15.9345 32.7366 17.2154 32.5161 18.3646 31.9633C19.5138 31.4106 20.4856 30.5475 21.1702 29.4716C21.8548 28.3957 22.2249 27.1498 22.2388 25.8746L15.4 25.8001L11.1894 31.1894Z" fill="#3D3D3D"/>
<mask id="path-7-inside-1_1900:2699" fill="white">
<path d="M14.5306 18.0897C13.1186 18.0897 11.7412 18.5267 10.5875 19.3408C9.43383 20.1548 8.56038 21.306 8.08708 22.6364C7.61377 23.9667 7.56382 25.4109 7.94408 26.7707C8.32434 28.1305 9.11617 29.3393 10.2109 30.2312L14.5306 24.9289V18.0897Z"/>
</mask>
<path d="M14.5306 18.0897C13.1186 18.0897 11.7412 18.5267 10.5875 19.3408C9.43383 20.1548 8.56038 21.306 8.08708 22.6364C7.61377 23.9667 7.56382 25.4109 7.94408 26.7707C8.32434 28.1305 9.11617 29.3393 10.2109 30.2312L14.5306 24.9289V18.0897Z" stroke="#3D3D3D" stroke-width="1.18943" mask="url(#path-7-inside-1_1900:2699)"/>
<rect x="31.4004" y="21" width="3.2" height="14.4" rx="1.6" fill="#3D3D3D"/>
<rect x="37.8008" y="14.6001" width="3.2" height="20.8" rx="1.6" fill="#3D3D3D"/>
<rect x="44.1992" y="27.3999" width="3.2" height="8" rx="1.6" fill="#3D3D3D"/>
<rect x="50.5996" y="21.8" width="3.2" height="13.6" rx="1.6" fill="#3D3D3D"/>
<path d="M24.1996 49.8L22.5996 56.2" stroke="#3D3D3D" stroke-width="1.6"/>
<path d="M35.4004 49.8L37.8004 56.2" stroke="#3D3D3D" stroke-width="1.6"/>
<rect x="15.3996" y="56.1999" width="28.8" height="4" rx="2" stroke="#3D3D3D" stroke-width="1.6"/>
</svg>
