<svg width="91" height="64" viewBox="0 0 91 64" fill="none" xmlns="http://www.w3.org/2000/svg">
<path fill-rule="evenodd" clip-rule="evenodd" d="M42.1581 6.26294C42.8886 5.19603 44.0618 4.70481 45.1138 4.09703C48.5536 2.10978 52.2627 0.798936 56.1977 0.283288C60.3402 -0.259961 64.4602 -0.0387821 68.5182 1.09341C72.2982 2.1482 75.7791 3.82009 78.8579 6.2193C81.8736 8.56928 84.4701 11.3293 86.4941 14.6314C88.5 17.9037 89.8207 21.4049 90.5061 25.1532C91.0079 27.897 91.1264 30.6532 90.8636 33.4562C90.485 37.4959 89.3676 41.2865 87.512 44.8638C86.2683 47.2615 84.7003 49.4289 82.8454 51.4231C79.1743 55.37 74.8017 58.1478 69.7026 59.8359C65.79 61.1311 61.7451 61.5162 57.6913 61.1613C52.3075 60.6908 47.3127 58.9428 42.8889 55.734C42.4406 55.4092 41.8938 55.2189 41.5938 54.7091C41.9347 54.6971 42.2752 54.6748 42.6159 54.6748C46.9022 54.6725 51.1887 54.6759 55.475 54.671C56.4968 54.6703 56.8297 54.395 56.8303 53.457C56.8381 38.1444 56.8355 22.8312 56.8374 7.5184C56.8374 6.66091 56.4323 6.30863 55.5683 6.31329C51.6238 6.33455 47.679 6.32504 43.7343 6.31982C43.2089 6.32001 42.6834 6.28308 42.1581 6.26294Z" fill="#E0F3FA"/>
<path fill-rule="evenodd" clip-rule="evenodd" d="M42.1587 6.26294C42.6841 6.28289 43.2096 6.32001 43.7349 6.32056C47.6796 6.3256 51.6245 6.3353 55.5689 6.31404C56.4329 6.30937 56.838 6.66166 56.838 7.51914C56.8361 22.8319 56.8387 38.1449 56.8309 53.4577C56.8304 54.3956 56.4975 54.671 55.4757 54.6718C51.1894 54.6764 46.9029 54.6733 42.6166 54.6755C42.2758 54.6755 41.9353 54.6977 41.5944 54.7098C41.0498 54.5634 41.0663 54.9138 41.069 55.2835C41.0771 56.433 41.0842 57.5829 41.0692 58.7324C41.0375 61.1594 39.2015 63.081 36.7777 63.0967C31.1846 63.1327 25.5912 63.1306 19.9978 63.0982C17.6275 63.0844 15.7654 61.1408 15.6951 58.7087C15.6652 57.6842 15.6393 56.6547 15.7064 55.6339C15.7557 54.8806 15.5692 54.6438 14.7633 54.6526C10.4136 54.6977 6.06297 54.674 1.71269 54.674C0.114086 54.6736 0.000139868 54.5632 0.000139868 53.0079C-4.66228e-05 38.0302 -4.66228e-05 23.0529 0.000139868 8.07526C0.000139868 6.36793 0.0407948 6.32616 1.70709 6.32616C14.7581 6.32597 27.8091 6.32672 40.8602 6.32336C41.293 6.32318 41.7259 6.28401 42.1587 6.26294ZM29.8393 29.0712C26.585 28.9438 23.3298 29.0037 20.0754 29.0432C19.1185 29.0548 18.3581 29.5206 17.8542 30.3615C17.5939 30.7964 17.6155 31.0131 18.2179 31.0092C22.0331 30.9844 25.8486 30.9825 29.664 30.9728C32.8107 30.9728 35.9573 30.9728 39.1154 30.9728C38.7664 29.7713 37.9847 29.0667 36.7018 29.0402C34.4154 28.9929 32.127 29.0548 29.8393 29.0712ZM39.3612 8.11424C39.2066 8.10398 39.052 8.08496 38.8974 8.08496C26.8153 8.08347 14.7335 8.08365 2.65167 8.08347C2.55843 8.08347 2.46388 8.0941 2.37231 8.08197C1.91522 8.02211 1.783 8.23807 1.79083 8.67091C1.81097 9.78855 1.84715 10.9099 1.78038 12.0242C1.73115 12.8474 1.94412 13.1122 2.8294 13.1088C12.1471 13.0727 21.4647 13.0881 30.7824 13.0848C32.3344 13.0842 33.8865 13.0626 35.4387 13.0507C41.7654 13.0626 48.0921 13.0691 54.4186 13.0977C54.93 13.0999 55.0402 12.9184 55.0303 12.4531C55.0039 11.213 55.007 9.9715 55.0288 8.73134C55.0369 8.28618 54.9638 8.06855 54.4334 8.07172C49.4093 8.10118 44.385 8.10398 39.3612 8.11424ZM17.5635 55.0632C17.546 55.1911 17.6071 55.226 17.722 55.1977C24.1685 55.2079 30.6151 55.2191 37.0615 55.2279C39.4535 55.2312 39.4535 55.2283 39.2854 52.8134C39.2992 48.2203 39.3147 43.6272 39.3263 39.0341C39.3309 37.2024 39.3157 35.3709 39.3347 33.5395C39.3393 33.0641 39.2743 32.7986 38.6933 32.8062C35.746 32.8452 32.7983 32.8482 29.8507 32.8635C25.9088 32.8478 21.9668 32.8409 18.0249 32.8088C17.3091 32.8031 17.523 33.295 17.5225 33.643C17.5124 38.611 17.5109 43.5795 17.518 48.5474C17.5206 50.7193 17.5475 52.8911 17.5635 55.0632ZM33.9598 14.9346C33.8371 14.9182 33.7148 14.8872 33.5921 14.8872C23.2435 14.8844 12.8951 14.89 2.54649 14.8704C1.90347 14.8693 1.78617 15.105 1.78673 15.6796C1.79997 27.7993 1.80202 39.919 1.78244 52.0391C1.78132 52.6937 1.96091 52.8676 2.60971 52.863C6.68063 52.8343 10.7519 52.8236 14.8225 52.8699C15.6152 52.879 15.7044 52.5905 15.7023 51.9203C15.6813 45.27 15.6829 38.6197 15.6924 31.9694C15.6965 29.1217 17.5801 27.2667 20.431 27.2576C23.631 27.2473 26.8308 27.2342 30.031 27.2225C32.1117 27.2344 34.1922 27.2514 36.2729 27.2576C39.284 27.2663 41.0696 29.0466 41.0707 32.0599C41.0728 38.646 41.0911 45.2327 41.048 51.8185C41.0422 52.7108 41.3206 52.8736 42.136 52.8656C46.1433 52.8266 50.1512 52.8313 54.1589 52.8637C54.8358 52.8695 55.041 52.7278 55.0397 52.0085C55.0145 39.9233 55.0124 27.8381 55.0423 15.7529C55.0441 14.9553 54.7487 14.8712 54.0859 14.8732C47.624 14.8926 41.1619 14.8844 34.7 14.8869C34.4531 14.887 34.2064 14.918 33.9598 14.9346ZM28.4518 56.9802C25.0659 56.9802 21.6797 56.9755 18.294 56.9885C18.0046 56.9897 17.5689 56.7864 17.5165 57.363C17.3076 59.6662 17.9729 61.3759 20.7236 61.3523C25.7555 61.309 30.788 61.3399 35.8203 61.3399C38.4345 61.3399 39.3282 60.4071 39.3466 57.8115C39.352 57.0557 39.0656 56.9624 38.4227 56.9677C35.0993 56.9947 31.7754 56.9802 28.4518 56.9802Z" fill="#424242"/>
<path fill-rule="evenodd" clip-rule="evenodd" d="M30.0312 27.2226C30.1804 24.232 31.1148 21.444 32.1729 18.6766C32.6705 17.3757 33.5164 16.2535 33.9599 14.9347C34.2066 14.9181 34.4533 14.8871 34.6999 14.8869C41.1618 14.8843 47.6239 14.8925 54.0858 14.8733C54.7486 14.8713 55.044 14.9554 55.0421 15.753C55.0125 27.8382 55.0145 39.9234 55.0395 52.0086C55.041 52.7279 54.8357 52.8696 54.1587 52.8638C50.1512 52.8314 46.1433 52.8267 42.1358 52.8657C41.3205 52.8737 41.0421 52.7109 41.0478 51.8185C41.0909 45.2328 41.0726 38.6461 41.0706 32.06C41.0695 29.0467 39.284 27.2664 36.2727 27.2576C34.1924 27.2517 32.1119 27.2347 30.0312 27.2226Z" fill="#E0F3FA"/>
<path fill-rule="evenodd" clip-rule="evenodd" d="M30.4077 36.7532C30.136 35.4688 29.9032 34.1791 29.8516 32.8636C32.7992 32.8483 35.7469 32.8453 38.6942 32.8063C39.2751 32.7987 39.3404 33.0642 39.3356 33.5396C39.3165 35.3709 39.3318 37.2025 39.3272 39.0342C39.3156 43.6273 39.3001 48.2204 39.2863 52.8135C36.2478 49.8956 33.8331 46.5442 32.2107 42.6406C32.1051 42.386 32.0046 42.1167 31.7146 41.9998C32.4598 41.3081 33.205 40.6164 33.9842 39.8933C33.9842 40.3935 33.9684 40.8579 33.9881 41.3204C34.014 41.9196 34.2899 42.3655 34.9353 42.3491C35.5265 42.3341 35.7967 41.9142 35.8016 41.3474C35.8124 40.1086 35.807 38.8699 35.8057 37.631C35.8051 37.0967 35.5416 36.6465 35.0261 36.6428C33.4874 36.6326 31.9397 36.4461 30.4077 36.7532Z" fill="#E0F3FA"/>
<path fill-rule="evenodd" clip-rule="evenodd" d="M38.1882 9.21854C38.7852 9.06954 39.1543 8.67828 39.3603 8.11433C44.3842 8.10389 49.4085 8.10128 54.4324 8.07181C54.9629 8.06864 55.0359 8.28628 55.0278 8.73143C55.006 9.9716 55.0029 11.2131 55.0293 12.4532C55.0392 12.9185 54.929 13.1 54.4176 13.0978C48.0909 13.0692 41.7642 13.0627 35.4375 13.0508C35.6637 12.5338 35.9048 12.0288 36.4498 11.7621C37.5016 12.2513 38.2655 12.1287 38.7376 11.3955C39.1973 10.6814 39.0267 10.0054 38.1882 9.21854ZM50.3079 10.5769C50.3063 9.78809 49.6284 9.10534 48.8304 9.08912C47.9841 9.07178 47.2804 9.76236 47.2879 10.6027C47.295 11.3981 47.9678 12.0847 48.761 12.1062C49.5681 12.1278 50.3096 11.3949 50.3079 10.5769ZM44.6114 10.5982C44.6142 9.73457 43.9462 9.06805 43.0971 9.08726C42.3075 9.10535 41.6266 9.79518 41.6266 10.5777C41.6266 11.3966 42.3645 12.128 43.1691 12.1069C43.9562 12.0864 44.6088 11.4035 44.6114 10.5982Z" fill="#E0F3FA"/>
<path fill-rule="evenodd" clip-rule="evenodd" d="M29.6641 30.9727C29.9009 30.3552 29.8571 29.712 29.8394 29.0713C32.1271 29.0548 34.4155 28.9929 36.7017 29.0401C37.9847 29.0668 38.7663 29.7712 39.1153 30.9727C35.9574 30.9727 32.8107 30.9727 29.6641 30.9727Z" fill="#E0F3FA"/>
<path fill-rule="evenodd" clip-rule="evenodd" d="M17.5635 55.0632C17.6163 55.108 17.6691 55.1527 17.722 55.1977C17.6073 55.226 17.546 55.191 17.5635 55.0632Z" fill="#E0F3FA"/>
<path fill-rule="evenodd" clip-rule="evenodd" d="M30.4071 36.7531C31.9392 36.4461 33.4868 36.6326 35.0258 36.6427C35.5412 36.6464 35.8047 37.0966 35.8053 37.6309C35.8066 38.8697 35.8118 40.1084 35.8012 41.3473C35.7965 41.914 35.5261 42.334 34.9349 42.3489C34.2895 42.3653 34.0137 41.9194 33.9878 41.3202C33.968 40.8577 33.9838 40.3932 33.9838 39.8932C33.2047 40.6162 32.4595 41.3079 31.7142 41.9996C29.2555 44.5283 26.797 47.0571 24.3077 49.6178C24.7701 49.6178 25.2805 49.6135 25.7909 49.6189C26.3828 49.6254 26.7398 49.9113 26.737 50.5208C26.7346 51.0894 26.3875 51.3691 25.8422 51.3742C24.5379 51.3861 23.233 51.3902 21.9289 51.3723C21.3271 51.3643 21.0322 51.0103 21.0317 50.4132C21.0305 49.1398 21.032 47.8661 21.0326 46.5923C21.0328 46.0355 21.3164 45.6839 21.8627 45.6705C22.4499 45.656 22.7752 45.9999 22.7785 46.6056C22.7815 47.0966 22.7793 47.5876 22.7793 48.0556C25.577 45.3369 28.3623 42.6305 31.1471 39.9242C31.6266 39.4693 32.1064 39.0143 32.7142 38.4373C31.9311 38.4373 31.3511 38.4373 30.7713 38.4373C29.8827 37.845 29.8335 37.6178 30.4071 36.7531Z" fill="#424242"/>
<path fill-rule="evenodd" clip-rule="evenodd" d="M30.7715 38.4373C31.3513 38.4373 31.9313 38.4373 32.7143 38.4373C32.1064 39.0143 31.6267 39.4691 31.1473 39.9242C31.0219 39.4285 30.8966 38.9326 30.7715 38.4373Z" fill="#E0F3FA"/>
<path fill-rule="evenodd" clip-rule="evenodd" d="M38.1893 9.21868C39.0278 10.0055 39.1984 10.6815 38.7385 11.3956C38.2665 12.1289 37.5024 12.2514 36.4506 11.7622C35.9661 11.1159 35.7491 10.4223 36.2599 9.70729C36.7468 9.0251 37.4495 9.00347 38.1893 9.21868Z" fill="#424242"/>
<path fill-rule="evenodd" clip-rule="evenodd" d="M29.9368 59.1299C29.9515 60.0027 29.3118 60.6642 28.4346 60.6838C27.5588 60.7032 26.8843 60.0674 26.8656 59.2049C26.847 58.3405 27.4943 57.6667 28.3641 57.6453C29.2186 57.6242 29.9224 58.2885 29.9368 59.1299Z" fill="#424242"/>
<path fill-rule="evenodd" clip-rule="evenodd" d="M50.3092 10.577C50.3108 11.395 49.5693 12.1279 48.7622 12.1062C47.9689 12.085 47.2962 11.3983 47.2891 10.6028C47.2818 9.76242 47.9853 9.07184 48.8316 9.08919C49.6298 9.10541 50.3075 9.78816 50.3092 10.577Z" fill="#424242"/>
<path fill-rule="evenodd" clip-rule="evenodd" d="M44.6116 10.5983C44.6088 11.4036 43.9562 12.0863 43.1694 12.1072C42.3649 12.1283 41.627 11.3969 41.627 10.578C41.627 9.79549 42.3076 9.10547 43.0974 9.08757C43.9463 9.06818 44.6144 9.7347 44.6116 10.5983Z" fill="#424242"/>
</svg>
