<svg width="96" height="61" viewBox="0 0 96 61" fill="none" xmlns="http://www.w3.org/2000/svg">
<circle cx="65.334" cy="31" r="30" fill="#E0F9FF"/>
<g clip-path="url(#clip0_1900:2728)">
<path d="M7.625 38.125C3.42108 38.125 0 34.7039 0 30.5C0 26.2961 3.42108 22.875 7.625 22.875C11.8289 22.875 15.25 26.2961 15.25 30.5C15.25 34.7039 11.8289 38.125 7.625 38.125ZM7.625 25.4167C4.82154 25.4167 2.54167 27.6965 2.54167 30.5C2.54167 33.3035 4.82154 35.5833 7.625 35.5833C10.4285 35.5833 12.7083 33.3035 12.7083 30.5C12.7083 27.6965 10.4285 25.4167 7.625 25.4167Z" fill="#3D3D3D"/>
<path d="M7.625 61C3.42108 61 0 57.5789 0 53.375C0 49.1711 3.42108 45.75 7.625 45.75C11.8289 45.75 15.25 49.1711 15.25 53.375C15.25 57.5789 11.8289 61 7.625 61ZM7.625 48.2917C4.82154 48.2917 2.54167 50.5715 2.54167 53.375C2.54167 56.1785 4.82154 58.4583 7.625 58.4583C10.4285 58.4583 12.7083 56.1785 12.7083 53.375C12.7083 50.5715 10.4285 48.2917 7.625 48.2917Z" fill="#3D3D3D"/>
<path d="M57.1882 61H24.1465C22.0445 61 20.334 59.2895 20.334 57.1875V26.6875C20.334 24.5855 22.0445 22.875 24.1465 22.875H57.1882C59.2901 22.875 61.0007 24.5855 61.0007 26.6875V57.1875C61.0007 59.2895 59.2901 61 57.1882 61ZM24.1465 25.4167C23.4475 25.4167 22.8757 25.9885 22.8757 26.6875V57.1875C22.8757 57.8865 23.4475 58.4583 24.1465 58.4583H57.1882C57.8871 58.4583 58.459 57.8865 58.459 57.1875V26.6875C58.459 25.9885 57.8871 25.4167 57.1882 25.4167H24.1465Z" fill="#3D3D3D"/>
<path d="M58.9164 60.3137C58.6038 60.3137 58.2937 60.1993 58.0472 59.9706L21.5514 25.7597C21.0379 25.2768 21.0125 24.4737 21.4904 23.9628C21.9707 23.4468 22.7764 23.4265 23.2873 23.9043L59.7831 58.1177C60.294 58.5981 60.3219 59.4038 59.8416 59.9147C59.5925 60.1815 59.2519 60.3137 58.9164 60.3137Z" fill="#3D3D3D"/>
<path d="M22.4183 60.3138C22.0803 60.3138 21.7397 60.1791 21.4906 59.9122C21.0128 59.4013 21.0382 58.5956 21.5491 58.1153L58.0474 23.9019C58.5558 23.4241 59.3615 23.4444 59.8444 23.9603C60.3222 24.4712 60.2968 25.2769 59.7859 25.7573L23.2876 59.9732C23.0411 60.202 22.731 60.3138 22.4183 60.3138Z" fill="#3D3D3D"/>
<path d="M52.1042 12.7083C48.5992 12.7083 45.75 9.85913 45.75 6.35417C45.75 2.84921 48.5992 0 52.1042 0C55.6091 0 58.4583 2.84921 58.4583 6.35417C58.4583 9.85913 55.6091 12.7083 52.1042 12.7083ZM52.1042 2.54167C50.0022 2.54167 48.2917 4.25221 48.2917 6.35417C48.2917 8.45613 50.0022 10.1667 52.1042 10.1667C54.2061 10.1667 55.9167 8.45613 55.9167 6.35417C55.9167 4.25221 54.2061 2.54167 52.1042 2.54167Z" fill="#3D3D3D"/>
<path d="M59.7285 15.25C59.4032 15.25 59.0778 15.1254 58.8287 14.8789L55.0162 11.0664C54.5206 10.5708 54.5206 9.76505 55.0162 9.26942C55.5119 8.7738 56.3176 8.7738 56.8132 9.26942L60.6257 13.0819C61.1213 13.5775 61.1213 14.3833 60.6257 14.8789C60.3792 15.1254 60.0538 15.25 59.7285 15.25Z" fill="#3D3D3D"/>
<path d="M36.8542 15.25H3.8125C1.71054 15.25 0 13.5395 0 11.4375V3.8125C0 1.71054 1.71054 0 3.8125 0H36.8542C38.9561 0 40.6667 1.71054 40.6667 3.8125V11.4375C40.6667 13.5395 38.9561 15.25 36.8542 15.25ZM3.8125 2.54167C3.11354 2.54167 2.54167 3.11354 2.54167 3.8125V11.4375C2.54167 12.1365 3.11354 12.7083 3.8125 12.7083H36.8542C37.5531 12.7083 38.125 12.1365 38.125 11.4375V3.8125C38.125 3.11354 37.5531 2.54167 36.8542 2.54167H3.8125Z" fill="#3D3D3D"/>
</g>
<defs>
<clipPath id="clip0_1900:2728">
<rect width="61" height="61" fill="white"/>
</clipPath>
</defs>
</svg>
