<svg width="147" height="117" viewBox="0 0 147 117" fill="none" xmlns="http://www.w3.org/2000/svg">
<circle cx="88.5" cy="58.5" r="58.5" fill="#E0F9FF"/>
<path d="M91.7336 77.5778H23.6146C10.5726 77.5778 0 67.0052 0 53.9632C0 40.9212 10.5726 30.3486 23.6146 30.3486C23.769 30.3486 23.9223 30.3495 24.074 30.353C28.4058 20.421 38.2114 14 49.047 14C59.8825 14 69.6881 20.421 74.02 30.353C82.2432 30.5384 89.5948 35.5251 92.8077 43.097C102.115 43.6724 109.282 51.5377 108.991 60.8583C108.701 70.1789 101.059 77.5829 91.7336 77.5778ZM23.6146 33.9816C12.5791 33.9816 3.63302 42.9277 3.63302 53.9632C3.63302 64.9987 12.5791 73.9448 23.6146 73.9448H91.7336C99.2579 73.9448 105.357 67.8452 105.357 60.321C105.357 52.7968 99.2579 46.6972 91.7336 46.6972H91.552C90.782 46.6972 90.0956 46.2116 89.8392 45.4856C87.3937 38.5499 80.817 33.9299 73.463 33.9816C73.2855 33.9816 73.1092 33.9825 72.9326 33.9949C72.1357 34.0456 71.3976 33.5745 71.1081 32.8303C67.6148 23.67 58.8242 17.6214 49.0204 17.6324C39.2165 17.6435 30.4395 23.7119 26.967 32.8801C26.6772 33.6506 25.9047 34.1292 25.0858 34.0456C24.5968 33.9996 24.1058 33.9782 23.6146 33.9816Z" fill="black"/>
<path d="M12.2985 64.8623C11.7502 64.8633 11.2309 64.6157 10.8865 64.1891C7.73949 60.2935 6.55773 55.1675 7.68151 50.2873C8.80529 45.407 12.1099 41.3142 16.6437 39.1872C17.551 38.7586 18.6339 39.1466 19.0625 40.0538C19.4911 40.961 19.1032 42.0439 18.1959 42.4726C13.7548 44.5792 10.917 49.0478 10.8989 53.9633C10.8877 56.8552 11.8809 59.6614 13.7088 61.9025C14.1494 62.4465 14.2382 63.1952 13.9371 63.8272C13.636 64.4591 12.9985 64.8618 12.2985 64.8623Z" fill="black"/>
<path d="M30.8806 66.6797C30.2967 66.6789 29.7488 66.3978 29.4075 65.9241C29.0662 65.4504 28.9731 64.8416 29.1572 64.2875L36.4233 42.4895C36.7407 41.5377 37.7696 41.0235 38.7213 41.3409C39.6731 41.6583 40.1873 42.6872 39.8699 43.6389L32.6039 65.437C32.3568 66.179 31.6626 66.6796 30.8806 66.6797Z" fill="black"/>
<path d="M45.4132 66.6797C44.6312 66.6796 43.937 66.179 43.6899 65.437L36.4239 43.6389C36.1065 42.6872 36.6207 41.6583 37.5725 41.3409C38.5242 41.0235 39.5531 41.5377 39.8705 42.4895L47.1366 64.2875C47.3207 64.8416 47.2276 65.4504 46.8863 65.9241C46.545 66.3978 45.9971 66.6789 45.4132 66.6797Z" fill="black"/>
<path d="M42.3791 57.5964H33.9142C32.9109 57.5964 32.0977 56.7831 32.0977 55.7799C32.0977 54.7767 32.9109 53.9634 33.9142 53.9634H42.3791C43.3823 53.9634 44.1956 54.7767 44.1956 55.7799C44.1956 56.7831 43.3823 57.5964 42.3791 57.5964Z" fill="black"/>
<path d="M50.8614 66.6787C49.8582 66.6787 49.0449 65.8654 49.0449 64.8622V43.0641C49.0449 42.0608 49.8582 41.2476 50.8614 41.2476C51.8647 41.2476 52.6779 42.0608 52.6779 43.0641V64.8622C52.6779 65.8654 51.8647 66.6787 50.8614 66.6787Z" fill="black"/>
<path d="M58.1275 55.7796H50.8614C49.8582 55.7796 49.0449 54.9663 49.0449 53.9631V43.0641C49.0449 42.0608 49.8582 41.2476 50.8614 41.2476H58.1275C62.1404 41.2476 65.3935 44.5007 65.3935 48.5136C65.3935 52.5265 62.1404 55.7796 58.1275 55.7796ZM52.6779 52.1466H58.1275C60.1339 52.1466 61.7605 50.52 61.7605 48.5136C61.7605 46.5071 60.1339 44.8806 58.1275 44.8806H52.6779V52.1466Z" fill="black"/>
<path d="M72.6603 66.6787C71.657 66.6787 70.8438 65.8654 70.8438 64.8622V43.0641C70.8438 42.0608 71.657 41.2476 72.6603 41.2476C73.6635 41.2476 74.4768 42.0608 74.4768 43.0641V64.8622C74.4768 65.8654 73.6635 66.6787 72.6603 66.6787Z" fill="black"/>
<path d="M78.1101 44.8806H67.211C66.2078 44.8806 65.3945 44.0673 65.3945 43.0641C65.3945 42.0608 66.2078 41.2476 67.211 41.2476H78.1101C79.1133 41.2476 79.9266 42.0608 79.9266 43.0641C79.9266 44.0673 79.1133 44.8806 78.1101 44.8806Z" fill="black"/>
<path d="M78.1101 66.6789H67.211C66.2078 66.6789 65.3945 65.8656 65.3945 64.8624C65.3945 63.8592 66.2078 63.0459 67.211 63.0459H78.1101C79.1133 63.0459 79.9266 63.8592 79.9266 64.8624C79.9266 65.8656 79.1133 66.6789 78.1101 66.6789Z" fill="black"/>
<path d="M43.681 113.909C43.2229 113.908 42.7697 113.814 42.3496 113.631L30.9848 108.92C30.1472 108.574 29.4833 107.906 29.1418 107.067C28.8044 106.238 28.8191 105.308 29.1825 104.491L31.8891 97.948C29.2256 95.9223 26.849 93.5448 24.8243 90.8805L18.2226 93.6071C17.4003 93.9508 16.4743 93.9492 15.6532 93.6028C14.8325 93.2641 14.1793 92.6142 13.8366 91.7951L9.13007 80.3771C8.41707 78.6838 9.2039 76.7323 10.8921 76.0072L17.3289 73.3541C17.9292 73.107 18.6157 73.1989 19.1299 73.5952C19.6441 73.9915 19.9079 74.632 19.8218 75.2754C19.7357 75.9189 19.3128 76.4675 18.7125 76.7147L12.5889 79.2365L17.0875 90.1454L24.7553 86.9789C25.5412 86.6552 26.4465 86.9192 26.9351 87.6146C29.1744 90.8132 31.9565 93.5949 35.1554 95.8338C35.8536 96.3218 36.1185 97.2298 35.7922 98.0167L32.6275 105.668L43.5284 110.187L46.6958 102.531C47.0217 101.743 47.8518 101.288 48.6914 101.437C52.5295 102.121 56.4586 102.115 60.2947 101.421C61.1347 101.271 61.9661 101.724 62.2949 102.512L65.479 110.18L76.3648 105.667L73.1983 97.9971C72.8727 97.2078 73.1406 96.2982 73.8422 95.8116C77.0421 93.584 79.823 90.8083 82.0565 87.6125C82.5448 86.9165 83.4511 86.6532 84.2363 86.9792L91.902 90.151L96.4251 79.244L92.0524 77.4239C91.232 77.1168 90.7478 76.2677 90.9015 75.4053C91.0551 74.543 91.8027 73.9133 92.6787 73.9085C92.9241 73.9084 93.1672 73.9556 93.3946 74.0477L98.063 75.9914C98.8938 76.3306 99.5519 76.9916 99.8875 77.8238C100.224 78.6471 100.222 79.5698 99.8813 80.3915L95.1555 91.7882C94.8146 92.6216 94.1527 93.2827 93.3189 93.6228C92.4852 93.9628 91.5497 93.9531 90.7232 93.5959L84.1656 90.8816C82.1445 93.5442 79.7685 95.9176 77.1036 97.9357L79.8266 104.532C80.1767 105.339 80.185 106.254 79.8496 107.067C79.5074 107.909 78.841 108.578 78.0004 108.923L66.618 113.642C65.7936 113.987 64.8654 113.989 64.0401 113.645C63.2148 113.302 62.5612 112.643 62.2248 111.815L59.4902 105.228C56.1787 105.69 52.8193 105.695 49.5065 105.243L46.7836 111.823C46.2674 113.082 45.0428 113.906 43.6819 113.909L43.681 113.909ZM43.4246 110.439V110.44V110.439ZM43.7634 110.285H43.7652H43.7634ZM76.4787 105.945L76.484 105.958L76.4787 105.945ZM32.5251 105.914L32.5223 105.92L32.5251 105.914ZM76.6151 105.564L76.6135 105.565L76.6151 105.564ZM32.3679 105.561H32.3697H32.3679ZM91.7981 90.4024L91.7971 90.4041L91.7981 90.4024ZM16.8297 90.2517H16.8272H16.8297ZM92.1359 90.2489L92.1377 90.2499L92.1359 90.2489ZM96.6745 79.3481H96.6772H96.6745ZM12.4846 78.9819V78.9846V78.9819Z" fill="black"/>
<path d="M54.4953 93.9265C43.2183 93.8817 33.1215 86.929 29.0572 76.4097C28.8187 75.8019 28.9247 75.113 29.3349 74.6051C29.745 74.0971 30.3961 73.8483 31.0405 73.9534C31.6848 74.0584 32.2232 74.5012 32.4508 75.1131C35.9407 84.2545 44.7104 90.2936 54.4953 90.2936C64.2803 90.2936 73.05 84.2545 76.5399 75.1131C76.7675 74.5012 77.3059 74.0584 77.9502 73.9534C78.5946 73.8483 79.2457 74.0971 79.6558 74.6051C80.066 75.113 80.172 75.8019 79.9335 76.4097C75.8692 86.929 65.7724 93.8817 54.4953 93.9265Z" fill="black"/>
<path d="M34.5134 35.7991C33.9295 35.7983 33.3816 35.5172 33.0403 35.0435C32.6991 34.5697 32.606 33.961 32.7901 33.4069C36.7911 21.4045 46.805 21.2661 47.2289 21.2661C48.2322 21.2637 49.0474 22.0749 49.0499 23.0782C49.0524 24.0814 48.2411 24.8967 47.2378 24.8991C46.8856 24.9044 39.3784 25.1306 36.2367 34.5564C35.9897 35.2984 35.2954 35.799 34.5134 35.7991Z" fill="black"/>
</svg>
