<svg width="124" height="81" viewBox="0 0 124 81" fill="none" xmlns="http://www.w3.org/2000/svg">
<circle cx="86" cy="38.377" r="37.5" fill="#D2F7FF"/>
<path d="M82.7115 5.29883H7.71154C3.7351 5.29883 0.5 8.53392 0.5 12.5104V64.4334C0.5 68.4099 3.7351 71.645 7.71154 71.645H26.4615V77.4142H20.6923V80.2988H69.7308V77.4142H63.9615V71.645H82.7115C86.688 71.645 89.9231 68.4099 89.9231 64.4334V12.5104C89.9231 8.53392 86.688 5.29883 82.7115 5.29883ZM7.71154 68.7604C5.32596 68.7604 3.38462 66.819 3.38462 64.4334V62.9911H39.4423V68.7604H7.71154ZM61.0769 77.4142H29.3462V71.645H40.2442C41.2452 73.3613 43.0856 74.5296 45.2115 74.5296C47.3375 74.5296 49.1779 73.3613 50.1788 71.645H61.0769V77.4142ZM42.3269 45.6834H40.8846H39.4423V42.7988H43.7692H46.6538H50.9808V45.6834H49.5385H48.0962H42.3269ZM48.0962 48.5681V68.7604C48.0962 70.3512 46.8024 71.645 45.2115 71.645C43.6207 71.645 42.3269 70.3512 42.3269 68.7604V48.5681H48.0962ZM87.0385 64.4334C87.0385 66.819 85.0971 68.7604 82.7115 68.7604H50.9808V62.9911H87.0385V64.4334ZM87.0385 60.1065H50.9808V48.5681H53.8654V39.9142H46.6538V37.0296C46.6538 35.4387 45.3601 34.145 43.7692 34.145H19.25V22.6065H22.1346V31.2604H68.2885V11.0681H22.1346V19.7219H19.25C17.6591 19.7219 16.3654 21.0157 16.3654 22.6065V34.145C16.3654 35.7358 17.6591 37.0296 19.25 37.0296H43.7692V39.9142H36.5577V48.5681H39.4423V60.1065H3.38462V12.5104C3.38462 10.1248 5.32596 8.18344 7.71154 8.18344H82.7115C85.0971 8.18344 87.0385 10.1248 87.0385 12.5104V60.1065ZM25.0192 22.6065V13.9527H65.4038V22.6065H62.5192V25.4911H65.4038V28.3758H25.0192V25.4911H59.6346V22.6065H25.0192Z" fill="#3D3D3D"/>
<path d="M65.4038 52.8955C65.4038 53.6902 64.7577 54.3378 63.9615 54.3378C63.1654 54.3378 62.5192 53.6902 62.5192 52.8955V48.5686H61.0769C60.2808 48.5686 59.6346 47.921 59.6346 47.1263V39.9147H56.75V47.1263C56.75 49.0071 57.9558 50.6109 59.6346 51.2066V52.8955C59.6346 55.2811 61.576 57.2224 63.9615 57.2224C66.3471 57.2224 68.2885 55.2811 68.2885 52.8955V34.1455H65.4038V52.8955Z" fill="#3D3D3D"/>
<path d="M26.4617 57.2218C28.8473 57.2218 30.7886 55.2804 30.7886 52.8948V45.4367C32.4675 44.841 33.6732 43.2371 33.6732 41.3564V39.9141H30.7886V41.3564C30.7886 42.1511 30.1425 42.7987 29.3463 42.7987H27.904V52.8948C27.904 53.6895 27.2578 54.3371 26.4617 54.3371C25.6655 54.3371 25.0194 53.6895 25.0194 52.8948V39.9141H22.1348V52.8948C22.1348 55.2804 24.0761 57.2218 26.4617 57.2218Z" fill="#3D3D3D"/>
</svg>
