<svg width="40" height="60" viewBox="0 0 40 60" fill="none" xmlns="http://www.w3.org/2000/svg">
<path d="M19.8037 59.1016L19.8482 59.15H19.9141C20.1409 59.15 20.3678 59.15 20.5948 59.1497L20.6605 59.1496L20.705 59.1013C20.8014 58.9965 20.9022 58.8998 21.0067 58.7996C21.0688 58.7401 21.1323 58.6792 21.1969 58.6146C21.3641 58.4476 21.5287 58.2649 21.6476 58.0509L21.6476 58.0509C26.8692 48.6436 32.078 39.2295 37.2756 29.8093C39.5685 25.654 40.2731 21.2219 39.3829 16.5637C38.649 12.7225 36.8746 9.39681 34.1342 6.61506C31.7403 4.18497 28.9015 2.44014 25.586 1.56551L25.5477 1.71055L25.586 1.56551C24.6438 1.31701 23.6727 1.15942 22.7101 1.00321C22.2757 0.932708 21.8431 0.862493 21.4156 0.784331L21.4022 0.781885H21.3886H21.3842H21.3797H21.3753H21.3709H21.3664H21.362H21.3576H21.3531H21.3487H21.3443H21.3399H21.3354H21.331H21.3266H21.3221H21.3177H21.3133H21.3088H21.3044H21.3H21.2955H21.2911H21.2867H21.2823H21.2778H21.2734H21.269H21.2645H21.2601H21.2557H21.2512H21.2468H21.2424H21.2379H21.2335H21.2291H21.2246H21.2202H21.2158H21.2114H21.2069H21.2025H21.1981H21.1936H21.1892H21.1848H21.1803H21.1759H21.1715H21.167H21.1626H21.1582H21.1538H21.1493H21.1449H21.1405H21.136H21.1316H21.1272H21.1227H21.1183H21.1139H21.1094H21.105H21.1006H21.0962H21.0917H21.0873H21.0829H21.0784H21.074H21.0696H21.0651H21.0607H21.0563H21.0518H21.0474H21.043H21.0385H21.0341H21.0297H21.0253H21.0208H21.0164H21.012H21.0075H21.0031H20.9987H20.9942H20.9898H20.9854H20.9809H20.9765H20.9721H20.9677H20.9632H20.9588H20.9544H20.9499H20.9455H20.9411H20.9366H20.9322H20.9278H20.9234H20.9189H20.9145H20.9101H20.9056H20.9012H20.8968H20.8923H20.8879H20.8835H20.879H20.8746H20.8702H20.8658H20.8613H20.8569H20.8525H20.848H20.8436H20.8392H20.8347H20.8303H20.8259H20.8214H20.817H20.8126H20.8082H20.8037H20.7993H20.7949H20.7904H20.786H20.7816H20.7771H20.7727H20.7683H20.7638H20.7594H20.755H20.7506H20.7461H20.7417H20.7373H20.7328H20.7284H20.724H20.7195H20.7151H20.7107H20.7063H20.7018H20.6974H20.693H20.6885H20.6841H20.6797H20.6752H20.6708H20.6664H20.6619H20.6575H20.6531H20.6487H20.6442H20.6398H20.6354H20.6309H20.6265H20.6221H20.6176H20.6132H20.6088H20.6044H20.5999H20.5955H20.5911H20.5866H20.5822H20.5778H20.5733H20.5689H20.5645H20.56H20.5556H20.5512H20.5468H20.5423H20.5379H20.5335H20.529H20.5246H20.5202H20.5157H20.5113H20.5069H20.5025H20.498H20.4936H20.4892H20.4847H20.4803H20.4759H20.4714H20.467H20.4626H20.4582H20.4537H20.4493H20.4449H20.4404H20.436H20.4316H20.4271H20.4227H20.4183H20.4138H20.4094H20.405H20.4006H20.3961H20.3917H20.3873H20.3828H20.3784H20.374H20.3695H20.3651H20.3607H20.3563H20.3518H20.3474H20.343H20.3385H20.3341H20.3297H20.3252H20.3208H20.3164H20.312H20.3075H20.3031H20.2987H20.2942H20.2898H20.2854H20.2809H20.2765H20.2721H20.2677H20.2632H20.2588H20.2544H20.2499H20.2455H20.2411H20.2366H20.2322H20.2278H20.2233H20.2189H20.2145H20.2101H20.2056H20.2012H20.1968H20.1923H20.1879H20.1835H20.179H20.1746H20.1702H20.1658H20.1613H20.1569H20.1525H20.148H20.1436H20.1392H20.1347H20.1303H20.1259H20.1215H20.117H20.1126H20.1082H20.1037H20.0993H20.0949H20.0904H20.086H20.0816H20.0772H20.0727H20.0683H20.0639H20.0594H20.055H20.0506H20.0461H20.0417H20.0373H20.0329H20.0284H20.024H20.0196H20.0151H20.0107H20.0063H20.0018H19.9974H19.993H19.9886H19.9841H19.9797H19.9753H19.9708H19.9664H19.962H19.9575H19.9531H19.9487H19.9442H19.9398H19.9354H19.931H19.9265H19.9221H19.9177H19.9132H19.9088H19.9044H19.8999H19.8955H19.8911H19.8867H19.8822H19.8778H19.8734H19.8689H19.8645H19.8601H19.8556H19.8512H19.8468H19.8424H19.8379H19.8335H19.8291H19.8246H19.8202H19.8158H19.8113H19.8069H19.8025H19.7981H19.7936H19.7892H19.7848H19.7803H19.7759H19.7715H19.767H19.7626H19.7582H19.7538H19.7493H19.7449H19.7405H19.736H19.7316H19.7272H19.7227H19.7183H19.7139H19.7095H19.705H19.7006H19.6962H19.6917H19.6873H19.6829H19.6784H19.674H19.6696H19.6651H19.6607H19.6563H19.6519H19.6474H19.643H19.6386H19.6341H19.6297H19.6253H19.6208H19.6164H19.612H19.6076H19.6031H19.5987H19.5943H19.5898H19.5854H19.581H19.5765H19.5721H19.5677H19.5633H19.5588H19.5544H19.55H19.5455H19.5411H19.5367H19.5322H19.5278H19.5234H19.519H19.5145H19.5101H19.5057H19.5012H19.4968H19.4924H19.4879H19.4835H19.4791H19.4747H19.4702H19.4658H19.4614H19.4569H19.4525H19.4481H19.4436H19.4392H19.4348H19.4303H19.4259H19.4215H19.4171H19.4126H19.4082H19.4038H19.3993H19.3949H19.3905H19.386H19.3816H19.3772H19.3728H19.3683H19.3639H19.3595H19.355H19.3506H19.3462H19.3417H19.3373H19.3329H19.3285H19.324H19.3196H19.3152H19.3107H19.3063H19.3019H19.2974H19.293H19.2886H19.2842H19.2797H19.2753H19.2709H19.2664H19.262H19.2576H19.2531H19.2487H19.2443H19.2398H19.2354H19.231H19.2266H19.2221H19.2177H19.2133H19.2088H19.2044H19.2H19.1955H19.1911H19.1867H19.1823H19.1778H19.1734H19.169H19.1645H19.1601H19.1557H19.1512H19.1468H19.1424H19.1379H19.1335H19.1291H19.1247H19.1202H19.1017L19.0838 0.786386C19.0465 0.795719 19.0051 0.808141 18.9683 0.819177C18.9495 0.824796 18.932 0.830055 18.9168 0.834364C18.8656 0.848881 18.823 0.858518 18.7834 0.861373C15.5902 1.08977 12.6241 2.04355 9.93332 3.77321C4.60969 7.19514 1.56397 12.0941 0.859502 18.3669C0.402964 22.4322 1.27399 26.2806 3.25482 29.8625C3.89592 31.0218 4.53698 32.1811 5.17804 33.3404C9.73424 41.5799 14.2905 49.8194 18.8609 58.0512C18.9797 58.2652 19.1444 58.4479 19.3117 58.6149C19.3763 58.6795 19.4397 58.7403 19.5018 58.7998C19.6064 58.9001 19.7072 58.9967 19.8037 59.1016ZM20.2476 54.9614C20.2472 54.9619 20.2468 54.9625 20.2465 54.9631C19.6699 53.9208 19.0996 52.8902 18.5336 51.8671C17.5195 50.0344 16.5188 48.2258 15.5185 46.4168C14.3595 44.3202 13.2007 42.2234 12.042 40.1266C9.94083 36.3244 7.83965 32.5222 5.73637 28.7211C3.08569 23.9308 2.67907 18.9575 4.76353 13.9107L4.62489 13.8535L4.76353 13.9107C6.83024 8.90636 10.5526 5.58544 15.7916 4.14867C21.2882 2.64122 26.3464 3.71946 30.7959 7.26811L30.8895 7.15084L30.7959 7.26811C34.281 10.0473 36.305 13.7274 36.885 18.1637C37.3584 21.7853 36.7043 25.2134 34.9409 28.4115C31.3231 34.9728 27.6957 41.5287 24.0683 48.0846C22.8516 50.2836 21.6349 52.4825 20.4186 54.6817L20.4185 54.6818C20.3698 54.7701 20.317 54.8528 20.2476 54.9614Z" fill="#2D2D2D" stroke="#2D2D2D" stroke-width="0.3"/>
<path d="M20.1667 30.1133C25.5836 30.1741 30.0267 25.7843 30.0696 20.3332C30.1124 14.9219 25.6783 10.4601 20.2565 10.4572C14.8803 10.4546 10.5068 14.8033 10.4406 20.2137C10.3746 25.6002 14.7507 30.0526 20.1667 30.1133ZM13.1476 20.2668C13.159 16.3605 16.3504 13.1868 20.2625 13.1924C24.178 13.1979 27.3597 16.3757 27.3622 20.2819C27.3646 24.1821 24.1862 27.3745 20.2746 27.3992C16.3724 27.4239 13.1361 24.1862 13.1476 20.2668Z" fill="#2D2D2D" stroke="#2D2D2D" stroke-width="0.3"/>
</svg>
