<svg width="90" height="76" viewBox="0 0 90 76" fill="none" xmlns="http://www.w3.org/2000/svg">
<circle cx="60.1124" cy="37.8003" r="29.8883" fill="#E0F9FF"/>
<g clip-path="url(#clip0)">
<path d="M26.509 39.6594V35.9305H30.2378V39.6594H26.509Z" fill="#3D3C3C" stroke="#F5F5F5"/>
<path d="M45.4243 39.6594V35.9305H49.1531V39.6594H45.4243Z" fill="#3D3C3C" stroke="#F5F5F5"/>
<path d="M63.3395 44.8884L63.3397 45.3882H63.8395H75.1615V49.117H0.500732V45.3882H11.8227H12.3224L12.3227 44.8884C12.3266 37.7187 15.3582 30.8843 20.6703 26.0692L21.0593 25.7166L20.6882 25.3453L12.9128 17.5653L15.549 14.9291L23.7876 23.17L24.0693 23.4518L24.4068 23.2401C32.6163 18.0932 43.0459 18.0932 51.2554 23.2401L51.5929 23.4518L51.8746 23.17L60.1133 14.929L62.7516 17.5654L54.974 25.3452L54.6028 25.7165L54.9918 26.0692C60.304 30.8843 63.3356 37.7187 63.3395 44.8884ZM16.0515 44.8882V45.3882H16.5515H59.1107H59.6107V44.8882C59.6107 32.8596 49.8596 23.1086 37.8311 23.1086C25.8026 23.1086 16.0515 32.8596 16.0515 44.8882Z" fill="#3D3C3C" stroke="#F5F5F5"/>
</g>
<defs>
<clipPath id="clip0">
<rect width="75.6607" height="75.6607" fill="white" transform="translate(0.000732422)"/>
</clipPath>
</defs>
</svg>
