<svg width="167" height="90" viewBox="0 0 167 90" fill="none" xmlns="http://www.w3.org/2000/svg">
<circle cx="92" cy="31" r="31" fill="#F5F5F5"/>
<path d="M2.22099 41.9587L14.4623 50.4V74.6667C14.4623 77.6122 16.8501 80 19.7957 80H57.129C60.0745 80 62.4623 77.6122 62.4623 74.6667V50.4L74.7023 41.9587C75.7853 41.2121 76.4321 39.9808 76.4321 38.6653C76.4321 37.3499 75.7853 36.1186 74.7023 35.372L62.4623 26.9333V5.33333C62.4623 2.38781 60.0745 0 57.129 0H19.7957C16.8501 0 14.4623 2.38781 14.4623 5.33333V26.9333L2.22099 35.3733C1.13852 36.12 0.492188 37.351 0.492188 38.666C0.492188 39.981 1.13852 41.212 2.22099 41.9587ZM62.4623 30.1707L73.189 37.5693C73.5496 37.8182 73.7649 38.2285 73.7649 38.6667C73.7649 39.1049 73.5496 39.5151 73.189 39.764L62.4623 47.1613V30.1707ZM48.717 2.66667L47.0063 4.49067C46.5025 5.02798 45.7989 5.33298 45.0623 5.33333H31.8623C31.1255 5.33239 30.4217 5.02752 29.917 4.49067L28.2077 2.66667H48.717ZM17.129 28.332L17.6503 27.972C18.0946 27.6652 18.31 27.1206 18.1958 26.5929C18.0816 26.0652 17.6604 25.6584 17.129 25.5627V5.33333C17.129 3.86057 18.3229 2.66667 19.7957 2.66667H24.5517L27.9717 6.31467C28.9815 7.38771 30.3888 7.99733 31.8623 8H45.0623C46.536 7.99828 47.9437 7.38851 48.953 6.31467L52.373 2.66667H57.129C58.6017 2.66667 59.7957 3.86057 59.7957 5.33333V25.5627C59.2642 25.6584 58.843 26.0652 58.7288 26.5929C58.6147 27.1206 58.83 27.6652 59.2743 27.972L59.7957 28.332V48.9987L39.2183 63.192C38.7627 63.506 38.1606 63.506 37.705 63.192L17.129 49.0013V28.332ZM17.129 52.24L36.1957 65.3867C37.565 66.3235 39.369 66.3235 40.7383 65.3867L59.7957 52.24V68C59.7957 69.4728 58.6017 70.6667 57.129 70.6667H19.7957C18.3229 70.6667 17.129 69.4728 17.129 68V52.24ZM17.129 72.592C17.9361 73.0719 18.8566 73.3278 19.7957 73.3333H57.129C58.068 73.3278 58.9885 73.0719 59.7957 72.592V74.6667C59.7957 76.1394 58.6017 77.3333 57.129 77.3333H19.7957C18.3229 77.3333 17.129 76.1394 17.129 74.6667V72.592ZM3.73565 37.5693L14.4623 30.168V47.1627L3.73432 39.764C3.37369 39.5151 3.15838 39.1049 3.15838 38.6667C3.15838 38.2285 3.37369 37.8182 3.73432 37.5693H3.73565Z" fill="#2A2C70"/>
<path d="M29.6908 19.3853C29.9604 19.3848 30.2235 19.3025 30.4455 19.1493L33.0041 17.384C33.4095 17.1191 33.6393 16.6552 33.6046 16.1722C33.5698 15.6893 33.2759 15.2631 32.8369 15.0589C32.3978 14.8547 31.8825 14.9047 31.4908 15.1893L28.9335 16.9533C28.4519 17.2844 28.2421 17.8905 28.4159 18.4484C28.5896 19.0064 29.1064 19.3862 29.6908 19.3853Z" fill="#2A2C70"/>
<path d="M23.8157 20.4826L21.2637 22.2479C20.6732 22.6712 20.5303 23.4894 20.9423 24.0878C21.3543 24.6862 22.1696 24.8446 22.7757 24.444L25.3343 22.6786C25.9248 22.2553 26.0678 21.4372 25.6557 20.8388C25.2437 20.2404 24.4284 20.082 23.8223 20.4826H23.8157Z" fill="#2A2C70"/>
<path d="M38.1215 13.8545L38.4628 13.6199L38.8041 13.8545C39.4098 14.2503 40.2206 14.0909 40.6313 13.4953C41.042 12.8997 40.9027 12.0852 40.3175 11.6599L39.2188 10.9025C38.7635 10.5891 38.1621 10.5891 37.7068 10.9025L36.6081 11.6599C36.0229 12.0852 35.8836 12.8997 36.2944 13.4953C36.7051 14.0909 37.5159 14.2503 38.1215 13.8545Z" fill="#2A2C70"/>
<path d="M46.4816 19.1493C47.0877 19.5499 47.903 19.3915 48.315 18.7931C48.727 18.1947 48.5841 17.3766 47.9936 16.9533L45.4349 15.1893C45.0441 14.8831 44.5154 14.8194 44.063 15.0241C43.6106 15.2287 43.3095 15.6679 43.2814 16.1636C43.2534 16.6593 43.5032 17.1296 43.9296 17.384L46.4816 19.1493Z" fill="#2A2C70"/>
<path d="M54.1589 24.4439C54.5512 24.7143 55.0579 24.7548 55.4881 24.5502C55.9184 24.3457 56.2068 23.9271 56.2448 23.4522C56.2828 22.9774 56.0645 22.5183 55.6722 22.2479L53.1136 20.4826C52.5075 20.082 51.6922 20.2404 51.2802 20.8388C50.8681 21.4372 51.0111 22.2553 51.6016 22.6786L54.1589 24.4439Z" fill="#2A2C70"/>
<path d="M38.4629 46.6665C38.7128 46.6665 38.9576 46.5963 39.1696 46.4638L49.8362 39.7972C50.2261 39.5535 50.4629 39.1262 50.4629 38.6665V26.6665C50.4629 26.2068 50.2261 25.7795 49.8362 25.5358L39.1696 18.8692C38.7372 18.5989 38.1886 18.5989 37.7562 18.8692L27.0896 25.5358C26.6997 25.7795 26.4629 26.2068 26.4629 26.6665V38.6665C26.4629 39.1262 26.6997 39.5535 27.0896 39.7972L37.7562 46.4638C37.9681 46.5963 38.213 46.6665 38.4629 46.6665ZM47.7962 37.9278L39.7962 42.9332V34.0732L47.7962 29.0732V37.9278ZM38.4629 21.5718L46.6136 26.6665L38.4629 31.7612L30.3122 26.6665L38.4629 21.5718ZM37.1296 42.9332L29.1296 37.9332V29.0732L37.1296 34.0732V42.9332Z" fill="#2A2C70"/>
<path d="M124.026 56.048H111.45L109.434 62H100.842L113.034 28.304H122.538L134.73 62H126.042L124.026 56.048ZM121.914 49.712L117.738 37.376L113.61 49.712H121.914ZM155.625 62L148.617 49.28H146.649V62H138.441V28.304H152.217C154.873 28.304 157.129 28.768 158.985 29.696C160.873 30.624 162.281 31.904 163.209 33.536C164.137 35.136 164.601 36.928 164.601 38.912C164.601 41.152 163.961 43.152 162.681 44.912C161.433 46.672 159.577 47.92 157.113 48.656L164.889 62H155.625ZM146.649 43.472H151.737C153.241 43.472 154.361 43.104 155.097 42.368C155.865 41.632 156.249 40.592 156.249 39.248C156.249 37.968 155.865 36.96 155.097 36.224C154.361 35.488 153.241 35.12 151.737 35.12H146.649V43.472Z" fill="#2A2C70"/>
</svg>
