<svg width="90" height="72" viewBox="0 0 90 72" fill="none" xmlns="http://www.w3.org/2000/svg">
<circle cx="54.4957" cy="35.5053" r="35.5055" fill="#E0F9FF"/>
<path d="M37.0633 30.0067C37.5941 30.0067 38.0245 29.5764 38.0245 29.0455C38.0245 28.5145 37.5941 28.0842 37.0633 28.0842H28.4261C27.8953 28.0842 27.4648 28.5145 27.4648 29.0455C27.4648 29.5764 27.8951 30.0067 28.4261 30.0067H37.0633Z" fill="#3D3D3D"/>
<path d="M62.4505 30.5709H61.6104C61.4771 28.7467 59.9513 27.3029 58.0935 27.3029H55.714C55.1077 24.8294 52.8581 23.0001 50.2416 23.0001H23.8067C23.2758 23.0001 22.8454 23.4304 22.8454 23.9614C22.8454 24.4923 23.2758 24.9226 23.8067 24.9226H50.2416C52.1679 24.9226 53.7935 26.4269 53.9422 28.3475L54.6422 37.3717C54.6813 37.8757 55.1022 38.2585 55.5994 38.2585C55.6244 38.2585 55.6496 38.2576 55.6749 38.2557C56.2041 38.2146 56.5999 37.7522 56.5589 37.2231L55.9386 29.2255H58.0937C58.9787 29.2255 59.6987 29.9455 59.6987 30.8305V43.9543C59.6987 44.8393 58.9787 45.5593 58.0937 45.5593H57.2055L56.8563 41.0571C56.8152 40.5279 56.3519 40.1299 55.8237 40.1732C55.2945 40.2142 54.8986 40.6766 54.9397 41.2058L55.378 46.8573C55.4633 47.9581 55.0974 49.0107 54.3473 49.821C53.5974 50.6314 52.5763 51.0777 51.4722 51.0777H44.0826C40.8308 51.0777 39.1667 49.3276 37.5574 47.6351C36.2281 46.2372 34.8536 44.7918 32.7447 44.7918C30.6357 44.7918 29.2612 46.2372 27.932 47.6351C26.3226 49.3276 24.6587 51.0777 21.4067 51.0777H14.0173C12.9132 51.0777 11.8921 50.6314 11.1421 49.821C10.3922 49.0105 10.0261 47.958 10.1115 46.8573L11.547 28.3474C11.6959 26.4268 13.3215 24.9225 15.2476 24.9225H19.9618C20.4927 24.9225 20.9231 24.4922 20.9231 23.9612C20.9231 23.4303 20.4928 23 19.9618 23H15.2476C12.6311 23 10.3815 24.8292 9.77518 27.3027H7.39569C5.53807 27.3027 4.01225 28.7466 3.87884 30.5708H3.03873C1.36325 30.5709 0 31.9341 0 33.6098V41.2824C0 42.9581 1.36325 44.3213 3.03886 44.3213H3.88753C4.07172 46.0945 5.57478 47.4815 7.39582 47.4815H8.1886C8.26419 48.8295 8.8055 50.1264 9.73131 51.1266C10.8331 52.3171 12.3953 53 14.0173 53H21.4067C25.4833 53 27.6135 50.7598 29.3252 48.9599C30.649 47.5676 31.5225 46.7142 32.7447 46.7142C33.9668 46.7142 34.8403 47.5675 36.1642 48.9599C37.8759 50.7598 40.0059 53 44.0826 53H51.4722C53.0942 53 54.6565 52.3171 55.7582 51.1266C56.6838 50.1264 57.2253 48.8295 57.3009 47.4815H58.0937C59.9147 47.4815 61.4177 46.0943 61.6019 44.3213H62.4506C64.1262 44.3213 65.4895 42.958 65.4895 41.2824V33.6098C65.4893 31.9341 64.1261 30.5709 62.4505 30.5709ZM5.79069 43.9543V39.2196C5.79069 38.6887 5.3604 38.2584 4.82946 38.2584C4.29851 38.2584 3.86822 38.6887 3.86822 39.2196V42.3989H3.03873C2.42311 42.3989 1.92234 41.898 1.92234 41.2824V33.6098C1.92234 32.9942 2.42311 32.4933 3.03873 32.4933H3.86822V35.3748C3.86822 35.9058 4.29851 36.336 4.82946 36.336C5.3604 36.336 5.79069 35.9058 5.79069 35.3748V30.8302C5.79069 29.9452 6.51069 29.2252 7.39569 29.2252H9.5507L8.28389 45.5593H7.39569C6.51082 45.5593 5.79069 44.8393 5.79069 43.9543ZM63.567 41.2824C63.567 41.898 63.0662 42.3989 62.4506 42.3989H61.6211V32.4933H62.4506C63.0662 32.4933 63.567 32.9942 63.567 33.6098V41.2824Z" fill="#3D3D3D"/>
</svg>
