<svg width="15" height="15" viewBox="0 0 15 15" fill="none" xmlns="http://www.w3.org/2000/svg">
<g clip-path="url(#clip0)">
<path d="M0.901583 6.44713C0.962958 6.43717 1.02507 6.43258 1.08722 6.43338H11.6694L11.4387 6.32606C11.2131 6.21931 11.0079 6.07402 10.8323 5.89676L7.86478 2.92925C7.47395 2.55616 7.40828 1.95599 7.70916 1.5072C8.05934 1.02897 8.73088 0.925137 9.20915 1.27532C9.24778 1.30362 9.28451 1.33448 9.31902 1.36768L14.6852 6.73389C15.1046 7.15279 15.105 7.83232 14.6861 8.25169C14.6858 8.25196 14.6855 8.25226 14.6852 8.25253L9.31902 13.6187C8.89931 14.0373 8.21978 14.0363 7.80122 13.6166C7.76828 13.5836 7.73753 13.5484 7.70916 13.5114C7.40828 13.0626 7.47395 12.4625 7.86478 12.0894L10.8269 9.11649C10.9844 8.95886 11.1654 8.82668 11.3635 8.72476L11.6855 8.57987H1.14628C0.598022 8.60023 0.117008 8.21725 0.0140104 7.67834C-0.0808706 7.09326 0.316498 6.54205 0.901583 6.44713Z" fill="white"/>
</g>
<defs>
<clipPath id="clip0">
<rect width="15" height="15" fill="white" transform="matrix(-1 0 0 1 15 0)"/>
</clipPath>
</defs>
</svg>
