<?xml version="1.0" encoding="utf-8"?>
<!-- Generator: Adobe Illustrator 16.0.0, SVG Export Plug-In . SVG Version: 6.00 Build 0)  -->
<!DOCTYPE svg PUBLIC "-//W3C//DTD SVG 1.1//EN" "http://www.w3.org/Graphics/SVG/1.1/DTD/svg11.dtd">
<svg version="1.1" id="Layer_1" xmlns="http://www.w3.org/2000/svg" xmlns:xlink="http://www.w3.org/1999/xlink" x="0px" y="0px"
	 width="500px" height="500px" viewBox="0 0 500 500" enable-background="new 0 0 500 500" xml:space="preserve">
<g>
	<path fill-rule="evenodd" clip-rule="evenodd" fill="#DFF8FE" d="M264.117,56.36c12.025,0,24.051,0,36.076,0
		c3.494,3.206,7.869,1.187,11.793,1.939c51.666,9.905,94.259,34.783,125.535,77.385c32.868,44.769,43.035,95.107,33.664,149.488
		c-7.806,45.287-30.213,82.231-64.953,112.112c-32.818,28.229-71.139,42.806-113.826,45.902
		c-28.339,2.059-55.959-3.004-82.41-13.313c-9.94-3.875-19.267-9.329-30.014-14.625c18.462-11.212,36.526-19.023,53.901-28.144
		c5.639-2.959,10.698-6.235,10.648-13.989c-0.194-30.331-0.149-60.663-0.021-90.994c0.02-4.704-1.735-7.674-5.867-9.767
		c-31.907-16.168-63.777-32.409-95.645-48.654c-3.327-1.696-6.69-2.492-10.19-0.757c-11.994,5.942-23.977,11.906-35.927,17.937
		c-4.789,2.418-3.557,4.624,0.37,6.732c4.801,2.58,9.539,5.278,14.291,7.95c6.13,3.446,12.677,3.787,18.894,1.066
		c5.873-2.569,10.896-1.96,16.352,0.916c18.109,9.546,36.689,18.16,54.677,27.986c8.289,4.528,11.979,10.34,11.87,19.492
		c-0.197,16.666-0.38,33.346,0.098,50c0.204,7.101-2.897,11.535-8.492,14.519c-15.414,8.217-31.028,16.059-46.459,24.244
		c-3.489,1.85-5.813,1.464-8.555-1.373c-6.066-6.272-12.011-12.614-17.656-19.292c-18.101-21.41-29.979-45.985-37.958-72.645
		c-0.56-1.868-1.379-3.954,0.349-5.316c1.44-1.136,3.125,0.266,4.524,0.988c8.488,4.376,16.949,8.806,25.395,13.261
		c6.383,3.366,12.737,6.417,20.101,2.665c10.466-5.333,21.006-10.521,31.477-15.845c2.042-1.039,4.644-1.737,4.675-4.921
		c-4.943-3.012-9.918-5.834-14.67-8.99c-7.351-4.886-14.758-6.237-23.156-2.426c-5.129,2.326-10.652,1.797-15.798-0.91
		c-11.351-5.968-22.666-12.01-34.114-17.785c-3.437-1.734-4.377-4.07-4.545-7.76c-1.769-38.871,8.873-74.331,29.215-107.12
		c7.304-11.772,18.272-14.635,30.973-8.204c18.751,9.497,37.363,19.267,56.121,28.746c5.773,2.917,8.518,7.206,8.452,13.669
		c-0.131,12.842-0.243,25.69,0,38.528c0.564,29.716-5.298,22.821,23.454,37.713c5.956,3.084,7.879,2.715,7.801-4.588
		c-0.298-27.596-0.821-55.223,0.212-82.783c0.427-11.375-4.292-16.767-13.42-21.302c-24.448-12.148-48.585-24.921-73.022-37.09
		c-5.659-2.817-6.186-4.951-1.416-9.017c21.95-18.709,46.892-31.721,74.75-38.95C242.345,60.273,253.293,58.556,264.117,56.36z"/>
	<path fill-rule="evenodd" clip-rule="evenodd" fill="#FCFCFD" d="M36.615,286.332c0,29.634,0.073,57.72-0.074,85.802
		c-0.024,4.461,2.575,6.124,5.875,7.813c29.596,15.143,59.189,30.293,88.713,45.579c4.966,2.57,9.323,1.702,13.953-0.67
		c29.11-14.909,58.229-29.802,87.438-44.514c4.153-2.094,6.038-4.555,6.004-9.4c-0.203-28.406-0.176-56.813-0.019-85.219
		c0.024-4.387-1.39-7.053-5.331-9.043c-30.411-15.357-60.743-30.868-91.124-46.281c-2.11-1.069-4.183-2.761-6.877-1.371
		c-9.471,4.884-18.962,9.73-29.412,15.085c7.666,4.541,13.181,11.155,21.861,6.325c7.156-3.982,13.952-3.155,20.986,0.525
		c19.073,9.977,38.216,19.817,57.425,29.53c9.261,4.683,13.699,12.009,13.689,22.293c-0.015,18.028-0.016,36.059,0.138,54.087
		c0.069,8.171-3.151,14.235-10.456,17.979c-20.128,10.314-40.281,20.581-60.409,30.895c-7.883,4.04-15.545,3.92-23.46-0.244
		c-18.809-9.89-37.725-19.582-56.661-29.229c-8.912-4.54-13.309-11.583-13.292-21.603c0.027-17.209-0.086-34.419-0.222-51.628
		c-0.028-3.479,0.368-7.184-3.8-9.135C46.928,291.745,42.426,289.296,36.615,286.332z M237.89,248.249
		c0-28.43-0.03-56.791,0.031-85.153c0.009-4.662-3.703-5.699-6.711-7.251c-29.068-15.002-58.213-29.85-87.254-44.905
		c-4.553-2.359-8.593-2.492-13.138-0.143c-29.065,15.026-58.153,30.011-87.335,44.809c-5.309,2.692-7.377,6.27-7.318,12.269
		c0.262,26.779,0.279,53.563-0.012,80.344c-0.066,6.06,2.123,9.498,7.377,12.156c29.439,14.902,58.769,30.021,88.141,45.059
		c2.437,1.247,5.019,2.892,7.753,1.611c9.722-4.555,19.552-8.951,29.309-15.27c-7.411-3.373-12.53-10.706-20.971-6.204
		c-7.438,3.968-14.611,3.461-21.882-0.292c-19.864-10.253-39.778-20.413-59.618-30.715c-7.158-3.718-10.558-9.829-10.926-17.894
		c-0.859-18.842-0.689-37.68-0.181-56.526c0.245-9.08,4.38-15.496,12.419-19.593c19.431-9.902,38.796-19.931,58.266-29.754
		c7.514-3.792,15.243-3.771,22.826,0.05c20.214,10.18,40.423,20.368,60.608,30.604c7.708,3.909,10.5,10.486,10.401,18.874
		c-0.187,15.846-0.108,31.693-0.117,47.541C219.55,241.675,222.755,245.28,237.89,248.249z"/>
	<path fill-rule="evenodd" clip-rule="evenodd" fill="#424242" d="M36.615,286.332c5.811,2.964,10.313,5.413,14.947,7.579
		c4.168,1.951,3.772,5.655,3.8,9.135c0.136,17.209,0.249,34.419,0.222,51.628c-0.016,10.02,4.38,17.063,13.292,21.603
		c18.936,9.646,37.852,19.339,56.661,29.229c7.915,4.164,15.577,4.284,23.46,0.244c20.128-10.313,40.281-20.58,60.409-30.895
		c7.305-3.744,10.525-9.809,10.456-17.979c-0.154-18.028-0.153-36.059-0.138-54.087c0.009-10.284-4.428-17.61-13.689-22.293
		c-19.209-9.713-38.353-19.554-57.425-29.53c-7.034-3.68-13.83-4.508-20.986-0.525c-8.68,4.83-14.195-1.784-21.861-6.325
		c10.449-5.355,19.941-10.201,29.412-15.085c2.694-1.39,4.767,0.301,6.877,1.371c30.381,15.414,60.713,30.924,91.124,46.281
		c3.941,1.99,5.355,4.656,5.331,9.043c-0.158,28.405-0.184,56.813,0.019,85.219c0.034,4.846-1.851,7.307-6.004,9.4
		c-29.209,14.712-58.328,29.604-87.438,44.514c-4.63,2.372-8.987,3.24-13.953,0.67c-29.523-15.286-59.117-30.437-88.713-45.579
		c-3.301-1.689-5.9-3.353-5.875-7.813C36.688,344.052,36.615,315.966,36.615,286.332z"/>
	<path fill-rule="evenodd" clip-rule="evenodd" fill="#424242" d="M237.89,248.249c-15.135-2.969-18.34-6.574-18.332-20.383
		c0.009-15.848-0.07-31.695,0.117-47.541c0.1-8.388-2.693-14.965-10.401-18.874c-20.185-10.236-40.395-20.424-60.608-30.604
		c-7.583-3.821-15.312-3.842-22.826-0.05c-19.47,9.823-38.835,19.853-58.266,29.754c-8.04,4.098-12.174,10.513-12.419,19.593
		c-0.508,18.847-0.678,37.684,0.181,56.526c0.368,8.064,3.768,14.176,10.926,17.894c19.84,10.302,39.753,20.462,59.618,30.715
		c7.271,3.753,14.444,4.26,21.882,0.292c8.441-4.502,13.561,2.831,20.971,6.204c-9.757,6.318-19.587,10.715-29.309,15.27
		c-2.734,1.28-5.316-0.364-7.753-1.611c-29.372-15.037-58.701-30.156-88.141-45.059c-5.254-2.658-7.443-6.097-7.377-12.156
		c0.292-26.781,0.274-53.565,0.012-80.344c-0.059-5.999,2.01-9.577,7.318-12.269c29.182-14.798,58.27-29.783,87.335-44.809
		c4.545-2.349,8.585-2.216,13.138,0.143c29.041,15.055,58.186,29.903,87.254,44.905c3.008,1.552,6.72,2.589,6.711,7.251
		C237.86,191.458,237.89,219.819,237.89,248.249z"/>
</g>
</svg>
