<svg width="82" height="60" viewBox="0 0 82 60" fill="none" xmlns="http://www.w3.org/2000/svg">
<circle cx="52" cy="30" r="30" fill="#E0F9FF"/>
<path fill-rule="evenodd" clip-rule="evenodd" d="M27.5726 53.805C26.5845 53.805 25.5965 53.805 24.6083 53.805C24.505 53.7798 24.4031 53.7462 24.2984 53.7309C23.2163 53.5728 22.1237 53.4684 21.0529 53.2541C11.8588 51.4137 4.24746 43.513 2.74663 34.2693C2.60124 33.374 2.49849 32.4717 2.37598 31.5726C2.37598 30.5845 2.37598 29.5965 2.37598 28.6083C2.5273 27.5581 2.64086 26.5009 2.83566 25.4588C4.60064 16.0144 12.4866 8.29883 21.9575 6.74081C22.8374 6.59614 23.7245 6.49651 24.6083 6.37598C25.5964 6.37598 26.5845 6.37598 27.5726 6.37598C27.6916 6.40187 27.8095 6.4339 27.9297 6.45252C29.1467 6.64149 30.3813 6.75381 31.579 7.02764C40.7125 9.11575 47.8976 16.7604 49.4453 26.0024C49.5902 26.8669 49.6862 27.7396 49.805 28.6084C49.805 29.5965 49.805 30.5846 49.805 31.5727C49.7788 31.692 49.7451 31.8102 49.7273 31.9308C49.5662 33.0281 49.4642 34.1373 49.2398 35.2214C47.3379 44.4167 39.4771 51.9384 30.2221 53.4395C29.3422 53.582 28.4559 53.6841 27.5726 53.805ZM26.0712 50.8402C37.4886 50.8576 46.8008 41.5728 46.8402 30.1322C46.8795 18.7052 37.5588 9.35734 26.1091 9.34081C14.6911 9.32417 5.37752 18.6104 5.3407 30.0479C5.30399 41.4735 14.6253 50.8228 26.0712 50.8402Z" fill="#2D2D2D"/>
<path fill-rule="evenodd" clip-rule="evenodd" d="M24.6087 18.3804C24.6087 17.8557 24.6026 17.332 24.6101 16.8086C24.623 15.9123 25.2669 15.2573 26.1131 15.2697C26.9354 15.2817 27.5576 15.9344 27.5711 16.8097C27.5789 17.3185 27.5725 17.8275 27.5725 18.376C27.7296 18.4258 27.8839 18.4769 28.0396 18.524C30.7577 19.3457 32.708 21.9146 32.7563 24.7371C32.7723 25.6747 32.1691 26.3631 31.3138 26.3829C30.4563 26.4029 29.8327 25.7571 29.7935 24.8085C29.7069 22.7116 28.0175 21.132 25.936 21.2012C23.9109 21.2687 22.3154 23.0098 22.3901 25.071C22.4613 27.0392 24.077 28.5465 26.135 28.6124C28.8598 28.6996 30.8891 29.9644 32.0933 32.4017C33.8948 36.048 31.9302 40.4647 28.0379 41.6551C27.8921 41.6996 27.7457 41.7423 27.5725 41.794C27.5725 42.3249 27.5791 42.8484 27.571 43.3717C27.557 44.2653 26.9081 44.9236 26.0651 44.9099C25.243 44.8965 24.622 44.2421 24.6101 43.3667C24.603 42.8433 24.6088 42.3198 24.6088 41.7835C23.1854 41.4217 21.9919 40.7226 21.0469 39.6244C20.0124 38.4222 19.4739 37.0229 19.4269 35.4398C19.3989 34.4989 20.0089 33.8158 20.8677 33.7966C21.7261 33.7773 22.3485 34.4222 22.3876 35.3712C22.4739 37.4658 24.1687 39.0505 26.2457 38.9785C28.2736 38.9082 29.8683 37.1669 29.7912 35.1074C29.7172 33.1356 28.1058 31.6385 26.0453 31.5663C23.2229 31.4676 21.1567 30.1321 19.9923 27.5658C18.3248 23.8908 20.3889 19.5951 24.2807 18.4965C24.3828 18.4677 24.4816 18.4258 24.6087 18.3804Z" fill="#2D2D2D"/>
</svg>
