<svg width="87" height="60" viewBox="0 0 87 60" fill="none" xmlns="http://www.w3.org/2000/svg">
    <circle cx="57" cy="30" r="30" fill="#E0F9FF"/>
    <g clip-path="url(#clip0)">
        <path d="M41.0967 36.2122C40.0321 35.1037 38.748 34.5111 37.3871 34.5111C36.0372 34.5111 34.7422 35.0927 33.6337 36.2012L30.1656 39.6583C29.8802 39.5047 29.5949 39.362 29.3205 39.2193C28.9254 39.0218 28.5523 38.8352 28.234 38.6376C24.9854 36.5743 22.0332 33.8855 19.2016 30.4064C17.8297 28.6724 16.9079 27.2127 16.2384 25.7311C17.1383 24.908 17.9724 24.0519 18.7846 23.2288C19.0919 22.9215 19.3992 22.6032 19.7065 22.2959C22.0112 19.9912 22.0112 17.006 19.7065 14.7013L16.7103 11.7051C16.3701 11.3649 16.0189 11.0137 15.6896 10.6625C15.0311 9.98203 14.3397 9.27963 13.6263 8.62113C12.5618 7.56754 11.2887 7.00781 9.94973 7.00781C8.61079 7.00781 7.31574 7.56754 6.21825 8.62113C6.20727 8.63211 6.20727 8.63211 6.1963 8.64308L2.46481 12.4075C1.06002 13.8123 0.258846 15.5244 0.0832463 17.5108C-0.180153 20.7155 0.763693 23.7007 1.48804 25.6543C3.26598 30.4503 5.92192 34.8952 9.88388 39.6583C14.6909 45.3982 20.4747 49.9309 27.0816 53.1246C29.6059 54.3208 32.9752 55.7366 36.7396 55.9781C36.9701 55.989 37.2115 56 37.431 56C39.9662 56 42.0954 55.0891 43.7636 53.2782C43.7745 53.2563 43.7965 53.2453 43.8075 53.2234C44.3782 52.5319 45.0367 51.9064 45.7281 51.2369C46.2 50.7869 46.6829 50.315 47.1548 49.8211C48.2414 48.6907 48.812 47.3737 48.812 46.0238C48.812 44.6629 48.2304 43.3569 47.1219 42.2594L41.0967 36.2122ZM45.0257 47.7688C45.0147 47.7688 45.0147 47.7798 45.0257 47.7688C44.5977 48.2297 44.1587 48.6468 43.6867 49.1077C42.9734 49.7882 42.249 50.5016 41.5686 51.3027C40.4601 52.488 39.1541 53.0478 37.442 53.0478C37.2774 53.0478 37.1018 53.0478 36.9371 53.0368C33.6776 52.8283 30.6485 51.5552 28.3767 50.4686C22.1649 47.4615 16.7103 43.1922 12.1776 37.7816C8.43519 33.2709 5.9329 29.1004 4.27568 24.6226C3.25501 21.8899 2.88186 19.7607 3.04648 17.7523C3.15623 16.4682 3.65011 15.4037 4.56103 14.4927L8.30349 10.7503C8.84126 10.2454 9.41196 9.97105 9.97168 9.97105C10.6631 9.97105 11.2228 10.3881 11.574 10.7393C11.585 10.7503 11.596 10.7612 11.6069 10.7722C12.2764 11.3978 12.913 12.0453 13.5824 12.7367C13.9227 13.0879 14.2739 13.4391 14.6251 13.8013L17.6212 16.7975C18.7846 17.9608 18.7846 19.0364 17.6212 20.1997C17.303 20.518 16.9957 20.8363 16.6774 21.1436C15.7555 22.0874 14.8775 22.9654 13.9227 23.8214C13.9007 23.8434 13.8788 23.8544 13.8678 23.8763C12.9239 24.8202 13.0995 25.7421 13.2971 26.3676C13.3081 26.4006 13.319 26.4335 13.33 26.4664C14.1092 28.3541 15.2067 30.132 16.8749 32.2502L16.8859 32.2612C19.915 35.9927 23.1087 38.901 26.6317 41.129C27.0816 41.4143 27.5426 41.6448 27.9816 41.8643C28.3767 42.0618 28.7498 42.2484 29.0681 42.4459C29.112 42.4679 29.1559 42.5008 29.1998 42.5228C29.573 42.7093 29.9242 42.7971 30.2863 42.7971C31.1972 42.7971 31.7679 42.2264 31.9545 42.0399L35.708 38.2864C36.0811 37.9133 36.6737 37.4633 37.3652 37.4633C38.0456 37.4633 38.6053 37.8913 38.9456 38.2645C38.9565 38.2755 38.9565 38.2755 38.9675 38.2864L45.0147 44.3336C46.1451 45.4531 46.1451 46.6055 45.0257 47.7688Z" fill="#3D3D3D"/>
        <path d="M28.1024 16.3693C30.9778 16.8522 33.5898 18.2131 35.6751 20.2984C37.7603 22.3836 39.1102 24.9957 39.6041 27.8711C39.7248 28.5955 40.3504 29.1003 41.0638 29.1003C41.1516 29.1003 41.2284 29.0893 41.3162 29.0783C42.1283 28.9466 42.6661 28.1784 42.5344 27.3663C41.9418 23.8872 40.2955 20.7154 37.7823 18.2022C35.269 15.6889 32.0972 14.0427 28.6182 13.45C27.806 13.3183 27.0488 13.8561 26.9061 14.6573C26.7634 15.4584 27.2902 16.2377 28.1024 16.3693Z" fill="#3D3D3D"/>
        <path d="M51.9404 26.9383C50.9636 21.2094 48.2638 15.9963 44.1152 11.8477C39.9667 7.6992 34.7536 4.99936 29.0247 4.02259C28.2235 3.87991 27.4662 4.42866 27.3235 5.22983C27.1918 6.04198 27.7296 6.79925 28.5418 6.94193C33.6561 7.80895 38.3204 10.2344 42.03 13.933C45.7395 17.6425 48.154 22.3069 49.021 27.4212C49.1417 28.1455 49.7673 28.6504 50.4807 28.6504C50.5685 28.6504 50.6453 28.6394 50.7331 28.6284C51.5343 28.5077 52.083 27.7395 51.9404 26.9383Z" fill="#3D3D3D"/>
    </g>
</svg>
