<svg width="41" height="38" viewBox="0 0 41 38" fill="none" xmlns="http://www.w3.org/2000/svg">
<path d="M37.6779 -0.000244141H4.06834C2.26661 -0.000244141 0.800781 1.46559 0.800781 3.26731V26.0131C0.800781 27.8148 2.26661 29.2807 4.06834 29.2807H15.6016L14.1664 35.199H12.3932C11.6198 35.199 10.9928 35.8261 10.9928 36.5994C10.9928 37.3728 11.6199 37.9998 12.3932 37.9998C13.0397 37.9998 25.9543 37.9998 26.4784 37.9998H29.353C30.1264 37.9998 30.7533 37.3727 30.7533 36.5994C30.7533 35.826 30.1263 35.199 29.353 35.199H27.5798L26.1445 29.2807H37.6778C39.4796 29.2807 40.9454 27.8148 40.9454 26.0131V3.26731C40.9455 1.46559 39.4796 -0.000244141 37.6779 -0.000244141ZM17.0483 35.1992L18.4836 29.2808H23.2626L24.6979 35.1992H17.0483ZM38.1447 26.0132C38.1447 26.2705 37.9352 26.48 37.6779 26.48C37.1207 26.48 4.5144 26.48 4.06842 26.48C3.81101 26.48 3.60166 26.2705 3.60166 26.0132V23.6861H38.1447V26.0132H38.1447ZM38.1447 20.8853H3.60158V3.26731C3.60158 3.00998 3.81101 2.80055 4.06834 2.80055H37.6778C37.9352 2.80055 38.1446 3.00998 38.1446 3.26731V20.8853H38.1447Z" fill="#4A93CF"/>
<path d="M27.71 9.00598H25.1119C25.1119 6.23843 23.0462 4.56592 20.8726 4.56592C18.6961 4.56592 16.6333 6.23835 16.6333 9.00598H14.0351C13.2617 9.00598 12.6348 9.63301 12.6348 10.4063V17.7199C12.6347 18.4933 13.2616 19.1202 14.035 19.1202H27.7101C28.4835 19.1202 29.1105 18.4932 29.1105 17.7199V10.4063C29.1104 9.63301 28.4834 9.00598 27.71 9.00598ZM20.8724 7.36656C21.5905 7.36656 22.3109 7.86727 22.3109 9.00583H19.4339C19.434 7.90553 20.1194 7.36656 20.8724 7.36656ZM26.3095 16.3194H15.4353V11.8066H16.6332V12.4689C16.6332 13.2423 17.2602 13.8692 18.0335 13.8692C18.8069 13.8692 19.4339 13.2422 19.4339 12.4689V11.8066H22.3109V12.4689C22.3109 13.2423 22.9379 13.8692 23.7113 13.8692C24.4847 13.8692 25.1116 13.2422 25.1116 12.4689V11.8066H26.3095V16.3194H26.3095Z" fill="#4A93CF"/>
</svg>
