<svg width="42" height="38" viewBox="0 0 42 38" fill="none" xmlns="http://www.w3.org/2000/svg">
<path d="M28.1437 32.9485C27.9305 32.8188 27.7448 32.645 27.5972 32.4343C27.529 32.3371 27.4714 32.2344 27.4237 32.1282H3.20387V8.25577H36.0788V23.8436C36.7807 23.907 37.3695 24.368 37.6168 24.9992C37.8357 24.8792 38.0797 24.805 38.3361 24.7824C38.5096 24.7673 38.6819 24.7781 38.849 24.8111V2.30863C38.849 1.03564 37.8136 0 36.5407 0H2.74212C1.46924 0 0.433594 1.03564 0.433594 2.30863V32.59C0.433594 33.863 1.46924 34.8986 2.74212 34.8986H27.9333C27.7367 34.5005 27.6901 34.0511 27.8057 33.6187C27.8724 33.37 27.9878 33.1432 28.1437 32.9485ZM33.5437 3.87664C33.5437 3.40588 33.9254 3.02416 34.3961 3.02416H35.2485C35.7194 3.02416 36.1009 3.40578 36.1009 3.87664V4.84274C36.1009 5.31349 35.7193 5.69511 35.2485 5.69511H34.3961C33.9253 5.69511 33.5437 5.31349 33.5437 4.84274V3.87664ZM29.5801 3.87664C29.5801 3.40588 29.9617 3.02416 30.4325 3.02416H31.285C31.7558 3.02416 32.1374 3.40578 32.1374 3.87664V4.84274C32.1374 5.31349 31.7557 5.69511 31.285 5.69511H30.4325C29.9617 5.69511 29.5801 5.31349 29.5801 4.84274V3.87664ZM25.6164 3.87664C25.6164 3.40588 25.9981 3.02416 26.4688 3.02416H27.3212C27.792 3.02416 28.1736 3.40578 28.1736 3.87664V4.84274C28.1736 5.31349 27.792 5.69511 27.3212 5.69511H26.4688C25.9981 5.69511 25.6164 5.31349 25.6164 4.84274V3.87664Z" fill="#4A93CF"/>
<path d="M41.5603 31.3229L41.3042 29.8702C41.2696 29.6746 41.0832 29.544 40.8874 29.5784L39.5956 29.8061C39.4405 29.4422 39.2425 29.1013 39.0074 28.7893L39.8511 27.7836C39.9125 27.7107 39.9423 27.6162 39.9341 27.5211C39.9257 27.426 39.8798 27.3382 39.8068 27.2768L38.677 26.3286C38.6039 26.2673 38.5092 26.2375 38.4142 26.2458C38.3191 26.2542 38.2313 26.2999 38.17 26.373L37.327 27.378C36.981 27.2016 36.6108 27.0657 36.223 26.976V25.6642C36.223 25.4656 36.0619 25.3043 35.8632 25.3043H34.3881C34.1895 25.3043 34.0283 25.4656 34.0283 25.6642V26.976C33.6403 27.0656 33.2705 27.2016 32.9243 27.378L32.0811 26.3731C31.9534 26.2209 31.7265 26.2011 31.5742 26.3287L30.4443 27.2768C30.3713 27.3382 30.3255 27.426 30.3171 27.5211C30.3089 27.6162 30.3387 27.7108 30.4 27.7839L31.2438 28.7894C31.0091 29.1013 30.8107 29.4424 30.6556 29.8062L29.3638 29.5784C29.1685 29.5441 28.9817 29.6746 28.9471 29.8702L28.691 31.3229C28.6745 31.4168 28.6959 31.5134 28.7505 31.5917C28.8054 31.6699 28.8886 31.7231 28.9826 31.7397L30.2754 31.9675C30.2964 32.368 30.3662 32.7555 30.4784 33.1245L29.3422 33.7803C29.2595 33.8278 29.1993 33.9065 29.1745 33.9986C29.1498 34.0908 29.1628 34.1889 29.2104 34.2716L29.9479 35.549C29.9954 35.6317 30.0742 35.6919 30.1663 35.7166C30.1969 35.7248 30.2282 35.7288 30.2594 35.7288C30.322 35.7288 30.384 35.7126 30.4392 35.6806L31.5764 35.0241C31.8438 35.3106 32.1457 35.5645 32.4756 35.7792L32.0266 37.0127C31.994 37.1024 31.9982 37.2013 32.0386 37.2878C32.079 37.3743 32.1519 37.4412 32.2416 37.4738L33.6274 37.9781C33.6672 37.9926 33.7089 38 33.7505 38C33.8024 38 33.8546 37.9888 33.9027 37.9663C33.9892 37.926 34.0559 37.8529 34.0885 37.7632L34.5375 36.5297C34.7299 36.553 34.9258 36.5651 35.1246 36.5651C35.3233 36.5651 35.5192 36.5528 35.7117 36.5297L36.1607 37.7632C36.1932 37.8529 36.2602 37.926 36.3465 37.9663C36.3945 37.9887 36.4465 38 36.4987 38C36.5403 38 36.582 37.9928 36.6218 37.9781L38.0078 37.4738C38.0972 37.4412 38.1703 37.3741 38.2105 37.2878C38.2509 37.2013 38.2552 37.1024 38.2226 37.0127L37.7736 35.7794C38.1032 35.5647 38.4051 35.3106 38.6728 35.0243L39.8099 35.6808C39.8651 35.7126 39.9272 35.729 39.9897 35.729C40.0209 35.729 40.0524 35.7248 40.0829 35.7168C40.1751 35.6921 40.2536 35.6317 40.3012 35.5492L41.0387 34.2716C41.0863 34.1891 41.0993 34.0908 41.0747 33.9986C41.0499 33.9067 40.9896 33.828 40.907 33.7803L39.7709 33.1247C39.8832 32.7556 39.9527 32.3681 39.9738 31.9677L41.2665 31.7398C41.3606 31.7232 41.444 31.67 41.4987 31.5917C41.5554 31.5134 41.5769 31.4168 41.5603 31.3229ZM35.1258 33.6312C34.0331 33.6312 33.1471 32.7452 33.1471 31.6525C33.1471 30.5597 34.0332 29.6739 35.1258 29.6739C36.2185 29.6739 37.1045 30.5597 37.1045 31.6525C37.1045 32.7452 36.2185 33.6312 35.1258 33.6312Z" fill="#4A93CF"/>
<path d="M16.5651 21.4893C16.5651 21.0239 16.2923 20.5963 15.87 20.4002L12.0053 18.6046L15.8701 16.8087C16.2923 16.6124 16.5651 16.185 16.5651 15.7197V15.6884C16.5651 15.2761 16.3575 14.8975 16.0102 14.6762C15.818 14.5535 15.5942 14.4885 15.3631 14.4885C15.1889 14.4885 15.0141 14.5268 14.8577 14.5995L8.67905 17.4727C8.25697 17.669 7.98438 18.0965 7.98438 18.5617V18.6476C7.98438 19.1122 8.25688 19.5393 8.67915 19.7366L14.8583 22.6101C15.0181 22.6841 15.1882 22.7216 15.364 22.7216C15.593 22.7216 15.8161 22.6565 16.0102 22.5331C16.3577 22.311 16.5652 21.9327 16.5652 21.5208L16.5651 21.4893Z" fill="#4A93CF"/>
<path d="M22.6624 11.5606C22.437 11.252 22.0745 11.0679 21.6926 11.0679H21.6618C21.1374 11.0679 20.6776 11.4034 20.5178 11.902L16.4469 24.5155C16.3311 24.8797 16.3963 25.2808 16.6214 25.5892C16.8468 25.8976 17.2093 26.0818 17.5912 26.0818H17.6221C18.1463 26.0818 18.6058 25.7462 18.7654 25.2477L22.8358 12.6352C22.9527 12.2713 22.8879 11.8696 22.6624 11.5606Z" fill="#4A93CF"/>
<path d="M30.6006 17.4725L24.4219 14.5993C24.266 14.5268 24.0915 14.4885 23.9173 14.4885C23.6863 14.4885 23.4624 14.5533 23.2703 14.6758C22.9224 14.8975 22.7148 15.276 22.7148 15.6883V15.7196C22.7148 16.1845 22.9874 16.612 23.41 16.8091L27.2746 18.6046L23.4099 20.4001C22.9876 20.5962 22.7148 21.0238 22.7148 21.4892V21.5207C22.7148 21.9326 22.9224 22.3108 23.2701 22.5331C23.4635 22.6563 23.6868 22.7215 23.9161 22.7215C24.0917 22.7215 24.2616 22.684 24.4224 22.6097L30.6014 19.7362C31.0233 19.5394 31.2957 19.1121 31.2957 18.6476V18.5617C31.2954 18.0964 31.0228 17.6689 30.6006 17.4725Z" fill="#4A93CF"/>
</svg>
