<svg width="36" height="36" viewBox="0 0 36 36" fill="none" xmlns="http://www.w3.org/2000/svg">
<g clip-path="url(#clip0)">
<path d="M11.824 34.4434L24.1753 34.4436V33.3963C24.1753 32.8227 23.7114 32.3551 23.1391 32.3492C23.1386 32.3492 23.138 32.3492 23.1374 32.3492L11.824 34.4434ZM11.824 34.4434V33.3961C11.824 32.8218 12.2891 32.3538 12.8622 32.349C12.8696 32.3491 12.8775 32.3491 12.8857 32.3489L23.1118 32.3491L11.824 34.4434ZM9.52062 22.5783L9.52061 22.5783C9.42609 22.7718 9.40817 22.9938 9.47053 23.2C9.47054 23.2 9.47054 23.2 9.47054 23.2L11.789 30.8643C10.8075 31.2855 10.1178 32.2614 10.1178 33.3961V35.2965C10.1178 35.7677 10.4997 36.1496 10.9709 36.1496L25.0284 36.1498C25.2547 36.1498 25.4717 36.0599 25.6316 35.9C25.7916 35.74 25.8815 35.523 25.8815 35.2967V33.3963C25.8815 32.2617 25.1918 31.2857 24.2104 30.8646L26.529 23.2C26.5914 22.9939 26.5734 22.7719 26.4789 22.5784L26.4789 22.5784L18.7668 6.79856C18.7667 6.79834 18.7666 6.79811 18.7665 6.79789C18.4636 6.16286 17.5356 6.16304 17.2328 6.79785C17.2327 6.79808 17.2326 6.79832 17.2325 6.79856L9.52062 22.5783ZM15.3889 23.5464H15.3888L15.389 23.5526C15.5322 27.0093 20.468 27.0079 20.6107 23.5526L20.6108 23.5526V23.5464C20.6108 22.4049 19.8748 21.4328 18.853 21.0786V10.8607L24.7989 23.0268L22.4949 30.643L13.5045 30.6427L11.2007 23.0266L17.1467 10.8601V21.0786C16.1249 21.4328 15.3889 22.4049 15.3889 23.5464ZM17.9997 22.6417C18.4974 22.6417 18.9027 23.046 18.9044 23.5432C18.8517 24.7463 17.1476 24.7463 17.095 23.5433C17.0967 23.046 17.502 22.6417 17.9997 22.6417Z" fill="#cccccc" stroke="#cccccc" stroke-width="0.3"/>
<path d="M3.0844 2.45809L3.08429 2.45809L3.0844 2.46376C3.13197 4.97336 6.50465 5.55518 7.43484 3.31404H15.389V4.21872C15.389 4.68989 15.7709 5.07184 16.2421 5.07184H19.7577C20.2289 5.07184 20.6108 4.68989 20.6108 4.21872V3.31404H28.5649C29.4958 5.55584 32.868 4.97269 32.9154 2.46375L32.9154 2.46375V2.46092C32.9154 1.21498 31.902 0.20156 30.656 0.20156C29.7115 0.20156 28.901 0.783946 28.5639 1.6078H20.6108V0.70312C20.6108 0.231944 20.2289 -0.15 19.7577 -0.15H16.2421C15.7709 -0.15 15.389 0.231944 15.389 0.70312V1.6078H7.4349C6.50431 -0.633685 3.13174 -0.0511788 3.0844 2.45809ZM5.34373 3.01404C5.03989 3.01404 4.79227 2.76743 4.79062 2.46397C4.82406 1.72725 5.86351 1.72718 5.89684 2.46396C5.8952 2.76743 5.64764 3.01404 5.34373 3.01404ZM18.9046 3.3656H17.0952V1.55624H18.9046V3.3656ZM30.656 3.01404C30.3522 3.01404 30.1046 2.76744 30.1029 2.46398C30.1364 1.72725 31.1758 1.72718 31.2092 2.46395C31.2075 2.76742 30.9599 3.01404 30.656 3.01404Z" fill="#cccccc" stroke="#cccccc" stroke-width="0.3"/>
</g>
</svg>
