<svg width="362" height="365" viewBox="0 0 362 365" fill="none" xmlns="http://www.w3.org/2000/svg">
<path d="M280.571 256.53L137.591 173.98V73.2691C137.591 71.2699 138.806 70.3517 140.307 71.2165L277.854 150.63C279.354 151.497 280.571 153.819 280.571 155.818V256.53Z" fill="white"/>
<path d="M280.562 149.008L143.013 69.594C142.395 69.2375 141.834 69.1982 141.377 69.3973L141.368 69.3845L141.141 69.5211C141.122 69.534 141.102 69.5414 141.085 69.5547L138.658 71.009L138.666 71.0215C139.124 70.8211 139.686 70.86 140.306 71.2165L277.854 150.63C279.354 151.496 280.57 153.819 280.57 155.818V256.53L283.276 254.906V154.195C283.276 152.196 282.06 149.874 280.562 149.008Z" fill="url(#paint0_linear)"/>
<path d="M275.123 247.571L143.037 171.312V78.606L275.123 154.867V247.571Z" fill="url(#paint1_linear)"/>
<path d="M186.268 306.407L51.198 228.425C49.0142 227.163 49.2878 224.962 51.8099 223.507L137.598 173.976L280.576 256.526L194.788 306.055C192.267 307.51 188.453 307.667 186.268 306.407Z" fill="#F3F3F3"/>
<path d="M194.789 306.056C192.267 307.51 188.453 307.668 186.269 306.408L51.1972 228.426C50.1605 227.827 49.6965 227.014 49.7449 226.171L49.7246 226.174V227.548V231.332L49.7494 231.341C49.7482 232.145 50.2065 232.913 51.1976 233.486L186.269 311.469C188.453 312.73 192.267 312.573 194.789 311.116L280.577 261.586V260.212V257.9V256.526L194.789 306.056Z" fill="url(#paint2_linear)"/>
<path d="M136.353 189.464L130.105 185.857C129.231 185.352 129.231 184.534 130.105 184.028L136.353 180.423C137.228 179.917 138.645 179.917 139.518 180.423L145.768 184.028C146.641 184.534 146.641 185.352 145.768 185.857L139.518 189.464C138.644 189.969 137.228 189.969 136.353 189.464Z" fill="white"/>
<path d="M148.621 196.547L142.374 192.939C141.498 192.434 141.498 191.617 142.374 191.111L148.621 187.504C149.495 187 150.913 187 151.787 187.504L158.035 191.111C158.908 191.617 158.908 192.434 158.035 192.939L151.787 196.547C150.913 197.051 149.495 197.051 148.621 196.547Z" fill="white"/>
<path d="M160.889 203.629L154.64 200.021C153.766 199.518 153.766 198.699 154.64 198.194L160.889 194.586C161.763 194.082 163.18 194.082 164.054 194.586L170.302 198.194C171.176 198.699 171.176 199.518 170.302 200.021L164.054 203.629C163.18 204.134 161.763 204.134 160.889 203.629Z" fill="white"/>
<path d="M173.157 210.711L166.907 207.103C166.034 206.599 166.034 205.781 166.907 205.277L173.157 201.668C174.031 201.164 175.448 201.164 176.322 201.668L182.57 205.277C183.444 205.781 183.444 206.599 182.57 207.104L176.322 210.711C175.448 211.217 174.031 211.217 173.157 210.711Z" fill="white"/>
<path d="M185.423 217.794L179.174 214.186C178.301 213.682 178.301 212.864 179.174 212.36L185.423 208.752C186.296 208.246 187.714 208.246 188.588 208.752L194.836 212.36C195.711 212.864 195.711 213.682 194.836 214.186L188.588 217.794C187.714 218.299 186.296 218.299 185.423 217.794Z" fill="white"/>
<path d="M197.691 224.876L191.441 221.269C190.568 220.765 190.568 219.946 191.441 219.442L197.691 215.835C198.565 215.329 199.982 215.329 200.856 215.835L207.105 219.442C207.978 219.946 207.978 220.765 207.105 221.269L200.856 224.876C199.982 225.381 198.565 225.381 197.691 224.876Z" fill="white"/>
<path d="M209.958 231.959L203.709 228.353C202.837 227.846 202.837 227.028 203.709 226.524L209.958 222.916C210.831 222.412 212.249 222.412 213.123 222.916L219.371 226.524C220.245 227.028 220.245 227.846 219.371 228.353L213.123 231.959C212.249 232.464 210.832 232.464 209.958 231.959Z" fill="white"/>
<path d="M222.226 239.042L215.978 235.434C215.102 234.93 215.102 234.113 215.978 233.608L222.225 230C223.1 229.494 224.516 229.494 225.39 230L231.64 233.608C232.513 234.113 232.513 234.93 231.64 235.434L225.39 239.042C224.516 239.547 223.1 239.547 222.226 239.042Z" fill="white"/>
<path d="M234.493 246.124L228.244 242.517C227.372 242.012 227.372 241.194 228.244 240.689L234.493 237.082C235.366 236.577 236.785 236.577 237.658 237.082L243.906 240.689C244.78 241.194 244.78 242.012 243.906 242.517L237.658 246.124C236.785 246.629 235.366 246.629 234.493 246.124Z" fill="white"/>
<path d="M246.76 253.207L240.511 249.599C239.638 249.094 239.638 248.277 240.511 247.772L246.76 244.164C247.635 243.66 249.052 243.66 249.926 244.164L256.175 247.772C257.048 248.277 257.048 249.094 256.175 249.599L249.926 253.207C249.052 253.711 247.635 253.711 246.76 253.207Z" fill="white"/>
<path d="M259.028 260.29L252.781 256.682C251.906 256.177 251.906 255.359 252.781 254.855L259.028 251.247C259.902 250.743 261.318 250.743 262.194 251.247L268.442 254.855C269.317 255.359 269.317 256.177 268.442 256.682L262.194 260.29C261.318 260.795 259.902 260.795 259.028 260.29Z" fill="white"/>
<path d="M124.413 196.473L117.963 192.749C117.145 192.278 117.145 191.511 117.963 191.038L124.413 187.315C125.231 186.842 126.558 186.842 127.378 187.315L133.826 191.038C134.645 191.511 134.645 192.278 133.826 192.749L127.378 196.473C126.558 196.946 125.231 196.946 124.413 196.473Z" fill="white"/>
<path d="M136.681 203.557L130.231 199.833C129.413 199.36 129.413 198.594 130.231 198.121L136.681 194.398C137.499 193.925 138.825 193.925 139.645 194.398L146.095 198.121C146.913 198.594 146.913 199.36 146.095 199.833L139.645 203.557C138.825 204.028 137.499 204.028 136.681 203.557Z" fill="white"/>
<path d="M148.948 210.639L142.498 206.915C141.68 206.443 141.68 205.677 142.498 205.204L148.948 201.48C149.766 201.007 151.095 201.007 151.912 201.48L158.361 205.204C159.18 205.677 159.18 206.443 158.361 206.915L151.912 210.639C151.095 211.111 149.766 211.111 148.948 210.639Z" fill="white"/>
<path d="M161.216 217.722L154.766 213.997C153.948 213.527 153.948 212.76 154.766 212.287L161.216 208.563C162.034 208.091 163.36 208.091 164.179 208.563L170.63 212.287C171.448 212.76 171.448 213.526 170.63 213.999L164.179 217.722C163.36 218.194 162.034 218.194 161.216 217.722Z" fill="white"/>
<path d="M173.483 224.804L167.032 221.08C166.214 220.608 166.214 219.842 167.032 219.37L173.483 215.646C174.302 215.173 175.629 215.173 176.446 215.646L182.895 219.37C183.715 219.842 183.715 220.608 182.895 221.08L176.446 224.804C175.628 225.277 174.302 225.277 173.483 224.804Z" fill="white"/>
<path d="M185.751 231.887L179.301 228.162C178.482 227.69 178.482 226.924 179.301 226.451L185.751 222.727C186.569 222.255 187.897 222.255 188.714 222.727L195.165 226.451C195.983 226.924 195.983 227.69 195.165 228.162L188.714 231.887C187.897 232.36 186.569 232.36 185.751 231.887Z" fill="white"/>
<path d="M198.017 238.97L191.567 235.245C190.75 234.774 190.75 234.007 191.567 233.534L198.017 229.811C198.836 229.338 200.164 229.338 200.981 229.811L207.43 233.534C208.25 234.007 208.25 234.774 207.43 235.245L200.981 238.97C200.164 239.442 198.836 239.442 198.017 238.97Z" fill="white"/>
<path d="M210.284 246.051L203.836 242.328C203.017 241.855 203.017 241.09 203.836 240.617L210.284 236.894C211.104 236.421 212.43 236.421 213.25 236.894L219.699 240.617C220.517 241.09 220.517 241.855 219.699 242.328L213.25 246.051C212.43 246.524 211.104 246.524 210.284 246.051Z" fill="white"/>
<path d="M222.552 253.134L216.103 249.411C215.285 248.938 215.285 248.173 216.103 247.699L222.552 243.977C223.371 243.503 224.699 243.503 225.516 243.977L231.966 247.699C232.784 248.173 232.784 248.938 231.966 249.411L225.516 253.134C224.699 253.606 223.371 253.606 222.552 253.134Z" fill="white"/>
<path d="M112.473 203.484L105.822 199.643C105.059 199.204 105.059 198.489 105.822 198.05L112.473 194.209C113.237 193.769 114.472 193.769 115.236 194.209L121.886 198.05C122.649 198.489 122.649 199.204 121.886 199.643L115.236 203.484C114.472 203.925 113.237 203.925 112.473 203.484Z" fill="white"/>
<path d="M124.739 210.567L118.089 206.727C117.327 206.285 117.327 205.572 118.089 205.131L124.739 201.292C125.503 200.851 126.74 200.851 127.503 201.292L134.154 205.131C134.916 205.572 134.916 206.285 134.154 206.727L127.504 210.567C126.74 211.006 125.503 211.006 124.739 210.567Z" fill="white"/>
<path d="M137.008 217.649L130.358 213.81C129.594 213.369 129.594 212.654 130.358 212.214L137.008 208.374C137.772 207.934 139.008 207.934 139.771 208.374L146.421 212.214C147.184 212.655 147.184 213.369 146.421 213.81L139.771 217.649C139.007 218.09 137.772 218.09 137.008 217.649Z" fill="white"/>
<path d="M149.274 224.732L142.624 220.891C141.862 220.451 141.862 219.737 142.624 219.297L149.274 215.457C150.038 215.016 151.275 215.016 152.038 215.457L158.688 219.297C159.451 219.737 159.451 220.451 158.688 220.891L152.038 224.732C151.275 225.173 150.038 225.173 149.274 224.732Z" fill="white"/>
<path d="M161.542 231.814L154.892 227.975C154.128 227.533 154.128 226.82 154.892 226.379L161.542 222.54C162.305 222.099 163.542 222.099 164.304 222.54L170.956 226.379C171.719 226.82 171.719 227.533 170.956 227.975L164.304 231.814C163.542 232.254 162.305 232.254 161.542 231.814Z" fill="white"/>
<path d="M173.81 238.896L167.159 235.057C166.396 234.617 166.396 233.901 167.159 233.461L173.81 229.622C174.574 229.182 175.809 229.182 176.573 229.622L183.224 233.461C183.987 233.901 183.987 234.617 183.224 235.057L176.573 238.896C175.809 239.338 174.574 239.338 173.81 238.896Z" fill="white"/>
<path d="M186.077 245.979L179.427 242.139C178.664 241.699 178.664 240.984 179.427 240.544L186.077 236.704C186.841 236.265 188.077 236.265 188.839 236.704L195.491 240.544C196.253 240.984 196.253 241.698 195.491 242.139L188.839 245.979C188.077 246.42 186.841 246.42 186.077 245.979Z" fill="white"/>
<path d="M198.344 253.062L191.693 249.223C190.93 248.781 190.93 248.067 191.693 247.628L198.344 243.787C199.108 243.347 200.343 243.347 201.107 243.787L207.758 247.628C208.521 248.067 208.521 248.781 207.758 249.223L201.107 253.062C200.343 253.501 199.108 253.501 198.344 253.062Z" fill="white"/>
<path d="M210.612 260.143L203.96 256.305C203.198 255.864 203.198 255.15 203.96 254.71L210.612 250.869C211.374 250.429 212.612 250.429 213.375 250.869L220.026 254.71C220.787 255.15 220.787 255.863 220.026 256.305L213.375 260.143C212.612 260.584 211.374 260.584 210.612 260.143Z" fill="white"/>
<path d="M222.879 267.227L216.229 263.387C215.465 262.947 215.465 262.232 216.229 261.792L222.879 257.952C223.641 257.511 224.878 257.511 225.642 257.952L232.293 261.792C233.056 262.232 233.056 262.947 232.293 263.387L225.642 267.227C224.878 267.668 223.643 267.668 222.879 267.227Z" fill="white"/>
<path d="M256.5 261.865L251.422 258.934L250.05 258.141L237.784 251.058C236.964 250.586 235.638 250.586 234.819 251.058L228.37 254.783C227.551 255.255 227.551 256.021 228.37 256.493L239.155 262.721L235.146 265.035L232.368 266.638L228.495 268.876C227.733 269.316 227.733 270.029 228.495 270.47L235.146 274.31C235.909 274.75 237.146 274.75 237.909 274.31L241.553 272.206L244.561 270.47L256.501 263.576C257.318 263.103 257.318 262.338 256.5 261.865Z" fill="white"/>
<path d="M100.533 210.493L93.6804 206.538C92.9724 206.129 92.9724 205.467 93.6804 205.06L100.533 201.103C101.24 200.695 102.386 200.695 103.094 201.103L109.946 205.06C110.654 205.467 110.654 206.129 109.946 206.538L103.094 210.493C102.386 210.902 101.24 210.902 100.533 210.493Z" fill="white"/>
<path d="M112.799 217.577L105.948 213.621C105.24 213.213 105.24 212.55 105.948 212.143L112.799 208.185C113.506 207.776 114.654 207.776 115.362 208.185L122.214 212.143C122.92 212.55 122.92 213.213 122.214 213.621L115.362 217.577C114.654 217.985 113.507 217.985 112.799 217.577Z" fill="white"/>
<path d="M125.068 224.658L118.215 220.703C117.508 220.294 117.508 219.633 118.215 219.224L125.068 215.268C125.774 214.86 126.922 214.86 127.629 215.268L134.481 219.224C135.189 219.633 135.189 220.294 134.481 220.703L127.629 224.658C126.922 225.068 125.774 225.068 125.068 224.658Z" fill="white"/>
<path d="M195.818 254.638L183.551 247.555L176.699 243.599L171.283 240.472L164.431 236.515L159.016 233.39L152.164 229.432L146.748 226.307L143.824 224.618L139.897 222.35C139.19 221.943 138.042 221.943 137.336 222.35L130.482 226.307C129.776 226.715 129.776 227.376 130.482 227.785L134.411 230.052L137.336 231.741L142.75 234.868L149.603 238.825L155.017 241.951L161.869 245.906L167.285 249.033L174.138 252.989L186.405 260.072C187.112 260.48 188.258 260.48 188.966 260.072L195.818 256.115C196.526 255.708 196.526 255.045 195.818 254.638Z" fill="white"/>
<path d="M198.671 267.153L191.82 263.199C191.112 262.791 191.112 262.127 191.82 261.718L198.671 257.763C199.379 257.354 200.526 257.354 201.234 257.763L208.086 261.718C208.792 262.127 208.792 262.791 208.086 263.199L201.234 267.153C200.526 267.563 199.379 267.563 198.671 267.153Z" fill="white"/>
<path d="M210.94 274.236L204.087 270.28C203.379 269.872 203.379 269.211 204.087 268.802L210.94 264.846C211.647 264.437 212.793 264.437 213.5 264.846L220.353 268.802C221.061 269.211 221.061 269.872 220.353 270.28L213.5 274.236C212.793 274.645 211.647 274.645 210.94 274.236Z" fill="white"/>
<path d="M223.205 281.32L216.353 277.363C215.647 276.955 215.647 276.293 216.353 275.885L223.205 271.928C223.913 271.521 225.06 271.521 225.768 271.928L232.619 275.885C233.327 276.293 233.327 276.955 232.619 277.363L225.768 281.32C225.061 281.728 223.913 281.728 223.205 281.32Z" fill="white"/>
<path d="M146.561 276.934L101.284 250.793C100.171 250.15 100.31 249.028 101.595 248.286L126.694 233.795C127.979 233.053 129.922 232.973 131.035 233.616L176.312 259.757C177.425 260.398 177.287 261.521 176.001 262.262L150.902 276.753C149.615 277.496 147.674 277.577 146.561 276.934Z" fill="white"/>
<path opacity="0.85" d="M262.469 255.219L130.381 178.959V86.2529L262.469 162.514V255.219Z" fill="url(#paint3_linear)"/>
<path opacity="0.65" d="M249.952 262.458L117.864 186.198V93.4922L249.952 169.753V262.458Z" fill="url(#paint4_linear)"/>
<path d="M97.6474 163.315L59.1727 137.953C57.5469 137.014 56.2304 134.498 56.2304 132.332L53.4951 33.2332C53.4951 31.3019 56.815 29.2903 59.1727 30.3928L100.121 54.0338C102.191 54.9434 103.063 56.9782 103.063 59.6551V159.37C103.063 161.841 99.7129 164.053 97.6474 163.315Z" fill="url(#paint5_linear)"/>
<path d="M97.1888 163.099L56.2404 139.458C54.6163 138.519 53.2998 136.002 53.2998 133.836V34.1212C53.2998 31.9548 54.6163 30.9583 56.2404 31.8964L97.1888 55.5379C99.2596 56.447 100.131 58.4818 100.131 61.1596V160.874C100.131 163.041 98.8145 164.037 97.1888 163.099Z" fill="white"/>
<path d="M97.7707 154.152L55.6611 129.839L55.6624 37.8672L97.7719 62.1798L97.7707 154.152Z" fill="url(#paint6_linear)"/>
<path d="M79.8677 49.8239L73.5641 46.1844C73.1791 45.9621 72.8682 45.3672 72.8682 44.855C72.8682 44.3433 73.1791 44.1082 73.5641 44.3297L79.8677 47.9696C80.2523 48.1911 80.5644 48.786 80.5644 49.2981C80.564 49.8106 80.2523 50.0462 79.8677 49.8239Z" fill="#DEDEDD"/>
<path d="M59.6814 37.4998C59.6814 38.1726 59.2087 38.4454 58.6257 38.1084C58.0445 37.7718 57.5713 36.9542 57.5713 36.2806C57.5713 35.6083 58.0445 35.3354 58.6257 35.672C59.2087 36.0086 59.6814 36.8271 59.6814 37.4998Z" fill="#DEDEDD"/>
<path d="M61.7854 38.7146C61.7854 39.0363 61.5606 39.1667 61.2812 39.006C61.0034 38.845 60.7773 38.4538 60.7773 38.1325C60.7773 37.8116 61.0034 37.6812 61.2812 37.8415C61.5602 38.0033 61.7854 38.3937 61.7854 38.7146Z" fill="#DEDEDD"/>
<path d="M79.5863 148.236C79.5863 150.067 78.3 150.809 76.714 149.893C75.13 148.978 73.8438 146.752 73.8438 144.922C73.8438 143.091 75.13 142.349 76.714 143.264C78.3 144.18 79.5863 146.406 79.5863 148.236Z" fill="url(#paint7_linear)"/>
<path d="M79.1192 147.968C79.1192 149.501 78.0436 150.123 76.7142 149.356C75.3865 148.589 74.3105 146.725 74.3105 145.191C74.3105 143.657 75.3869 143.035 76.7142 143.803C78.044 144.569 79.1192 146.434 79.1192 147.968Z" fill="white"/>
<path d="M55.6611 37.8672L97.7719 62.1797V72.5132L55.6611 48.2006V37.8672Z" fill="#4586C7"/>
<path d="M57.5713 42.7334L62.7695 45.7345V44.9086L57.5713 41.9075V42.7334Z" fill="#FCF6FA"/>
<path d="M57.5713 44.4465L62.7695 47.4476V46.6217L57.5713 43.6206V44.4465Z" fill="#FCF6FA"/>
<path d="M57.5713 46.1597L62.7695 49.1603V48.3348L57.5713 45.3337V46.1597Z" fill="#FCF6FA"/>
<path d="M93.9591 65.8305C94.0796 65.8624 94.2145 65.9646 94.3201 66.122L95.8399 68.3543C95.8527 68.3741 95.866 68.3948 95.8767 68.4155L95.3758 68.8763C95.3617 68.8573 95.3468 68.8391 95.3328 68.8188L93.8134 66.5865C93.707 66.43 93.6523 66.2544 93.6523 66.1104L93.1154 65.3213C92.5445 65.6173 91.6448 65.1681 91.0015 64.2242C90.2923 63.1817 90.1603 61.9232 90.7088 61.4206C91.2578 60.918 92.2803 61.3568 92.9908 62.3997C93.6329 63.3436 93.8018 64.4635 93.4205 65.041L93.9591 65.8305ZM92.6629 62.6998C92.1876 62.0014 91.5016 61.7071 91.1332 62.0436C90.7668 62.381 90.8537 63.224 91.3294 63.9224C91.8055 64.6212 92.4911 64.9156 92.8591 64.5782C93.2255 64.242 93.1381 63.3987 92.6629 62.6998Z" fill="#FCF6FA"/>
<g opacity="0.2">
<g opacity="0.2">
<path opacity="0.2" d="M94.8529 146.676L61.2266 127.262C60.5923 126.896 60.0781 125.913 60.0781 125.068V106.636C60.0781 105.79 60.5923 105.402 61.2266 105.768L94.8529 125.182C95.4875 125.548 96.0013 126.53 96.0013 127.376V145.808C96.0013 146.654 95.4871 147.043 94.8529 146.676Z" fill="#010101"/>
</g>
<path opacity="0.2" d="M94.8474 95.4699L61.2344 76.0636C60.6001 75.6972 60.0859 74.7148 60.0859 73.8698V57.5723C60.0859 56.7265 60.6001 56.3378 61.2344 56.7046L94.8474 76.1108C95.4817 76.4768 95.9967 77.4592 95.9967 78.3042V94.6017C95.9967 95.4475 95.4817 95.8367 94.8474 95.4699Z" fill="#010101"/>
<path opacity="0.2" d="M61.3205 90.1855L94.7618 109.493C95.4432 109.886 95.9963 109.567 95.9963 108.78V99.1204C95.9963 98.3334 95.4428 97.3766 94.7618 96.9825L61.3205 77.6748C60.6386 77.2815 60.0859 77.6003 60.0859 78.3873V88.0472C60.0855 88.835 60.6386 89.7918 61.3205 90.1855Z" fill="#010101"/>
<path opacity="0.2" d="M61.3205 104.258L94.7618 123.565C95.4432 123.96 95.9963 123.64 95.9963 122.854V113.193C95.9963 112.406 95.4428 111.449 94.7618 111.056L61.3205 91.7487C60.6386 91.355 60.0859 91.6742 60.0859 92.4608V102.121C60.0855 102.908 60.6386 103.865 61.3205 104.258Z" fill="#010101"/>
</g>
<path d="M92.6746 143.886L59.0478 124.472C58.4136 124.106 57.8994 123.124 57.8994 122.278V103.846C57.8994 103.001 58.4136 102.612 59.0478 102.978L92.6746 122.392C93.3092 122.758 93.823 123.741 93.823 124.587V143.018C93.823 143.864 93.3092 144.253 92.6746 143.886Z" fill="white"/>
<path d="M91.4977 141.538C91.0228 137.242 88.8564 127.995 85.7265 126.135C82.1703 124.019 80.7639 131.279 79.221 130.316C77.6784 129.354 77.8171 124.304 74.9816 122.667C72.1465 121.03 72.2985 128.563 69.9118 127.074C67.6074 125.637 67.8153 120.705 64.9202 119.163C62.8084 118.039 60.9511 121.669 60.2217 123.48L91.4977 141.538Z" fill="url(#paint8_linear)"/>
<path d="M92.6675 92.6813L59.0557 73.2742C58.4214 72.9082 57.9072 71.9258 57.9072 71.0808V54.7833C57.9072 53.9379 58.4214 53.5496 59.0557 53.9156L92.6675 73.3218C93.3022 73.6878 93.8159 74.6702 93.8159 75.5165V91.8136C93.8159 92.6581 93.3022 93.0473 92.6675 92.6813Z" fill="white"/>
<path d="M61.3467 63.1321L89.3269 79.2863C89.8895 79.6117 90.5908 79.2056 90.5908 78.5556V76.2935C90.5908 75.8464 90.3536 75.4332 89.9669 75.2097L61.8811 58.9949C61.3649 58.6973 60.7207 59.0691 60.7207 59.6644V62.0494C60.7207 62.4966 60.9604 62.9089 61.3467 63.1321Z" fill="#EAEAEA"/>
<path d="M60.7207 65.9494V66.7339C60.7207 67.0916 60.9124 67.422 61.2221 67.6004L89.7346 84.0619C90.1159 84.2818 90.5912 84.0065 90.5912 83.5664V82.7173C90.5912 82.3596 90.4016 82.0292 90.0911 81.8503L61.6365 65.422C61.2295 65.1872 60.7207 65.4808 60.7207 65.9494Z" fill="#EAEAEA"/>
<path d="M60.7207 70.0977V70.8222C60.7207 71.1836 60.9145 71.5186 61.2283 71.6987L89.7963 88.1924C90.1499 88.397 90.5908 88.1411 90.5908 87.7333V86.8192C90.5908 86.457 90.3991 86.1233 90.0853 85.9419L61.6816 69.5434C61.2552 69.2962 60.7207 69.6046 60.7207 70.0977Z" fill="#EAEAEA"/>
<path d="M59.1391 87.3967L92.5816 106.704C93.2622 107.098 93.8149 106.779 93.8149 105.992V96.3317C93.8149 95.5447 93.2622 94.5879 92.5816 94.1946L59.1391 74.8865C58.4573 74.4932 57.9062 74.8119 57.9062 75.5994V85.2588C57.9067 86.0458 58.4573 87.0026 59.1391 87.3967Z" fill="white"/>
<path d="M70.3416 92.1395L60.002 86.1688V77.1096L70.3416 83.0787V92.1395Z" fill="#EAEAEA"/>
<path d="M60.002 83.9891L62.5356 82.9333L64.7588 86.2603L68.0017 84.7537L70.3416 88.3576V92.1395L60.002 86.1688V83.9891Z" fill="#4586C7"/>
<path d="M65.4012 83.0707C65.4012 83.6528 64.9926 83.8884 64.4887 83.5973C63.9845 83.3059 63.5742 82.5983 63.5742 82.0158C63.5742 81.4338 63.9845 81.1982 64.4887 81.4892C64.9926 81.7807 65.4012 82.4886 65.4012 83.0707Z" fill="#4586C7"/>
<path d="M91.1402 102.719L72.2759 91.8281C72.0917 91.7217 71.9766 91.5238 71.9766 91.3094V90.4309C71.9766 90.0844 72.3516 89.867 72.653 90.0405L91.4209 100.877C91.6064 100.984 91.7202 101.181 91.7202 101.395V102.384C91.7198 102.682 91.3977 102.868 91.1402 102.719Z" fill="#EAEAEA"/>
<path d="M81.3408 93.6581L72.273 88.4231C72.0896 88.3171 71.9766 88.1209 71.9766 87.9081V85.3744C71.9766 85.085 72.2904 84.9045 72.5413 85.0494L81.5524 90.2513C81.7353 90.3573 81.8488 90.5535 81.8488 90.7655V93.3658C81.848 93.6262 81.566 93.7885 81.3408 93.6581Z" fill="#EAEAEA"/>
<path d="M59.1391 101.468L92.5816 120.777C93.2622 121.17 93.8149 120.851 93.8149 120.064V110.403C93.8149 109.617 93.2622 108.66 92.5816 108.266L59.1391 88.959C58.4573 88.5653 57.9062 88.8841 57.9062 89.6707V99.3309C57.9067 100.118 58.4573 101.076 59.1391 101.468Z" fill="white"/>
<path d="M91.1402 116.8L72.2759 105.909C72.0917 105.802 71.9766 105.605 71.9766 105.392V104.512C71.9766 104.166 72.3516 103.949 72.653 104.122L91.4209 114.958C91.6064 115.065 91.7202 115.262 91.7202 115.475V116.465C91.7198 116.763 91.3977 116.949 91.1402 116.8Z" fill="#EAEAEA"/>
<path d="M81.3408 107.739L72.273 102.504C72.0896 102.398 71.9766 102.201 71.9766 101.989V99.4552C71.9766 99.1659 72.2904 98.9849 72.5413 99.1294L81.5524 104.332C81.7353 104.438 81.8488 104.634 81.8488 104.847V107.446C81.848 107.707 81.566 107.869 81.3408 107.739Z" fill="#EAEAEA"/>
<path d="M70.3416 106.211L60.002 100.242V91.1814L70.3416 97.1517V106.211Z" fill="#EAEAEA"/>
<path d="M60.002 98.0617L62.5356 97.0056L64.7588 100.332L68.0017 98.826L70.3416 102.43V106.211L60.002 100.242V98.0617Z" fill="#4586C7"/>
<path d="M65.4012 97.143C65.4012 97.7255 64.9926 97.9615 64.4887 97.67C63.9845 97.3794 63.5742 96.6711 63.5742 96.089C63.5742 95.5073 63.9845 95.2705 64.4887 95.5628C64.9926 95.853 65.4012 96.5605 65.4012 97.143Z" fill="#4586C7"/>
<g opacity="0.75">
<path opacity="0.75" d="M183.999 151.337L128.938 119.547C128.315 119.187 127.811 118.222 127.811 117.392V114.764C127.811 113.933 128.315 113.552 128.938 113.911L183.999 145.701C184.623 146.06 185.128 147.025 185.128 147.856V150.485C185.128 151.315 184.623 151.696 183.999 151.337Z" fill="white"/>
<path opacity="0.75" d="M184.528 158.934L128.41 126.533C128.079 126.342 127.811 125.829 127.811 125.388V123.447C127.811 123.005 128.078 122.803 128.41 122.994L184.529 155.393C184.859 155.584 185.128 156.097 185.128 156.539V158.479C185.128 158.921 184.859 159.124 184.528 158.934Z" fill="white"/>
<path opacity="0.75" d="M184.529 165.468L128.41 133.068C128.079 132.878 127.811 132.365 127.811 131.924V129.983C127.811 129.542 128.078 129.339 128.41 129.53L184.529 161.93C184.859 162.121 185.128 162.633 185.128 163.075V165.016C185.129 165.457 184.859 165.659 184.529 165.468Z" fill="white"/>
<path opacity="0.75" d="M173.17 171.982L128.347 146.104C128.052 145.934 127.811 145.474 127.811 145.079V142.971C127.811 142.576 128.052 142.394 128.347 142.565L173.17 168.443C173.465 168.614 173.705 169.073 173.705 169.467V171.577C173.705 171.971 173.465 172.152 173.17 171.982Z" fill="white"/>
<path opacity="0.75" d="M184.528 172.004L128.41 139.604C128.079 139.414 127.811 138.901 127.811 138.459V136.519C127.811 136.078 128.078 135.875 128.41 136.065L184.529 168.465C184.859 168.656 185.128 169.169 185.128 169.611V171.551C185.128 171.993 184.859 172.195 184.528 172.004Z" fill="white"/>
<g opacity="0.75">
<g opacity="0.75">
<path opacity="0.75" d="M163.024 182.416L183.807 194.416C184.296 194.698 184.695 194.468 184.695 193.903V192.595C184.695 192.03 184.296 191.34 183.807 191.058L163.024 179.058C162.533 178.775 162.137 179.004 162.137 179.571V180.88C162.137 181.446 162.534 182.133 163.024 182.416Z" fill="white"/>
<path opacity="0.75" d="M163.024 190.451L183.807 202.449C184.296 202.732 184.695 202.503 184.695 201.937V200.628C184.695 200.064 184.296 199.375 183.807 199.092L163.024 187.094C162.533 186.81 162.137 187.04 162.137 187.605V188.914C162.137 189.48 162.534 190.167 163.024 190.451Z" fill="white"/>
<path opacity="0.75" d="M163.024 198.409L183.807 210.408C184.296 210.691 184.695 210.462 184.695 209.897V208.588C184.695 208.022 184.296 207.334 183.807 207.05L163.024 195.052C162.533 194.769 162.137 194.998 162.137 195.564V196.873C162.137 197.438 162.534 198.127 163.024 198.409Z" fill="white"/>
<path opacity="0.75" d="M155.559 178.747L157.926 180.112C158.382 180.376 158.751 180.096 158.751 179.489V177.051C158.751 176.444 158.381 175.738 157.926 175.474L155.559 174.109C155.104 173.846 154.734 174.125 154.734 174.733V177.169C154.734 177.777 155.104 178.484 155.559 178.747Z" fill="white"/>
<path opacity="0.75" d="M155.559 186.781L157.926 188.146C158.382 188.41 158.751 188.13 158.751 187.521V185.086C158.751 184.477 158.381 183.771 157.926 183.508L155.559 182.144C155.104 181.88 154.734 182.159 154.734 182.767V185.203C154.734 185.811 155.104 186.518 155.559 186.781Z" fill="white"/>
<path opacity="0.75" d="M155.559 194.74L157.926 196.106C158.382 196.368 158.751 196.089 158.751 195.481V193.045C158.751 192.437 158.381 191.732 157.926 191.468L155.559 190.103C155.104 189.839 154.734 190.118 154.734 190.726V193.163C154.734 193.772 155.104 194.476 155.559 194.74Z" fill="white"/>
</g>
<g opacity="0.75">
<path opacity="0.75" d="M138.158 161.084V173.633L145.843 169.197C143.865 165.797 141.153 162.835 138.158 161.084Z" fill="white"/>
<path opacity="0.75" d="M145.588 171.281L138.394 175.434L143.249 188.563C146.402 188.371 148.54 185.73 148.54 181.276C148.54 178.045 147.411 174.466 145.588 171.281Z" fill="white"/>
<path opacity="0.75" d="M137.083 163.063C131.551 159.91 127.075 162.513 127.075 168.911C127.075 170.287 127.295 171.726 127.675 173.17H127.672C127.677 173.182 127.681 173.194 127.684 173.205C127.697 173.255 127.709 173.304 127.723 173.355L127.73 173.355C129.227 178.48 132.888 183.753 137.112 186.193C138.831 187.183 140.447 187.617 141.862 187.558L137.084 174.638V163.063H137.083Z" fill="white"/>
</g>
</g>
<g opacity="0.75">
<path opacity="0.75" d="M239.024 216.503V244.069C239.024 245.433 238.192 246.063 237.159 245.476L192.472 219.674C191.44 219.085 190.607 217.492 190.607 216.114V188.549C190.607 187.184 191.44 186.553 192.472 187.142L237.159 212.943C238.192 213.532 239.024 215.139 239.024 216.503Z" fill="white"/>
<path opacity="0.75" d="M239.024 233.019V244.069C239.024 245.433 238.192 246.063 237.159 245.476L192.472 219.674C191.44 219.085 190.607 217.492 190.607 216.114V212.713L202.188 207.892L212.835 223.819L228.363 216.602L239.024 233.019Z" fill="#4586C7"/>
<path opacity="0.75" d="M217.406 213.642C217.406 216.082 215.694 217.07 213.582 215.851C211.47 214.631 209.759 211.665 209.759 209.228C209.759 206.788 211.47 205.8 213.582 207.019C215.694 208.238 217.406 211.205 217.406 213.642Z" fill="#4586C7"/>
</g>
<g opacity="0.75">
<path opacity="0.75" d="M239.025 179.953V207.52C239.025 208.883 238.192 209.515 237.16 208.927L192.473 183.124C191.439 182.537 190.606 180.943 190.606 179.566V151.999C190.606 150.636 191.439 150.005 192.473 150.593L237.16 176.395C238.193 176.983 239.025 178.589 239.025 179.953Z" fill="white"/>
<path opacity="0.75" d="M239.025 196.471V207.52C239.025 208.883 238.192 209.515 237.16 208.927L192.473 183.124C191.439 182.537 190.606 180.943 190.606 179.566V176.165L202.187 171.344L212.836 187.272L228.362 180.054L239.025 196.471Z" fill="#4586C7"/>
<path opacity="0.75" d="M217.406 177.094C217.406 179.533 215.694 180.52 213.582 179.302C211.471 178.083 209.758 175.117 209.758 172.678C209.758 170.239 211.471 169.251 213.582 170.47C215.694 171.69 217.406 174.655 217.406 177.094Z" fill="#4586C7"/>
</g>
</g>
<path d="M246.641 39.6688C243.532 37.5624 240.882 39.3124 240.882 43.4739V85.5649C240.882 89.514 243.28 94.0974 246.239 95.8056L295.217 124.083L303.638 140.916L303.782 129.028L312.347 133.973C315.305 135.681 317.704 133.867 317.704 129.919V94.475C317.704 90.7336 315.544 86.3804 312.751 84.486L246.641 39.6688Z" fill="url(#paint9_linear)"/>
<path d="M300.199 102.763L285.527 103.09V100.29C285.527 100.056 285.58 99.8744 285.679 99.7411C285.781 99.6111 285.96 99.5469 286.209 99.5449L294.72 99.4898C294.974 99.491 295.241 99.5146 295.526 99.5614C295.81 99.6094 296.112 99.6898 296.426 99.7966C296.112 99.5271 295.81 99.2551 295.526 98.9822C295.241 98.7078 294.974 98.4175 294.72 98.1112L286.209 88.2083C285.959 87.9185 285.781 87.6506 285.679 87.408C285.58 87.17 285.527 86.9241 285.527 86.6765V83.8965L300.199 101.144V102.763Z" fill="white"/>
<path d="M269.494 66.7178L270.917 67.5387C271.334 67.7793 271.695 68.1105 271.996 68.5344C272.299 68.9571 272.534 69.4493 272.697 70.0107L284.09 109.352L282.667 108.53C282.299 108.318 281.943 107.987 281.596 107.54C281.248 107.091 280.986 106.56 280.81 105.948L269.494 66.7178Z" fill="white"/>
<path d="M253.4 75.7439V74.1252L268.054 73.8076V76.5876C268.054 76.8356 268.002 77.0203 267.904 77.1457C267.802 77.2703 267.626 77.3324 267.372 77.3324L258.861 77.4069C258.609 77.4214 258.347 77.4049 258.074 77.3589C257.803 77.3113 257.511 77.2393 257.192 77.1436C257.511 77.402 257.803 77.6653 258.074 77.9377C258.347 78.2118 258.609 78.4958 258.861 78.7856L267.372 88.669C267.626 88.9613 267.802 89.2299 267.904 89.4775C268.002 89.7255 268.054 89.9673 268.054 90.2008V93.0019L253.4 75.7439Z" fill="white"/>
<path d="M116.189 3.29676C126.578 9.2952 134.606 23.8887 135 35.8781C135.181 41.3843 133.258 46.5747 130.381 48.7299L129.927 59.6012L123.874 49.2673C121.524 49.127 118.929 48.3209 116.189 46.7386C105.8 40.7406 97.3784 26.1533 97.3784 14.1576C97.3784 9.8392 97.3022 6.91222 99.1842 4.61617C102.528 0.533719 109.539 -0.543093 116.189 3.29676Z" fill="url(#paint10_linear)"/>
<path d="M114.088 4.18924C124.477 10.1869 132.899 24.7741 132.899 36.7702C132.899 42.2259 131.143 46.185 128.266 48.339L129.927 59.6007L121.771 50.1594C119.424 50.0186 116.828 49.2121 114.088 47.6303C103.699 41.6326 95.2764 27.0453 95.2764 15.0493C95.2764 3.05322 103.699 -1.80921 114.088 4.18924Z" fill="url(#paint11_linear)"/>
<path d="M111.379 15.8124C110.921 15.5486 110.569 15.5118 110.321 15.7047C110.076 15.8981 109.951 16.2839 109.951 16.861C109.951 17.2605 109.971 17.6526 110.011 18.036C110.052 18.4193 110.095 18.7998 110.142 19.1765C110.186 19.552 110.23 19.9213 110.271 20.2836C110.311 20.6458 110.332 20.9994 110.332 21.3413C110.332 21.6046 110.296 21.8369 110.229 22.036C110.161 22.2364 110.064 22.3962 109.943 22.5187C109.818 22.6396 109.668 22.7183 109.493 22.7564C109.317 22.7945 109.121 22.7825 108.903 22.7208C109.335 23.1141 109.682 23.5844 109.943 24.135C110.202 24.6844 110.332 25.2267 110.332 25.7624C110.332 26.1052 110.311 26.4331 110.271 26.749C110.23 27.064 110.186 27.3849 110.142 27.7074C110.095 28.0307 110.052 28.3615 110.011 28.7031C109.972 29.0438 109.951 29.4106 109.951 29.8027C109.951 30.381 110.076 30.9072 110.321 31.3808C110.569 31.8557 110.921 32.2262 111.379 32.4899L111.508 32.5649C111.595 32.615 111.69 32.7081 111.791 32.8456C111.894 32.983 111.946 33.1333 111.946 33.2972V34.336L111.453 34.0515C110.903 33.7336 110.426 33.3734 110.022 32.9677C109.615 32.5632 109.278 32.1277 109.011 31.6623C108.742 31.1966 108.541 30.7106 108.409 30.2009C108.276 29.6925 108.209 29.1783 108.209 28.6575C108.209 28.3002 108.232 27.962 108.279 27.6424C108.325 27.3224 108.374 27.0069 108.426 26.6948C108.479 26.3826 108.53 26.0688 108.574 25.7533C108.621 25.4374 108.644 25.1075 108.644 24.7647C108.644 24.3159 108.546 23.8949 108.353 23.5053C108.158 23.1141 107.858 22.8036 107.457 22.5713V21.2122C107.858 21.4436 108.157 21.4775 108.353 21.3111C108.546 21.1451 108.644 20.8367 108.644 20.3875C108.644 20.0451 108.621 19.6899 108.574 19.3202C108.529 18.9513 108.479 18.5795 108.426 18.2065C108.374 17.8343 108.325 17.4613 108.279 17.0883C108.232 16.7153 108.209 16.3518 108.209 15.9941C108.209 15.4729 108.276 15.0353 108.409 14.6792C108.541 14.3249 108.742 14.0698 109.011 13.9142C109.279 13.7589 109.615 13.7125 110.022 13.7755C110.426 13.8372 110.903 14.0268 111.453 14.3447L111.946 14.6291V15.6679C111.946 15.8326 111.894 15.9221 111.791 15.9378C111.69 15.9544 111.595 15.9374 111.508 15.8869L111.379 15.8124Z" fill="white"/>
<path d="M120.718 30.1573C120.317 29.9259 120.019 29.8923 119.824 30.0592C119.629 30.2244 119.532 30.532 119.532 30.9816C119.532 31.324 119.555 31.68 119.602 32.0497C119.649 32.4194 119.698 32.7899 119.75 33.1621C119.802 33.536 119.852 33.909 119.899 34.2812C119.945 34.6546 119.968 35.0197 119.968 35.3766C119.968 35.8978 119.903 36.335 119.769 36.6906C119.637 37.0459 119.436 37.3009 119.166 37.4549C118.897 37.6101 118.56 37.6577 118.156 37.5944C117.751 37.5319 117.277 37.3439 116.733 37.0301L116.232 36.7407V35.7024C116.232 35.5389 116.285 35.4482 116.39 35.4304C116.494 35.4118 116.588 35.4267 116.668 35.4735L116.807 35.5534C117.257 35.8142 117.609 35.8498 117.859 35.6627C118.11 35.4755 118.235 35.0934 118.235 34.5147C118.235 34.1226 118.215 33.733 118.175 33.3459C118.133 32.9576 118.09 32.5767 118.04 32.1979C117.989 31.8199 117.945 31.4486 117.905 31.0871C117.864 30.7249 117.845 30.3726 117.845 30.0298C117.845 29.4941 117.975 29.1024 118.235 28.8524C118.494 28.6023 118.839 28.5311 119.273 28.6379C119.057 28.4487 118.861 28.2351 118.685 27.9937C118.508 27.752 118.358 27.4998 118.235 27.2365C118.112 26.9716 118.014 26.7 117.946 26.4218C117.878 26.1436 117.845 25.8732 117.845 25.6087C117.845 25.2667 117.865 24.9376 117.905 24.6213C117.945 24.3046 117.989 23.9866 118.04 23.6666C118.09 23.3449 118.133 23.0154 118.175 22.6788C118.214 22.3414 118.235 21.9725 118.235 21.5734C118.235 20.9959 118.11 20.4664 117.859 19.9862C117.609 19.5067 117.257 19.137 116.807 18.8762L116.668 18.7963C116.587 18.7495 116.494 18.6585 116.39 18.5227C116.285 18.3881 116.232 18.2382 116.232 18.0735V17.0352L116.733 17.3245C117.277 17.6375 117.751 17.9969 118.156 18.4026C118.56 18.8075 118.897 19.2418 119.166 19.7084C119.436 20.1741 119.637 20.6614 119.769 21.1694C119.903 21.6778 119.968 22.1928 119.968 22.7132C119.968 23.0704 119.945 23.4083 119.899 23.7275C119.852 24.0467 119.802 24.3625 119.75 24.6743C119.698 24.9873 119.649 25.3019 119.602 25.617C119.556 25.9324 119.532 26.262 119.532 26.6044C119.532 27.0535 119.629 27.4746 119.824 27.8654C120.019 28.2558 120.317 28.5667 120.718 28.7986V30.1573Z" fill="white"/>
<path d="M334.79 190.772C322.526 191.019 309.49 184.875 309.49 184.875C309.49 184.875 307.817 185.153 304.582 187.114C304.582 187.114 311.074 214.231 314.251 226.088C319.262 244.786 329.881 264.405 329.881 264.405C329.881 264.405 349.332 265.561 355.331 249.807C358.945 240.314 360.091 214.088 360.091 214.088C360.091 214.088 347.054 205.18 334.79 190.772Z" fill="url(#paint12_linear)"/>
<path d="M329.879 193.01C317.616 193.257 304.581 187.114 304.581 187.114C304.581 187.114 305.665 214.617 309.34 228.327C314.35 247.024 329.879 264.405 329.879 264.405C329.879 264.405 345.411 264.956 350.419 252.045C354.093 242.576 355.179 216.327 355.179 216.327C355.179 216.327 342.144 207.418 329.879 193.01Z" fill="url(#paint13_linear)"/>
<path d="M326.542 233.534L316.667 217.495L320.582 214.771L327.003 225.199L342.33 221.602L345.681 229.041L326.542 233.534Z" fill="white"/>
<path d="M23.2615 177.041C23.2628 177.039 23.2628 177.038 23.2628 177.038C23.3029 176.95 23.3253 176.843 23.3253 176.716L23.3369 172.543L28.4548 169.569L28.4436 173.742V173.743C28.4436 173.757 28.4436 173.771 28.4419 173.784C28.4419 173.798 28.4407 173.81 28.4407 173.823C28.4394 173.836 28.4374 173.85 28.4361 173.863C28.4349 173.876 28.4316 173.889 28.4303 173.902C28.4274 173.915 28.4241 173.929 28.4216 173.942C28.4187 173.957 28.4154 173.969 28.4113 173.983C28.4067 173.998 28.4013 174.012 28.3968 174.026C28.391 174.039 28.3852 174.052 28.3794 174.065C28.3794 174.065 28.3794 174.066 28.3794 174.066C28.3782 174.069 28.3782 174.07 28.3765 174.073C28.3678 174.091 28.3583 174.11 28.3471 174.127C28.3111 174.185 28.2635 174.23 28.2092 174.261L23.0918 177.235C23.1638 177.193 23.223 177.127 23.2615 177.041Z" fill="url(#paint14_linear)"/>
<path d="M2.59626 141.253C2.50021 141.244 2.41327 141.262 2.34082 141.304L7.45869 138.329C7.47897 138.318 7.5005 138.308 7.52327 138.3C7.54066 138.294 7.55929 138.289 7.57792 138.286C7.59324 138.283 7.60814 138.28 7.62304 138.279C7.63795 138.278 7.65078 138.277 7.66527 138.277C7.67811 138.277 7.69136 138.277 7.70212 138.278C7.70709 138.278 7.71081 138.279 7.71495 138.28H7.71661C7.72323 138.28 7.7311 138.281 7.73814 138.281C7.74931 138.283 7.76215 138.286 7.77374 138.287C7.78326 138.289 7.79527 138.292 7.80645 138.295C7.81804 138.297 7.8288 138.3 7.83998 138.304C7.85157 138.307 7.86275 138.311 7.8731 138.315C7.88387 138.318 7.89463 138.322 7.90581 138.327C7.9174 138.332 7.92733 138.336 7.93893 138.341C7.95093 138.346 7.96046 138.351 7.97163 138.357C7.98323 138.362 7.99482 138.368 8.006 138.375C8.01469 138.38 8.02338 138.384 8.03208 138.389L11.6645 140.486L6.54623 143.461L2.91421 141.363C2.80243 141.298 2.69479 141.263 2.59874 141.254C2.5975 141.253 2.5975 141.253 2.59626 141.253Z" fill="url(#paint15_linear)"/>
<path d="M13.4077 147.617L18.5252 144.643L18.4163 144.811L13.2988 147.785L13.4077 147.617Z" fill="url(#paint16_linear)"/>
<path d="M13.5945 147.404L18.712 144.43L18.5257 144.642L13.4082 147.617L13.5945 147.404Z" fill="url(#paint17_linear)"/>
<path d="M13.9204 147.042L19.0378 144.067C18.9136 144.173 18.8043 144.288 18.7112 144.43L13.5938 147.404C13.6869 147.262 13.7958 147.147 13.9204 147.042Z" fill="url(#paint18_linear)"/>
<path d="M13.9204 147.042L19.0378 144.067C18.9136 144.173 18.8043 144.288 18.7112 144.43L13.5938 147.404C13.6869 147.262 13.7958 147.147 13.9204 147.042Z" fill="url(#paint19_linear)"/>
<path d="M14.059 146.909L19.1777 143.934L19.0378 144.067L13.9199 147.042L14.059 146.909Z" fill="url(#paint20_linear)"/>
<path d="M14.541 146.561L19.6597 143.587C19.4884 143.686 19.3256 143.801 19.1783 143.934L14.0596 146.909C14.2086 146.775 14.3701 146.66 14.541 146.561Z" fill="url(#paint21_linear)"/>
<path d="M14.541 146.561L19.6597 143.587C19.4884 143.686 19.3256 143.801 19.1783 143.934L14.0596 146.909C14.2086 146.775 14.3701 146.66 14.541 146.561Z" fill="url(#paint22_linear)"/>
<path d="M5.14453 157.539L10.2624 154.564L12.6644 153.195L12.6342 153.039L12.604 152.826C12.6027 152.821 12.6007 152.817 12.6007 152.812C12.5911 152.759 12.5812 152.706 12.5725 152.652C12.5638 152.594 12.5551 152.537 12.5477 152.479C12.5411 152.418 12.5336 152.357 12.5274 152.297C12.5216 152.233 12.5166 152.171 12.5133 152.109C12.5121 152.105 12.5121 152.101 12.5121 152.098L12.498 151.929C12.486 151.755 12.4777 151.58 12.4719 151.407C12.4686 151.326 12.4674 151.245 12.4686 151.166C12.4686 151.161 12.4686 151.156 12.4686 151.151C12.4686 151.051 12.4719 150.956 12.4744 150.862C12.4819 150.711 12.4918 150.566 12.5021 150.42L12.5179 150.27C12.5179 150.257 12.5195 150.243 12.5208 150.231C12.5253 150.173 12.5307 150.117 12.5382 150.062C12.5452 150.001 12.5535 149.941 12.5655 149.883C12.5783 149.808 12.5924 149.734 12.6094 149.659C12.6114 149.656 12.6114 149.651 12.6127 149.648L12.6441 149.47L12.753 149.053L12.8164 148.823C12.8251 148.798 12.8338 148.773 12.8433 148.747C12.9004 148.594 12.9679 148.436 13.0337 148.29L13.0962 148.166L13.2987 147.785L18.4161 144.811L18.2145 145.192L18.1516 145.316C18.0737 145.485 17.9972 145.671 17.9338 145.848L17.8713 146.079L17.762 146.496L17.7305 146.674C17.6829 146.878 17.6519 147.073 17.6362 147.295L17.6204 147.446C17.6043 147.686 17.5869 147.925 17.5869 148.192C17.5856 148.44 17.5997 148.698 17.6159 148.956L17.6299 149.124C17.6461 149.365 17.6759 149.613 17.7214 149.853L17.7521 150.066L17.8585 150.608L17.9197 150.91C17.981 151.176 18.0568 151.434 18.1342 151.692L18.1955 151.905L18.3946 152.501L18.5022 152.794L18.6869 153.221C18.7784 153.469 18.886 153.709 19.0098 153.958L19.1485 154.252C19.3071 154.581 19.4834 154.906 19.6697 155.226C19.6722 155.232 19.6751 155.237 19.6776 155.243C19.866 155.566 20.0663 155.885 20.2725 156.199L20.4576 156.466C20.612 156.68 20.766 156.911 20.92 157.107L21.2139 157.489L21.4143 157.729L21.8312 158.201L21.9856 158.362C22.1707 158.557 22.3553 158.754 22.5553 158.94L22.788 159.145L23.2045 159.51L23.375 159.644C23.5592 159.804 23.7596 159.956 23.9608 160.09L24.1012 160.188C24.3173 160.331 24.5334 160.473 24.7495 160.598C24.9805 160.731 25.1979 160.839 25.3987 160.937L25.5531 161.009C25.7381 161.098 25.9402 161.178 26.1401 161.242L26.3107 161.304L26.7276 161.421L26.9603 161.483C27.1466 161.519 27.3469 161.546 27.5324 161.564L27.6715 161.573L28.1058 161.593L28.2921 161.575L28.586 161.532C28.663 161.528 28.738 161.513 28.8104 161.497C28.8965 161.477 28.9826 161.454 29.0654 161.435L29.2517 161.383C29.4708 161.304 29.6773 161.209 29.8736 161.095L24.7561 164.069C24.5591 164.182 24.3533 164.278 24.1339 164.357L23.948 164.409C23.8631 164.429 23.7791 164.452 23.693 164.471C23.6748 164.475 23.6586 164.48 23.64 164.484C23.5969 164.492 23.553 164.499 23.5079 164.504C23.4938 164.505 23.481 164.505 23.4678 164.506L23.173 164.55L22.9883 164.567L22.5541 164.547L22.4154 164.538C22.3326 164.53 22.2465 164.521 22.1603 164.509C22.0535 164.495 21.9455 164.477 21.8424 164.457L21.6106 164.394L21.1937 164.277L21.0235 164.216C20.9763 164.2 20.9287 164.185 20.8827 164.169C20.8244 164.148 20.7672 164.126 20.7113 164.104C20.6555 164.082 20.5996 164.058 20.5466 164.035C20.5089 164.017 20.4721 164 20.4344 163.983L20.2812 163.912C20.2427 163.893 20.2038 163.874 20.164 163.855C20.051 163.798 19.9334 163.739 19.8105 163.672C19.7513 163.641 19.6929 163.607 19.6308 163.572C19.6167 163.563 19.6027 163.555 19.5869 163.547C19.5012 163.496 19.4151 163.443 19.3302 163.389C19.2147 163.315 19.0984 163.238 18.9825 163.163L18.8434 163.065C18.8218 163.051 18.8011 163.035 18.7788 163.02C18.7237 162.983 18.6674 162.944 18.6132 162.903C18.5602 162.863 18.5072 162.823 18.4542 162.782C18.405 162.743 18.3553 162.703 18.3081 162.662C18.2907 162.648 18.2737 162.633 18.2584 162.618L18.0874 162.485L17.6709 162.12L17.4387 161.915C17.4138 161.892 17.3882 161.868 17.3642 161.845C17.2983 161.781 17.2337 161.717 17.1692 161.652C17.0673 161.548 16.9671 161.442 16.8674 161.337L16.7133 161.176L16.2973 160.704L16.0965 160.464L15.8034 160.082C15.7711 160.041 15.74 159.999 15.7086 159.957C15.5856 159.792 15.4639 159.611 15.3401 159.44L15.1559 159.173C14.9493 158.861 14.7518 158.544 14.5643 158.222C14.5643 158.222 14.5626 158.221 14.5626 158.22C14.5589 158.211 14.5527 158.202 14.5485 158.193C14.4517 158.025 14.3556 157.856 14.2649 157.686C14.2057 157.574 14.1478 157.462 14.0915 157.349C14.0716 157.309 14.0517 157.267 14.0315 157.226L13.8924 156.932C13.8613 156.867 13.8294 156.803 13.7992 156.74C13.7735 156.683 13.7479 156.627 13.723 156.572C13.7019 156.523 13.6808 156.475 13.6605 156.425C13.6423 156.38 13.6233 156.335 13.6059 156.289C13.5926 156.258 13.5819 156.227 13.5703 156.194L13.3856 155.767L13.278 155.474L13.0772 154.879L13.0172 154.666C12.9753 154.528 12.9339 154.39 12.8954 154.25C12.8739 154.169 12.8511 154.086 12.8309 154.003C12.8209 153.964 12.8114 153.924 12.8027 153.884L12.7406 153.582L12.6648 153.197L7.71878 156.071L5.14453 157.539Z" fill="url(#paint23_linear)"/>
<path d="M34.3465 175.052C34.3465 175.052 34.3465 175.052 34.3465 175.05C34.3453 174.933 34.3254 174.804 34.2852 174.671C34.2446 174.536 34.185 174.397 34.106 174.26L31.5479 169.831L36.6674 166.856L39.2242 171.286C39.235 171.306 39.247 171.326 39.2569 171.346C39.2673 171.364 39.276 171.381 39.2847 171.398C39.2917 171.412 39.2988 171.427 39.3062 171.441C39.3116 171.455 39.3174 171.468 39.3244 171.482C39.3302 171.496 39.3364 171.509 39.3418 171.523C39.3464 171.535 39.3517 171.549 39.3575 171.562C39.3638 171.577 39.3679 171.59 39.3733 171.604C39.3778 171.617 39.382 171.63 39.3878 171.645C39.3919 171.66 39.3965 171.674 39.4006 171.687C39.4023 171.691 39.4023 171.694 39.4035 171.696C39.4035 171.697 39.4035 171.698 39.4035 171.699C39.4076 171.709 39.411 171.72 39.413 171.731C39.4176 171.745 39.4217 171.76 39.4246 171.774C39.4275 171.789 39.4321 171.803 39.4345 171.817C39.4374 171.83 39.4408 171.845 39.4432 171.859C39.4466 171.872 39.4478 171.886 39.4507 171.9C39.4524 171.913 39.4552 171.927 39.4565 171.941C39.4586 171.954 39.4598 171.967 39.461 171.98C39.4623 171.992 39.4623 172.005 39.4639 172.019C39.4652 172.031 39.4652 172.044 39.4652 172.057C39.4652 172.063 39.4652 172.07 39.4652 172.078C39.4652 172.079 39.4652 172.079 39.4652 172.079C39.4652 172.084 39.4668 172.089 39.4668 172.094C39.4652 172.107 39.4652 172.119 39.4652 172.131C39.4652 172.143 39.4639 172.156 39.4623 172.168C39.4623 172.18 39.461 172.194 39.4598 172.206C39.4586 172.218 39.4553 172.231 39.4536 172.244C39.4507 172.256 39.4478 172.269 39.4449 172.281C39.4424 172.296 39.4395 172.308 39.4354 172.322C39.4312 172.335 39.4267 172.349 39.4221 172.363C39.418 172.371 39.4155 172.379 39.4114 172.388C39.4114 172.39 39.4097 172.391 39.4097 172.392C39.4072 172.397 39.4056 172.402 39.4027 172.408C39.394 172.426 39.3857 172.443 39.3737 172.459C39.3385 172.516 39.2938 172.56 39.2379 172.593L34.12 175.568C34.197 175.523 34.2529 175.453 34.2918 175.367C34.2918 175.366 34.2931 175.364 34.2931 175.362C34.3295 175.273 34.3477 175.168 34.3465 175.052Z" fill="url(#paint24_linear)"/>
<path d="M5.20703 135.039L10.3261 132.064L14.4483 129.732L14.4773 129.716C14.4976 129.704 14.5204 129.694 14.5431 129.686C14.5605 129.679 14.5787 129.674 14.5978 129.671C14.6123 129.668 14.6259 129.665 14.6421 129.664C14.6549 129.663 14.6682 129.662 14.6806 129.662C14.6934 129.662 14.7046 129.662 14.7174 129.663C14.7236 129.664 14.729 129.664 14.7348 129.665H14.7369C14.7423 129.666 14.7464 129.667 14.7522 129.667C14.7638 129.669 14.7754 129.671 14.7853 129.672C14.7961 129.675 14.8081 129.677 14.818 129.68C14.8284 129.683 14.8396 129.686 14.8503 129.689C14.8611 129.692 14.8714 129.695 14.8818 129.699C14.8913 129.703 14.9029 129.706 14.9133 129.71C14.9236 129.715 14.9331 129.719 14.9447 129.723C14.9551 129.728 14.965 129.733 14.9745 129.738C14.9861 129.743 14.9961 129.749 15.0068 129.755C15.0155 129.759 15.0221 129.763 15.0308 129.768C15.0337 129.77 15.037 129.771 15.0383 129.773C15.0495 129.78 15.0598 129.785 15.071 129.792C15.0813 129.799 15.0925 129.806 15.1045 129.814C15.1141 129.821 15.1261 129.829 15.1376 129.838C15.1484 129.847 15.1604 129.854 15.1716 129.864C15.1832 129.873 15.1948 129.882 15.206 129.893C15.2175 129.902 15.2291 129.912 15.2403 129.923C15.2519 129.932 15.2635 129.943 15.2747 129.955C15.2863 129.965 15.2962 129.975 15.3078 129.987C15.3165 129.995 15.3231 130.003 15.3318 130.012C15.3347 130.015 15.338 130.017 15.3393 130.02C15.3492 130.031 15.3608 130.042 15.3707 130.054C15.3794 130.066 15.3898 130.077 15.3997 130.089C15.4096 130.101 15.42 130.113 15.4299 130.126C15.4411 130.14 15.4527 130.154 15.4626 130.168C15.4788 130.189 15.4929 130.211 15.5086 130.233C15.5314 130.268 15.5541 130.304 15.5773 130.343C15.5831 130.352 15.5885 130.363 15.5947 130.374L18.1673 134.812L13.049 137.787L10.4764 133.349C10.4011 133.211 10.3108 133.089 10.2148 132.987C10.2148 132.987 10.2148 132.987 10.2135 132.986C10.1187 132.884 10.0156 132.802 9.91421 132.743C9.81402 132.686 9.71508 132.65 9.62069 132.64H9.61944C9.52629 132.63 9.43728 132.646 9.36152 132.69L9.34993 132.697L5.20703 135.039Z" fill="url(#paint25_linear)"/>
<path d="M31.8103 169.419C31.9233 169.232 32.031 169.037 32.1312 168.835C32.161 168.775 32.1924 168.719 32.2214 168.657C32.31 168.468 32.3908 168.269 32.4694 168.069C32.4876 168.019 32.5112 167.972 32.5299 167.921C32.604 167.721 32.6698 167.513 32.7344 167.302C32.7485 167.254 32.7658 167.21 32.7799 167.161L37.8978 164.187C37.8961 164.19 37.8961 164.193 37.8949 164.196C37.8808 164.245 37.8634 164.29 37.8473 164.339C37.7843 164.546 37.7202 164.749 37.6481 164.945C37.6457 164.95 37.644 164.957 37.6428 164.963C37.6245 165.013 37.6005 165.058 37.5811 165.107C37.5049 165.304 37.4258 165.497 37.3389 165.683C37.3314 165.7 37.3256 165.718 37.3174 165.735C37.2958 165.78 37.2702 165.818 37.2482 165.861C37.1468 166.064 37.0412 166.26 36.9282 166.446C36.905 166.483 36.8864 166.527 36.8636 166.564C36.799 166.664 36.7344 166.762 36.6674 166.856L31.5479 169.83C31.6414 169.7 31.7259 169.559 31.8103 169.419Z" fill="url(#paint26_linear)"/>
<path d="M15.2851 137.926C15.2164 137.914 15.1493 137.904 15.0806 137.892C14.9171 137.866 14.7539 137.841 14.5937 137.823C14.5176 137.814 14.4418 137.807 14.3656 137.8C14.2083 137.785 14.0522 137.777 13.8978 137.772C13.8287 137.769 13.7599 137.765 13.6924 137.765C13.4739 137.764 13.259 137.769 13.0479 137.787L18.1661 134.812C18.352 134.797 18.5412 134.789 18.7317 134.788C18.7577 134.788 18.7847 134.79 18.8103 134.79C18.8774 134.79 18.9474 134.795 19.0161 134.797C19.115 134.801 19.2144 134.801 19.3146 134.808C19.3705 134.811 19.4276 134.82 19.4835 134.825C19.5592 134.832 19.6354 134.84 19.7112 134.849C19.7745 134.856 19.8341 134.86 19.8962 134.869C19.9964 134.882 20.0979 134.901 20.1985 134.919C20.2672 134.93 20.3343 134.94 20.4042 134.953C20.432 134.958 20.4589 134.96 20.4879 134.967C20.6882 135.005 20.8898 135.05 21.0935 135.102C21.0977 135.102 21.1022 135.104 21.1064 135.105L15.9885 138.079C15.7521 138.019 15.5169 137.97 15.2851 137.926Z" fill="url(#paint27_linear)"/>
<path d="M24.8805 143.793C24.4082 143.297 23.9205 142.821 23.4229 142.371L28.5403 139.396C28.7452 139.581 28.9473 139.77 29.1476 139.962C29.3451 140.152 29.5414 140.344 29.733 140.541C29.8233 140.632 29.9106 140.727 30.0001 140.819C30.0315 140.853 30.0626 140.886 30.0949 140.919C30.152 140.98 30.2104 141.038 30.2667 141.099C30.4302 141.276 30.5929 141.456 30.7535 141.638C30.9055 141.811 31.0562 141.987 31.2036 142.165C31.293 142.274 31.3837 142.384 31.4718 142.495L26.3544 145.469C25.9135 144.92 25.4502 144.397 24.9762 143.894C24.9451 143.86 24.9141 143.827 24.8805 143.793Z" fill="url(#paint28_linear)"/>
<path d="M32.2693 156.529C32.0714 155.864 31.8482 155.2 31.5928 154.541L36.7111 151.567C36.7769 151.738 36.8411 151.909 36.904 152.082C36.9769 152.285 37.0485 152.488 37.116 152.691C37.1892 152.908 37.2575 153.125 37.325 153.342C37.3466 153.414 37.3664 153.485 37.388 153.557C37.3983 153.592 37.4078 153.626 37.4178 153.661C37.4534 153.786 37.4931 153.911 37.5266 154.036C37.5941 154.28 37.6587 154.523 37.7192 154.767C37.7817 155.021 37.8421 155.277 37.8964 155.531C37.905 155.57 37.9137 155.607 37.922 155.645L41.5536 157.742L36.4353 160.716L32.8033 158.62C32.6626 157.96 32.4941 157.298 32.3003 156.638C32.2908 156.601 32.2792 156.565 32.2693 156.529Z" fill="url(#paint29_linear)"/>
<path d="M16.4884 133.336C16.3928 133.327 16.3054 133.345 16.2334 133.387L21.3513 130.413C21.3711 130.402 21.3931 130.392 21.4159 130.384C21.4328 130.377 21.4515 130.372 21.4705 130.369C21.4858 130.366 21.502 130.363 21.516 130.362C21.5309 130.361 21.5434 130.36 21.5579 130.36C21.5707 130.36 21.5839 130.36 21.5947 130.361C21.5993 130.362 21.6034 130.362 21.608 130.362H21.6096C21.6162 130.363 21.6237 130.364 21.6303 130.364C21.6419 130.366 21.6539 130.368 21.6667 130.371C21.6763 130.373 21.6883 130.375 21.6994 130.378C21.711 130.381 21.7226 130.384 21.7338 130.387C21.7442 130.39 21.7553 130.394 21.7657 130.398C21.7769 130.402 21.7885 130.406 21.7984 130.41C21.81 130.415 21.8199 130.419 21.8315 130.424C21.8427 130.429 21.8543 130.434 21.8646 130.439C21.8762 130.445 21.8878 130.451 21.899 130.457C21.9077 130.461 21.9164 130.467 21.9251 130.472L27.7517 133.835L22.6343 136.81L16.8072 133.446C16.6954 133.382 16.5878 133.346 16.4917 133.336C16.4897 133.336 16.4897 133.336 16.4884 133.336Z" fill="url(#paint30_linear)"/>
<path d="M37.1547 169.124C37.1547 169.123 37.1547 169.122 37.1547 169.122C37.1944 169.034 37.2172 168.927 37.2172 168.8L37.2358 162.104C37.2375 161.975 37.2147 161.841 37.1745 161.707C37.1745 161.706 37.1745 161.706 37.1745 161.706C37.1356 161.573 37.0772 161.441 37.0056 161.318C37.0056 161.317 37.004 161.314 37.0027 161.312C36.9311 161.188 36.845 161.072 36.751 160.972C36.751 160.972 36.7494 160.971 36.7494 160.97C36.6533 160.868 36.5477 160.782 36.4355 160.717L41.5538 157.743C41.5563 157.744 41.5592 157.746 41.5625 157.748C41.5737 157.755 41.5853 157.762 41.5969 157.77C41.6081 157.777 41.6209 157.785 41.6325 157.793C41.6437 157.8 41.6553 157.809 41.6681 157.818C41.6797 157.827 41.6909 157.836 41.7037 157.845C41.7153 157.855 41.7281 157.865 41.7393 157.875C41.7521 157.885 41.7637 157.896 41.7753 157.906C41.7881 157.917 41.7993 157.928 41.8109 157.939C41.8225 157.95 41.8337 157.961 41.8453 157.973C41.8519 157.98 41.8594 157.988 41.8664 157.996C41.868 157.997 41.868 157.997 41.868 157.997C41.8709 158.001 41.8755 158.004 41.8776 158.007C41.8879 158.019 41.8979 158.03 41.9078 158.041C41.9194 158.054 41.9293 158.065 41.9393 158.077C41.9496 158.09 41.9595 158.102 41.9699 158.115C41.9807 158.13 41.9939 158.146 42.0055 158.162C42.0229 158.184 42.0399 158.209 42.0552 158.233C42.0755 158.263 42.0949 158.295 42.1144 158.326C42.1156 158.33 42.1185 158.334 42.1198 158.338C42.121 158.34 42.1227 158.342 42.1239 158.345C42.1338 158.362 42.1421 158.379 42.1529 158.396C42.1616 158.412 42.1703 158.428 42.1769 158.444C42.1843 158.458 42.1914 158.471 42.1972 158.486C42.2046 158.498 42.21 158.511 42.2146 158.524C42.22 158.537 42.2253 158.549 42.232 158.562C42.2361 158.574 42.2415 158.588 42.2473 158.601C42.2514 158.613 42.2576 158.627 42.2622 158.639C42.2663 158.653 42.2717 158.666 42.2763 158.68C42.2804 158.693 42.2849 158.708 42.2891 158.722C42.2903 158.725 42.2903 158.728 42.2924 158.731C42.2924 158.733 42.2936 158.734 42.2936 158.735C42.2965 158.745 42.2994 158.755 42.3023 158.764C42.3069 158.778 42.3098 158.793 42.3135 158.807C42.3168 158.82 42.3197 158.835 42.3222 158.849C42.3276 158.863 42.3288 158.877 42.3309 158.892C42.3338 158.905 42.3371 158.919 42.3384 158.933C42.3413 158.946 42.3425 158.96 42.3458 158.973C42.347 158.988 42.3483 159 42.3499 159.013C42.3499 159.027 42.3512 159.041 42.3533 159.054C42.3533 159.067 42.3545 159.081 42.3545 159.094C42.3545 159.107 42.3545 159.119 42.3545 159.131L42.3363 165.827C42.3363 165.827 42.3363 165.828 42.3363 165.828C42.3363 165.842 42.3363 165.855 42.3342 165.868C42.3342 165.881 42.3342 165.894 42.333 165.907C42.3313 165.921 42.3301 165.933 42.3288 165.946C42.3276 165.96 42.3243 165.973 42.3222 165.986C42.3197 166 42.3168 166.013 42.3135 166.026C42.311 166.039 42.3081 166.054 42.3036 166.067C42.2994 166.082 42.2941 166.096 42.2895 166.11C42.2841 166.123 42.28 166.136 42.2734 166.148C42.2721 166.149 42.2721 166.149 42.2721 166.151C42.2709 166.152 42.2709 166.154 42.2692 166.156C42.2605 166.175 42.2506 166.193 42.239 166.211C42.2034 166.269 42.1562 166.314 42.1032 166.344L36.9853 169.319H36.9837C37.0557 169.275 37.1141 169.211 37.1547 169.124Z" fill="url(#paint31_linear)"/>
<path d="M23.3724 137.801C23.3724 137.8 23.3724 137.8 23.3724 137.798C23.3326 137.666 23.2751 137.535 23.2035 137.41C23.2022 137.409 23.2022 137.407 23.201 137.405C23.1289 137.282 23.0449 137.166 22.9488 137.065C22.9488 137.064 22.9472 137.063 22.9459 137.062C22.8499 136.961 22.7452 136.874 22.6338 136.81L27.7512 133.835C27.7541 133.837 27.7575 133.839 27.7599 133.84C27.7715 133.847 27.7835 133.854 27.7943 133.862C27.8059 133.869 27.8187 133.877 27.8303 133.885C27.8415 133.893 27.8531 133.902 27.8659 133.91C27.8779 133.919 27.8887 133.928 27.9015 133.938C27.9131 133.947 27.9264 133.957 27.9371 133.967C27.95 133.977 27.9616 133.987 27.9732 133.999C27.9856 134.009 27.9972 134.021 28.0088 134.032C28.0199 134.043 28.0315 134.054 28.0431 134.066C28.0502 134.073 28.0572 134.08 28.0646 134.088C28.0646 134.089 28.0659 134.089 28.0659 134.09C28.0688 134.093 28.0713 134.097 28.0754 134.099C28.0858 134.11 28.0957 134.122 28.1056 134.134C28.1152 134.146 28.1272 134.158 28.1375 134.17C28.1474 134.182 28.1574 134.195 28.1673 134.207C28.1789 134.222 28.1917 134.238 28.2033 134.254C28.2207 134.277 28.236 134.301 28.253 134.325C28.2733 134.356 28.2932 134.387 28.3122 134.419C28.3135 134.423 28.3168 134.427 28.3193 134.432C28.3193 134.433 28.3209 134.434 28.3209 134.435C28.3304 134.453 28.3408 134.47 28.3511 134.488C28.3594 134.504 28.3677 134.521 28.3751 134.536C28.3826 134.55 28.3896 134.565 28.3954 134.578C28.4008 134.59 28.4083 134.603 28.4128 134.617C28.4186 134.629 28.424 134.642 28.4302 134.654C28.436 134.667 28.4401 134.68 28.4455 134.693C28.4501 134.706 28.4542 134.719 28.4604 134.732C28.465 134.745 28.4704 134.759 28.4745 134.773C28.4791 134.787 28.4832 134.8 28.4878 134.814C28.489 134.818 28.4902 134.822 28.4902 134.825C28.4952 134.836 28.4977 134.846 28.5006 134.856C28.5035 134.87 28.5076 134.885 28.5122 134.899C28.5147 134.914 28.518 134.927 28.5209 134.941C28.5246 134.956 28.5267 134.969 28.5292 134.983C28.5321 134.997 28.5354 135.012 28.5366 135.025C28.5395 135.039 28.5407 135.053 28.542 135.066C28.5449 135.08 28.5461 135.093 28.5461 135.106C28.5482 135.12 28.5494 135.133 28.5507 135.146C28.5507 135.159 28.5523 135.173 28.5523 135.186C28.5523 135.198 28.5523 135.211 28.5523 135.224L28.5407 139.397L23.4233 142.371L23.4345 138.198C23.4341 138.069 23.4125 137.934 23.3724 137.801Z" fill="url(#paint32_linear)"/>
<path d="M26.3545 145.469L31.4719 142.495L34.0466 141.028L28.9283 144.002L26.3545 145.469Z" fill="url(#paint33_linear)"/>
<path d="M29.5017 144.052C29.4003 143.994 29.2968 143.959 29.2011 143.948C29.1999 143.948 29.1999 143.948 29.1999 143.948C29.1022 143.939 29.0103 143.956 28.9287 144.002L34.047 141.028C34.0698 141.015 34.0925 141.004 34.117 140.996C34.1356 140.989 34.1555 140.984 34.1753 140.98C34.1915 140.977 34.2072 140.974 34.2225 140.973C34.237 140.972 34.2503 140.971 34.2643 140.971C34.2772 140.971 34.2904 140.972 34.3033 140.973C34.3074 140.973 34.312 140.973 34.3161 140.974C34.3173 140.974 34.3186 140.974 34.3186 140.974C34.3264 140.974 34.3318 140.976 34.3389 140.976C34.3496 140.977 34.3616 140.98 34.3732 140.982C34.384 140.984 34.396 140.986 34.4059 140.989C34.4175 140.991 34.4275 140.995 34.439 140.998C34.4486 141.001 34.4593 141.005 34.4705 141.008C34.48 141.012 34.4908 141.016 34.5024 141.02C34.5123 141.025 34.5223 141.029 34.5318 141.033C34.5434 141.038 34.5533 141.042 34.5641 141.048C34.5736 141.053 34.5848 141.058 34.5955 141.064C34.6042 141.068 34.6109 141.073 34.6196 141.078C34.6225 141.079 34.6258 141.08 34.627 141.082C34.6386 141.089 34.6485 141.095 34.6601 141.102C34.6696 141.109 34.6817 141.116 34.6928 141.124C34.7044 141.131 34.7144 141.139 34.7264 141.148C34.738 141.156 34.7487 141.165 34.7607 141.174C34.7715 141.183 34.7835 141.192 34.7951 141.203C34.8083 141.213 34.8191 141.222 34.8307 141.234C34.8423 141.244 34.8535 141.255 34.8651 141.266C34.8766 141.277 34.8878 141.288 34.8994 141.3C34.9065 141.307 34.9135 141.315 34.9209 141.322C34.9209 141.323 34.9222 141.323 34.9222 141.323C34.9251 141.327 34.9296 141.331 34.9317 141.334C34.9421 141.346 34.9532 141.357 34.964 141.369C34.9735 141.381 34.9847 141.393 34.9955 141.405C35.005 141.417 35.0149 141.432 35.0269 141.444C35.0385 141.459 35.0497 141.474 35.0613 141.489C35.0774 141.511 35.0948 141.535 35.1101 141.558C35.1358 141.597 35.1619 141.638 35.1863 141.679C35.1876 141.682 35.1888 141.685 35.1917 141.688L39.2882 148.786C39.2915 148.79 39.2944 148.793 39.2957 148.797C39.3102 148.821 39.323 148.845 39.3358 148.869C39.3445 148.884 39.352 148.898 39.3586 148.912C39.3661 148.927 39.3731 148.941 39.3789 148.954C39.3847 148.967 39.3905 148.98 39.3963 148.992C39.4021 149.004 39.4079 149.016 39.4124 149.029C39.4182 149.042 39.4232 149.054 39.4277 149.067C39.4323 149.08 39.4381 149.092 39.4427 149.105C39.4464 149.118 39.4513 149.131 39.4551 149.144C39.4613 149.158 39.4638 149.17 39.4683 149.184C39.4696 149.187 39.4696 149.19 39.4708 149.192C39.4708 149.193 39.4708 149.193 39.4708 149.194C39.4749 149.205 39.4783 149.215 39.4807 149.225C39.4841 149.24 39.4882 149.253 39.4911 149.267C39.4952 149.281 39.4977 149.294 39.501 149.307C39.5039 149.321 39.5064 149.335 39.5097 149.348C39.511 149.362 39.5139 149.375 39.5172 149.388C39.5184 149.401 39.5197 149.414 39.523 149.427C39.5242 149.44 39.5259 149.453 39.5259 149.466C39.5271 149.478 39.5283 149.491 39.5304 149.504C39.5304 149.516 39.5317 149.529 39.5317 149.542C39.5317 149.554 39.5317 149.566 39.5317 149.578C39.5317 149.591 39.5317 149.603 39.5317 149.616C39.5304 149.628 39.5304 149.641 39.5284 149.652C39.5271 149.665 39.5259 149.678 39.5242 149.691C39.523 149.704 39.5217 149.717 39.5184 149.729C39.5172 149.743 39.5143 149.755 39.511 149.768C39.5064 149.783 39.5039 149.796 39.5002 149.81C39.4956 149.825 39.4915 149.839 39.4857 149.853C39.4807 149.866 39.4754 149.878 39.4696 149.89C39.4696 149.891 39.4696 149.892 39.4696 149.892C39.4683 149.894 39.4667 149.897 39.4654 149.9C39.4567 149.92 39.4451 149.938 39.4352 149.956C39.3963 150.016 39.3466 150.065 39.2866 150.099L34.1683 153.074V153.073V153.074C34.1683 153.073 34.1683 153.072 34.1699 153.072C34.2499 153.026 34.3099 152.956 34.35 152.867C34.3513 152.866 34.3513 152.865 34.3513 152.865C34.473 152.596 34.4134 152.165 34.1712 151.76L30.0747 144.662C29.9931 144.523 29.9016 144.4 29.8056 144.297L29.8039 144.296C29.7066 144.194 29.6031 144.112 29.5017 144.052Z" fill="url(#paint34_linear)"/>
<path d="M36.4353 160.716C36.8837 160.975 37.2376 161.588 37.236 162.104L37.2173 168.799C37.2161 169.314 36.8596 169.517 36.4113 169.258L32.7801 167.16C32.4824 168.181 32.0784 169.086 31.5484 169.83L34.1065 174.26C34.4303 174.82 34.4274 175.406 34.1028 175.574L29.979 177.941C29.8154 178.026 29.6109 177.997 29.406 177.879C29.2015 177.761 28.9965 177.554 28.8351 177.281L26.2782 172.853C25.3641 172.913 24.3746 172.803 23.3372 172.543L23.3256 176.716C23.3243 177.231 22.9675 177.434 22.5195 177.176L16.6925 173.811C16.2441 173.553 15.8905 172.938 15.8918 172.424L15.9034 168.251C14.8692 167.315 13.8822 166.282 12.971 165.17L10.3819 166.628C10.227 166.716 10.0221 166.686 9.81757 166.568C9.61264 166.45 9.40813 166.243 9.25453 165.976L5.14061 158.852C4.8326 158.319 4.83384 157.732 5.14517 157.538L7.71901 156.071C7.21227 154.73 6.814 153.361 6.52296 152.001L2.89052 149.904C2.44216 149.646 2.08861 149.033 2.08985 148.516L2.10848 141.822C2.11013 141.307 2.46659 141.104 2.91495 141.363L6.54697 143.46C6.84381 142.439 7.24912 141.535 7.76206 140.782L5.2052 136.353C4.89718 135.801 4.89842 135.215 5.20809 135.038L9.34934 132.697C9.50418 132.6 9.70869 132.625 9.91362 132.743C10.1186 132.861 10.3231 133.072 10.4762 133.348L13.0488 137.786C13.9625 137.708 14.9528 137.818 15.9899 138.078L16.0011 133.905C16.0031 133.39 16.3596 133.187 16.8076 133.445L22.6346 136.809C23.083 137.068 23.4369 137.682 23.4353 138.197L23.4241 142.371C24.4583 143.305 25.4465 144.338 26.356 145.468L28.9299 144.002C29.0938 143.909 29.2983 143.933 29.5029 144.052C29.7078 144.171 29.9123 144.382 30.0746 144.662L34.1711 151.76C34.4953 152.302 34.4932 152.889 34.1682 153.074L31.5944 154.54C32.1156 155.892 32.5155 157.26 32.8049 158.619L36.4353 160.716ZM26.8243 160.202C26.8404 159.962 26.8562 159.722 26.8574 159.473C26.8574 159.207 26.8433 158.95 26.8284 158.692L26.8131 158.523C26.7829 158.274 26.768 158.052 26.7229 157.795L26.6926 157.581L26.585 157.04L26.5092 156.728C26.448 156.48 26.3859 156.213 26.3101 155.955L26.2484 155.76L26.0331 155.137L25.9259 154.862L25.757 154.427C25.6493 154.169 25.5409 153.928 25.4332 153.688L25.2941 153.395C24.9567 152.72 24.587 152.079 24.1701 151.447L23.9851 151.18C23.8306 150.967 23.6771 150.754 23.5069 150.531L23.2146 150.166L23.0296 149.935L22.5973 149.436L22.4582 149.284C22.2732 149.089 22.0728 148.884 21.8873 148.706L21.6559 148.501L21.2378 148.136L21.0684 148.003C20.8681 147.833 20.6677 147.682 20.4814 147.557L20.3427 147.459C20.127 147.316 19.9105 147.173 19.6778 147.039C19.4621 146.915 19.2456 146.807 19.0295 146.7L18.8904 146.638C18.6888 146.54 18.4884 146.46 18.3021 146.406L18.1332 146.343L17.715 146.226L17.4824 146.163C17.282 146.119 17.0957 146.1 16.9094 146.082L16.755 146.064L16.3381 146.072L16.1365 146.081L15.8429 146.106C15.6885 146.141 15.5324 146.177 15.3772 146.212L15.1921 146.264C14.7723 146.414 14.3861 146.617 14.0594 146.909L13.9207 147.043C13.7961 147.148 13.6872 147.263 13.5941 147.405L13.4078 147.618L13.2989 147.786L13.0965 148.167L13.0339 148.291C12.9565 148.46 12.8779 148.646 12.8162 148.824L12.7528 149.054L12.644 149.471L12.6125 149.649C12.5653 149.853 12.5338 150.048 12.5177 150.27L12.5019 150.421C12.4846 150.66 12.4684 150.901 12.4684 151.167C12.4672 151.416 12.4817 151.673 12.4974 151.93L12.5115 152.099C12.5255 152.339 12.5574 152.588 12.603 152.827L12.6332 153.04L12.7388 153.582L12.8009 153.885C12.8625 154.151 12.9379 154.409 13.0157 154.667L13.0758 154.88L13.2765 155.476L13.3842 155.769L13.5688 156.196C13.6603 156.444 13.768 156.684 13.8909 156.933L14.03 157.227C14.3521 157.894 14.7375 158.543 15.1544 159.175L15.3387 159.442C15.4935 159.655 15.6467 159.887 15.8019 160.083L16.0951 160.465L16.2958 160.705L16.7119 161.177L16.8659 161.338C17.0522 161.533 17.2365 161.73 17.4368 161.916L17.6691 162.121L18.0856 162.486L18.2565 162.619C18.4408 162.78 18.6416 162.932 18.8419 163.066L18.9811 163.164C19.1972 163.306 19.4137 163.449 19.6294 163.573C19.862 163.707 20.0782 163.814 20.2798 163.913L20.4329 163.984C20.6192 164.074 20.8196 164.154 21.0221 164.217L21.1922 164.279L21.6091 164.396L21.841 164.459C22.0273 164.495 22.2276 164.522 22.4139 164.54L22.5526 164.549L22.9869 164.568L23.1716 164.551L23.4663 164.508C23.6369 164.5 23.7917 164.447 23.9466 164.411L24.1325 164.359C24.551 164.209 24.9232 163.997 25.2643 163.714L25.4043 163.581C25.5119 163.466 25.6208 163.351 25.7297 163.218L25.9019 162.996L26.0087 162.828L26.2265 162.474L26.2898 162.332C26.3664 162.163 26.4297 161.986 26.4931 161.791L26.5701 161.569L26.679 161.151L26.7108 160.974C26.7576 160.788 26.7738 160.566 26.8065 160.353L26.8243 160.202Z" fill="url(#paint35_linear)"/>
<defs>
<linearGradient id="paint0_linear" x1="133.585" y1="292.055" x2="245.998" y2="104.516" gradientUnits="userSpaceOnUse">
<stop stop-color="#4994D0"/>
<stop offset="1" stop-color="#1C0F2D"/>
</linearGradient>
<linearGradient id="paint1_linear" x1="70.3604" y1="460.858" x2="257.925" y2="58.241" gradientUnits="userSpaceOnUse">
<stop stop-color="#4994D0"/>
<stop offset="1" stop-color="#1C0F2D"/>
</linearGradient>
<linearGradient id="paint2_linear" x1="301.082" y1="129.644" x2="-4.53936" y2="386.486" gradientUnits="userSpaceOnUse">
<stop stop-color="#4994D0"/>
<stop offset="1" stop-color="#1C0F2D"/>
</linearGradient>
<linearGradient id="paint3_linear" x1="147.266" y1="242.665" x2="274.423" y2="56.6097" gradientUnits="userSpaceOnUse">
<stop stop-color="#4994D0"/>
<stop offset="1" stop-color="#1C0F2D"/>
</linearGradient>
<linearGradient id="paint4_linear" x1="220.484" y1="95.0343" x2="136.194" y2="286.175" gradientUnits="userSpaceOnUse">
<stop stop-color="#4994D0"/>
<stop offset="1" stop-color="#1C0F2D"/>
</linearGradient>
<linearGradient id="paint5_linear" x1="138.574" y1="77.317" x2="-50.188" y2="137.99" gradientUnits="userSpaceOnUse">
<stop stop-color="#1C0F2D"/>
<stop offset="0.4719" stop-color="#2D4B82"/>
<stop offset="1" stop-color="#4994D0"/>
</linearGradient>
<linearGradient id="paint6_linear" x1="75.3518" y1="163.028" x2="78.4832" y2="9.24075" gradientUnits="userSpaceOnUse">
<stop stop-color="#4994D0"/>
<stop offset="1" stop-color="#1C0F2D"/>
</linearGradient>
<linearGradient id="paint7_linear" x1="77.5572" y1="141.103" x2="74.804" y2="158.998" gradientUnits="userSpaceOnUse">
<stop stop-color="#4994D0"/>
<stop offset="1" stop-color="#1C0F2D"/>
</linearGradient>
<linearGradient id="paint8_linear" x1="79.3339" y1="113.877" x2="71.9947" y2="153.242" gradientUnits="userSpaceOnUse">
<stop stop-color="#4994D0"/>
<stop offset="1" stop-color="#1C0F2D"/>
</linearGradient>
<linearGradient id="paint9_linear" x1="171.996" y1="148.772" x2="304.613" y2="72.0459" gradientUnits="userSpaceOnUse">
<stop stop-color="#1C0F2D"/>
<stop offset="1" stop-color="#4994D0"/>
</linearGradient>
<linearGradient id="paint10_linear" x1="71.894" y1="54.7722" x2="137.998" y2="19.048" gradientUnits="userSpaceOnUse">
<stop stop-color="#4994D0"/>
<stop offset="1" stop-color="#1C0F2D"/>
</linearGradient>
<linearGradient id="paint11_linear" x1="114.755" y1="2.17091" x2="112.786" y2="72.2127" gradientUnits="userSpaceOnUse">
<stop stop-color="#4994D0"/>
<stop offset="1" stop-color="#1C0F2D"/>
</linearGradient>
<linearGradient id="paint12_linear" x1="357.771" y1="197.794" x2="280.794" y2="260.057" gradientUnits="userSpaceOnUse">
<stop stop-color="white"/>
<stop offset="0.3062" stop-color="#D0CCCA"/>
<stop offset="0.9841" stop-color="#807974"/>
<stop offset="1" stop-color="#7E7873"/>
</linearGradient>
<linearGradient id="paint13_linear" x1="336.096" y1="185.972" x2="309.647" y2="290.545" gradientUnits="userSpaceOnUse">
<stop stop-color="#4994D0"/>
<stop offset="1" stop-color="#1C0F2D"/>
</linearGradient>
<linearGradient id="paint14_linear" x1="38.5368" y1="136.106" x2="0.899648" y2="246.553" gradientUnits="userSpaceOnUse">
<stop stop-color="white"/>
<stop offset="1" stop-color="#231F20"/>
</linearGradient>
<linearGradient id="paint15_linear" x1="11.7476" y1="126.971" x2="-25.8959" y2="237.436" gradientUnits="userSpaceOnUse">
<stop stop-color="white"/>
<stop offset="1" stop-color="#231F20"/>
</linearGradient>
<linearGradient id="paint16_linear" x1="21.3536" y1="130.245" x2="-16.2887" y2="240.707" gradientUnits="userSpaceOnUse">
<stop stop-color="white"/>
<stop offset="1" stop-color="#231F20"/>
</linearGradient>
<linearGradient id="paint17_linear" x1="21.4285" y1="130.27" x2="-16.2131" y2="240.729" gradientUnits="userSpaceOnUse">
<stop stop-color="white"/>
<stop offset="1" stop-color="#231F20"/>
</linearGradient>
<linearGradient id="paint18_linear" x1="21.5692" y1="130.319" x2="-16.0692" y2="240.77" gradientUnits="userSpaceOnUse">
<stop stop-color="white"/>
<stop offset="1" stop-color="#231F20"/>
</linearGradient>
<linearGradient id="paint19_linear" x1="21.5692" y1="130.319" x2="-16.0692" y2="240.77" gradientUnits="userSpaceOnUse">
<stop stop-color="white"/>
<stop offset="1" stop-color="#231F20"/>
</linearGradient>
<linearGradient id="paint20_linear" x1="21.7025" y1="130.363" x2="-15.9418" y2="240.831" gradientUnits="userSpaceOnUse">
<stop stop-color="white"/>
<stop offset="1" stop-color="#231F20"/>
</linearGradient>
<linearGradient id="paint21_linear" x1="21.9081" y1="130.433" x2="-15.7366" y2="240.902" gradientUnits="userSpaceOnUse">
<stop stop-color="white"/>
<stop offset="1" stop-color="#231F20"/>
</linearGradient>
<linearGradient id="paint22_linear" x1="21.9081" y1="130.433" x2="-15.7366" y2="240.902" gradientUnits="userSpaceOnUse">
<stop stop-color="white"/>
<stop offset="1" stop-color="#231F20"/>
</linearGradient>
<linearGradient id="paint23_linear" x1="26.7855" y1="132.097" x2="-10.8547" y2="242.553" gradientUnits="userSpaceOnUse">
<stop stop-color="white"/>
<stop offset="1" stop-color="#231F20"/>
</linearGradient>
<linearGradient id="paint24_linear" x1="46.4874" y1="138.807" x2="8.84327" y2="249.275" gradientUnits="userSpaceOnUse">
<stop stop-color="white"/>
<stop offset="1" stop-color="#231F20"/>
</linearGradient>
<linearGradient id="paint25_linear" x1="14.1213" y1="127.781" x2="-23.5205" y2="238.242" gradientUnits="userSpaceOnUse">
<stop stop-color="white"/>
<stop offset="1" stop-color="#231F20"/>
</linearGradient>
<linearGradient id="paint26_linear" x1="44.5613" y1="138.153" x2="6.91996" y2="248.613" gradientUnits="userSpaceOnUse">
<stop stop-color="white"/>
<stop offset="1" stop-color="#231F20"/>
</linearGradient>
<linearGradient id="paint27_linear" x1="19.4153" y1="129.584" x2="-18.231" y2="240.058" gradientUnits="userSpaceOnUse">
<stop stop-color="white"/>
<stop offset="1" stop-color="#231F20"/>
</linearGradient>
<linearGradient id="paint28_linear" x1="30.5348" y1="133.373" x2="-7.109" y2="243.84" gradientUnits="userSpaceOnUse">
<stop stop-color="white"/>
<stop offset="1" stop-color="#231F20"/>
</linearGradient>
<linearGradient id="paint29_linear" x1="42.8958" y1="137.588" x2="5.25768" y2="248.038" gradientUnits="userSpaceOnUse">
<stop stop-color="white"/>
<stop offset="1" stop-color="#231F20"/>
</linearGradient>
<linearGradient id="paint30_linear" x1="22.9527" y1="130.79" x2="-14.685" y2="241.239" gradientUnits="userSpaceOnUse">
<stop stop-color="white"/>
<stop offset="1" stop-color="#231F20"/>
</linearGradient>
<linearGradient id="paint31_linear" x1="47.615" y1="139.194" x2="9.97284" y2="249.656" gradientUnits="userSpaceOnUse">
<stop stop-color="white"/>
<stop offset="1" stop-color="#231F20"/>
</linearGradient>
<linearGradient id="paint32_linear" x1="27.5459" y1="132.355" x2="-10.0969" y2="242.819" gradientUnits="userSpaceOnUse">
<stop stop-color="white"/>
<stop offset="1" stop-color="#231F20"/>
</linearGradient>
<linearGradient id="paint33_linear" x1="33.2497" y1="134.299" x2="-4.39063" y2="244.756" gradientUnits="userSpaceOnUse">
<stop stop-color="white"/>
<stop offset="1" stop-color="#231F20"/>
</linearGradient>
<linearGradient id="paint34_linear" x1="37.9626" y1="135.904" x2="0.320924" y2="246.365" gradientUnits="userSpaceOnUse">
<stop stop-color="white"/>
<stop offset="1" stop-color="#231F20"/>
</linearGradient>
<linearGradient id="paint35_linear" x1="26.6564" y1="132.077" x2="9.77433" y2="188.16" gradientUnits="userSpaceOnUse">
<stop stop-color="#4994D0"/>
<stop offset="1" stop-color="#1C0F2D"/>
</linearGradient>
</defs>
</svg>
