<svg width="67" height="167" viewBox="0 0 67 167" fill="none" xmlns="http://www.w3.org/2000/svg">
<circle cx="3.5" cy="3.5" r="3.5" fill="#003262"/>
<circle cx="3.5" cy="23.5" r="3.5" fill="#003262"/>
<circle cx="3.5" cy="43.5" r="3.5" fill="#003262"/>
<circle cx="3.5" cy="63.5" r="3.5" fill="#003262"/>
<circle cx="3.5" cy="83.5" r="3.5" fill="#003262"/>
<circle cx="3.5" cy="103.5" r="3.5" fill="#003262"/>
<circle cx="3.5" cy="123.5" r="3.5" fill="#003262"/>
<circle cx="3.5" cy="143.5" r="3.5" fill="#003262"/>
<circle cx="3.5" cy="163.5" r="3.5" fill="#003262"/>
<circle cx="33.5" cy="3.5" r="3.5" fill="#003262"/>
<circle cx="33.5" cy="23.5" r="3.5" fill="#003262"/>
<circle cx="33.5" cy="43.5" r="3.5" fill="#003262"/>
<circle cx="33.5" cy="63.5" r="3.5" fill="#003262"/>
<circle cx="33.5" cy="83.5" r="3.5" fill="#003262"/>
<circle cx="33.5" cy="103.5" r="3.5" fill="#003262"/>
<circle cx="33.5" cy="123.5" r="3.5" fill="#003262"/>
<circle cx="33.5" cy="143.5" r="3.5" fill="#003262"/>
<circle cx="33.5" cy="163.5" r="3.5" fill="#003262"/>
<circle cx="63.5" cy="3.5" r="3.5" fill="#003262"/>
<circle cx="63.5" cy="23.5" r="3.5" fill="#003262"/>
<circle cx="63.5" cy="43.5" r="3.5" fill="#003262"/>
<circle cx="63.5" cy="63.5" r="3.5" fill="#003262"/>
<circle cx="63.5" cy="83.5" r="3.5" fill="#003262"/>
<circle cx="63.5" cy="103.5" r="3.5" fill="#003262"/>
<circle cx="63.5" cy="123.5" r="3.5" fill="#003262"/>
<circle cx="63.5" cy="143.5" r="3.5" fill="#003262"/>
<circle cx="63.5" cy="163.5" r="3.5" fill="#003262"/>
</svg>
