<?xml version="1.0" encoding="utf-8"?>
<!-- Generator: Adobe Illustrator 16.0.0, SVG Export Plug-In . SVG Version: 6.00 Build 0)  -->
<!DOCTYPE svg PUBLIC "-//W3C//DTD SVG 1.1//EN" "http://www.w3.org/Graphics/SVG/1.1/DTD/svg11.dtd">
<svg version="1.1" id="Layer_1" xmlns="http://www.w3.org/2000/svg" xmlns:xlink="http://www.w3.org/1999/xlink" x="0px" y="0px"
	 width="500px" height="500px" viewBox="0 0 500 500" enable-background="new 0 0 500 500" xml:space="preserve">
<g>
	<path fill-rule="evenodd" clip-rule="evenodd" fill="#DFF8FE" d="M268.496,72.811c10.728,0,21.454,0,32.181,0
		c3.115,2.853,7.016,1.034,10.511,1.729c28.52,5.667,54.584,16.496,77.958,34.22c27.43,20.8,45.997,47.752,57.896,79.569
		c7.587,20.284,9.118,41.476,8.885,63.054c-0.259,24.076-6.033,46.616-16.147,68.139c-13.089,27.843-32.594,50.257-57.879,67.938
		c-26.4,18.459-55.757,28.268-87.533,30.396c-33.515,2.24-65.155-5.305-94.536-21.752c-14.208-7.955-27.807-16.744-38.089-29.751
		c20.188-0.157,40.375-0.323,60.563-0.459c3.617-0.025,7.525,0.735,9.259-3.784c1.604-4.181-1.658-6.28-3.96-8.611
		c-16.588-16.807-33.025-33.77-50.012-50.163c-5.234-5.054-5.718-7.836-0.213-13.104c17.232-16.495,33.875-33.604,50.744-50.479
		c2.253-2.252,4.812-4.482,3.458-8.149c-1.497-4.051-5.068-3.884-8.56-3.888c-21.424-0.023-42.85-0.006-64.272-0.217
		c-5.045-0.05-8.725,1.817-12.183,5.338c-11.406,11.616-23.023,23.026-34.559,34.515c-0.821-5.843,1.64-11.979-1.59-17.603
		c1.439-1.621,2.804-3.314,4.33-4.847c37.418-37.607,74.87-75.18,112.244-112.831c2.424-2.441,6.072-4.581,4.43-9.143
		c-1.832-5.088-6.165-3.771-9.885-3.815c-17.5-0.209-35.002-0.348-52.503-0.513c0.918-2.985,3.344-4.842,5.554-6.627
		c20.915-16.875,44.404-28.653,70.603-34.78C252.88,75.395,260.723,74.253,268.496,72.811z"/>
	<path fill-rule="evenodd" clip-rule="evenodd" fill="#434443" d="M110.418,249.748c-10.2,10.076-20.391,20.162-30.602,30.226
		c-6.211,6.122-7.566,6.173-13.647,0.12c-10.353-10.306-20.536-20.782-30.989-30.986c-4.532-4.424-5.083-8.142-0.319-12.891
		c38.284-38.154,76.459-76.418,114.6-114.717c1.93-1.937,3.93-2.438,6.487-2.434c4.362,0.007,8.723-0.294,13.085-0.466
		c17.5,0.165,35.002,0.303,52.502,0.513c3.72,0.045,8.053-1.272,9.885,3.815c1.642,4.562-2.006,6.701-4.43,9.143
		c-37.374,37.65-74.826,75.223-112.244,112.831C113.223,246.433,111.858,248.127,110.418,249.748z M139.72,148.018
		c-0.756,0.758-1.513,1.516-2.269,2.273l-0.57,0.105l-0.16,0.564c-5.403,5.26-10.863,10.461-16.199,15.786
		c-23.615,23.571-47.207,47.167-70.771,70.788c-2.271,2.277-5.871,4.275-1.788,8.226c7.347,7.113,14.541,14.383,21.698,21.688
		c2.396,2.443,4.237,2.398,6.642-0.082c11.844-12.223,23.811-24.327,35.733-36.472c23.277-23.204,46.497-46.467,69.859-69.585
		c9.787-9.685,19.874-19.067,29.824-28.588c-0.411-0.67-0.822-1.34-1.233-2.01c-17.189,0-34.378-0.01-51.568,0.014
		c-1.781,0.003-3.261,0.81-4.507,2.103C149.527,137.904,144.619,142.957,139.72,148.018z"/>
	<path fill-rule="evenodd" clip-rule="evenodd" fill="#434343" d="M161.742,366.352c-8.158,1.072-13.246-3.633-18.49-9.001
		c-17.343-17.755-35.058-35.147-52.56-52.749c-7.003-7.042-6.908-8.414-0.064-15.379c7.145-7.271,14.254-14.579,21.38-21.872
		c11.536-11.489,23.153-22.899,34.559-34.515c3.458-3.521,7.137-5.388,12.183-5.338c21.422,0.211,42.848,0.194,64.272,0.217
		c3.492,0.004,7.063-0.163,8.56,3.888c1.354,3.667-1.205,5.896-3.458,8.149c-16.869,16.874-33.511,33.983-50.744,50.479
		c-5.505,5.268-5.021,8.05,0.213,13.104c16.987,16.394,33.424,33.356,50.012,50.163c2.302,2.331,5.564,4.431,3.96,8.611
		c-1.733,4.52-5.642,3.759-9.259,3.784C202.118,366.028,181.93,366.194,161.742,366.352z M130.459,327.613
		c0.699,0.748,1.397,1.497,2.096,2.244c7.146,7.291,14.326,14.548,21.414,21.892c2.027,2.103,4.271,2.717,7.173,2.684
		c14.848-0.17,29.698-0.062,44.547-0.191c1.933-0.017,4.43,1.167,4.979,0.074c-16.253-16.98-32.028-33.541-47.903-50.007
		c-6.943-7.2-7.098-8.216-0.049-15.298c14.94-15.014,29.967-29.938,44.877-44.982c1.176-1.186,3.527-1.924,2.677-4.849
		c-16.513,0-33.059,0.037-49.605-0.036c-2.894-0.013-5.118,0.974-7.103,3.011c-12.891,13.23-25.823,26.419-38.742,39.622
		c-4.019,3.836-7.956,7.762-12.085,11.473c-2.728,2.454-3.043,4.418-0.193,7.142c9.456,9.041,18.727,18.273,28.07,27.433
		L130.459,327.613z"/>
	<path fill-rule="evenodd" clip-rule="evenodd" fill="#DDF6FC" d="M136.721,150.96l0.16-0.564c0,0,0.57-0.105,0.571-0.107
		c0.756-0.758,1.512-1.514,2.268-2.271c4.899-5.061,9.807-10.114,14.691-15.189c1.246-1.292,2.727-2.1,4.507-2.103
		c17.189-0.024,34.379-0.014,51.568-0.014c0.411,0.67,0.822,1.34,1.233,2.01c-9.951,9.521-20.037,18.903-29.824,28.588
		c-23.362,23.118-46.582,46.381-69.859,69.585c1.488-25.272,9.431-48.589,21.617-70.565
		C135.321,157.32,137.242,154.599,136.721,150.96z"/>
	<path fill-rule="evenodd" clip-rule="evenodd" fill="#FEFEFE" d="M139.72,148.018c-0.756,0.757-1.511,1.513-2.268,2.271
		C138.207,149.533,138.963,148.776,139.72,148.018z"/>
	<path fill-rule="evenodd" clip-rule="evenodd" fill="#DEF7FD" d="M114.82,281.776c12.919-13.202,25.852-26.392,38.742-39.622
		c1.985-2.037,4.209-3.024,7.103-3.011c16.546,0.073,33.093,0.036,49.605,0.036c0.85,2.925-1.501,3.664-2.677,4.849
		c-14.91,15.043-29.937,29.968-44.877,44.982c-7.048,7.082-6.894,8.098,0.049,15.298c15.875,16.466,31.649,33.026,47.903,50.007
		c-0.549,1.093-3.046-0.091-4.979-0.074c-14.849,0.13-29.699,0.021-44.547,0.191c-2.902,0.033-5.146-0.581-7.173-2.684
		c-7.088-7.344-14.269-14.601-21.414-21.892c-0.278-1.14-0.702-2.146-2.096-2.244c0,0,0.152,0.21,0.153,0.208
		C125.582,312.391,118.295,297.738,114.82,281.776z"/>
	<path fill-rule="evenodd" clip-rule="evenodd" fill="#FEFEFE" d="M130.459,327.613c1.394,0.098,1.818,1.104,2.096,2.244
		C131.857,329.11,131.158,328.361,130.459,327.613z"/>
</g>
</svg>
