<svg width="87" height="61" viewBox="0 0 87 61" fill="none" xmlns="http://www.w3.org/2000/svg">
<circle cx="56.334" cy="30.2578" r="30" fill="#E0F9FF"/>
<path fill-rule="evenodd" clip-rule="evenodd" d="M26.0911 44.6513C27.0056 44.6513 27.9204 44.6598 28.8347 44.6488C29.6811 44.6385 30.2587 44.0575 30.2759 43.2122C30.2859 42.7164 30.2591 42.219 30.29 41.7249C30.2992 41.5796 30.4159 41.3934 30.5399 41.3117C30.9527 41.0401 31.3822 40.7894 31.8246 40.5698C31.9692 40.4981 32.2039 40.4833 32.3445 40.5515C32.8168 40.7814 33.2561 41.0782 33.7249 41.3163C34.3987 41.6583 35.1344 41.4929 35.5184 40.8486C36.5013 39.1998 37.4605 37.536 38.3926 35.858C38.7475 35.2191 38.5269 34.5156 37.9235 34.102C37.6306 33.9011 37.3273 33.7017 37.0021 33.5647C36.4518 33.3326 36.1821 32.9983 36.31 32.3668C36.373 32.0552 36.3412 31.7144 36.2977 31.3943C36.2587 31.1089 36.3698 30.9763 36.6032 30.8532C37.0274 30.6296 37.4445 30.3894 37.849 30.1317C38.5429 29.6898 38.7599 28.9525 38.3575 28.2352C37.4483 26.6149 36.5182 25.0059 35.5724 23.4067C35.1433 22.6811 34.3891 22.5041 33.6388 22.9039C33.2701 23.1005 32.898 23.2972 32.5557 23.5347C32.2363 23.7564 31.9853 23.7835 31.6573 23.5275C31.3311 23.273 30.9519 23.0759 30.5729 22.9038C30.3312 22.7941 30.2641 22.6579 30.2732 22.4103C30.2905 21.9303 30.2857 21.4492 30.276 20.9688C30.2587 20.1231 29.6808 19.5376 28.8346 19.5333C27.0056 19.5241 25.1764 19.5241 23.3474 19.5333C22.5015 19.5377 21.9224 20.1248 21.9066 20.969C21.8973 21.4649 21.9235 21.9622 21.8927 22.4563C21.8837 22.6019 21.7674 22.7886 21.6434 22.8703C21.2309 23.1422 20.8014 23.3929 20.3588 23.6124C20.2146 23.6839 19.98 23.6978 19.8395 23.6295C19.381 23.4066 18.9554 23.1175 18.5016 22.8837C17.7844 22.5142 17.0428 22.6865 16.6374 23.3689C15.6729 24.993 14.7285 26.6295 13.8068 28.2782C13.4294 28.9536 13.6488 29.6767 14.2958 30.1043C14.6054 30.3087 14.9213 30.5153 15.26 30.6613C15.7455 30.8707 15.9798 31.1579 15.8748 31.7205C15.8105 32.0641 15.8411 32.4347 15.8852 32.7861C15.9209 33.071 15.8136 33.2068 15.582 33.33C15.1585 33.5555 14.7408 33.7938 14.3352 34.0499C13.6415 34.4881 13.4228 35.2298 13.8242 35.9446C14.7342 37.5645 15.664 39.1736 16.6095 40.7731C17.0297 41.4837 17.7661 41.6713 18.5014 41.2983C18.8599 41.1165 19.2181 40.925 19.5462 40.6948C19.9169 40.4348 20.2207 40.3741 20.6036 40.7035C20.891 40.9508 21.259 41.1153 21.6103 41.2738C21.8487 41.3814 21.9201 41.5206 21.9099 41.7703C21.8906 42.2344 21.8998 42.7 21.9055 43.1651C21.9165 44.067 22.4898 44.6421 23.3939 44.6494C24.2929 44.6571 25.192 44.6516 26.0911 44.6513Z" fill="white"/>
<path fill-rule="evenodd" clip-rule="evenodd" d="M42.1868 8.27344C43.0735 8.58804 43.3699 9.22473 43.3495 10.1453C43.3064 12.0975 43.3389 14.0515 43.3351 16.0047C43.3329 17.0996 42.8021 17.6353 41.7104 17.638C39.6642 17.643 37.6179 17.6478 35.5719 17.6361C34.4445 17.6297 33.7486 16.7276 34.0995 15.7635C34.308 15.1909 34.7937 14.8588 35.4724 14.8512C36.2884 14.8422 37.1045 14.8491 38.0415 14.8491C37.8605 14.6981 37.7806 14.6169 37.6875 14.556C33.6887 11.9395 29.2998 10.7069 24.5398 11.1534C16.2434 11.9314 10.2462 16.1608 6.8442 23.7404C4.06781 29.9259 4.49286 36.1297 7.6242 42.1443C7.79351 42.4694 7.97904 42.8112 8.0352 43.1646C8.13972 43.8226 7.73319 44.4127 7.1302 44.6181C6.48706 44.8372 5.773 44.612 5.46297 43.9654C4.76867 42.5169 4.06573 41.0652 3.49966 39.5645C2.81981 37.762 2.48774 35.8655 2.35119 33.9398C2.34256 33.8189 2.2995 33.7003 2.27246 33.5807C2.27246 32.5882 2.27246 31.5958 2.27246 30.6034C2.4244 29.5486 2.53849 28.4868 2.73401 27.4401C4.5069 17.9529 12.426 10.205 21.9397 8.63983C22.8234 8.49444 23.7145 8.39449 24.6021 8.27344C25.5635 8.27344 26.5249 8.27344 27.4863 8.27344C27.622 8.29923 27.7567 8.33844 27.8936 8.34873C32.0621 8.65917 35.8791 9.98528 39.3497 12.3118C39.7288 12.5658 40.1003 12.8311 40.5451 13.1397C40.5451 12.0768 40.5776 11.1022 40.5356 10.1308C40.4958 9.20861 40.8274 8.57441 41.7215 8.27354C41.8767 8.27344 42.0317 8.27344 42.1868 8.27344Z" fill="#2D2D2D"/>
<path fill-rule="evenodd" clip-rule="evenodd" d="M9.99487 55.91C9.1092 55.5945 8.81145 54.959 8.83204 54.0376C8.87572 52.0847 8.84296 50.1302 8.8465 48.1763C8.84848 47.0805 9.37794 46.5479 10.4736 46.5453C12.5204 46.5407 14.5673 46.5358 16.6142 46.5474C17.7417 46.5537 18.4428 47.4605 18.0775 48.4231C17.8576 49.0029 17.4179 49.3152 16.797 49.3294C16.0996 49.3453 15.4015 49.3332 14.7037 49.3359C14.5557 49.3366 14.4076 49.349 14.2185 49.463C14.8325 49.8339 15.4342 50.2271 16.0623 50.5723C28.3914 57.3488 44.0284 50.0151 46.7141 36.1815C47.693 31.1394 46.9199 26.351 44.4475 21.8414C44.3224 21.6133 44.1958 21.3693 44.1494 21.118C44.0224 20.4321 44.4185 19.7779 45.0453 19.566C45.7061 19.3426 46.3781 19.6021 46.7504 20.2502C48.1283 22.65 49.065 25.2128 49.5351 27.9402C49.6874 28.8231 49.7864 29.7151 49.9098 30.6029C49.9098 31.5954 49.9098 32.5878 49.9098 33.5802C49.8833 33.7 49.8495 33.8188 49.8318 33.9399C49.6699 35.0421 49.5675 36.1562 49.3423 37.245C47.433 46.4791 39.5362 54.0351 30.2409 55.5428C29.3574 55.6862 28.467 55.7886 27.5799 55.91C26.6185 55.91 25.6571 55.91 24.6957 55.91C24.5605 55.8841 24.4263 55.8446 24.29 55.8341C19.8158 55.4964 15.7666 54.0011 12.1311 51.3765C11.9901 51.2747 11.8458 51.1776 11.637 51.0324C11.637 52.0937 11.6036 53.0536 11.6465 54.01C11.6882 54.9409 11.3771 55.6016 10.4605 55.91C10.305 55.91 10.1498 55.91 9.99487 55.91Z" fill="#2D2D2D"/>
<path fill-rule="evenodd" clip-rule="evenodd" d="M10.46 55.9089C11.3766 55.6005 11.6877 54.9399 11.646 54.0089C11.6031 53.0525 11.6365 52.0926 11.6365 51.0312C11.8452 51.1764 11.9897 51.2736 12.1306 51.3754C15.7661 54 19.8153 55.4952 24.2895 55.833C24.4259 55.8434 24.5601 55.8829 24.6952 55.9089C19.9502 55.9089 15.2051 55.9089 10.46 55.9089Z" fill="white"/>
<path fill-rule="evenodd" clip-rule="evenodd" d="M41.7215 8.27256C40.8273 8.57354 40.4958 9.20773 40.5356 10.1298C40.5775 11.1013 40.5451 12.0758 40.5451 13.1387C40.1003 12.8302 39.7287 12.5649 39.3497 12.3108C35.8791 9.9843 32.0621 8.6582 27.8936 8.34776C27.7567 8.33746 27.622 8.29825 27.4863 8.27246C32.2313 8.27256 36.9764 8.27256 41.7215 8.27256Z" fill="white"/>
<path fill-rule="evenodd" clip-rule="evenodd" d="M26.0901 44.6518C25.191 44.652 24.2919 44.6577 23.3929 44.6504C22.4889 44.6431 21.9155 44.0679 21.9045 43.1661C21.8989 42.701 21.8898 42.2354 21.9089 41.7712C21.9192 41.5215 21.8478 41.3824 21.6093 41.2747C21.258 41.1162 20.89 40.9518 20.6026 40.7045C20.2197 40.375 19.9159 40.4358 19.5452 40.6958C19.2171 40.9259 18.8589 41.1175 18.5004 41.2993C17.765 41.6722 17.0287 41.4847 16.6085 40.7741C15.663 39.1746 14.7331 37.5655 13.8232 35.9456C13.4217 35.2308 13.6405 34.4891 14.3342 34.0509C14.7396 33.7948 15.1575 33.5565 15.581 33.331C15.8126 33.2077 15.9199 33.072 15.8842 32.7871C15.8402 32.4357 15.8096 32.065 15.8738 31.7215C15.9788 31.1589 15.7445 30.8716 15.259 30.6623C14.9203 30.5163 14.6044 30.3097 14.2948 30.1053C13.6479 29.6777 13.4284 28.9546 13.8058 28.2792C14.7275 26.6305 15.6719 24.994 16.6364 23.3699C17.0418 22.6875 17.7834 22.5151 18.5006 22.8846C18.9544 23.1184 19.38 23.4076 19.8385 23.6304C19.979 23.6988 20.2136 23.6849 20.3578 23.6134C20.8004 23.3938 21.2299 23.1432 21.6424 22.8712C21.7664 22.7896 21.8827 22.6028 21.8917 22.4573C21.9225 21.9632 21.8962 21.4659 21.9056 20.97C21.9214 20.1257 22.5005 19.5387 23.3464 19.5343C25.1754 19.525 27.0046 19.525 28.8336 19.5343C29.6799 19.5385 30.2577 20.1241 30.275 20.9698C30.2847 21.4502 30.2895 21.9313 30.2722 22.4112C30.2631 22.6589 30.3302 22.795 30.5719 22.9048C30.9509 23.0768 31.3301 23.274 31.6563 23.5285C31.9842 23.7844 32.2352 23.7574 32.5547 23.5357C32.897 23.2981 33.2691 23.1015 33.6378 22.9049C34.3881 22.505 35.1423 22.6821 35.5714 23.4077C36.5174 25.0068 37.4473 26.6158 38.3565 28.2362C38.7589 28.9535 38.5419 29.6908 37.848 30.1327C37.4435 30.3904 37.0265 30.6306 36.6022 30.8542C36.3688 30.9773 36.2577 31.1098 36.2967 31.3953C36.3402 31.7154 36.3721 32.0562 36.309 32.3678C36.1812 32.9992 36.4508 33.3335 37.0011 33.5656C37.3263 33.7027 37.6296 33.9021 37.9225 34.103C38.5259 34.5166 38.7465 35.2201 38.3916 35.8589C37.4595 37.5371 36.5003 39.2008 35.5174 40.8496C35.1334 41.4939 34.3976 41.6592 33.7239 41.3173C33.255 41.0792 32.8158 40.7823 32.3435 40.5525C32.2029 40.4842 31.9682 40.499 31.8236 40.5708C31.3812 40.7903 30.9517 41.041 30.5389 41.3127C30.4149 41.3943 30.2982 41.5805 30.289 41.7259C30.2581 42.22 30.2849 42.7173 30.2749 43.2132C30.2577 44.0585 29.68 44.6395 28.8337 44.6497C27.9194 44.6603 27.0046 44.6517 26.0901 44.6518ZM18.3265 38.1817C18.73 37.9504 19.0919 37.7451 19.4517 37.536C20.0577 37.1839 20.6422 37.217 21.1737 37.6715C21.937 38.324 22.7891 38.8119 23.7316 39.1529C24.3745 39.3855 24.6839 39.8646 24.6933 40.5406C24.6992 40.9694 24.6943 41.3983 24.6943 41.8276C25.6542 41.8276 26.5584 41.8276 27.4859 41.8276C27.4859 41.4241 27.4845 41.0535 27.4862 40.6829C27.4897 39.8195 27.8029 39.4522 28.5674 39.0837C29.3833 38.6906 30.1742 38.2283 30.9226 37.7179C31.5884 37.2641 32.059 37.1692 32.7652 37.56C33.1247 37.7589 33.4821 37.9615 33.8592 38.173C34.332 37.3531 34.779 36.5778 35.2444 35.7705C34.8457 35.5377 34.4698 35.3272 34.103 35.1018C33.4968 34.7294 33.3328 34.2241 33.3803 33.5251C33.4438 32.5894 33.4574 31.6427 33.3903 30.7081C33.3341 29.9248 33.4926 29.4398 34.1766 29.0337C34.5211 28.8293 34.8695 28.632 35.2466 28.4138C34.776 27.5988 34.3224 26.8138 33.8544 26.0036C33.4403 26.241 33.0685 26.4604 32.6909 26.6688C32.0968 26.9968 31.5241 26.9552 31.0086 26.5122C30.2469 25.8577 29.3948 25.3698 28.4512 25.03C27.8103 24.7991 27.4949 24.3219 27.4871 23.6438C27.482 23.2149 27.4862 22.7859 27.4862 22.3549C26.5273 22.3549 25.6231 22.3549 24.6945 22.3549C24.6945 22.7733 24.6968 23.1592 24.6941 23.5451C24.6883 24.3506 24.3687 24.7278 23.6556 25.0782C22.8286 25.4845 22.0218 25.9482 21.2598 26.4659C20.5831 26.9257 20.1021 27.0141 19.3737 26.602C19.0296 26.4072 18.686 26.2122 18.3245 26.0073C17.8866 26.7648 17.4758 27.4741 17.0665 28.1842C17.0288 28.2498 17.0004 28.3208 16.9539 28.4178C17.337 28.643 17.7112 28.8563 18.0786 29.0806C18.6798 29.4476 18.8447 29.9593 18.7998 30.6583C18.7387 31.6093 18.7382 32.57 18.7994 33.5208C18.8444 34.2213 18.6831 34.7295 18.081 35.1003C17.7138 35.3263 17.3384 35.5384 16.9387 35.7734C17.4007 36.575 17.8476 37.3505 18.3265 38.1817Z" fill="#2D2D2D"/>
<path fill-rule="evenodd" clip-rule="evenodd" d="M26.0921 26.9756C28.9068 26.9765 31.2066 29.2778 31.2059 32.0929C31.2052 34.9064 28.9021 37.2083 26.0886 37.2073C23.2771 37.2063 20.9735 34.9008 20.9746 32.0892C20.9756 29.2763 23.2791 26.9747 26.0921 26.9756ZM26.1526 29.7671C24.8642 29.7376 23.7891 30.7615 23.7661 32.0401C23.7432 33.3099 24.7467 34.3744 26.0046 34.4148C27.2914 34.4562 28.3791 33.4404 28.4138 32.165C28.4488 30.8759 27.4308 29.7964 26.1526 29.7671Z" fill="#2D2D2D"/>
</svg>
