<svg width="1972" height="1007" viewBox="0 0 1972 1007" fill="none" xmlns="http://www.w3.org/2000/svg">
<circle cx="611.605" cy="884.873" r="2.87313" fill="#003262"/>
<circle cx="662.5" cy="884.873" r="2.87313" fill="#003262"/>
<circle cx="611.605" cy="901.291" r="2.87313" fill="#003262"/>
<circle cx="662.5" cy="901.291" r="2.87313" fill="#003262"/>
<circle cx="611.605" cy="917.709" r="2.87313" fill="#003262"/>
<circle cx="662.5" cy="917.709" r="2.87313" fill="#003262"/>
<circle cx="611.605" cy="934.127" r="2.87313" fill="#003262"/>
<circle cx="662.5" cy="934.127" r="2.87313" fill="#003262"/>
<circle cx="636.232" cy="884.873" r="2.87313" fill="#003262"/>
<circle cx="687.127" cy="884.873" r="2.87313" fill="#003262"/>
<circle cx="636.232" cy="901.291" r="2.87313" fill="#003262"/>
<circle cx="687.127" cy="901.291" r="2.87313" fill="#003262"/>
<circle cx="636.232" cy="917.709" r="2.87313" fill="#003262"/>
<circle cx="687.127" cy="917.709" r="2.87313" fill="#003262"/>
<circle cx="636.232" cy="934.127" r="2.87313" fill="#003262"/>
<circle cx="687.127" cy="934.127" r="2.87313" fill="#003262"/>
<circle cx="1029" cy="322" r="15" stroke="#18B0D1" stroke-width="6"/>
<circle cx="369" cy="838" r="15" stroke="#18B0D1" stroke-width="6"/>
<circle cx="1205" cy="471" r="10" stroke="#003262" stroke-width="4"/>
<circle cx="216" cy="919" r="10" stroke="#003262" stroke-width="4"/>
<circle r="298" transform="matrix(-1 0 0 1 1673 591)" fill="#D2F7FF"/>
</svg>
