<svg width="90" height="72" viewBox="0 0 90 72" fill="none" xmlns="http://www.w3.org/2000/svg">
<circle cx="54.4952" cy="35.5055" r="35.5055" fill="#E0F9FF"/>
<g clip-path="url(#clip0)">
<path d="M40.9241 57.8852H18.6023C15.1846 57.8852 12.4019 55.1024 12.4019 51.6847V19.4422C12.4019 16.0245 15.1846 13.2417 18.6023 13.2417H40.9241C44.3418 13.2417 47.1245 16.0245 47.1245 19.4422V51.6847C47.1245 55.1024 44.3418 57.8852 40.9241 57.8852ZM18.6023 15.7219C16.5512 15.7219 14.882 17.3911 14.882 19.4422V51.6847C14.882 53.7358 16.5512 55.405 18.6023 55.405H40.9241C42.9752 55.405 44.6444 53.7358 44.6444 51.6847V19.4422C44.6444 17.3911 42.9752 15.7219 40.9241 15.7219H18.6023Z" fill="#3D3D3D"/>
<path d="M26.0426 15.7218C25.3581 15.7218 24.8025 15.1662 24.8025 14.4817V7.04112C24.8025 6.35659 25.3581 5.80103 26.0426 5.80103C26.7271 5.80103 27.2827 6.35659 27.2827 7.04112V14.4817C27.2827 15.1662 26.7271 15.7218 26.0426 15.7218Z" fill="#3D3D3D"/>
<path d="M33.4833 15.7218C32.7987 15.7218 32.2432 15.1662 32.2432 14.4817V7.04112C32.2432 6.35659 32.7987 5.80103 33.4833 5.80103C34.1678 5.80103 34.7234 6.35659 34.7234 7.04112V14.4817C34.7234 15.1662 34.1678 15.7218 33.4833 15.7218Z" fill="#3D3D3D"/>
<path d="M26.0426 65.3256C25.3581 65.3256 24.8025 64.77 24.8025 64.0855V56.6449C24.8025 55.9603 25.3581 55.4048 26.0426 55.4048C26.7271 55.4048 27.2827 55.9603 27.2827 56.6449V64.0855C27.2827 64.77 26.7271 65.3256 26.0426 65.3256Z" fill="#3D3D3D"/>
<path d="M33.4833 65.3256C32.7987 65.3256 32.2432 64.77 32.2432 64.0855V56.6449C32.2432 55.9603 32.7987 55.4048 33.4833 55.4048C34.1678 55.4048 34.7234 55.9603 34.7234 56.6449V64.0855C34.7234 64.77 34.1678 65.3256 33.4833 65.3256Z" fill="#3D3D3D"/>
<path d="M53.325 25.6426H45.8844C45.1998 25.6426 44.6443 25.087 44.6443 24.4025C44.6443 23.7179 45.1998 23.1624 45.8844 23.1624H53.325C54.0095 23.1624 54.5651 23.7179 54.5651 24.4025C54.5651 25.087 54.0095 25.6426 53.325 25.6426Z" fill="#3D3D3D"/>
<path d="M53.325 33.0832H45.8844C45.1998 33.0832 44.6443 32.5277 44.6443 31.8431C44.6443 31.1586 45.1998 30.603 45.8844 30.603H53.325C54.0095 30.603 54.5651 31.1586 54.5651 31.8431C54.5651 32.5277 54.0095 33.0832 53.325 33.0832Z" fill="#3D3D3D"/>
<path d="M53.325 40.5236H45.8844C45.1998 40.5236 44.6443 39.9681 44.6443 39.2836C44.6443 38.599 45.1998 38.0435 45.8844 38.0435H53.325C54.0095 38.0435 54.5651 38.599 54.5651 39.2836C54.5651 39.9681 54.0095 40.5236 53.325 40.5236Z" fill="#3D3D3D"/>
<path d="M53.325 47.9643H45.8844C45.1998 47.9643 44.6443 47.4088 44.6443 46.7242C44.6443 46.0397 45.1998 45.4841 45.8844 45.4841H53.325C54.0095 45.4841 54.5651 46.0397 54.5651 46.7242C54.5651 47.4088 54.0095 47.9643 53.325 47.9643Z" fill="#3D3D3D"/>
<path d="M13.6419 25.6426H6.20128C5.51674 25.6426 4.96118 25.087 4.96118 24.4025C4.96118 23.7179 5.51674 23.1624 6.20128 23.1624H13.6419C14.3264 23.1624 14.882 23.7179 14.882 24.4025C14.882 25.087 14.3264 25.6426 13.6419 25.6426Z" fill="#3D3D3D"/>
<path d="M13.6419 33.0832H6.20128C5.51674 33.0832 4.96118 32.5277 4.96118 31.8431C4.96118 31.1586 5.51674 30.603 6.20128 30.603H13.6419C14.3264 30.603 14.882 31.1586 14.882 31.8431C14.882 32.5277 14.3264 33.0832 13.6419 33.0832Z" fill="#3D3D3D"/>
<path d="M13.6419 40.5236H6.20128C5.51674 40.5236 4.96118 39.9681 4.96118 39.2836C4.96118 38.599 5.51674 38.0435 6.20128 38.0435H13.6419C14.3264 38.0435 14.882 38.599 14.882 39.2836C14.882 39.9681 14.3264 40.5236 13.6419 40.5236Z" fill="#3D3D3D"/>
<path d="M13.6419 47.9643H6.20128C5.51674 47.9643 4.96118 47.4088 4.96118 46.7242C4.96118 46.0397 5.51674 45.4841 6.20128 45.4841H13.6419C14.3264 45.4841 14.882 46.0397 14.882 46.7242C14.882 47.4088 14.3264 47.9643 13.6419 47.9643Z" fill="#3D3D3D"/>
</g>
<defs>
<clipPath id="clip0">
<rect width="59.5246" height="59.5246" fill="white" transform="translate(0.000732422 5.80103)"/>
</clipPath>
</defs>
</svg>
