<svg width="105" height="75" viewBox="0 0 105 75" fill="none" xmlns="http://www.w3.org/2000/svg">
<circle cx="67.5" cy="37.5" r="37.5" fill="#4A93CF" fill-opacity="0.5"/>
<path d="M72.952 11.887C72.8916 11.6785 72.7762 11.4901 72.6179 11.3415C72.4596 11.193 72.2643 11.0898 72.0524 11.0427L64.6305 9.36599L62.9538 1.94415C62.9062 1.7328 62.8026 1.53811 62.6541 1.3804C62.5055 1.2227 62.3173 1.10777 62.1092 1.0476C61.9011 0.987438 61.6806 0.984246 61.4708 1.03836C61.261 1.09248 61.0696 1.20191 60.9165 1.35525L52.3805 9.89261C45.1573 5.5339 36.5884 3.96982 28.2911 5.49552C19.9937 7.02123 12.5418 11.5312 7.34153 18.1743C2.14128 24.8174 -0.4476 33.1342 0.063469 41.5552C0.574538 49.9762 4.1502 57.9188 10.1157 63.8843C16.0812 69.8498 24.0238 73.4255 32.4448 73.9365C40.8657 74.4476 49.1825 71.8587 55.8257 66.6585C62.4688 61.4582 66.9788 54.0062 68.5045 45.7089C70.0302 37.4115 68.4661 28.8427 64.1074 21.6194L72.6468 13.08C72.7997 12.9266 72.9086 12.735 72.9623 12.5252C73.0159 12.3153 73.0124 12.095 72.952 11.887ZM66.6505 39.4671C66.6496 46.5372 64.3155 53.4093 60.0103 59.0175C55.7052 64.6256 49.6696 68.6563 42.84 70.4843C36.0103 72.3123 28.7683 71.8353 22.2374 69.1275C15.7064 66.4196 10.2517 61.6322 6.71918 55.5079C3.18671 49.3835 1.77403 42.2647 2.70027 35.2555C3.62651 28.2464 6.83991 21.7389 11.842 16.7424C16.844 11.7459 23.3552 8.53973 30.3653 7.6213C37.3755 6.70287 44.4928 8.12348 50.6131 11.6628L46.6929 15.583C46.6592 15.6214 46.628 15.6618 46.5995 15.7041C40.939 12.8223 34.4361 12.054 28.2599 13.5373C22.0836 15.0206 16.6389 18.6582 12.9045 23.7964C9.17006 28.9345 7.39075 35.2361 7.88641 41.5687C8.38206 47.9012 11.1202 53.8492 15.6086 58.3438C20.097 62.8383 26.0413 65.5845 32.3732 66.0887C38.705 66.593 45.0091 64.8223 50.1523 61.0948C55.2955 57.3674 58.9405 51.9277 60.4322 45.7534C61.9239 39.5792 61.1645 33.0753 58.2903 27.4109C58.3348 27.3795 58.3772 27.345 58.417 27.3078L62.3372 23.3875C65.1682 28.2731 66.6563 33.8206 66.6505 39.4671ZM55.4164 27.2088C58.3905 32.2859 59.4125 38.2727 58.2912 44.0489C57.1699 49.825 53.9821 54.9946 49.3244 58.5902C44.6668 62.1857 38.8585 63.9607 32.9867 63.583C27.1148 63.2053 21.5818 60.7008 17.4232 56.5382C13.2646 52.3756 10.7654 46.8402 10.3933 40.9679C10.0213 35.0957 11.8019 29.2892 15.4019 24.635C19.0019 19.9808 24.1746 16.798 29.9518 15.6822C35.7291 14.5665 41.7149 15.5943 46.7891 18.5732L48.0645 24.2228L46.841 25.4463C43.1924 22.2424 38.4409 20.5829 33.591 20.8188C28.7411 21.0547 24.173 23.1674 20.8526 26.7102C17.5322 30.2531 15.7197 34.9484 15.7983 39.8034C15.877 44.6584 17.8406 49.2925 21.2741 52.7259C24.7075 56.1594 29.3416 58.123 34.1966 58.2017C39.0516 58.2803 43.7469 56.4678 47.2898 53.1474C50.8326 49.827 52.9453 45.2589 53.1812 40.409C53.4171 35.5591 51.7576 30.8076 48.5537 27.159L49.7772 25.9355L55.4164 27.2088ZM39.7403 39.4671C39.7445 40.6248 39.3643 41.7511 38.6594 42.6694C37.9544 43.5877 36.9645 44.2459 35.845 44.5408C34.7255 44.8357 33.5398 44.7506 32.4739 44.2988C31.408 43.8471 30.5222 43.0542 29.9556 42.0447C29.389 41.0352 29.1736 39.8661 29.3431 38.7209C29.5127 37.5757 30.0576 36.5192 30.8925 35.7172C31.7273 34.9152 32.8048 34.413 33.9559 34.2895C35.107 34.166 36.2665 34.4282 37.2525 35.0348L33.6761 38.6111C33.5605 38.7229 33.4683 38.8565 33.4048 39.0043C33.3414 39.152 33.308 39.3109 33.3067 39.4717C33.3053 39.6325 33.336 39.792 33.3969 39.9408C33.4578 40.0896 33.5478 40.2248 33.6615 40.3385C33.7752 40.4522 33.9104 40.5421 34.0593 40.603C34.2081 40.6638 34.3676 40.6944 34.5284 40.693C34.6892 40.6916 34.8481 40.6581 34.9958 40.5946C35.1436 40.5311 35.2772 40.4388 35.3889 40.3232L38.9652 36.7468C39.4715 37.5639 39.7399 38.5059 39.7403 39.4671ZM38.9956 33.2916C37.4354 32.1615 35.5066 31.6607 33.5936 31.8891C31.6806 32.1175 29.9239 33.0584 28.6736 34.5241C27.4233 35.9899 26.7712 37.8729 26.8472 39.798C26.9233 41.7231 27.7219 43.5488 29.0839 44.9114C30.4459 46.274 32.2713 47.0733 34.1964 47.1501C36.1214 47.227 38.0047 46.5756 39.471 45.3259C40.9373 44.0762 41.8788 42.3199 42.108 40.407C42.3372 38.4941 41.8372 36.5651 40.7077 35.0044L46.8375 28.8745C49.5841 32.0654 50.9868 36.1967 50.7509 40.4003C50.5149 44.6038 48.6587 48.5522 45.5723 51.4157C42.4859 54.2792 38.4097 55.8347 34.2003 55.7555C29.9909 55.6762 25.9761 53.9683 22.9997 50.9907C20.0232 48.0131 18.3169 43.9976 18.2394 39.7882C18.1618 35.5787 19.7191 31.5031 22.5838 28.4179C25.4485 25.3326 29.3977 23.478 33.6013 23.2438C37.805 23.0095 41.9357 24.4139 45.1255 27.1618L38.9956 33.2916ZM61.7241 20.5752L57.179 25.1196L56.4973 24.966L56.471 24.9598L50.4055 23.5945L48.8769 16.8245L61.0784 4.62086L62.4396 10.6455C62.4901 10.8689 62.6028 11.0733 62.7647 11.2353C62.9267 11.3972 63.1311 11.5099 63.3545 11.5604L69.3791 12.9215L61.7241 20.5752Z" fill="#F5F5F5"/>
</svg>
