<svg width="115" height="90" viewBox="0 0 115 90" fill="none" xmlns="http://www.w3.org/2000/svg">
<circle cx="77.5" cy="42.5" r="37.5" fill="#4A93CF" fill-opacity="0.5"/>
<path d="M61.5762 44.8418C62.9648 29.4434 57.5859 13.7461 46.3008 2.46094C45.6152 1.77539 44.4023 1.77539 43.7168 2.46094C32.4316 13.7461 27.0527 29.4258 28.4414 44.8418C24.5391 49.043 22.3945 54.457 22.3945 60.2226C22.3945 66.041 24.6094 71.5781 28.6348 75.7969C29.6191 76.834 32.1328 76.3594 31.7285 74.0742C31.5176 72.8789 31.2539 71.7187 31.2539 70.5762C31.2539 67.7285 32.1152 65.0215 33.7148 62.7363C33.9785 62.8769 34.2773 62.9648 34.5938 62.9648H55.4238C55.7402 62.9648 56.0391 62.8769 56.3027 62.7363C57.9023 65.0215 58.7637 67.7285 58.7637 70.5762C58.7637 71.7187 58.4648 72.8613 58.2891 74.0742C57.9199 76.6055 60.5566 76.6934 61.3828 75.7969C65.3906 71.5605 67.6231 66.041 67.6231 60.2226C67.6055 54.457 65.4785 49.0254 61.5762 44.8418ZM45 6.39844C48.2695 9.91406 50.9414 13.8691 53.0156 18.0703H37.002C39.0586 13.8516 41.7305 9.91406 45 6.39844ZM27.7734 68.0976C26.6484 65.6543 26.0684 62.9824 26.0684 60.2226C26.0684 56.4961 27.1406 52.9277 29.1445 49.8691C29.1621 50.0098 31.0781 57.3398 31.8164 59.2207C29.6191 61.7519 28.2305 64.8105 27.7734 68.0976ZM54.2109 59.291H35.7891C30.6211 47.1621 30.6738 33.6094 35.3672 21.709H54.6328C59.3262 33.6094 59.3789 47.1621 54.2109 59.291ZM58.2012 59.2207C59.2207 56.6016 60.8555 49.9746 60.873 49.8691C62.877 52.9102 63.9492 56.4785 63.9492 60.2226C63.9492 62.9824 63.3516 65.6543 62.2441 68.0976C61.7695 64.8105 60.3809 61.7519 58.2012 59.2207Z" fill="#F5F5F5"/>
<path d="M37.5996 66.0234C36.5801 66.0234 35.7715 66.8496 35.7715 67.8516V77.0449C35.7715 78.0644 36.5977 78.873 37.5996 78.873C38.6016 78.873 39.4277 78.0469 39.4277 77.0449V67.8516C39.4277 66.832 38.6016 66.0234 37.5996 66.0234Z" fill="#F5F5F5"/>
<path d="M45 66.0234C44.4902 66.0234 44.0332 66.2344 43.6992 66.5684C43.6992 66.5684 43.6992 66.5684 43.6816 66.5859C43.4707 66.7969 43.3125 67.0781 43.2246 67.3945C43.1895 67.5527 43.1543 67.7109 43.1543 67.8867V86.2559C43.1543 86.3965 43.1719 86.5371 43.207 86.6777C43.4004 87.4863 44.1211 88.084 44.9824 88.084C45.8437 88.084 46.5645 87.4863 46.7578 86.6777C46.793 86.5371 46.8105 86.3965 46.8105 86.2559V67.8516C46.8105 67.6758 46.793 67.5176 46.7402 67.3594C46.5469 66.5859 45.8437 66.0234 45 66.0234Z" fill="#F5F5F5"/>
<path d="M52.4004 66.0234C51.3809 66.0234 50.5723 66.8496 50.5723 67.8516V77.0449C50.5723 78.0644 51.3984 78.873 52.4004 78.873C53.4023 78.873 54.2285 78.0469 54.2285 77.0449V67.8516C54.2461 66.832 53.4199 66.0234 52.4004 66.0234Z" fill="#F5F5F5"/>
</svg>
