<svg width="368" height="52" viewBox="0 0 368 52" fill="none" xmlns="http://www.w3.org/2000/svg">
<path d="M76.515 10.41V16.575H68.145V42H60.45V16.575H52.08V10.41H76.515ZM88.0719 16.575V22.965H98.3769V28.905H88.0719V35.835H99.7269V42H80.3769V10.41H99.7269V16.575H88.0719ZM103.418 26.16C103.418 23.04 104.093 20.265 105.443 17.835C106.793 15.375 108.668 13.47 111.068 12.12C113.498 10.74 116.243 10.05 119.303 10.05C123.053 10.05 126.263 11.04 128.933 13.02C131.603 15 133.388 17.7 134.288 21.12H125.828C125.198 19.8 124.298 18.795 123.128 18.105C121.988 17.415 120.683 17.07 119.213 17.07C116.843 17.07 114.923 17.895 113.453 19.545C111.983 21.195 111.248 23.4 111.248 26.16C111.248 28.92 111.983 31.125 113.453 32.775C114.923 34.425 116.843 35.25 119.213 35.25C120.683 35.25 121.988 34.905 123.128 34.215C124.298 33.525 125.198 32.52 125.828 31.2H134.288C133.388 34.62 131.603 37.32 128.933 39.3C126.263 41.25 123.053 42.225 119.303 42.225C116.243 42.225 113.498 41.55 111.068 40.2C108.668 38.82 106.793 36.915 105.443 34.485C104.093 32.055 103.418 29.28 103.418 26.16ZM166.36 10.41V42H158.665V28.995H146.695V42H139V10.41H146.695V22.785H158.665V10.41H166.36ZM200.175 42H192.48L179.61 22.515V42H171.915V10.41H179.61L192.48 29.985V10.41H200.175V42ZM220.693 42.315C217.723 42.315 214.993 41.625 212.503 40.245C210.043 38.865 208.078 36.945 206.608 34.485C205.168 31.995 204.448 29.205 204.448 26.115C204.448 23.025 205.168 20.25 206.608 17.79C208.078 15.33 210.043 13.41 212.503 12.03C214.993 10.65 217.723 9.96 220.693 9.96C223.663 9.96 226.378 10.65 228.838 12.03C231.328 13.41 233.278 15.33 234.688 17.79C236.128 20.25 236.848 23.025 236.848 26.115C236.848 29.205 236.128 31.995 234.688 34.485C233.248 36.945 231.298 38.865 228.838 40.245C226.378 41.625 223.663 42.315 220.693 42.315ZM220.693 35.295C223.213 35.295 225.223 34.455 226.723 32.775C228.253 31.095 229.018 28.875 229.018 26.115C229.018 23.325 228.253 21.105 226.723 19.455C225.223 17.775 223.213 16.935 220.693 16.935C218.143 16.935 216.103 17.76 214.573 19.41C213.073 21.06 212.323 23.295 212.323 26.115C212.323 28.905 213.073 31.14 214.573 32.82C216.103 34.47 218.143 35.295 220.693 35.295ZM268.219 10.41L257.284 31.56V42H249.589V31.56L238.654 10.41H247.384L253.504 23.64L259.579 10.41H268.219ZM278.879 10.41V29.31C278.879 31.2 279.344 32.655 280.274 33.675C281.204 34.695 282.569 35.205 284.369 35.205C286.169 35.205 287.549 34.695 288.509 33.675C289.469 32.655 289.949 31.2 289.949 29.31V10.41H297.644V29.265C297.644 32.085 297.044 34.47 295.844 36.42C294.644 38.37 293.024 39.84 290.984 40.83C288.974 41.82 286.724 42.315 284.234 42.315C281.744 42.315 279.509 41.835 277.529 40.875C275.579 39.885 274.034 38.415 272.894 36.465C271.754 34.485 271.184 32.085 271.184 29.265V10.41H278.879ZM324.018 20.4C323.448 19.35 322.623 18.555 321.543 18.015C320.493 17.445 319.248 17.16 317.808 17.16C315.318 17.16 313.323 17.985 311.823 19.635C310.323 21.255 309.573 23.43 309.573 26.16C309.573 29.07 310.353 31.35 311.913 33C313.503 34.62 315.678 35.43 318.438 35.43C320.328 35.43 321.918 34.95 323.208 33.99C324.528 33.03 325.488 31.65 326.088 29.85H316.323V24.18H333.063V31.335C332.493 33.255 331.518 35.04 330.138 36.69C328.788 38.34 327.063 39.675 324.963 40.695C322.863 41.715 320.493 42.225 317.853 42.225C314.733 42.225 311.943 41.55 309.483 40.2C307.053 38.82 305.148 36.915 303.768 34.485C302.418 32.055 301.743 29.28 301.743 26.16C301.743 23.04 302.418 20.265 303.768 17.835C305.148 15.375 307.053 13.47 309.483 12.12C311.913 10.74 314.688 10.05 317.808 10.05C321.588 10.05 324.768 10.965 327.348 12.795C329.958 14.625 331.683 17.16 332.523 20.4H324.018ZM356.99 36.42H345.2L343.31 42H335.255L346.685 10.41H355.595L367.025 42H358.88L356.99 36.42ZM355.01 30.48L351.095 18.915L347.225 30.48H355.01Z" fill="white"/>
<circle cx="234.5" cy="6.5" r="3.5" fill="white"/>
<path fill-rule="evenodd" clip-rule="evenodd" d="M6.25671 49.1249C7.45005 44.7927 10.4568 42.4399 14.7022 42.4316C16.8666 42.4275 19.0311 42.4515 21.1956 42.447C25.279 42.4386 27.6138 40.1701 27.6433 35.9901C27.6973 28.3327 27.619 20.6744 27.6802 13.0172C27.7102 9.24729 29.0508 6.13468 32.7054 4.44104C34.3285 3.68888 34.5032 3.80738 34.3317 5.54209C33.6363 12.5788 34.0411 19.6321 34.0102 26.6787C33.9953 30.0539 33.9967 33.4295 34.014 36.805C34.0468 43.2334 28.7053 48.6965 22.2883 48.7455C16.955 48.7859 11.619 48.6238 6.25671 49.1249Z" fill="white"/>
<path fill-rule="evenodd" clip-rule="evenodd" d="M24.9487 35.8626C20.5048 34.9778 16.1367 35.888 11.8559 35.0788C5.9749 33.9672 1.87409 28.3897 2.28469 22.4183C2.6615 16.937 2.46596 11.45 1.95105 5.97693C1.89079 5.33641 1.65991 4.36096 1.96783 4.11363C2.51718 3.67318 3.26256 4.28497 3.87307 4.58192C6.52772 5.87294 8.01122 8.08215 8.452 10.9262C8.90625 13.8572 8.88092 16.8102 8.64343 19.7819C8.4737 21.904 8.28921 24.0868 9.4811 26.101C10.6216 28.0281 12.3011 28.8792 14.4432 29.0007C15.1466 29.0405 15.8531 29.0305 16.5584 29.0326C20.7093 29.0451 23.7335 31.4152 24.9487 35.8626Z" fill="white"/>
<path d="M12.9375 21.375C14.4908 21.375 15.75 19.9479 15.75 18.1875C15.75 16.4271 14.4908 15 12.9375 15C11.3842 15 10.125 16.4271 10.125 18.1875C10.125 19.9479 11.3842 21.375 12.9375 21.375Z" fill="white"/>
</svg>
