<svg width="108" height="90" viewBox="0 0 108 90" fill="none" xmlns="http://www.w3.org/2000/svg">
<circle cx="70.5" cy="52.5" r="37.5" fill="#4A93CF" fill-opacity="0.5"/>
<g clip-path="url(#clip0)">
<path d="M50.625 90H39.375C36.75 90 33.75 87.75 33.75 83.25V75.375C33.75 71.625 31.875 68.25 28.875 65.625C22.125 60.375 18.75 52.875 18.75 44.625C19.125 30.375 30.75 19.125 44.625 18.75C51.75 18.75 58.5 21.375 63.375 26.25C68.25 31.125 71.25 37.875 71.25 45C71.25 52.875 67.875 60.375 61.5 65.25C58.125 67.875 56.25 72 56.25 75.75V84.375C56.25 87.375 53.625 90 50.625 90ZM45 22.5C33 22.5 22.875 32.625 22.5 44.625C22.5 51.75 25.5 58.5 31.125 62.625C35.25 66 37.5 70.5 37.5 75.375V83.25C37.5 84 37.5 86.25 39.375 86.25H50.625C51.75 86.25 52.5 85.5 52.5 84.375V75.75C52.5 70.875 55.125 65.625 59.25 62.25C64.5 58.125 67.5 51.75 67.5 45C67.5 39 65.25 33.375 60.75 28.875C56.625 24.75 51 22.5 45 22.5Z" fill="#F5F5F5"/>
<path d="M54.375 78.75H35.625C34.5 78.75 33.75 78 33.75 76.875C33.75 75.75 34.5 75 35.625 75H54.375C55.5 75 56.25 75.75 56.25 76.875C56.25 78 55.5 78.75 54.375 78.75Z" fill="#F5F5F5"/>
<path d="M45 11.25C43.875 11.25 43.125 10.5 43.125 9.375V1.875C43.125 0.75 43.875 0 45 0C46.125 0 46.875 0.75 46.875 1.875V9.375C46.875 10.5 46.125 11.25 45 11.25Z" fill="#F5F5F5"/>
<path d="M70.125 21.75C69.75 21.75 69 21.75 68.625 21.375C67.875 20.625 67.875 19.5 68.625 18.75L73.875 13.5C74.625 12.75 75.75 12.75 76.5 13.5C77.25 14.25 77.25 15.375 76.5 16.125L71.25 21.375C71.25 21.375 70.5 21.75 70.125 21.75Z" fill="#F5F5F5"/>
<path d="M88.125 46.875H80.625C79.5 46.875 78.75 46.125 78.75 45C78.75 43.875 79.5 43.125 80.625 43.125H88.125C89.25 43.125 90 43.875 90 45C90 46.125 89.25 46.875 88.125 46.875Z" fill="#F5F5F5"/>
<path d="M75.375 77.25C75 77.25 74.25 77.25 73.875 76.875L68.625 71.625C67.875 70.875 67.875 69.75 68.625 69C69.375 68.25 70.5 68.25 71.25 69L76.5 74.25C77.25 75 77.25 76.125 76.5 76.875C76.5 77.25 76.125 77.25 75.375 77.25Z" fill="#F5F5F5"/>
<path d="M14.625 77.25C14.25 77.25 13.5 77.25 13.125 76.875C12.375 76.125 12.375 75 13.125 74.25L18.375 69C19.125 68.25 20.25 68.25 21 69C21.75 69.75 21.75 70.875 21 71.625L15.75 76.875C15.375 77.25 15 77.25 14.625 77.25Z" fill="#F5F5F5"/>
<path d="M9.375 46.875H1.875C0.75 46.875 0 46.125 0 45C0 43.875 0.75 43.125 1.875 43.125H9.375C10.5 43.125 11.25 43.875 11.25 45C11.25 46.125 10.5 46.875 9.375 46.875Z" fill="#F5F5F5"/>
<path d="M19.875 21.75C19.5 21.75 18.75 21.75 18.375 21.375L13.125 15.75C12.375 15 12.375 13.875 13.125 13.125C13.875 12.375 15 12.375 15.75 13.125L21 18.375C21.75 19.125 21.75 20.25 21 21C20.625 21.375 20.25 21.75 19.875 21.75Z" fill="#F5F5F5"/>
<path d="M60 46.875C58.875 46.875 58.125 46.125 58.125 45C58.125 37.875 52.125 31.875 45 31.875C43.875 31.875 43.125 31.125 43.125 30C43.125 28.875 43.875 28.125 45 28.125C54.375 28.125 61.875 35.625 61.875 45C61.875 46.125 61.125 46.875 60 46.875Z" fill="#F5F5F5"/>
</g>
<defs>
<clipPath id="clip0">
<rect width="90" height="90" fill="white"/>
</clipPath>
</defs>
</svg>
