<svg width="114" height="97" viewBox="0 0 114 97" fill="none" xmlns="http://www.w3.org/2000/svg">
<path d="M64.5247 46.1123C65.0497 43.8809 63.6621 41.6474 61.4253 41.1237C59.1886 40.5999 56.9497 41.9842 56.4247 44.2156C55.8997 46.447 57.2874 48.6804 59.5241 49.2042C61.7609 49.7279 63.9997 48.3436 64.5247 46.1123Z" fill="#52D800"/>
<path d="M80.7738 42.4441C81.3045 40.2141 79.9227 37.9771 77.6873 37.4476C75.4519 36.9182 73.2095 38.2967 72.6788 40.5267C72.148 42.7567 73.5299 44.9937 75.7653 45.5232C78.0006 46.0526 80.243 44.6741 80.7738 42.4441Z" fill="#52D800"/>
<path d="M78.613 22.5089C73.8078 15.5275 71.2923 16.2996 68.2608 18.7769C65.2293 21.2542 63.0686 23.3132 59.3599 26.4017C58.9084 26.7878 58.4891 27.0774 58.1021 27.3026C58.8439 29.1364 59.5856 30.6163 60.3919 30.9059C60.7466 31.0346 61.2304 30.938 61.8753 30.6485L66.5193 27.9138C66.0356 26.9808 65.9388 25.887 66.2936 24.8575C66.7773 23.4741 67.9383 22.2837 69.4218 21.7046L72.5501 20.4499C72.9693 20.289 73.4531 20.4499 73.6788 20.8359C73.9691 21.2863 73.8078 21.8976 73.3241 22.155L70.1313 23.7636C69.2606 24.1175 68.7123 24.6323 68.4866 25.3722C68.3576 25.7905 68.3898 26.4017 68.5511 26.7235L74.2271 23.4097C74.6786 23.1523 75.2268 23.281 75.4848 23.7314C75.7428 24.1497 75.646 24.7288 75.2268 24.9862L69.7121 28.7181C69.9378 29.0399 70.3571 29.3616 70.7763 29.4259C71.5503 29.5546 72.5178 29.2329 73.2273 28.6538L75.9686 26.3696C76.42 26.0478 77.0328 26.1765 77.323 26.6269L77.3553 26.6913C77.581 27.0774 77.5165 27.5599 77.194 27.8817L74.5496 30.3589C73.2918 31.3563 71.6793 31.8067 70.2603 31.5493C69.1638 31.3563 68.2608 30.745 67.6803 29.8764L63.3911 32.3858C62.3913 32.9649 61.5529 33.2544 60.7144 33.2544C60.3274 33.2544 59.9404 33.1901 59.5856 33.0614C56.2961 31.9354 54.4579 24.5357 54.0386 22.9915L51.5876 14.9806C52.1359 14.7232 52.4261 14.1441 52.2326 13.5328L48.4916 0.856916C48.2981 0.21347 47.6209 -0.140426 46.9759 0.0526079L43.2994 1.14647C42.6544 1.3395 42.2997 2.01512 42.4932 2.65857L46.2987 15.3988C46.4599 15.9779 47.0726 16.3318 47.6531 16.2353L50.5234 25.7261C53.8774 38.1125 55.3609 40.6862 61.7786 38.9489C67.1966 37.5012 72.3243 36.15 75.9363 35.1848C79.5805 34.1874 83.4183 29.4903 78.613 22.5089Z" fill="#52D800"/>
<path d="M44.7495 22.7985H37.5578C36.687 22.7985 36.0098 22.0907 36.0098 21.2542C36.0098 20.3856 36.7193 19.71 37.5578 19.71H44.7495C45.6202 19.71 46.2975 20.4178 46.2975 21.2542C46.3297 22.1229 45.6202 22.7985 44.7495 22.7985Z" fill="#52D800"/>
<path d="M47.3628 42.2628H42.0415C41.2675 42.2628 40.6548 41.6515 40.6548 40.8794V40.5255C40.6548 39.7534 41.2675 39.1421 42.0415 39.1421H47.3628C48.1368 39.1421 48.7495 39.7534 48.7495 40.5255V40.8794C48.7495 41.6515 48.1368 42.2628 47.3628 42.2628Z" fill="#52D800"/>
<path d="M45.4272 33.3508H34.559C33.6882 33.3508 33.011 32.643 33.011 31.8065C33.011 30.9378 33.7205 30.2622 34.559 30.2622H45.4272C46.2979 30.2622 46.9752 30.97 46.9752 31.8065C47.0074 32.6751 46.2979 33.3508 45.4272 33.3508Z" fill="#52D800"/>
<path d="M9.14087 85.4219C6.74243 85.4219 4.8479 84.6289 3.45728 83.043C2.06665 81.4492 1.37134 79.2852 1.37134 76.5508C1.37134 73.8008 2.06274 71.6328 3.44556 70.0469C4.83618 68.4609 6.73071 67.668 9.12915 67.668C11.051 67.668 12.6799 68.2344 14.0159 69.3672C15.3518 70.4922 16.1096 71.9375 16.2893 73.7031H13.3127C13.1018 72.6875 12.6174 71.8789 11.8596 71.2773C11.1018 70.668 10.1917 70.3633 9.12915 70.3633C7.69165 70.3633 6.55493 70.918 5.71899 72.0273C4.88306 73.1289 4.46509 74.6328 4.46509 76.5391C4.46509 78.4453 4.88306 79.9531 5.71899 81.0625C6.55493 82.1719 7.69556 82.7266 9.14087 82.7266C10.2112 82.7266 11.1252 82.4492 11.8831 81.8945C12.6409 81.332 13.1213 80.5781 13.3245 79.6328H16.301C16.0979 81.3672 15.3401 82.7656 14.0276 83.8281C12.7151 84.8906 11.0862 85.4219 9.14087 85.4219ZM19.4768 85V67.2227H22.3831V85H19.4768ZM37.219 72.1797V85H34.4182V82.9609H34.219C33.5706 84.4922 32.2932 85.2578 30.387 85.2578C28.9885 85.2578 27.8987 84.8438 27.1174 84.0156C26.3362 83.1797 25.9456 82.0117 25.9456 80.5117V72.1797H28.8518V79.7852C28.8518 80.7695 29.0588 81.5039 29.4729 81.9883C29.887 82.4648 30.5276 82.7031 31.3948 82.7031C32.3323 82.7031 33.051 82.4336 33.551 81.8945C34.0588 81.3555 34.3127 80.6055 34.3127 79.6445V72.1797H37.219ZM47.9065 85.2109C47.0081 85.2109 46.2073 85.0156 45.5042 84.625C44.801 84.2266 44.2659 83.6758 43.8987 82.9727H43.6995V85H40.8987V67.2227H43.8049V74.2188H44.0042C44.3401 73.5234 44.8557 72.9766 45.551 72.5781C46.2463 72.1719 47.0315 71.9688 47.9065 71.9688C49.5315 71.9688 50.8127 72.5625 51.7502 73.75C52.6956 74.9297 53.1682 76.543 53.1682 78.5898C53.1682 80.6289 52.6956 82.2422 51.7502 83.4297C50.8049 84.6172 49.5237 85.2109 47.9065 85.2109ZM49.3245 75.5547C48.762 74.8125 47.9846 74.4414 46.9924 74.4414C46.0002 74.4414 45.2112 74.8164 44.6252 75.5664C44.0471 76.3086 43.7581 77.3164 43.7581 78.5898C43.7581 79.8711 44.0471 80.8828 44.6252 81.625C45.2112 82.3672 46.0002 82.7383 46.9924 82.7383C47.9846 82.7383 48.762 82.3711 49.3245 81.6367C49.8948 80.8945 50.1799 79.8789 50.1799 78.5898C50.1799 77.3008 49.8948 76.2891 49.3245 75.5547ZM71.0159 78.2266C71.0159 80.4219 70.3479 82.1719 69.012 83.4766C67.676 84.7734 65.8792 85.4219 63.6213 85.4219C61.1682 85.4219 59.2307 84.6289 57.8088 83.043C56.387 81.4492 55.676 79.2812 55.676 76.5391C55.676 73.8359 56.3909 71.6836 57.8206 70.082C59.2502 68.4727 61.1682 67.668 63.5745 67.668C65.5276 67.668 67.1643 68.1836 68.4846 69.2148C69.8049 70.2461 70.6018 71.625 70.8752 73.3516H67.8635C67.5588 72.3906 67.0354 71.6523 66.2932 71.1367C65.5588 70.6211 64.6526 70.3633 63.5745 70.3633C62.0979 70.3633 60.926 70.9141 60.0588 72.0156C59.1995 73.1172 58.7698 74.6172 58.7698 76.5156C58.7698 78.4375 59.2073 79.9531 60.0823 81.0625C60.9651 82.1719 62.1604 82.7266 63.6682 82.7266C64.9573 82.7266 66.0042 82.3672 66.8088 81.6484C67.6135 80.9297 68.0276 79.9883 68.051 78.8242L68.0627 78.4727H63.9963V76.1055H71.0159V78.2266ZM74.2268 85V72.1797H77.0276V74.1719H77.2268C77.4065 73.5312 77.8088 73.0039 78.4338 72.5898C79.0667 72.1758 79.7932 71.9688 80.6135 71.9688C81.137 71.9688 81.5393 72.0117 81.8206 72.0977V74.793C81.5237 74.6836 81.0276 74.6289 80.3323 74.6289C79.387 74.6289 78.6174 74.9023 78.0237 75.4492C77.4299 75.9883 77.1331 76.7031 77.1331 77.5938V85H74.2268ZM95.3674 72.1797V85H92.5667V82.9609H92.3674C91.719 84.4922 90.4417 85.2578 88.5354 85.2578C87.137 85.2578 86.0471 84.8438 85.2659 84.0156C84.4846 83.1797 84.094 82.0117 84.094 80.5117V72.1797H87.0002V79.7852C87.0002 80.7695 87.2073 81.5039 87.6213 81.9883C88.0354 82.4648 88.676 82.7031 89.5432 82.7031C90.4807 82.7031 91.1995 82.4336 91.6995 81.8945C92.2073 81.3555 92.4612 80.6055 92.4612 79.6445V72.1797H95.3674ZM106.055 85.2109C105.156 85.2109 104.356 85.0156 103.653 84.625C102.949 84.2266 102.414 83.6758 102.047 82.9727H101.848V85H99.0471V67.2227H101.953V74.2188H102.153C102.489 73.5234 103.004 72.9766 103.699 72.5781C104.395 72.1719 105.18 71.9688 106.055 71.9688C107.68 71.9688 108.961 72.5625 109.899 73.75C110.844 74.9297 111.317 76.543 111.317 78.5898C111.317 80.6289 110.844 82.2422 109.899 83.4297C108.953 84.6172 107.672 85.2109 106.055 85.2109ZM107.473 75.5547C106.91 74.8125 106.133 74.4414 105.141 74.4414C104.149 74.4414 103.36 74.8164 102.774 75.5664C102.196 76.3086 101.906 77.3164 101.906 78.5898C101.906 79.8711 102.196 80.8828 102.774 81.625C103.36 82.3672 104.149 82.7383 105.141 82.7383C106.133 82.7383 106.91 82.3711 107.473 81.6367C108.043 80.8945 108.328 79.8789 108.328 78.5898C108.328 77.3008 108.043 76.2891 107.473 75.5547Z" fill="#52D800"/>
</svg>
