<svg width="368" height="52" viewBox="0 0 368 52" fill="none" xmlns="http://www.w3.org/2000/svg">
<path d="M93.4983 12.3894V17.7246H86.4768V39.7274H80.0215V17.7246H73V12.3894H93.4983ZM103.193 17.7246V23.2545H111.838V28.395H103.193V34.3922H112.97V39.7274H96.738V12.3894H112.97V17.7246H103.193ZM116.067 26.0195C116.067 23.3194 116.633 20.9179 117.766 18.815C118.898 16.6861 120.471 15.0376 122.484 13.8693C124.523 12.675 126.826 12.0779 129.393 12.0779C132.539 12.0779 135.231 12.9346 137.471 14.6481C139.711 16.3616 141.208 18.6982 141.963 21.6579H134.866C134.338 20.5155 133.583 19.6458 132.601 19.0487C131.645 18.4516 130.55 18.153 129.317 18.153C127.329 18.153 125.718 18.8669 124.485 20.2949C123.252 21.7228 122.635 23.631 122.635 26.0195C122.635 28.408 123.252 30.3162 124.485 31.7441C125.718 33.172 127.329 33.886 129.317 33.886C130.55 33.886 131.645 33.5874 132.601 32.9903C133.583 32.3931 134.338 31.5234 134.866 30.3811H141.963C141.208 33.3408 139.711 35.6773 137.471 37.3908C135.231 39.0783 132.539 39.9221 129.393 39.9221C126.826 39.9221 124.523 39.338 122.484 38.1697C120.471 36.9754 118.898 35.3268 117.766 33.2239C116.633 31.121 116.067 28.7195 116.067 26.0195ZM168.868 12.3894V39.7274H162.413V28.4729H152.372V39.7274H145.916V12.3894H152.372V23.0987H162.413V12.3894H168.868ZM197.235 39.7274H190.78L179.984 22.8651V39.7274H173.528V12.3894H179.984L190.78 29.3296V12.3894H197.235V39.7274ZM214.448 40C211.956 40 209.666 39.4029 207.577 38.2086C205.514 37.0144 203.865 35.3528 202.632 33.2239C201.424 31.0691 200.82 28.6546 200.82 25.9805C200.82 23.3064 201.424 20.905 202.632 18.7761C203.865 16.6472 205.514 14.9856 207.577 13.7914C209.666 12.5971 211.956 12 214.448 12C216.939 12 219.217 12.5971 221.28 13.7914C223.369 14.9856 225.005 16.6472 226.188 18.7761C227.396 20.905 228 23.3064 228 25.9805C228 28.6546 227.396 31.0691 226.188 33.2239C224.98 35.3528 223.344 37.0144 221.28 38.2086C219.217 39.4029 216.939 40 214.448 40ZM214.448 33.9249C216.562 33.9249 218.248 33.198 219.506 31.7441C220.79 30.2902 221.431 28.369 221.431 25.9805C221.431 23.5661 220.79 21.6449 219.506 20.217C218.248 18.7631 216.562 18.0362 214.448 18.0362C212.309 18.0362 210.597 18.7501 209.314 20.178C208.055 21.6059 207.426 23.5401 207.426 25.9805C207.426 28.395 208.055 30.3292 209.314 31.783C210.597 33.2109 212.309 33.9249 214.448 33.9249Z" fill="white"/>
<path d="M254.643 13.3013L245.528 31V39.7364H239.115V31L230 13.3013H237.277L242.378 24.3724L247.441 13.3013H254.643ZM263.528 13.3013V29.1172C263.528 30.6987 263.916 31.9163 264.691 32.7699C265.466 33.6234 266.604 34.0502 268.104 34.0502C269.605 34.0502 270.755 33.6234 271.555 32.7699C272.355 31.9163 272.755 30.6987 272.755 29.1172V13.3013H279.169V29.0795C279.169 31.4393 278.669 33.4351 277.669 35.0669C276.669 36.6987 275.319 37.9289 273.618 38.7573C271.943 39.5858 270.067 40 267.992 40C265.916 40 264.054 39.5983 262.403 38.795C260.778 37.9665 259.49 36.7364 258.54 35.1046C257.59 33.4477 257.114 31.4393 257.114 29.0795V13.3013H263.528ZM301.153 21.6611C300.678 20.7824 299.99 20.1172 299.09 19.6653C298.215 19.1883 297.177 18.9498 295.977 18.9498C293.901 18.9498 292.238 19.6402 290.988 21.0209C289.738 22.3766 289.113 24.1967 289.113 26.4812C289.113 28.9163 289.763 30.8243 291.063 32.205C292.388 33.5607 294.201 34.2385 296.502 34.2385C298.077 34.2385 299.402 33.8368 300.478 33.0335C301.578 32.2301 302.378 31.0753 302.878 29.569H294.739V24.8243H308.692V30.8117C308.217 32.4184 307.404 33.9121 306.254 35.2929C305.129 36.6736 303.691 37.7908 301.94 38.6444C300.19 39.4979 298.215 39.9247 296.014 39.9247C293.413 39.9247 291.088 39.3598 289.038 38.2301C287.012 37.0753 285.424 35.4812 284.274 33.4477C283.149 31.4142 282.586 29.0921 282.586 26.4812C282.586 23.8703 283.149 21.5481 284.274 19.5146C285.424 17.4561 287.012 15.8619 289.038 14.7322C291.063 13.5774 293.376 13 295.977 13C299.127 13 301.778 13.7657 303.928 15.2971C306.104 16.8285 307.542 18.9498 308.242 21.6611H301.153ZM328.636 35.0669H318.808L317.233 39.7364H310.519L320.046 13.3013H327.473L337 39.7364H330.211L328.636 35.0669ZM326.985 30.0962L323.722 20.4184L320.496 30.0962H326.985Z" fill="white"/>
<path d="M226.5 12C227.881 12 229 10.8807 229 9.5C229 8.11929 227.881 7 226.5 7C225.119 7 224 8.11929 224 9.5C224 10.8807 225.119 12 226.5 12Z" fill="white"/>
<path fill-rule="evenodd" clip-rule="evenodd" d="M36 45C36.9758 41.4477 39.4345 39.5185 42.9058 39.5117C44.6757 39.5083 46.4456 39.528 48.2155 39.5243C51.5545 39.5174 53.4637 37.6573 53.4877 34.2298C53.532 27.951 53.4679 21.6714 53.5179 15.3927C53.5424 12.3014 54.6387 9.74918 57.6271 8.36044C58.9542 7.74369 59.0971 7.84086 58.9569 9.26327C58.3882 15.0332 58.7193 20.8167 58.6939 26.5947C58.6818 29.3623 58.6829 32.1302 58.6971 34.898C58.7239 40.1691 54.3561 44.6487 49.109 44.6889C44.748 44.722 40.3848 44.5891 36 45Z" fill="white"/>
<path fill-rule="evenodd" clip-rule="evenodd" d="M51 34C47.3508 33.2789 43.7638 34.0207 40.2485 33.3612C35.4191 32.4553 32.0516 27.91 32.3888 23.0435C32.6982 18.5764 32.5376 14.1047 32.1148 9.64435C32.0653 9.12236 31.8757 8.3274 32.1286 8.12584C32.5797 7.76688 33.1918 8.26547 33.6931 8.50747C35.8731 9.55961 37.0913 11.36 37.4532 13.6779C37.8263 16.0664 37.8055 18.4731 37.6104 20.8949C37.4711 22.6243 37.3196 24.4033 38.2983 26.0447C39.2348 27.6152 40.6141 28.3089 42.3731 28.4078C42.9508 28.4403 43.5309 28.4321 44.11 28.4339C47.5187 28.444 50.0022 30.3756 51 34Z" fill="white"/>
<path d="M40.5 22C41.8807 22 43 20.8807 43 19.5C43 18.1193 41.8807 17 40.5 17C39.1193 17 38 18.1193 38 19.5C38 20.8807 39.1193 22 40.5 22Z" fill="white"/>
</svg>
