<svg width="191" height="90" viewBox="0 0 191 90" fill="none" xmlns="http://www.w3.org/2000/svg">
<circle cx="65" cy="33" r="31" fill="#D2F7FF"/>
<path d="M158.921 28.304L146.969 62H136.697L124.745 28.304H133.481L141.833 53.744L150.233 28.304H158.921ZM179.535 62L172.527 49.28H170.559V62H162.351V28.304H176.127C178.783 28.304 181.039 28.768 182.895 29.696C184.783 30.624 186.191 31.904 187.119 33.536C188.047 35.136 188.511 36.928 188.511 38.912C188.511 41.152 187.871 43.152 186.591 44.912C185.343 46.672 183.487 47.92 181.023 48.656L188.799 62H179.535ZM170.559 43.472H175.647C177.151 43.472 178.271 43.104 179.007 42.368C179.775 41.632 180.159 40.592 180.159 39.248C180.159 37.968 179.775 36.96 179.007 36.224C178.271 35.488 177.151 35.12 175.647 35.12H170.559V43.472Z" fill="#2A2C70"/>
<path d="M56.5939 32.699C57.4045 32.699 58.0617 32.0419 58.0617 31.2312C58.0617 30.4205 57.4045 29.7634 56.5939 29.7634H43.4053C42.5947 29.7634 41.9375 30.4205 41.9375 31.2312C41.9375 32.0419 42.5945 32.699 43.4053 32.699H56.5939Z" fill="#2A2C70"/>
<path d="M95.3596 33.5605H94.0768C93.8733 30.775 91.5434 28.5703 88.7067 28.5703H85.0733C84.1475 24.7934 80.7123 22.0002 76.717 22.0002H36.3519C35.5413 22.0002 34.8841 22.6572 34.8841 23.468C34.8841 24.2787 35.5413 24.9357 36.3519 24.9357H76.717C79.6584 24.9357 82.1407 27.2328 82.3678 30.1654L83.4366 43.9451C83.4963 44.7146 84.1391 45.2992 84.8983 45.2992C84.9364 45.2992 84.9748 45.2978 85.0135 45.2949C85.8215 45.2322 86.426 44.5261 86.3633 43.7181L85.4162 31.506H88.7069C90.0582 31.506 91.1576 32.6055 91.1576 33.9568V53.9964C91.1576 55.3478 90.0582 56.4472 88.7069 56.4472H87.3506L86.8174 49.5726C86.7547 48.7644 86.0473 48.1568 85.2407 48.2228C84.4327 48.2855 83.8282 48.9916 83.8909 49.7996L84.5602 58.4292C84.6905 60.1101 84.1317 61.7173 82.9864 62.9546C81.8412 64.1921 80.2821 64.8736 78.5961 64.8736H67.3126C62.3471 64.8736 59.8061 62.2013 57.3487 59.6169C55.319 57.4824 53.2202 55.2753 49.9999 55.2753C46.7796 55.2753 44.6808 57.4824 42.6511 59.6169C40.1937 62.2013 37.6529 64.8736 32.6872 64.8736H21.4039C19.7179 64.8736 18.1588 64.1921 17.0136 62.9546C15.8685 61.7171 15.3095 60.1099 15.4398 58.4292L17.6318 30.1652C17.8591 27.2326 20.3414 24.9355 23.2826 24.9355H30.481C31.2915 24.9355 31.9488 24.2785 31.9488 23.4678C31.9488 22.657 31.2917 22 30.481 22H23.2826C19.2873 22 15.8521 24.7932 14.9263 28.5701H11.2929C8.45643 28.5701 6.12655 30.7748 5.92284 33.5603H4.64003C2.08164 33.5605 0 35.642 0 38.2008V49.9166C0 52.4753 2.08164 54.5568 4.64023 54.5568H5.93612C6.21737 57.2644 8.51248 59.3824 11.2931 59.3824H12.5037C12.6191 61.4407 13.4457 63.421 14.8593 64.9484C16.5418 66.7661 18.9271 67.8089 21.4039 67.8089H32.6872C38.912 67.8089 42.1648 64.3882 44.7784 61.6398C46.7999 59.5138 48.1337 58.2107 49.9999 58.2107C51.8661 58.2107 53.1999 59.5136 55.2214 61.6398C57.835 64.3882 61.0876 67.8089 67.3126 67.8089H78.5961C81.0729 67.8089 83.4584 66.7661 85.1407 64.9484C86.5541 63.421 87.3809 61.4407 87.4963 59.3824H88.7069C91.4875 59.3824 93.7826 57.2642 94.0639 54.5568H95.3598C97.9184 54.5568 100 52.4751 100 49.9166V38.2008C99.9998 35.642 97.9182 33.5605 95.3596 33.5605ZM8.84217 53.9964V46.7668C8.84217 45.956 8.18514 45.299 7.3744 45.299C6.56366 45.299 5.90663 45.956 5.90663 46.7668V51.6214H4.64003C3.69999 51.6214 2.93535 50.8566 2.93535 49.9166V38.2008C2.93535 37.2607 3.69999 36.4959 4.64003 36.4959H5.90663V40.8959C5.90663 41.7066 6.56366 42.3636 7.3744 42.3636C8.18514 42.3636 8.84217 41.7066 8.84217 40.8959V33.9564C8.84217 32.6051 9.94158 31.5056 11.2929 31.5056H14.5836L12.6492 56.4472H11.2929C9.94178 56.4472 8.84217 55.3478 8.84217 53.9964ZM97.0645 49.9166C97.0645 50.8566 96.2998 51.6214 95.3598 51.6214H94.0932V36.4959H95.3598C96.2998 36.4959 97.0645 37.2607 97.0645 38.2008V49.9166Z" fill="#2A2C70"/>
</svg>
