<svg width="73" height="75" viewBox="0 0 73 75" fill="none" xmlns="http://www.w3.org/2000/svg">
<path d="M38.7817 5.64802L37.9983 7.11828H39.6642H68.1894C69.7495 7.11828 71.0323 8.40319 71.0322 9.96753V52.3997C71.0322 53.9673 69.7462 55.2522 68.1894 55.2522H44.8653H43.5424L43.9033 56.525L48.4316 72.4949L48.432 72.4961C48.587 73.0404 48.2773 73.5335 47.7311 73.6328L47.7214 73.6347L45.9325 73.9783C45.9319 73.9784 45.9313 73.9785 45.9307 73.9786C45.3074 74.0948 44.6221 73.6667 44.454 73.0663L44.453 73.0627L39.6028 55.976L39.3965 55.2491H38.6408H33.3948H32.639L32.4327 55.9762L27.5857 73.0661C27.5857 73.0662 27.5857 73.0662 27.5857 73.0662C27.415 73.6677 26.7323 74.0958 26.1054 73.9814C26.1046 73.9813 26.1038 73.9811 26.103 73.981L24.3067 73.6377L24.298 73.6361C23.7517 73.5368 23.4421 73.0436 23.5971 72.4994L23.5975 72.4982L28.1258 56.5249L28.4866 55.2522H27.1637H3.84604C2.28008 55.2522 1 53.9679 1 52.3997V9.96761C1 8.401 2.27847 7.11828 3.84933 7.11828H32.3648H34.027L33.2483 5.6498C32.9828 5.14908 32.8305 4.67843 32.8305 4.18399C32.8305 2.4254 34.2559 1 36.0145 1C37.7731 1 39.1985 2.4254 39.1985 4.18399C39.1985 4.67918 39.0456 5.15276 38.7817 5.64802ZM64.7103 49.7467H65.7103V48.7467V12.8288V11.8288H64.7103H7.3155H6.3155V12.8288V48.7467V49.7467H7.3155H64.7103Z" fill="white" stroke="#1F203F" stroke-width="2"/>
<path d="M14.0811 42.7186C15.729 42.7186 17.0646 41.3829 17.0646 39.7351C17.0646 39.4358 16.9778 39.1654 16.8941 38.8951C20.7048 35.8215 27.4409 30.4016 30.5081 28.0392C30.9941 28.3803 31.554 28.625 32.1914 28.625C32.7193 28.625 33.1892 28.4512 33.6204 28.2098C35.5933 29.8865 38.947 32.7381 41.3319 34.7625C41.2996 34.9331 41.2289 35.0908 41.2289 35.271C41.2289 36.9221 42.5677 38.2578 44.2157 38.2578C45.8699 38.2578 47.2056 36.9221 47.2056 35.271C47.2056 34.9781 47.1188 34.7142 47.0382 34.4471L54.7464 27.4921C55.1616 27.7077 55.6122 27.8623 56.111 27.8623C57.7588 27.8623 59.0914 26.5266 59.0914 24.8788C59.0914 23.2341 57.759 21.8984 56.111 21.8984C54.4632 21.8984 53.1306 23.2341 53.1306 24.8788C53.1306 25.2715 53.2144 25.6415 53.3527 25.9859C51.1995 27.9299 47.8749 30.9295 45.8022 32.8026C45.3355 32.5033 44.8109 32.2813 44.2155 32.2813C43.514 32.2813 42.896 32.5613 42.3875 32.9669C40.4178 31.2932 37.2347 28.5898 34.9689 26.6651C35.0879 26.3432 35.1749 26.0053 35.1749 25.6448C35.1749 23.997 33.8393 22.6645 32.1946 22.6645C30.5499 22.6645 29.2111 24.0001 29.2111 25.6479C29.2111 26.0117 29.2979 26.3495 29.4171 26.6682L15.7322 37.3148C15.256 36.9866 14.7056 36.7516 14.0811 36.7516C12.4333 36.7516 11.0977 38.0873 11.0977 39.7351C11.0977 41.3829 12.4333 42.7186 14.0811 42.7186Z" fill="white"/>
</svg>
