<svg width="36" height="36" viewBox="0 0 36 36" fill="none" xmlns="http://www.w3.org/2000/svg">
<g clip-path="url(#clip0)">
<path d="M10.1251 27.0002C9.83715 27.0002 9.54915 26.8907 9.33015 26.6702C8.89065 26.2307 8.89065 25.5181 9.33015 25.0786L13.4086 21.0001L9.32865 16.9201C8.88915 16.4806 8.88915 15.7681 9.32865 15.3286C9.76815 14.8891 10.4806 14.8891 10.9201 15.3286L15.7951 20.2036C16.2346 20.6431 16.2346 21.3556 15.7951 21.7951L10.9201 26.6702C10.7011 26.8907 10.4131 27.0002 10.1251 27.0002Z" fill="#CCCCCC"/>
<path d="M25.875 27H19.125C18.504 27 18 26.496 18 25.875C18 25.254 18.504 24.75 19.125 24.75H25.875C26.496 24.75 27 25.254 27 25.875C27 26.496 26.496 27 25.875 27Z" fill="#CCCCCC"/>
<path d="M31.875 34.5H4.125C1.8495 34.5 0 32.6505 0 30.375V5.625C0 3.3495 1.8495 1.5 4.125 1.5H31.875C34.1505 1.5 36 3.3495 36 5.625V30.375C36 32.6505 34.1505 34.5 31.875 34.5ZM4.125 3.75C3.0915 3.75 2.25 4.5915 2.25 5.625V30.375C2.25 31.4085 3.0915 32.25 4.125 32.25H31.875C32.9085 32.25 33.75 31.4085 33.75 30.375V5.625C33.75 4.5915 32.9085 3.75 31.875 3.75H4.125Z" fill="#CCCCCC"/>
<path d="M34.875 9H1.125C0.504 9 0 8.496 0 7.875C0 7.254 0.504 6.75 1.125 6.75H34.875C35.496 6.75 36 7.254 36 7.875C36 8.496 35.496 9 34.875 9Z" fill="#CCCCCC"/>
</g>
</svg>
