<svg width="125" height="92" viewBox="0 0 125 92" fill="none" xmlns="http://www.w3.org/2000/svg">
<path fill-rule="evenodd" clip-rule="evenodd" d="M51.8023 15.6445C47.9862 15.485 45.3727 17.7936 44.7452 21.705C44.4395 23.6116 44.5617 25.4173 45.5468 27.1018C46.9471 29.4957 49.2011 30.4197 51.8635 30.434C56.6259 30.4593 60.0899 33.915 59.9591 38.6031C59.8462 42.653 56.3668 45.9779 52.2182 45.9999C48.0937 46.0219 44.6254 42.7873 44.4273 38.7498C44.3908 38.0096 44.381 37.2514 44.2073 36.538C43.2989 32.8061 40.8764 30.9235 36.9849 30.8811C35.4735 30.8649 34.0642 30.5343 32.7603 29.7507C29.8093 27.9771 28.3489 24.3515 29.2778 21.0438C30.2435 17.6043 33.2458 15.3077 36.7961 15.2929C41.3221 15.2739 44.4087 12.2367 44.4405 7.77098C44.4703 3.58007 47.6753 0.246575 51.9014 0.0109345C55.8209 -0.207587 59.4845 2.87687 59.9427 6.78093C60.439 11.0099 57.6632 14.7716 53.5168 15.4694C52.9521 15.5647 52.3743 15.5879 51.8023 15.6445Z" fill="#193DC0"/>
<path fill-rule="evenodd" clip-rule="evenodd" d="M59 23.0105C59.0005 18.5811 62.5919 14.9919 67.0155 15C71.4411 15.0081 75.0105 18.6034 75 23.0419C74.9896 27.4417 71.4332 30.9894 67.0226 31C62.5756 31.0104 58.9995 27.449 59 23.0105Z" fill="#193DC0"/>
<path d="M18.7793 82.3047C17.9883 83.252 16.8701 83.9893 15.4248 84.5166C13.9795 85.0342 12.3779 85.293 10.6201 85.293C8.77441 85.293 7.15332 84.8926 5.75684 84.0918C4.37012 83.2812 3.2959 82.1094 2.53418 80.5762C1.78223 79.043 1.39648 77.2412 1.37695 75.1709V73.7207C1.37695 71.5918 1.7334 69.751 2.44629 68.1982C3.16895 66.6357 4.2041 65.4443 5.55176 64.624C6.90918 63.7939 8.49609 63.3789 10.3125 63.3789C12.8418 63.3789 14.8193 63.9844 16.2451 65.1953C17.6709 66.3965 18.5156 68.1494 18.7793 70.4541H14.502C14.3066 69.2334 13.8721 68.3398 13.1982 67.7734C12.5342 67.207 11.6162 66.9238 10.4443 66.9238C8.9502 66.9238 7.8125 67.4854 7.03125 68.6084C6.25 69.7314 5.85449 71.4014 5.84473 73.6182V74.9805C5.84473 77.2168 6.26953 78.9062 7.11914 80.0488C7.96875 81.1914 9.21387 81.7627 10.8545 81.7627C12.5049 81.7627 13.6816 81.4111 14.3848 80.708V77.0312H10.3857V73.7939H18.7793V82.3047ZM22.7824 85V72.2559H20.424V69.1504H22.7824V67.8027C22.7824 66.0254 23.2902 64.6484 24.3059 63.6719C25.3312 62.6855 26.7619 62.1924 28.5979 62.1924C29.1838 62.1924 29.9016 62.29 30.7512 62.4854L30.7072 65.7666C30.3557 65.6787 29.926 65.6348 29.4182 65.6348C27.8264 65.6348 27.0305 66.3818 27.0305 67.876V69.1504H30.1799V72.2559H27.0305V85H22.7824ZM41.1117 85C40.9164 84.6191 40.7748 84.1455 40.6869 83.5791C39.6615 84.7217 38.3285 85.293 36.6879 85.293C35.1352 85.293 33.8461 84.8438 32.8207 83.9453C31.8051 83.0469 31.2973 81.9141 31.2973 80.5469C31.2973 78.8672 31.9174 77.5781 33.1576 76.6797C34.4076 75.7812 36.2094 75.3271 38.5629 75.3174H40.5111V74.4092C40.5111 73.6768 40.3207 73.0908 39.9398 72.6514C39.5688 72.2119 38.9779 71.9922 38.1674 71.9922C37.4545 71.9922 36.893 72.1631 36.4828 72.5049C36.0824 72.8467 35.8822 73.3154 35.8822 73.9111H31.6488C31.6488 72.9932 31.932 72.1436 32.4984 71.3623C33.0648 70.5811 33.8656 69.9707 34.9008 69.5312C35.9359 69.082 37.098 68.8574 38.3871 68.8574C40.3402 68.8574 41.8881 69.3506 43.0307 70.3369C44.183 71.3135 44.7592 72.6904 44.7592 74.4678V81.3379C44.7689 82.8418 44.9789 83.9795 45.3891 84.751V85H41.1117ZM37.6107 82.0557C38.2357 82.0557 38.8119 81.9189 39.3393 81.6455C39.8666 81.3623 40.2572 80.9863 40.5111 80.5176V77.793H38.9291C36.81 77.793 35.682 78.5254 35.5453 79.9902L35.5307 80.2393C35.5307 80.7666 35.7162 81.2012 36.0873 81.543C36.4584 81.8848 36.9662 82.0557 37.6107 82.0557ZM54.1529 81.8799C54.9342 81.8799 55.5689 81.665 56.0572 81.2354C56.5455 80.8057 56.7994 80.2344 56.8189 79.5215H60.7887C60.7789 80.5957 60.4859 81.582 59.9098 82.4805C59.3336 83.3691 58.5426 84.0625 57.5367 84.5605C56.5406 85.0488 55.4371 85.293 54.2262 85.293C51.9605 85.293 50.1734 84.5752 48.8648 83.1396C47.5563 81.6943 46.902 79.7021 46.902 77.1631V76.8848C46.902 74.4434 47.5514 72.4951 48.8502 71.04C50.149 69.585 51.9313 68.8574 54.1969 68.8574C56.1793 68.8574 57.7662 69.4238 58.9576 70.5566C60.1588 71.6797 60.7691 73.1787 60.7887 75.0537H56.8189C56.7994 74.2334 56.5455 73.5693 56.0572 73.0615C55.5689 72.5439 54.9244 72.2852 54.1236 72.2852C53.1373 72.2852 52.3902 72.6465 51.8824 73.3691C51.3844 74.082 51.1354 75.2441 51.1354 76.8555V77.2949C51.1354 78.9258 51.3844 80.0977 51.8824 80.8105C52.3805 81.5234 53.1373 81.8799 54.1529 81.8799ZM67.2234 85H62.9754V69.1504H67.2234V85ZM62.7264 65.0488C62.7264 64.4141 62.9363 63.8916 63.3563 63.4814C63.7859 63.0713 64.367 62.8662 65.0994 62.8662C65.8221 62.8662 66.3982 63.0713 66.8279 63.4814C67.2576 63.8916 67.4725 64.4141 67.4725 65.0488C67.4725 65.6934 67.2527 66.2207 66.8133 66.6309C66.3836 67.041 65.8123 67.2461 65.0994 67.2461C64.3865 67.2461 63.8104 67.041 63.3709 66.6309C62.9412 66.2207 62.7264 65.6934 62.7264 65.0488ZM74.7422 85H70.4941V62.5H74.7422V85ZM82.2609 85H78.0129V69.1504H82.2609V85ZM77.7639 65.0488C77.7639 64.4141 77.9738 63.8916 78.3938 63.4814C78.8234 63.0713 79.4045 62.8662 80.1369 62.8662C80.8596 62.8662 81.4357 63.0713 81.8654 63.4814C82.2951 63.8916 82.51 64.4141 82.51 65.0488C82.51 65.6934 82.2902 66.2207 81.8508 66.6309C81.4211 67.041 80.8498 67.2461 80.1369 67.2461C79.424 67.2461 78.8479 67.041 78.4084 66.6309C77.9787 66.2207 77.7639 65.6934 77.7639 65.0488ZM90.3803 65.2539V69.1504H93.0902V72.2559H90.3803V80.166C90.3803 80.752 90.4926 81.1719 90.7172 81.4258C90.9418 81.6797 91.3715 81.8066 92.0062 81.8066C92.475 81.8066 92.89 81.7725 93.2514 81.7041V84.9121C92.4213 85.166 91.5668 85.293 90.6879 85.293C87.7191 85.293 86.2055 83.7939 86.1469 80.7959V72.2559H83.8324V69.1504H86.1469V65.2539H90.3803ZM100.917 79.0088L103.846 69.1504H108.387L102.015 87.4609L101.664 88.2959C100.716 90.3662 99.1539 91.4014 96.9762 91.4014C96.3609 91.4014 95.7359 91.3086 95.1012 91.123V87.915L95.7457 87.9297C96.5465 87.9297 97.1422 87.8076 97.5328 87.5635C97.9332 87.3193 98.2457 86.9141 98.4703 86.3477L98.9684 85.0439L93.4166 69.1504H97.9723L100.917 79.0088Z" fill="#193DC0"/>
</svg>
