<svg width="27" height="27" viewBox="0 0 27 27" fill="none" xmlns="http://www.w3.org/2000/svg">
<path d="M13.5 27C6.05601 27 0 20.944 0 13.5C0 6.05601 6.05601 0 13.5 0C20.944 0 27 6.05601 27 13.5C27 20.944 20.944 27 13.5 27ZM13.5 1.92851C7.11955 1.92851 1.92851 7.11955 1.92851 13.5C1.92851 19.8804 7.11955 25.0715 13.5 25.0715C19.8804 25.0715 25.0715 19.8804 25.0715 13.5C25.0715 7.11955 19.8804 1.92851 13.5 1.92851Z" fill="#2D2D2D"/>
<path d="M18.322 19.2857C18.0752 19.2857 17.8285 19.1916 17.6402 19.0031L7.99742 9.36032C7.62065 8.98356 7.62065 8.37341 7.99742 7.99685C8.37397 7.62029 8.98433 7.62009 9.36089 7.99685L19.0037 17.6396C19.3804 18.0164 19.3804 18.6265 19.0037 19.0031C18.8154 19.1916 18.5688 19.2857 18.322 19.2857Z" fill="#2D2D2D"/>
<path d="M8.67905 19.2858C8.43227 19.2858 8.18569 19.1917 7.99742 19.0032C7.62065 18.6266 7.62065 18.0163 7.99742 17.6397L17.6402 7.99693C18.0169 7.62016 18.6271 7.62016 19.0037 7.99693C19.3802 8.37348 19.3804 8.98384 19.0037 9.3604L9.36089 19.0032C9.17261 19.1917 8.92583 19.2858 8.67905 19.2858Z" fill="#2D2D2D"/>
</svg>
