<svg width="36" height="36" viewBox="0 0 36 36" fill="none" xmlns="http://www.w3.org/2000/svg">
<g clip-path="url(#clip0)">
<path d="M35.6323 17.0739L27.3073 8.25385C26.7956 7.71118 25.9415 7.68643 25.3988 8.19852C24.857 8.71018 24.8318 9.5647 25.3439 10.1069L32.7946 18L25.3439 25.894C24.8318 26.4362 24.857 27.2903 25.3988 27.8024C25.6598 28.0486 25.9933 28.1705 26.3254 28.1705C26.6841 28.1705 27.0423 28.0283 27.3073 27.7479L35.6324 18.9274C36.1233 18.4068 36.1233 17.5941 35.6323 17.0739Z" fill="#CCCCCC"/>
<path d="M10.657 25.8936L3.2068 18.0001L10.657 10.1066C11.1687 9.56438 11.1439 8.7098 10.6017 8.1982C10.0598 7.68653 9.20484 7.71128 8.69324 8.25354L0.368194 17.0736C-0.122731 17.5938 -0.122731 18.4069 0.368194 18.9272L8.69366 27.7477C8.95916 28.0289 9.31692 28.1707 9.67558 28.1707C10.0077 28.1707 10.3412 28.0482 10.6017 27.8021C11.1444 27.2904 11.1687 26.4359 10.657 25.8936Z" fill="#CCCCCC"/>
<path d="M20.1842 3.70585C19.4475 3.59427 18.7581 4.10003 18.6456 4.8367L14.6856 30.7569C14.5731 31.4939 15.0793 32.1829 15.8164 32.2954C15.8857 32.3058 15.9541 32.3108 16.0221 32.3108C16.6777 32.3108 17.2528 31.8324 17.355 31.1646L21.315 5.24444C21.4275 4.50728 20.9213 3.81836 20.1842 3.70585Z" fill="#CCCCCC"/>
</g>
</svg>
