<svg width="39" height="38" viewBox="0 0 39 38" fill="none" xmlns="http://www.w3.org/2000/svg">
<path d="M34.1285 -0.00012207H4.36819C2.10403 -0.00012207 0.25 1.85552 0.25 4.12137V33.8784C0.25 36.1459 2.10403 37.9999 4.36819 37.9999H34.1252C36.3927 37.9999 38.2434 36.1425 38.2434 33.8784V4.12137C38.2484 1.85552 36.3927 -0.00012207 34.1285 -0.00012207ZM33.0568 3.40524C34.1285 3.40524 35.0017 4.27518 35.0017 5.35021C35.0017 6.42524 34.1334 7.29518 33.0568 7.29518C31.9801 7.29518 31.1118 6.42524 31.1118 5.35021C31.1118 4.27518 31.9834 3.40524 33.0568 3.40524ZM26.9886 3.40363C28.062 3.40363 28.9353 4.27356 28.9353 5.35029C28.9353 6.42701 28.0637 7.29687 26.9886 7.29687C25.9136 7.29687 25.042 6.42693 25.042 5.35021C25.042 4.27349 25.9152 3.40363 26.9886 3.40363ZM35.1308 34.4656H3.37091V10.087H35.1308V34.4656Z" fill="#4A93CF"/>
<path d="M16.1451 24.309H10.0703V30.3821H16.1451V24.309Z" fill="#4A93CF"/>
<path d="M28.678 24.309H22.6016V30.3821H28.678V24.309Z" fill="#4A93CF"/>
<path d="M16.1451 14.4368H10.0703V20.5082H16.1451V14.4368Z" fill="#4A93CF"/>
<path d="M28.678 14.4368H22.6016V20.5082H28.678V14.4368Z" fill="#4A93CF"/>
</svg>
