<svg width="47" height="38" viewBox="0 0 47 38" fill="none" xmlns="http://www.w3.org/2000/svg">
<path d="M26.3264 5.05396H14.7637V7.94465H26.3264V5.05396Z" fill="#4A93CF"/>
<path d="M30.301 9.29968H18.7383V12.1904H30.301V9.29968Z" fill="#4A93CF"/>
<path d="M26.3264 13.5453H14.7637V16.436H26.3264V13.5453Z" fill="#4A93CF"/>
<path d="M30.301 17.791H18.7383V20.6824H30.301V17.791Z" fill="#4A93CF"/>
<path d="M26.3264 22.0361H14.7637V24.9268H26.3264V22.0361Z" fill="#4A93CF"/>
<path d="M2.29694 30.1113H19.6411V35.1093H13.0467V38H33.4622V35.1093H26.8678V30.1113H44.2119C45.4044 30.1113 46.38 29.1357 46.38 27.9432V2.16804C46.38 0.975613 45.4044 0 44.2119 0H2.29694C1.10452 0 0.128906 0.975613 0.128906 2.16804V27.9433C0.128906 29.1357 1.10452 30.1113 2.29694 30.1113ZM3.01959 2.89069H43.4892V27.2206H3.01959V2.89069Z" fill="#4A93CF"/>
</svg>
