<svg width="36" height="36" viewBox="0 0 36 36" fill="none" xmlns="http://www.w3.org/2000/svg">
<g clip-path="url(#clip0)">
<path d="M18 9C16.158 9 0 8.874 0 4.5C0 0.126 16.158 0 18 0C19.842 0 36 0.126 36 4.5C36 8.874 19.842 9 18 9ZM2.382 4.5C3.48 5.352 8.7495 6.75 18 6.75C27.2505 6.75 32.52 5.352 33.618 4.5C32.52 3.648 27.2505 2.25 18 2.25C8.7495 2.25 3.48 3.648 2.382 4.5ZM33.7905 4.674H33.8055H33.7905Z" fill="#CCCCCC"/>
<path d="M18 18C16.158 18 0 17.874 0 13.5C0 12.879 0.504 12.375 1.125 12.375C1.7025 12.375 2.178 12.81 2.2425 13.371C2.9355 14.2005 8.2605 15.75 18 15.75C27.7395 15.75 33.0645 14.2005 33.7575 13.371C33.822 12.81 34.2975 12.375 34.875 12.375C35.496 12.375 36 12.879 36 13.5C36 17.874 19.842 18 18 18ZM33.75 13.4985C33.75 13.5 33.75 13.5 33.75 13.4985V13.4985ZM2.25 13.4985C2.25 13.5 2.25 13.5 2.25 13.4985V13.4985Z" fill="#CCCCCC"/>
<path d="M18 27C16.158 27 0 26.874 0 22.5C0 21.879 0.504 21.375 1.125 21.375C1.7025 21.375 2.178 21.81 2.2425 22.371C2.9355 23.2005 8.2605 24.75 18 24.75C27.7395 24.75 33.0645 23.2005 33.7575 22.371C33.822 21.81 34.2975 21.375 34.875 21.375C35.496 21.375 36 21.879 36 22.5C36 26.874 19.842 27 18 27ZM33.75 22.4985C33.75 22.5 33.75 22.5 33.75 22.4985V22.4985ZM2.25 22.4985C2.25 22.5 2.25 22.5 2.25 22.4985V22.4985Z" fill="#CCCCCC"/>
<path d="M18 36C16.158 36 0 35.874 0 31.5V4.5C0 3.879 0.504 3.375 1.125 3.375C1.746 3.375 2.25 3.879 2.25 4.5V31.3785C2.9715 32.2125 8.295 33.75 18 33.75C27.705 33.75 33.0285 32.2125 33.75 31.3785V4.5C33.75 3.879 34.254 3.375 34.875 3.375C35.496 3.375 36 3.879 36 4.5V31.5C36 35.874 19.842 36 18 36Z" fill="#CCCCCC"/>
<path d="M7.5 22.5C8.32842 22.5 9 21.8284 9 21C9 20.1716 8.32842 19.5 7.5 19.5C6.67157 19.5 6 20.1716 6 21C6 21.8284 6.67157 22.5 7.5 22.5Z" fill="#CCCCCC"/>
<path d="M7.5 13.5C8.32842 13.5 9 12.8284 9 12C9 11.1716 8.32842 10.5 7.5 10.5C6.67157 10.5 6 11.1716 6 12C6 12.8284 6.67157 13.5 7.5 13.5Z" fill="#CCCCCC"/>
<path d="M7.5 31.5C8.32842 31.5 9 30.8284 9 30C9 29.1716 8.32842 28.5 7.5 28.5C6.67157 28.5 6 29.1716 6 30C6 30.8284 6.67157 31.5 7.5 31.5Z" fill="#CCCCCC"/>
</g>
</svg>
