<svg width="60" height="60" viewBox="0 0 60 60" fill="none" xmlns="http://www.w3.org/2000/svg">
<g clip-path="url(#clip0_2595:1607)">
<path d="M54.375 7.5H5.62504C2.5232 7.5 0 10.0232 0 13.125V46.875C0 49.9769 2.5232 52.5001 5.62504 52.5001H54.375C57.4768 52.5001 60 49.9769 60 46.875V13.125C60 10.0232 57.4768 7.5 54.375 7.5ZM54.375 11.25C54.6297 11.25 54.8721 11.3028 55.0936 11.3951L30 33.144L4.90625 11.3951C5.12781 11.303 5.37016 11.25 5.62491 11.25H54.375ZM54.375 48.75H5.62504C4.59051 48.75 3.74998 47.9096 3.74998 46.8749V15.357L28.7713 37.0422C29.1248 37.348 29.5624 37.5 30 37.5C30.4376 37.5 30.8752 37.3481 31.2287 37.0422L56.25 15.357V46.875C56.2499 47.9096 55.4095 48.75 54.375 48.75Z" fill="#2D2D2D"/>
</g>
<defs>
<clipPath id="clip0_2595:1607">
<rect width="60" height="60" fill="white"/>
</clipPath>
</defs>
</svg>
