<svg width="67" height="59" viewBox="0 0 67 59" fill="none" xmlns="http://www.w3.org/2000/svg">
<circle cx="37.3799" cy="29.5" r="29.5" fill="#E0F9FF"/>
<path d="M12.334 29.0415H30.791V17.6743C30.791 15.6431 30.6641 14.3052 30.4102 13.6606C30.2148 13.1724 29.8047 12.7524 29.1797 12.4009C28.3398 11.9321 27.4512 11.6978 26.5137 11.6978H25.1074V10.6138H42.0996V11.6978H40.6934C39.7559 11.6978 38.8672 11.9224 38.0273 12.3716C37.4023 12.6841 36.9727 13.1626 36.7383 13.8071C36.5234 14.4321 36.416 15.7212 36.416 17.6743V43.3091C36.416 45.3208 36.543 46.6489 36.7969 47.2935C36.9922 47.7817 37.3926 48.2017 37.998 48.5532C38.8574 49.022 39.7559 49.2563 40.6934 49.2563H42.0996V50.3403H25.1074V49.2563H26.5137C28.1348 49.2563 29.3164 48.7778 30.0586 47.8208C30.5469 47.1958 30.791 45.6919 30.791 43.3091V31.2095H12.334V43.3091C12.334 45.3208 12.4609 46.6489 12.7148 47.2935C12.9102 47.7817 13.3203 48.2017 13.9453 48.5532C14.7852 49.022 15.6738 49.2563 16.6113 49.2563H18.0469V50.3403H1.02539V49.2563H2.43164C4.07227 49.2563 5.26367 48.7778 6.00586 47.8208C6.47461 47.1958 6.70898 45.6919 6.70898 43.3091V17.6743C6.70898 15.6431 6.58203 14.3052 6.32812 13.6606C6.13281 13.1724 5.73242 12.7524 5.12695 12.4009C4.26758 11.9321 3.36914 11.6978 2.43164 11.6978H1.02539V10.6138H18.0469V11.6978H16.6113C15.6738 11.6978 14.7852 11.9224 13.9453 12.3716C13.3398 12.6841 12.9199 13.1626 12.6855 13.8071C12.4512 14.4321 12.334 15.7212 12.334 17.6743V29.0415Z" fill="black"/>
<path d="M12.334 29.0415H11.834V29.5415H12.334V29.0415ZM30.791 29.0415V29.5415H31.291V29.0415H30.791ZM30.4102 13.6606L30.8754 13.4774L30.8744 13.4749L30.4102 13.6606ZM29.1797 12.4009L29.4248 11.9651L29.4234 11.9643L29.1797 12.4009ZM25.1074 11.6978H24.6074V12.1978H25.1074V11.6978ZM25.1074 10.6138V10.1138H24.6074V10.6138H25.1074ZM42.0996 10.6138H42.5996V10.1138H42.0996V10.6138ZM42.0996 11.6978V12.1978H42.5996V11.6978H42.0996ZM38.0273 12.3716L38.251 12.819L38.2632 12.8125L38.0273 12.3716ZM36.7383 13.8071L36.2683 13.6362L36.2654 13.6446L36.7383 13.8071ZM36.7969 47.2935L36.3317 47.4767L36.3326 47.4792L36.7969 47.2935ZM37.998 48.5532L37.7469 48.9858L37.7586 48.9922L37.998 48.5532ZM42.0996 49.2563H42.5996V48.7563H42.0996V49.2563ZM42.0996 50.3403V50.8403H42.5996V50.3403H42.0996ZM25.1074 50.3403H24.6074V50.8403H25.1074V50.3403ZM25.1074 49.2563V48.7563H24.6074V49.2563H25.1074ZM30.0586 47.8208L29.6646 47.513L29.6635 47.5144L30.0586 47.8208ZM30.791 31.2095H31.291V30.7095H30.791V31.2095ZM12.334 31.2095V30.7095H11.834V31.2095H12.334ZM12.7148 47.2935L12.2496 47.4767L12.2506 47.4792L12.7148 47.2935ZM13.9453 48.5532L13.7002 48.989L13.7016 48.9898L13.9453 48.5532ZM18.0469 49.2563H18.5469V48.7563H18.0469V49.2563ZM18.0469 50.3403V50.8403H18.5469V50.3403H18.0469ZM1.02539 50.3403H0.525391V50.8403H1.02539V50.3403ZM1.02539 49.2563V48.7563H0.525391V49.2563H1.02539ZM6.00586 47.8208L6.40102 48.1273L6.40586 48.1208L6.00586 47.8208ZM6.32812 13.6606L6.79334 13.4774L6.79236 13.4749L6.32812 13.6606ZM5.12695 12.4009L5.37811 11.9683L5.36638 11.9619L5.12695 12.4009ZM1.02539 11.6978H0.525391V12.1978H1.02539V11.6978ZM1.02539 10.6138V10.1138H0.525391V10.6138H1.02539ZM18.0469 10.6138H18.5469V10.1138H18.0469V10.6138ZM18.0469 11.6978V12.1978H18.5469V11.6978H18.0469ZM13.9453 12.3716L14.1747 12.8159L14.1811 12.8125L13.9453 12.3716ZM12.6855 13.8071L13.1537 13.9827L13.1554 13.978L12.6855 13.8071ZM12.334 29.5415H30.791V28.5415H12.334V29.5415ZM31.291 29.0415V17.6743H30.291V29.0415H31.291ZM31.291 17.6743C31.291 16.65 31.2591 15.7906 31.1936 15.1002C31.129 14.4197 31.0288 13.867 30.8754 13.4774L29.945 13.8439C30.0454 14.0988 30.1357 14.5373 30.198 15.1947C30.2595 15.8422 30.291 16.6674 30.291 17.6743H31.291ZM30.8744 13.4749C30.6236 12.8479 30.1133 12.3524 29.4248 11.9651L28.9346 12.8367C29.4961 13.1525 29.8061 13.4968 29.9459 13.8463L30.8744 13.4749ZM29.4234 11.9643C28.5111 11.4551 27.5388 11.1978 26.5137 11.1978V12.1978C27.3636 12.1978 28.1686 12.4092 28.936 12.8375L29.4234 11.9643ZM26.5137 11.1978H25.1074V12.1978H26.5137V11.1978ZM25.6074 11.6978V10.6138H24.6074V11.6978H25.6074ZM25.1074 11.1138H42.0996V10.1138H25.1074V11.1138ZM41.5996 10.6138V11.6978H42.5996V10.6138H41.5996ZM42.0996 11.1978H40.6934V12.1978H42.0996V11.1978ZM40.6934 11.1978C39.6722 11.1978 38.7027 11.4433 37.7915 11.9307L38.2632 12.8125C39.0317 12.4014 39.8395 12.1978 40.6934 12.1978V11.1978ZM37.8037 11.9244C37.0667 12.2929 36.5474 12.869 36.2684 13.6363L37.2082 13.978C37.3979 13.4562 37.738 13.0753 38.2509 12.8188L37.8037 11.9244ZM36.2654 13.6446C36.1372 14.0177 36.0528 14.5467 35.9983 15.2012C35.943 15.8645 35.916 16.6901 35.916 17.6743H36.916C36.916 16.7054 36.9427 15.9099 36.9949 15.2842C37.0477 14.6496 37.1245 14.2216 37.2111 13.9697L36.2654 13.6446ZM35.916 17.6743V43.3091H36.916V17.6743H35.916ZM35.916 43.3091C35.916 44.3237 35.948 45.1759 36.0135 45.8615C36.0781 46.5376 36.1783 47.0875 36.3317 47.4767L37.2621 47.1102C37.1615 46.8549 37.0713 46.4185 37.009 45.7664C36.9475 45.1239 36.916 44.3062 36.916 43.3091H35.916ZM36.3326 47.4792C36.5814 48.101 37.0769 48.5965 37.747 48.9856L38.2491 48.1208C37.7083 47.8068 37.403 47.4625 37.2611 47.1078L36.3326 47.4792ZM37.7586 48.9922C38.6881 49.4991 39.6684 49.7563 40.6934 49.7563V48.7563C39.8433 48.7563 39.0268 48.5448 38.2375 48.1143L37.7586 48.9922ZM40.6934 49.7563H42.0996V48.7563H40.6934V49.7563ZM41.5996 49.2563V50.3403H42.5996V49.2563H41.5996ZM42.0996 49.8403H25.1074V50.8403H42.0996V49.8403ZM25.6074 50.3403V49.2563H24.6074V50.3403H25.6074ZM25.1074 49.7563H26.5137V48.7563H25.1074V49.7563ZM26.5137 49.7563C28.233 49.7563 29.5869 49.2449 30.4537 48.1272L29.6635 47.5144C29.0459 48.3108 28.0365 48.7563 26.5137 48.7563V49.7563ZM30.4526 48.1286C30.7773 47.713 30.9762 47.0759 31.1014 46.3042C31.2295 45.5154 31.291 44.5142 31.291 43.3091H30.291C30.291 44.4868 30.2304 45.429 30.1144 46.144C29.9955 46.8763 29.8281 47.3036 29.6646 47.513L30.4526 48.1286ZM31.291 43.3091V31.2095H30.291V43.3091H31.291ZM30.791 30.7095H12.334V31.7095H30.791V30.7095ZM11.834 31.2095V43.3091H12.834V31.2095H11.834ZM11.834 43.3091C11.834 44.3237 11.8659 45.1759 11.9315 45.8615C11.9961 46.5376 12.0963 47.0875 12.2496 47.4767L13.18 47.1102C13.0795 46.8549 12.9893 46.4185 12.9269 45.7664C12.8655 45.1239 12.834 44.3062 12.834 43.3091H11.834ZM12.2506 47.4792C12.5014 48.1062 13.0117 48.6017 13.7002 48.989L14.1904 48.1174C13.6289 47.8016 13.3189 47.4573 13.1791 47.1078L12.2506 47.4792ZM13.7016 48.9898C14.6139 49.499 15.5862 49.7563 16.6113 49.7563V48.7563C15.7614 48.7563 14.9564 48.5449 14.189 48.1166L13.7016 48.9898ZM16.6113 49.7563H18.0469V48.7563H16.6113V49.7563ZM17.5469 49.2563V50.3403H18.5469V49.2563H17.5469ZM18.0469 49.8403H1.02539V50.8403H18.0469V49.8403ZM1.52539 50.3403V49.2563H0.525391V50.3403H1.52539ZM1.02539 49.7563H2.43164V48.7563H1.02539V49.7563ZM2.43164 49.7563C4.16806 49.7563 5.53311 49.2463 6.40097 48.1272L5.61075 47.5144C4.99424 48.3094 3.97647 48.7563 2.43164 48.7563V49.7563ZM6.40586 48.1208C6.71704 47.7059 6.90726 47.071 7.02724 46.3011C7.14996 45.5137 7.20898 44.5136 7.20898 43.3091H6.20898C6.20898 44.4874 6.15082 45.4307 6.03917 46.1471C5.92477 46.8812 5.76342 47.3107 5.60586 47.5208L6.40586 48.1208ZM7.20898 43.3091V17.6743H6.20898V43.3091H7.20898ZM7.20898 17.6743C7.20898 16.65 7.17705 15.7906 7.11153 15.1002C7.04696 14.4197 6.94681 13.867 6.79333 13.4774L5.86292 13.8439C5.96335 14.0988 6.05363 14.5373 6.11601 15.1947C6.17745 15.8422 6.20898 16.6674 6.20898 17.6743H7.20898ZM6.79236 13.4749C6.54364 12.8531 6.04814 12.3576 5.37802 11.9685L4.87589 12.8333C5.4167 13.1473 5.72198 13.4916 5.86389 13.8463L6.79236 13.4749ZM5.36638 11.9619C4.43692 11.455 3.45655 11.1978 2.43164 11.1978V12.1978C3.28173 12.1978 4.09823 12.4093 4.88753 12.8398L5.36638 11.9619ZM2.43164 11.1978H1.02539V12.1978H2.43164V11.1978ZM1.52539 11.6978V10.6138H0.525391V11.6978H1.52539ZM1.02539 11.1138H18.0469V10.1138H1.02539V11.1138ZM17.5469 10.6138V11.6978H18.5469V10.6138H17.5469ZM18.0469 11.1978H16.6113V12.1978H18.0469V11.1978ZM16.6113 11.1978C15.5902 11.1978 14.6207 11.4433 13.7095 11.9307L14.1811 12.8125C14.9496 12.4014 15.7575 12.1978 16.6113 12.1978V11.1978ZM13.716 11.9273C12.998 12.2979 12.4927 12.8744 12.2157 13.6363L13.1554 13.978C13.3472 13.4508 13.6817 13.0703 14.1746 12.8159L13.716 11.9273ZM12.2174 13.6316C12.0759 14.0088 11.9835 14.5418 11.9239 15.1974C11.8635 15.8625 11.834 16.6894 11.834 17.6743H12.834C12.834 16.7061 12.8631 15.9119 12.9198 15.2879C12.9774 14.6545 13.0608 14.2305 13.1537 13.9827L12.2174 13.6316ZM11.834 17.6743V29.0415H12.834V17.6743H11.834Z" fill="#F5F5F5"/>
</svg>
