<svg width="818" height="81" viewBox="0 0 818 81" fill="none" xmlns="http://www.w3.org/2000/svg">
<circle cx="247.5" cy="6.5" r="5.5" fill="#282828"/>
<circle cx="562.5" cy="6.5" r="5.5" fill="#282828"/>
<path d="M23.3 9.8V80H6.2V9.8H23.3ZM98.4922 80H81.3922L52.7922 36.7V80H35.6922V9.8H52.7922L81.3922 53.3V9.8H98.4922V80ZM173.688 80H156.588L127.988 36.7V80H110.888V9.8H127.988L156.588 53.3V9.8H173.688V80ZM219.283 80.7C212.683 80.7 206.616 79.1667 201.083 76.1C195.616 73.0333 191.249 68.7667 187.983 63.3C184.783 57.7667 183.183 51.5667 183.183 44.7C183.183 37.8333 184.783 31.6667 187.983 26.2C191.249 20.7333 195.616 16.4667 201.083 13.4C206.616 10.3333 212.683 8.8 219.283 8.8C225.883 8.8 231.916 10.3333 237.383 13.4C242.916 16.4667 247.249 20.7333 250.383 26.2C253.583 31.6667 255.183 37.8333 255.183 44.7C255.183 51.5667 253.583 57.7667 250.383 63.3C247.183 68.7667 242.849 73.0333 237.383 76.1C231.916 79.1667 225.883 80.7 219.283 80.7ZM219.283 65.1C224.883 65.1 229.349 63.2333 232.683 59.5C236.083 55.7667 237.783 50.8333 237.783 44.7C237.783 38.5 236.083 33.5667 232.683 29.9C229.349 26.1667 224.883 24.3 219.283 24.3C213.616 24.3 209.083 26.1333 205.683 29.8C202.349 33.4667 200.683 38.4333 200.683 44.7C200.683 50.9 202.349 55.8667 205.683 59.6C209.083 63.2667 213.616 65.1 219.283 65.1ZM330.596 9.8L305.696 80H284.296L259.396 9.8H277.596L294.996 62.8L312.496 9.8H330.596ZM381.443 67.6H355.243L351.043 80H333.143L358.543 9.8H378.343L403.743 80H385.643L381.443 67.6ZM377.043 54.4L368.343 28.7L359.743 54.4H377.043ZM461.973 9.8V23.5H443.373V80H426.273V23.5H407.673V9.8H461.973ZM487.655 9.8V80H470.555V9.8H487.655ZM533.248 80.7C526.648 80.7 520.581 79.1667 515.048 76.1C509.581 73.0333 505.214 68.7667 501.948 63.3C498.748 57.7667 497.148 51.5667 497.148 44.7C497.148 37.8333 498.748 31.6667 501.948 26.2C505.214 20.7333 509.581 16.4667 515.048 13.4C520.581 10.3333 526.648 8.8 533.248 8.8C539.848 8.8 545.881 10.3333 551.348 13.4C556.881 16.4667 561.214 20.7333 564.348 26.2C567.548 31.6667 569.148 37.8333 569.148 44.7C569.148 51.5667 567.548 57.7667 564.348 63.3C561.148 68.7667 556.814 73.0333 551.348 76.1C545.881 79.1667 539.848 80.7 533.248 80.7ZM533.248 65.1C538.848 65.1 543.314 63.2333 546.648 59.5C550.048 55.7667 551.748 50.8333 551.748 44.7C551.748 38.5 550.048 33.5667 546.648 29.9C543.314 26.1667 538.848 24.3 533.248 24.3C527.581 24.3 523.048 26.1333 519.648 29.8C516.314 33.4667 514.648 38.4333 514.648 44.7C514.648 50.9 516.314 55.8667 519.648 59.6C523.048 63.2667 527.581 65.1 533.248 65.1ZM641.461 80H624.361L595.761 36.7V80H578.661V9.8H595.761L624.361 53.3V9.8H641.461V80ZM679.256 80.7C674.123 80.7 669.523 79.8667 665.456 78.2C661.39 76.5333 658.123 74.0667 655.656 70.8C653.256 67.5333 651.99 63.6 651.856 59H670.056C670.323 61.6 671.223 63.6 672.756 65C674.29 66.3333 676.29 67 678.756 67C681.29 67 683.29 66.4333 684.756 65.3C686.223 64.1 686.956 62.4667 686.956 60.4C686.956 58.6667 686.356 57.2333 685.156 56.1C684.023 54.9667 682.59 54.0333 680.856 53.3C679.19 52.5667 676.79 51.7333 673.656 50.8C669.123 49.4 665.423 48 662.556 46.6C659.69 45.2 657.223 43.1333 655.156 40.4C653.09 37.6667 652.056 34.1 652.056 29.7C652.056 23.1667 654.423 18.0667 659.156 14.4C663.89 10.6667 670.056 8.8 677.656 8.8C685.39 8.8 691.623 10.6667 696.356 14.4C701.09 18.0667 703.623 23.2 703.956 29.8H685.456C685.323 27.5333 684.49 25.7667 682.956 24.5C681.423 23.1667 679.456 22.5 677.056 22.5C674.99 22.5 673.323 23.0667 672.056 24.2C670.79 25.2667 670.156 26.8333 670.156 28.9C670.156 31.1667 671.223 32.9333 673.356 34.2C675.49 35.4667 678.823 36.8333 683.356 38.3C687.89 39.8333 691.556 41.3 694.356 42.7C697.223 44.1 699.69 46.1333 701.756 48.8C703.823 51.4667 704.856 54.9 704.856 59.1C704.856 63.1 703.823 66.7333 701.756 70C699.756 73.2667 696.823 75.8667 692.956 77.8C689.09 79.7333 684.523 80.7 679.256 80.7Z" fill="#003262"/>
</svg>
