<svg width="90" height="64" viewBox="0 0 90 64" fill="none" xmlns="http://www.w3.org/2000/svg">
<circle cx="58.167" cy="31.833" r="31.833" fill="#E0F9FF"/>
<g clip-path="url(#clip0)">
<path d="M26.1271 18.8005C26.2111 18.8031 26.2957 18.8043 26.3798 18.8043C26.3799 18.8043 26.3799 18.8043 26.3801 18.8043C29.3634 18.8043 32.6006 17.1224 34.6261 14.52C36.7169 11.8376 37.6669 8.61975 37.2325 5.69136C37.1332 5.02255 36.534 4.54154 35.8615 4.59004C32.9214 4.79594 29.5929 6.58366 27.5793 9.03812C25.3884 11.7062 24.3846 14.9593 24.8942 17.7399C25.0042 18.3397 25.5177 18.7814 26.1271 18.8005ZM29.5805 10.6809C30.8294 9.15859 32.851 7.90107 34.7452 7.39675C34.6551 9.97254 33.2564 12.0664 32.5838 12.9294C31.2762 14.6091 29.2657 15.8178 27.3477 16.1338C27.3858 13.5723 29.0199 11.3636 29.5805 10.6809Z" fill="#3D3D3C"/>
<path d="M48.7763 43.6502C48.6392 43.3205 48.3719 43.0621 48.0378 42.9362C42.7069 40.9261 41.0374 35.1487 42.5481 30.9476C43.2949 28.8639 44.7642 27.1704 46.797 26.0503C47.1315 25.8659 47.3676 25.5432 47.442 25.1685C47.5164 24.7938 47.4213 24.4053 47.1826 24.1072C44.4808 20.7354 40.6402 18.7225 36.9089 18.7225C34.2965 18.7225 32.5281 19.3932 30.9679 19.9848C29.8186 20.4206 28.8262 20.797 27.6884 20.797C26.4299 20.797 25.2821 20.3859 23.9528 19.9097C22.399 19.3531 20.638 18.7223 18.4371 18.7223C14.1952 18.7223 9.89628 21.2876 7.21624 25.4194C6.22452 26.9564 5.52914 28.8549 5.14857 31.0646C4.07797 37.3508 5.89193 44.8414 10.0016 51.1029C12.3321 54.6463 15.2689 58.2735 19.3781 58.3086L19.4619 58.3089C21.1735 58.3089 22.3251 57.7946 23.4387 57.2972C24.6154 56.7716 25.7269 56.2751 27.7402 56.265L27.8065 56.2649C29.7818 56.2649 30.8581 56.7587 31.9976 57.2815C33.0892 57.7823 34.2182 58.3003 35.9253 58.3003L36.0035 58.2998C40.0304 58.2656 43.0802 54.4501 45.535 50.7186C47.0438 48.4074 47.6184 47.2261 48.7623 44.6773C48.9083 44.3516 48.9133 43.9798 48.7763 43.6502ZM43.3694 49.2997C41.4141 52.2721 38.8073 55.687 35.98 55.7112L35.9251 55.7114C34.7834 55.7114 34.0302 55.3657 33.0768 54.9283C31.8607 54.3703 30.3472 53.676 27.8062 53.676L27.7262 53.6761C25.1686 53.6889 23.6237 54.3789 22.3826 54.9335C21.3986 55.3731 20.6214 55.7202 19.4618 55.7202L19.4017 55.72C16.4914 55.695 14.0052 52.4792 12.165 49.6815C8.40593 43.9541 6.73695 37.1572 7.70019 31.5018C8.02087 29.6397 8.58991 28.0657 9.38988 26.8257C11.5962 23.4243 15.0629 21.3112 18.4371 21.3112C20.1882 21.3112 21.5928 21.8143 23.0798 22.3469C24.5058 22.8578 25.9803 23.3859 27.6884 23.3859C29.3006 23.3859 30.6149 22.8875 31.8859 22.4054C33.3043 21.8675 34.7712 21.3112 36.9091 21.3112C39.4529 21.3112 42.095 22.5361 44.1944 24.6426C42.2956 26.0268 40.8976 27.8798 40.1117 30.0726C38.0627 35.7709 40.6271 42.0889 45.865 44.7976C45.0864 46.4862 44.5332 47.5166 43.3694 49.2997Z" fill="#3D3D3C"/>
</g>
<defs>
<clipPath id="clip0">
<rect width="53.7224" height="53.7224" fill="white" transform="translate(0 4.58679)"/>
</clipPath>
</defs>
</svg>
