<svg width="82" height="60" viewBox="0 0 82 60" fill="none" xmlns="http://www.w3.org/2000/svg">
<circle cx="52" cy="30" r="30" fill="#E0F9FF"/>
<path d="M50.4766 53.0011H48.0234V28.2354L48.3339 28.5269C48.628 28.803 49.0025 28.9397 49.3764 28.9397C49.7824 28.9397 50.1875 28.7783 50.4873 28.459C51.0632 27.8456 51.0327 26.8814 50.4194 26.3056L48.0235 24.0564V10.5948C48.0235 9.7535 47.3414 9.07141 46.5 9.07141H37.4316C36.5903 9.07141 35.9082 9.7535 35.9082 10.5948V12.6832L27.0914 4.40669C26.5142 3.86496 25.5818 3.86415 25.0045 4.40598L1.67587 26.3057C1.06244 26.8815 1.03207 27.8457 1.60792 28.4591C1.90783 28.7785 2.31276 28.9398 2.7189 28.9398C3.09265 28.9398 3.46731 28.803 3.76123 28.527L3.96913 28.3319V53.0012H1.52342C0.682087 53.0012 0 53.6833 0 54.5247C0 55.366 0.682087 56.0481 1.52342 56.0481H50.4766C51.3179 56.0481 52 55.366 52 54.5247C52 53.6832 51.3179 53.0011 50.4766 53.0011ZM38.9549 12.1183H44.9765V21.1962L38.9549 15.5435V12.1183ZM7.01597 25.4717L26.0476 7.60578L44.9764 25.3752V53.0011H7.01597V25.4717Z" fill="#3D3D3D"/>
<path d="M36.0604 28.6584C32.8897 27.3161 29.5256 26.6355 26.0612 26.6355C22.548 26.6355 19.1401 27.3349 15.9319 28.7141C15.1589 29.0463 14.8017 29.9423 15.134 30.7153C15.3819 31.2922 15.9439 31.6375 16.5343 31.6375C16.7351 31.6375 16.9392 31.5976 17.1353 31.5132C19.9611 30.2984 22.9642 29.6824 26.0612 29.6824C29.1152 29.6824 32.0797 30.282 34.8724 31.4642C35.6473 31.7924 36.5413 31.4301 36.8692 30.6553C37.1973 29.8804 36.8351 28.9863 36.0604 28.6584Z" fill="#3D3D3D"/>
<path d="M33.0492 33.9966C30.8171 33.1451 28.466 32.7134 26.0611 32.7134C23.6491 32.7134 21.2914 33.1476 19.0536 34.004C18.2678 34.3047 17.8745 35.1856 18.1753 35.9714C18.4074 36.5781 18.9853 36.9507 19.5983 36.9507C19.7793 36.9507 19.9635 36.9182 20.1425 36.8497C22.0313 36.1268 24.0227 35.7602 26.061 35.7602C28.0934 35.7602 30.0792 36.1246 31.9631 36.8434C32.7491 37.1434 33.6297 36.7491 33.9295 35.963C34.2295 35.1769 33.8353 34.2965 33.0492 33.9966Z" fill="#3D3D3D"/>
<path d="M29.8552 39.3306C28.6267 38.973 27.3503 38.7917 26.0614 38.7917C24.7525 38.7917 23.4569 38.9787 22.2108 39.3474C21.404 39.5862 20.9434 40.4336 21.1821 41.2404C21.3781 41.9031 21.9848 42.3321 22.6424 42.3321C22.7855 42.3321 22.931 42.3118 23.0752 42.2691C24.0406 41.9835 25.0453 41.8387 26.0614 41.8387C27.062 41.8387 28.0519 41.9792 29.0037 42.2562C29.8117 42.4914 30.657 42.0271 30.8922 41.2193C31.1273 40.4112 30.6631 39.5657 29.8552 39.3306Z" fill="#3D3D3D"/>
<path d="M27.5545 46.0954C27.4214 45.4703 26.9195 44.9833 26.2845 44.8869C25.6564 44.7916 25.0155 45.1155 24.7179 45.6759C24.4197 46.2371 24.5035 46.945 24.9322 47.4167C25.3604 47.888 26.055 48.043 26.6435 47.8006C27.3034 47.5286 27.7001 46.7969 27.5545 46.0954Z" fill="#3D3D3D"/>
</svg>
