<svg width="84" height="61" viewBox="0 0 84 61" fill="none" xmlns="http://www.w3.org/2000/svg">
<circle cx="53.334" cy="30.7832" r="30" fill="#E0F9FF"/>
<path fill-rule="evenodd" clip-rule="evenodd" d="M25.6711 11.5283C26.2922 11.7364 26.9497 11.7265 27.5866 11.8494C32.1784 12.7362 35.9573 14.9953 38.8759 18.6309C42.1125 22.663 43.4651 27.2989 42.9309 32.4378C42.4388 37.1739 40.4011 41.1672 36.9181 44.4272C34.7414 46.4645 32.6847 48.6246 30.5685 50.724C28.8173 52.4616 27.0754 54.2088 25.3358 55.958C25.0459 56.2493 24.7493 56.5164 24.3493 56.6423C24.1437 56.6423 23.9381 56.6423 23.7326 56.6423C23.321 56.438 23.0134 56.1081 22.6951 55.7896C19.1982 52.2917 15.6982 48.797 12.2037 45.2968C11.5714 44.6634 10.8837 44.0901 10.2711 43.4341C7.71133 40.6927 6.05005 37.4765 5.44947 33.7905C4.38982 27.2874 6.18186 21.6266 10.8471 16.9487C13.7404 14.0474 17.2767 12.3546 21.3225 11.7244C21.6869 11.6677 22.0662 11.6944 22.4109 11.5283C23.4977 11.5283 24.5844 11.5283 25.6711 11.5283ZM24.549 14.1772C21.4682 14.2127 18.9903 14.7803 16.6703 15.9827C13.6395 17.5535 11.3007 19.8427 9.70294 22.8554C8.07613 25.9228 7.49379 29.194 7.95114 32.6454C8.3167 35.4043 9.33901 37.8927 10.9676 40.1441C11.8262 41.3311 12.9188 42.2886 13.9511 43.3108C17.2482 46.5757 20.5216 49.8644 23.7932 53.1548C24.0396 53.4028 24.1669 53.3985 24.4009 53.1517C25.0272 52.4915 25.6792 51.8552 26.327 51.2157C29.305 48.2761 32.2013 45.2539 35.2381 42.3736C38.0062 39.748 39.6961 36.5556 40.2188 32.7732C40.8342 28.3188 39.8103 24.2532 37.0852 20.6789C33.8248 16.4025 29.4252 14.3143 24.549 14.1772Z" fill="#2D2D2D"/>
<path fill-rule="evenodd" clip-rule="evenodd" d="M22.224 31.5309C22.224 30.2247 22.2203 28.9184 22.2253 27.612C22.2289 26.6599 22.7401 26.1517 23.6967 26.1494C25.2232 26.1459 26.7505 26.118 28.2759 26.1582C30.917 26.2279 32.4505 28.9813 31.1089 31.2508C30.4433 32.3767 29.3907 32.8841 28.0886 32.8824C27.1345 32.8812 26.1803 32.894 25.2266 32.8752C24.9321 32.8695 24.8563 32.9585 24.8637 33.245C24.8835 34.0077 24.8767 34.7713 24.8687 35.5345C24.8597 36.3823 24.3034 36.9838 23.5426 36.9855C22.7729 36.9871 22.2292 36.397 22.2256 35.538C22.2201 34.2022 22.224 32.8666 22.224 31.5309ZM26.6548 30.2337C27.1237 30.2337 27.5924 30.2386 28.061 30.2325C28.6522 30.2249 28.956 29.9687 28.9462 29.4987C28.9368 29.0502 28.63 28.7991 28.0708 28.7954C27.3677 28.7909 26.6647 28.7943 25.9614 28.7943C24.7823 28.7943 24.7879 28.794 24.8646 29.9917C24.877 30.1822 24.9276 30.2415 25.1168 30.2374C25.6293 30.2263 26.1422 30.2337 26.6548 30.2337Z" fill="#2D2D2D"/>
<path fill-rule="evenodd" clip-rule="evenodd" d="M20.9405 31.5626C20.9405 32.9266 20.9614 34.2911 20.9336 35.6546C20.9133 36.6549 19.9549 37.2667 19.0844 36.8635C18.5136 36.5991 18.2952 36.1103 18.2951 35.5044C18.2951 34.4043 18.295 33.3044 18.295 32.2042C18.295 30.6788 18.289 29.1533 18.2975 27.628C18.3021 26.8255 18.7406 26.2663 19.4149 26.1617C20.2338 26.0346 20.9246 26.6272 20.9372 27.5147C20.9564 28.8637 20.9422 30.2133 20.9422 31.5627C20.9417 31.5626 20.9411 31.5626 20.9405 31.5626Z" fill="#2D2D2D"/>
</svg>
