<svg width="82" height="70" viewBox="0 0 82 70" fill="none" xmlns="http://www.w3.org/2000/svg">
<circle cx="47.095" cy="34.905" r="34.905" fill="#E0F9FF"/>
<path d="M50.625 35.7541C50.625 31.9236 46.0284 29.1409 39.7255 27.5086C41.8836 21.6456 42.2595 16.571 39.472 14.4011C38.7087 13.8069 37.7668 13.5059 36.6763 13.5059C33.4204 13.5059 28.9256 16.2482 24.2978 20.8071C19.6192 15.9397 15.0818 13 11.8467 13C10.857 13 9.99809 13.2693 9.29084 13.8003C7.09951 15.4512 6.77756 19.1857 8.36134 24.6006C8.67187 25.6626 9.0634 26.7704 9.5027 27.9011C3.9309 29.5694 0 32.2136 0 35.7541C0 39.2422 3.81666 41.8613 9.25761 43.5328C6.94892 49.5921 6.46703 54.8782 9.32927 57.1059C10.0936 57.7001 11.0346 58 12.125 58C15.3788 58 19.8664 55.2631 24.4889 50.713C28.9173 55.1497 33.165 57.7928 36.237 57.7928C37.2267 57.7928 38.0856 57.5235 38.7928 56.9925C41.4983 54.9546 41.142 49.977 39.0608 44.1587C45.7002 42.5613 50.625 39.7198 50.625 35.7541ZM36.6752 15.6878C37.3098 15.6878 37.8353 15.8448 38.2331 16.1556C39.8823 17.4378 39.6995 21.5475 37.6587 27.0321C34.8474 26.4444 31.7847 26.0682 28.6888 25.9101C27.7147 24.6562 26.7312 23.4796 25.7477 22.3795C30.2456 17.9721 34.272 15.6878 36.6752 15.6878ZM16.57 41.0239C17.0561 41.7337 17.5483 42.425 18.0448 43.1043C15.8908 42.8546 13.9093 42.4959 12.123 42.0652C12.7554 40.6281 13.4907 39.1266 14.3517 37.5674C15.0537 38.721 15.788 39.8779 16.57 41.0239ZM12.3847 29.3895C14.0131 29.0046 15.7984 28.6851 17.728 28.4518C17.3988 28.8967 17.0696 29.3415 16.7455 29.8006C15.9209 30.9695 15.1295 32.1754 14.3735 33.3977C13.6372 32.0402 12.9735 30.7001 12.3847 29.3895ZM15.5522 35.4836C16.4142 34.0509 17.3666 32.5832 18.4145 31.0992C19.1415 30.0688 19.8716 29.1016 20.6006 28.1716C22.1065 28.0625 23.6768 28.0015 25.3104 28.0015C26.1091 28.0015 26.889 28.0178 27.6575 28.0451C28.3783 28.9981 29.1022 29.9892 29.8239 31.0447C31.0453 32.8329 32.1223 34.5841 33.0881 36.2894C32.2666 37.6393 31.3703 39.0176 30.3837 40.4122C29.6287 41.4807 28.8706 42.4861 28.1135 43.4467C27.1985 43.4849 26.268 43.5099 25.3104 43.5099C23.7786 43.5099 22.308 43.4511 20.8873 43.3551C20.0118 42.2244 19.1342 41.0337 18.2577 39.7514C17.2908 38.3361 16.3883 36.9066 15.5522 35.4836ZM32.0537 41.7108C32.8108 40.6357 33.5388 39.5279 34.2388 38.408C34.9855 39.8452 35.6388 41.2299 36.1944 42.5526C34.5628 42.8568 32.7994 43.0978 30.9248 43.2613C31.3028 42.7521 31.6809 42.2396 32.0537 41.7108ZM31.5116 29.7733C31.1439 29.2379 30.7742 28.7157 30.4045 28.1999C32.7246 28.382 34.8827 28.6819 36.8362 29.0766C36.1362 30.7034 35.3012 32.4164 34.3042 34.2003C33.4267 32.6966 32.492 31.2094 31.5116 29.7733ZM25.9169 25.8261C25.7155 25.824 25.5129 25.8207 25.3115 25.8207C24.3664 25.8207 23.4161 25.8436 22.4679 25.8861C23.0713 25.1828 23.6685 24.5297 24.2625 23.8994C24.8088 24.5111 25.3603 25.1512 25.9169 25.8261ZM10.4997 15.5744C10.8455 15.3149 11.2984 15.1829 11.8446 15.1829C14.2136 15.1829 18.2639 17.6232 22.8096 22.3358C21.7212 23.4938 20.6328 24.739 19.5579 26.0748C16.7507 26.3244 14.0193 26.7541 11.5289 27.3581C11.0678 26.1914 10.6648 25.0531 10.346 23.9649C9.10286 19.7178 9.16102 16.5819 10.4997 15.5744ZM2.07502 35.7541C2.07502 33.6703 5.16366 31.4536 10.3377 29.9238C11.1332 31.7338 12.07 33.5951 13.1293 35.4793C11.9744 37.4943 10.9442 39.5257 10.0822 41.5091C5.06084 39.9858 2.07502 37.8051 2.07502 35.7541ZM12.124 55.8225C11.4884 55.8225 10.9629 55.6655 10.5651 55.3558C8.87854 54.043 9.11117 49.7698 11.2859 44.0955C13.9259 44.753 16.8452 45.2087 19.8446 45.4606C20.8956 46.7843 21.9528 48.0274 23.009 49.1712C18.5298 53.5523 14.5199 55.8225 12.124 55.8225ZM22.7265 45.6384C23.5885 45.6722 24.4515 45.6907 25.3104 45.6907C25.6345 45.6907 25.9574 45.6874 26.2815 45.682C25.6843 46.3755 25.0923 47.0221 24.5045 47.6468C23.9177 47.0144 23.3247 46.3427 22.7265 45.6384ZM37.5829 55.2239C35.8174 56.5552 31.2883 54.4574 25.9855 49.1821C27.0375 48.0645 28.0865 46.8629 29.1271 45.5762C31.8346 45.417 34.5109 45.0954 37.0055 44.609C38.9787 50.0271 39.1646 54.031 37.5829 55.2239ZM38.2725 42.1142C37.4936 40.2224 36.5506 38.2707 35.4996 36.3221C36.8103 34.0618 37.9786 31.7698 38.9175 29.5531C44.9109 31.0752 48.5469 33.4937 48.5469 35.7551C48.5479 38.0973 44.6471 40.6041 38.2725 42.1142Z" fill="#3D3D3D"/>
<path d="M25.3119 39.9879C27.5385 39.9879 29.3436 38.0928 29.3436 35.7551C29.3436 33.4173 27.5385 31.5222 25.3119 31.5222C23.0853 31.5222 21.2803 33.4173 21.2803 35.7551C21.2803 38.0928 23.0853 39.9879 25.3119 39.9879Z" fill="#3D3D3D"/>
</svg>
