<svg width="94" height="64" viewBox="0 0 94 64" fill="none" xmlns="http://www.w3.org/2000/svg">
<circle cx="63.334" cy="30.2578" r="30" fill="#E0F9FF"/>
<path fill-rule="evenodd" clip-rule="evenodd" d="M32.1403 61.3827C30.9489 61.1274 29.8117 60.7559 28.8155 60.0111C26.3766 58.1874 25.3867 55.0925 26.3614 52.2633C27.3513 49.39 30.0661 47.5238 33.1444 47.6004C36.0646 47.6731 38.7008 49.7272 39.5326 52.5779C39.5788 52.7365 39.624 52.8954 39.6694 53.0532C42.291 53.5828 47.0739 51.2004 48.6377 48.5152C48.1555 48.5152 47.7295 48.5205 47.3033 48.5141C46.322 48.4993 45.822 47.9935 45.8216 47.0057C45.8199 41.3815 45.8174 35.7571 45.8294 30.1328C45.8302 29.7747 45.9032 29.3986 46.0288 29.0633C46.2254 28.54 46.6175 28.2402 47.2172 28.265C47.654 28.283 48.0922 28.2685 48.4943 28.2685C48.5489 28.1854 48.5845 28.1565 48.5855 28.1262C48.7237 24.5259 48.6117 20.98 47.0381 17.612C44.0664 11.2516 37.3766 7.25332 30.3983 7.75713C22.1664 8.35147 15.6217 14.4182 14.5472 22.5655C14.3036 24.4129 14.3851 26.3033 14.3137 28.2682C14.8211 28.2682 15.2345 28.2666 15.6481 28.2685C16.5059 28.2728 17.0098 28.7062 17.1309 29.565C17.1666 29.8183 17.1605 30.0786 17.1605 30.3356C17.1621 35.8681 17.162 41.4006 17.1618 46.933C17.1618 48.0491 16.7093 48.5135 15.5961 48.5135C13.8686 48.5135 12.1385 48.5576 10.414 48.4811C7.66967 48.3593 5.39316 46.0914 5.32855 43.3381C5.25403 40.1604 5.28863 36.9792 5.32223 33.8C5.35087 31.0936 7.60991 28.1016 11.0564 28.2661C11.2009 28.2731 11.3469 28.2538 11.5866 28.2422C11.5866 27.9983 11.5848 27.7679 11.5868 27.5376C11.6053 25.3897 11.486 23.2349 11.9375 21.1102C13.4246 14.1097 17.4747 9.20508 24.0311 6.37478C25.8455 5.5916 27.7611 5.1602 29.7346 5.00111C29.8398 4.99268 29.9414 4.94407 30.0447 4.91406C31.0006 4.91406 31.9564 4.91406 32.9123 4.91406C33.617 5.02132 34.3231 5.12003 35.0262 5.23696C42.8864 6.54578 49.4593 12.9619 51.01 20.799C51.4527 23.036 51.4296 25.2912 51.4246 27.5503C51.4241 27.7789 51.4246 28.0076 51.4246 28.2561C52.442 28.2651 53.2953 28.5123 54.0493 29.0518C55.8552 30.344 56.8625 32.1468 56.944 34.3197C57.0623 37.4757 57.0279 40.64 56.972 43.7992C56.9331 45.998 55.6324 47.6703 53.4827 48.1008C52.3279 48.332 51.622 48.8631 51.1275 49.8374C51.1108 49.87 51.0877 49.8992 51.0664 49.9292C48.9713 52.896 46.1506 54.7812 42.6003 55.5376C41.6392 55.7423 40.6498 55.814 39.6738 55.9466C39.1342 58.5108 37.5399 60.1398 35.1163 61.0115C34.6542 61.1777 34.1625 61.261 33.6845 61.3826C33.1697 61.3827 32.6552 61.3827 32.1403 61.3827ZM14.3525 31.0529C13.2593 31.0529 12.1987 31.0528 11.1382 31.0529C9.31205 31.0534 8.10913 32.2243 8.0976 34.072C8.07887 37.065 8.08334 40.058 8.09537 43.051C8.1007 44.379 9.06157 45.5619 10.3798 45.6726C11.6867 45.7824 13.0099 45.6966 14.3527 45.6966C14.3525 40.8258 14.3525 35.9842 14.3525 31.0529ZM48.6535 31.0583C48.6535 35.979 48.6535 40.8346 48.6535 45.7063C49.793 45.7063 50.8974 45.7657 51.9925 45.6915C53.3883 45.5966 54.1908 44.819 54.197 43.63C54.213 40.6369 54.2213 37.6436 54.1903 34.651C54.1788 33.5531 53.784 32.5437 52.9896 31.7758C52.643 31.4409 52.1327 31.1393 51.6686 31.09C50.6892 30.9862 49.6912 31.0583 48.6535 31.0583ZM37.0097 54.5502C36.9884 52.1398 35.1952 50.3287 32.8489 50.3474C30.612 50.3654 28.7667 52.2134 28.7784 54.4237C28.7905 56.672 30.7467 58.6061 32.9925 58.5901C35.2143 58.5741 37.029 56.7489 37.0097 54.5502Z" fill="#2D2D2D"/>
</svg>
