<svg width="85" height="59" viewBox="0 0 85 59" fill="none" xmlns="http://www.w3.org/2000/svg">
<circle cx="55.3687" cy="29.5" r="29.5" fill="#E0F9FF"/>
<path d="M15.9727 28.7812H6.05859C2.8559 28.7812 0.25 26.1753 0.25 22.9727V13.0586C0.25 9.8559 2.8559 7.25 6.05859 7.25H15.9727C19.1753 7.25 21.7812 9.8559 21.7812 13.0586V22.9727C21.7812 26.1753 19.1753 28.7812 15.9727 28.7812ZM6.05859 9.6875C4.19951 9.6875 2.6875 11.1995 2.6875 13.0586V22.9727C2.6875 24.8317 4.19951 26.3438 6.05859 26.3438H15.9727C17.8317 26.3438 19.3438 24.8317 19.3438 22.9727V13.0586C19.3438 11.1995 17.8317 9.6875 15.9727 9.6875H6.05859Z" fill="#3D3D3D" stroke="#F5F5F5" stroke-width="0.5"/>
<path d="M40.9414 28.7812H31.0273C27.8247 28.7812 25.2188 26.1753 25.2188 22.9727V13.0586C25.2188 9.8559 27.8247 7.25 31.0273 7.25H40.9414C44.1441 7.25 46.75 9.8559 46.75 13.0586V22.9727C46.75 26.1753 44.1441 28.7812 40.9414 28.7812ZM31.0273 9.6875C29.1683 9.6875 27.6562 11.1995 27.6562 13.0586V22.9727C27.6562 24.8317 29.1683 26.3438 31.0273 26.3438H40.9414C42.8005 26.3438 44.3125 24.8317 44.3125 22.9727V13.0586C44.3125 11.1995 42.8005 9.6875 40.9414 9.6875H31.0273Z" fill="#3D3D3D" stroke="#F5F5F5" stroke-width="0.5"/>
<path d="M35.9844 53.75C30.0484 53.75 25.2188 48.9203 25.2188 42.9844C25.2188 37.0484 30.0484 32.2188 35.9844 32.2188C41.9203 32.2188 46.75 37.0484 46.75 42.9844C46.75 48.9203 41.9203 53.75 35.9844 53.75ZM35.9844 34.6562C31.392 34.6562 27.6562 38.392 27.6562 42.9844C27.6562 47.5767 31.392 51.3125 35.9844 51.3125C40.5767 51.3125 44.3125 47.5767 44.3125 42.9844C44.3125 38.392 40.5767 34.6562 35.9844 34.6562Z" fill="#3D3D3D" stroke="#F5F5F5" stroke-width="0.5"/>
<path d="M15.9727 53.75H6.05859C2.8559 53.75 0.25 51.1441 0.25 47.9414V38.0273C0.25 34.8247 2.8559 32.2188 6.05859 32.2188H15.9727C19.1753 32.2188 21.7812 34.8247 21.7812 38.0273V47.9414C21.7812 51.1441 19.1753 53.75 15.9727 53.75ZM6.05859 34.6562C4.19951 34.6562 2.6875 36.1683 2.6875 38.0273V47.9414C2.6875 49.8005 4.19951 51.3125 6.05859 51.3125H15.9727C17.8317 51.3125 19.3438 49.8005 19.3438 47.9414V38.0273C19.3438 36.1683 17.8317 34.6562 15.9727 34.6562H6.05859Z" fill="#3D3D3D" stroke="#F5F5F5" stroke-width="0.5"/>
</svg>
