<svg width="75" height="73" viewBox="0 0 75 73" fill="none" xmlns="http://www.w3.org/2000/svg">
<path d="M35.9715 72.1376C32.217 72.1376 22.0163 71.9695 12.3458 70.32C0.480114 68.2987 0.222644 57.8327 0.125613 53.8919C0.118888 53.6239 0.113123 53.3818 0.104477 53.1733C-0.0348256 49.8406 -0.0348256 43.8746 0.104477 40.4046C0.174608 38.6609 1.11994 29.8695 12.9165 28.2315C15.7938 27.8318 18.7777 27.5177 21.7838 27.2957C27.9448 26.8423 33.2181 26.8423 37.4548 26.8423C37.7795 26.8423 38.0437 27.1055 38.0437 27.4312V62.7708C38.0437 63.0955 37.7805 63.3587 37.4548 63.3587C37.1291 63.3587 36.8668 63.0955 36.8668 62.7708V28.022C32.7521 28.023 27.7056 28.0422 21.8702 28.4716C18.8882 28.6916 15.9302 29.0029 13.0778 29.3997C2.20938 30.909 1.34283 38.8722 1.27942 40.4536C1.14204 43.8987 1.14204 49.8185 1.27942 53.1243C1.28807 53.3405 1.29479 53.5874 1.30152 53.8641C1.40047 57.8865 1.632 67.3005 12.5427 69.1604C23.0673 70.9541 34.2374 70.981 36.8668 70.9579V69.8233C36.8668 69.4986 37.1301 69.2354 37.4548 69.2354C37.7795 69.2354 38.0437 69.4986 38.0437 69.8233V71.5372C38.0437 71.8571 37.7872 72.1184 37.4663 72.1252C37.4433 72.1271 36.9082 72.1376 35.9715 72.1376Z" fill="white"/>
<path d="M35.1591 34.2617C31.8581 34.2617 24.8776 34.0609 23.229 32.4114C21.7274 30.9107 21.3547 29.2737 21.2663 28.4283L16.407 28.02C16.2341 28.0056 16.0756 27.9152 15.9757 27.7731C15.8758 27.6309 15.8431 27.4522 15.8873 27.2841C15.9526 27.0333 17.558 21.1327 23.2098 19.5388L28.1728 18.1391V9.56672C27.1737 10.3583 25.528 11.5467 23.7497 12.347C22.8659 12.7447 15.0303 16.3945 12.2827 21.8907C11.8033 22.8485 11.4104 23.6065 11.0934 24.2165C9.75415 26.797 9.70227 26.8969 9.46594 29.8732C9.44 30.1979 9.15659 30.439 8.83284 30.4131C8.50908 30.3881 8.26698 30.1047 8.29292 29.78C8.54174 26.6404 8.65318 26.3618 10.0491 23.6747C10.3642 23.0685 10.7552 22.3153 11.2298 21.3652C12.3548 19.1133 14.3569 16.92 17.1794 14.8458C19.8147 12.909 22.3135 11.7033 23.2655 11.2749C25.9094 10.0855 28.3409 7.89413 28.3659 7.873C28.5388 7.7164 28.7867 7.67605 29 7.77116C29.2133 7.86627 29.3506 8.07571 29.3506 8.31012V18.5868C29.3506 18.85 29.1748 19.0825 28.9222 19.1536L23.5297 20.6744C19.5966 21.784 17.8327 25.4001 17.2553 26.9123L21.8802 27.3004C22.1972 27.3263 22.4364 27.6001 22.4191 27.9191C22.4163 27.995 22.3528 29.8712 24.0629 31.5813C25.3426 32.861 32.5354 33.1722 36.7673 33.0685C37.0939 33.0579 37.362 33.3183 37.3696 33.643C37.3773 33.9677 37.1208 34.2377 36.7961 34.2453C36.5617 34.2492 35.9718 34.2617 35.1591 34.2617Z" fill="white"/>
<path d="M35.7413 7.83565C35.4165 7.83565 35.1523 7.57242 35.1523 7.2477V0.611146C35.1523 0.286427 35.4156 0.0231934 35.7413 0.0231934C36.0669 0.0231934 36.3302 0.286427 36.3302 0.611146V7.2477C36.3302 7.57242 36.066 7.83565 35.7413 7.83565Z" fill="white"/>
<path d="M37.456 28.022H29.5196C29.1949 28.022 28.9316 27.7588 28.9316 27.4341V3.44525C28.9316 3.28385 28.9979 3.13014 29.1142 3.01965C32.0069 0.272035 37.1918 0.0328187 37.4108 0.0232116C37.5741 0.0164867 37.7269 0.0770116 37.8422 0.187493C37.9575 0.297974 38.0228 0.450726 38.0228 0.611164V7.24772C38.0228 7.57244 37.7596 7.83567 37.4348 7.83567C37.1101 7.83567 36.8459 7.57244 36.8459 7.24772V1.25003C35.4827 1.39222 32.1558 1.91388 30.1075 3.7056V26.8452H37.455C37.7797 26.8452 38.043 27.1084 38.043 27.4341C38.0449 27.7588 37.7817 28.022 37.456 28.022Z" fill="white"/>
<path d="M39.128 7.90597C38.8033 7.90597 38.541 7.64273 38.541 7.31801V0.681457C38.541 0.355778 38.8033 0.0935059 39.128 0.0935059C39.4546 0.0935059 39.7169 0.355778 39.7169 0.681457V7.31801C39.7179 7.64177 39.4546 7.90597 39.128 7.90597Z" fill="white"/>
<path d="M34.566 26.1564C34.5083 26.1564 34.4507 26.1477 34.394 26.1305C34.0827 26.0363 33.9079 25.7077 34.002 25.3965C34.4478 23.9304 35.1213 17.5975 35.1731 17.1027V10.4969C35.1731 10.1722 35.4364 9.90894 35.762 9.90894C36.0877 9.90894 36.351 10.1722 36.351 10.4969V17.1334C36.351 17.1536 36.35 17.1738 36.3481 17.194C36.3183 17.4755 35.6237 24.112 35.1289 25.7385C35.0521 25.9931 34.8186 26.1564 34.566 26.1564Z" fill="white"/>
<path d="M40.0964 10.3943H35.1651C34.8404 10.3943 34.5762 10.131 34.5762 9.80534V7.59283C34.5762 7.26812 34.8394 7.00488 35.1651 7.00488H40.0964C40.4221 7.00488 40.6853 7.26812 40.6853 7.59283V9.80534C40.6853 10.131 40.4221 10.3943 40.0964 10.3943ZM35.754 9.21739H39.5084V8.18271H35.754V9.21739Z" fill="white"/>
<path d="M37.4559 26.1564H33.4882C32.6552 26.1564 31.7656 25.6559 31.7656 24.2542V22.3184C31.7656 20.3432 32.9175 18.9646 34.5661 18.9646H36.8679V10.4979C36.8679 10.1731 37.1312 9.90991 37.4559 9.90991C37.7806 9.90991 38.0448 10.1731 38.0448 10.4979V25.5685C38.0448 25.8922 37.7816 26.1564 37.4559 26.1564ZM34.5661 20.1414C33.3681 20.1414 32.9425 21.3145 32.9425 22.3184V24.2542C32.9425 24.8912 33.2048 24.9795 33.4882 24.9795H36.8679V20.1424L34.5661 20.1414Z" fill="white"/>
<path d="M37.4575 70.4131C35.1893 70.4131 33.3438 68.5675 33.3438 66.2993C33.3438 64.0311 35.1893 62.1865 37.4575 62.1865C37.7822 62.1865 38.0464 62.4478 38.0464 62.7735C38.0464 63.0982 37.7832 63.3615 37.4575 63.3615C35.8377 63.3615 34.5206 64.6776 34.5206 66.2993C34.5206 67.9191 35.8377 69.2381 37.4575 69.2381C37.7822 69.2381 38.0464 69.4994 38.0464 69.8251C38.0464 70.1498 37.7832 70.4131 37.4575 70.4131Z" fill="white"/>
<path d="M37.4558 67.4963C38.1174 67.4963 38.6538 66.96 38.6538 66.2983C38.6538 65.6367 38.1174 65.1003 37.4558 65.1003C36.7942 65.1003 36.2578 65.6367 36.2578 66.2983C36.2578 66.96 36.7942 67.4963 37.4558 67.4963Z" fill="white"/>
<path d="M39.0283 72.1157C38.0935 72.1157 37.5594 72.1042 37.5335 72.1032C37.2135 72.0965 36.957 71.8361 36.957 71.5153V69.8023C36.957 69.4776 37.2203 69.2144 37.545 69.2144C37.8707 69.2144 38.1339 69.4776 38.1339 69.8023V70.936C40.7605 70.9581 51.9325 70.9331 62.459 69.1394C73.3678 67.2785 73.6012 57.8656 73.6983 53.8431C73.706 53.5674 73.7117 53.3195 73.7194 53.1024C73.8577 49.7976 73.8577 43.8758 73.7194 40.4316C73.656 38.8503 72.7894 30.887 61.9219 29.3777C59.0686 28.9819 56.1116 28.6697 53.1315 28.4497C47.2942 28.0212 42.2486 28.0011 38.1339 28.0001V62.7507C38.1339 63.0755 37.8707 63.3397 37.545 63.3397C37.2203 63.3397 36.957 63.0755 36.957 62.7507V27.4112C36.957 27.0855 37.2203 26.8223 37.545 26.8223C41.7827 26.8223 47.056 26.8223 53.216 27.2757C56.2221 27.4967 59.2051 27.8118 62.0833 28.2114C73.8798 29.8494 74.8261 38.6389 74.8953 40.3846C75.0346 43.8537 75.0346 49.8206 74.8953 53.1523C74.8857 53.3618 74.8799 53.6029 74.8751 53.8719C74.7771 57.8118 74.5216 68.2767 62.654 70.3C52.9835 71.9476 42.7799 72.1157 39.0283 72.1157Z" fill="white"/>
<path d="M39.8427 34.2399C39.029 34.2399 38.441 34.2274 38.2085 34.2207C37.8838 34.213 37.6263 33.943 37.635 33.6183C37.6427 33.2936 37.9136 33.0332 38.2364 33.0438C42.4692 33.1476 49.6611 32.8363 50.9398 31.5566C52.6508 29.8466 52.5893 27.9703 52.5855 27.8915C52.5701 27.5755 52.8084 27.3026 53.1244 27.2757L57.7483 26.8876C57.169 25.3764 55.4071 21.7594 51.4739 20.6497L46.0825 19.1289C45.8288 19.0579 45.6549 18.8263 45.6549 18.5621V8.28546C45.6549 8.05201 45.7923 7.84161 46.0056 7.7465C46.2179 7.65139 46.4658 7.69175 46.6378 7.84834C46.6608 7.86948 49.0943 10.0608 51.7381 11.2502C52.6912 11.6787 55.1909 12.8844 57.8252 14.8211C60.6477 16.8953 62.6489 19.0886 63.7748 21.3405C64.2504 22.2906 64.6404 23.0438 64.9555 23.65C66.3486 26.3381 66.461 26.6167 66.7107 29.7553C66.7348 30.08 66.4927 30.3634 66.1708 30.3884C65.8509 30.4153 65.5637 30.1723 65.5387 29.8485C65.3023 26.8722 65.2495 26.7723 63.9122 24.1919C63.5952 23.5828 63.2032 22.8248 62.7228 21.866C59.9762 16.3698 52.1397 12.7201 51.2559 12.3223C49.4757 11.5221 47.8309 10.3346 46.8328 9.54207V18.1144L51.7958 19.5142C57.4467 21.108 59.053 27.0096 59.1183 27.2594C59.1625 27.4275 59.1298 27.6062 59.0289 27.7484C58.9281 27.8906 58.7705 27.9799 58.5985 27.9953L53.7364 28.4055C53.648 29.2519 53.2753 30.888 51.7737 32.3886C50.1251 34.0391 43.1446 34.2399 39.8427 34.2399Z" fill="white"/>
<path d="M39.2598 7.81368C38.9341 7.81368 38.6719 7.55045 38.6719 7.22573V0.589173C38.6719 0.264455 38.9341 0.0012207 39.2598 0.0012207C39.5855 0.0012207 39.8478 0.264455 39.8478 0.589173V7.22573C39.8478 7.54949 39.5855 7.81368 39.2598 7.81368Z" fill="white"/>
<path d="M45.4833 28H37.5469C37.2222 28 36.959 27.7368 36.959 27.4121C36.959 27.0864 37.2222 26.8232 37.5469 26.8232H44.8954V3.68266C42.8423 1.88806 39.5193 1.36832 38.1551 1.22613V7.22478C38.1551 7.5495 37.8928 7.81273 37.5671 7.81273C37.2424 7.81273 36.9782 7.5495 36.9782 7.22478V0.588225C36.9782 0.427787 37.0435 0.275035 37.1588 0.164554C37.2751 0.0540726 37.4317 -0.00452997 37.5902 0.00027356C37.8102 0.00988062 42.9951 0.249096 45.8878 2.99671C46.006 3.1072 46.0703 3.26091 46.0703 3.42231V27.4111C46.0722 27.7359 45.809 28 45.4833 28Z" fill="white"/>
<path d="M35.8731 7.88302C35.5484 7.88302 35.2852 7.61978 35.2852 7.29506V0.658508C35.2852 0.332829 35.5484 0.0705566 35.8731 0.0705566C36.1978 0.0705566 36.462 0.332829 36.462 0.658508V7.29506C36.462 7.61978 36.1988 7.88302 35.8731 7.88302Z" fill="white"/>
<path d="M40.4354 26.1332C40.1817 26.1332 39.9492 25.9689 39.8724 25.7153C39.3767 24.0898 38.683 17.4523 38.6523 17.1708C38.6504 17.1506 38.6484 17.1295 38.6484 17.1103V10.4737C38.6484 10.149 38.9126 9.88574 39.2373 9.88574C39.5621 9.88574 39.8253 10.149 39.8253 10.4737V17.0795C39.8791 17.5743 40.5497 23.9063 40.9974 25.3733C41.0915 25.6836 40.9167 26.0131 40.6054 26.1073C40.5497 26.1246 40.4911 26.1332 40.4354 26.1332Z" fill="white"/>
<path d="M39.8376 10.3723H34.9053C34.5806 10.3723 34.3164 10.109 34.3164 9.78337V7.57086C34.3164 7.24614 34.5796 6.98291 34.9053 6.98291H39.8376C40.1623 6.98291 40.4265 7.24614 40.4265 7.57086V9.78337C40.4265 10.109 40.1623 10.3723 39.8376 10.3723ZM35.4942 9.19445H39.2477V8.15977H35.4942V9.19445Z" fill="white"/>
<path d="M41.5156 26.1332H37.5469C37.2222 26.1332 36.959 25.87 36.959 25.5443V10.4737C36.959 10.149 37.2222 9.88574 37.5469 9.88574C37.8726 9.88574 38.1359 10.149 38.1359 10.4737V18.9404H40.4377C42.0872 18.9404 43.2391 20.32 43.2391 22.2942V24.23C43.2391 25.6336 42.3476 26.1332 41.5156 26.1332ZM38.1359 24.9563H41.5156C41.7981 24.9563 42.0603 24.868 42.0603 24.231V22.2952C42.0603 21.2912 41.6357 20.1182 40.4377 20.1182H38.1359V24.9563Z" fill="white"/>
<path d="M37.5469 70.392C37.2222 70.392 36.959 70.1288 36.959 69.8031C36.959 69.4784 37.2222 69.2152 37.5469 69.2152C39.1677 69.2152 40.4848 67.898 40.4848 66.2773C40.4848 64.6566 39.1677 63.3395 37.5469 63.3395C37.2222 63.3395 36.959 63.0763 36.959 62.7515C36.959 62.4268 37.2222 62.1646 37.5469 62.1646C39.8161 62.1646 41.6607 64.0101 41.6607 66.2773C41.6607 68.5456 39.8161 70.392 37.5469 70.392Z" fill="white"/>
<path d="M37.5457 67.4734C38.2073 67.4734 38.7437 66.937 38.7437 66.2754C38.7437 65.6138 38.2073 65.0774 37.5457 65.0774C36.884 65.0774 36.3477 65.6138 36.3477 66.2754C36.3477 66.937 36.884 67.4734 37.5457 67.4734Z" fill="white"/>
</svg>
