<svg width="75" height="46" viewBox="0 0 75 46" fill="none" xmlns="http://www.w3.org/2000/svg">
<path d="M57.2476 29.5504L58.229 28.8677L58.0753 28.7139C59.7864 27.1333 60.8172 24.9171 60.8172 22.5442C60.8172 19.7848 59.4923 17.1719 57.1757 15.6228C56.0671 14.8737 54.7932 14.4006 53.4904 14.1948C52.4 14.0225 51.2776 14.0281 50.2706 14.0332C50.1041 14.034 49.9408 14.0349 49.7812 14.0349H25.1719H25.1333C23.9283 14.0348 22.6882 14.0348 21.4363 14.2421C20.1315 14.4464 18.8644 14.9239 17.7514 15.7146C15.4837 17.2666 14.1125 19.8196 14.1125 22.6263C14.1125 25.4012 15.4764 27.9489 17.7343 29.5458L17.7342 29.5459L17.7452 29.5534C18.8932 30.3427 20.1334 30.7939 21.4525 31.0092C22.5511 31.2003 23.6503 31.1924 24.6488 31.1852C24.8347 31.1838 25.0171 31.1825 25.1953 31.1825H49.8047C49.955 31.1825 50.108 31.1832 50.2632 31.1839C51.2834 31.1884 52.4018 31.1933 53.5254 31.0109C54.855 30.807 56.111 30.3409 57.2476 29.5504ZM65.9611 5.89965L65.9633 5.90148C71.0485 9.97228 74 16.1302 74 22.638C74 29.1437 71.0505 35.2878 65.8842 39.3704C63.3225 41.3932 60.4506 42.7944 57.3066 43.5665C55.5213 43.9987 53.7261 44.1984 51.8534 44.2461L51.8439 44.2464C50.6854 44.287 49.4937 44.2855 48.304 44.2839C48.0752 44.2836 47.8464 44.2833 47.618 44.2833H27.3188C27.0804 44.2833 26.8442 44.2836 26.61 44.2839C25.4047 44.2855 24.2494 44.287 23.0928 44.2464L23.0929 44.2464L23.0833 44.2461C21.2092 44.1983 19.3895 43.9984 17.5918 43.5658C14.4477 42.8048 11.5542 41.4042 9.02361 39.3753C3.95152 35.3042 1 29.1575 1 22.638C1 16.1313 3.95059 9.98505 9.05948 5.90198L9.06197 5.89998C11.5676 3.88431 14.4724 2.48299 17.6188 1.72168L17.6233 1.72057C19.4145 1.27835 21.2319 1.08918 23.1152 1.02969L23.1164 1.02965C24.1672 0.995138 25.2198 0.999431 26.2898 1.00379C26.6509 1.00527 27.014 1.00675 27.3797 1.00675H47.6789C48.0638 1.00675 48.4413 1.00501 48.8135 1.0033C49.87 0.998443 50.8839 0.993781 51.9048 1.02958L51.9085 1.02969C53.7982 1.08903 55.6076 1.28921 57.4059 1.72196L57.4079 1.72246C60.5505 2.47163 63.4428 3.87162 65.9611 5.89965Z" fill="#F5F5F5" stroke="#02041B" stroke-width="2"/>
</svg>
