<svg width="90" height="70" viewBox="0 0 90 70" fill="none" xmlns="http://www.w3.org/2000/svg">
<circle cx="55.095" cy="34.905" r="34.905" fill="#E0F9FF"/>
<g clip-path="url(#clip0)">
<path d="M31.9188 46.9584C32.6533 46.9584 33.2487 46.363 33.2487 45.6285C33.2487 44.894 32.6533 44.2986 31.9188 44.2986C31.1843 44.2986 30.5889 44.894 30.5889 45.6285C30.5889 46.363 31.1843 46.9584 31.9188 46.9584Z" fill="#3D3D3D"/>
<path d="M9.30989 54.9381C10.0444 54.9381 10.6398 54.3427 10.6398 53.6082C10.6398 52.8737 10.0444 52.2783 9.30989 52.2783C8.5754 52.2783 7.97998 52.8737 7.97998 53.6082C7.97998 54.3427 8.5754 54.9381 9.30989 54.9381Z" fill="#3D3D3D"/>
<path d="M54.528 11.0498H9.30967C7.04873 11.0498 5.31982 12.7787 5.31982 15.0397V28.3392C5.31982 29.1372 5.85186 29.6691 6.64974 29.6691C7.44761 29.6691 7.97965 29.1371 7.97965 28.3392V15.0398C7.97965 14.2418 8.51168 13.7099 9.30956 13.7099H54.5279C55.3259 13.7099 55.8578 14.2419 55.8578 15.0398V46.9586C55.8578 47.7566 55.3258 48.2886 54.5279 48.2886H22.6091C21.8111 48.2886 21.2792 48.8206 21.2792 49.6185C21.2792 50.4163 21.8112 50.9484 22.6091 50.9484H25.2691V54.9382C25.2691 55.7362 24.737 56.2681 23.9392 56.2681H22.6092C21.8112 56.2681 21.2793 56.8002 21.2793 57.598C21.2793 58.3959 21.8114 58.928 22.6092 58.928H41.2286C42.0266 58.928 42.5585 58.3959 42.5585 57.598C42.5585 56.8002 42.0264 56.2681 41.2286 56.2681H39.8987C39.1007 56.2681 38.5687 55.7361 38.5687 54.9382V50.9484H54.5281C56.7891 50.9484 58.518 49.2195 58.518 46.9585V15.0398C58.5179 12.7788 56.789 11.0498 54.528 11.0498ZM27.6629 56.2682C27.796 55.8693 27.9289 55.4703 27.9289 54.9383V50.9485H35.9086V54.9383C35.9086 55.4704 36.0416 55.8693 36.1745 56.2682H27.6629Z" fill="#3D3D3D"/>
<path d="M51.8682 40.3086H22.6092C21.8112 40.3086 21.2793 40.8406 21.2793 41.6385C21.2793 42.4364 21.8113 42.9684 22.6092 42.9684H51.8682C52.6661 42.9684 53.1981 42.4364 53.1981 41.6385C53.1981 40.8406 52.6661 40.3086 51.8682 40.3086Z" fill="#3D3D3D"/>
<path d="M14.6295 32.3291H3.98985C1.72891 32.3291 0 34.0581 0 36.3189V54.9383C0 57.1992 1.72891 58.9281 3.98985 58.9281H14.6295C16.8904 58.9281 18.6193 57.1992 18.6193 54.9383V36.3189C18.6193 34.0581 16.8904 32.3291 14.6295 32.3291ZM15.9594 54.9383C15.9594 55.7363 15.4274 56.2682 14.6295 56.2682H3.98985C3.19185 56.2682 2.65994 55.7362 2.65994 54.9383V36.3189C2.65994 35.521 3.19197 34.989 3.98985 34.989H14.6295C15.4275 34.989 15.9594 35.5211 15.9594 36.3189V54.9383Z" fill="#3D3D3D"/>
</g>
<defs>
<clipPath id="clip0">
<rect width="58.5179" height="58.5179" fill="white" transform="translate(0 5.72998)"/>
</clipPath>
</defs>
</svg>
