<svg width="127" height="86" viewBox="0 0 127 86" fill="none" xmlns="http://www.w3.org/2000/svg">
<path d="M0.00113957 76.4999C-0.0196715 75.1553 0.244774 73.8216 0.776853 72.5878C1.27626 71.4537 2 70.4337 2.904 69.5898C3.83107 68.7459 4.91421 68.0937 6.0917 67.6703C8.62182 66.7766 11.3793 66.7766 13.9094 67.6703C15.0844 68.0951 16.1653 68.7472 17.0911 69.5898C17.9984 70.4321 18.7244 71.4524 19.2243 72.5878C19.7364 73.8278 20 75.1573 20 76.4999C20 77.8426 19.7364 79.172 19.2243 80.412C18.7244 81.5474 17.9984 82.5678 17.0911 83.41C16.1666 84.2529 15.0852 84.9032 13.9094 85.3234C11.3807 86.2255 8.62039 86.2255 6.0917 85.3234C4.9134 84.9046 3.82978 84.2542 2.904 83.41C2 82.5662 1.27626 81.5461 0.776853 80.412C0.244774 79.1782 -0.0196715 77.8445 0.00113957 76.4999ZM5.55234 76.4999C5.50062 77.7155 5.91991 78.9038 6.72197 79.8148C7.14674 80.2493 7.65914 80.5872 8.22467 80.8058C8.79021 81.0244 9.39576 81.1187 10.0006 81.0823C10.6054 81.1187 11.2109 81.0244 11.7765 80.8058C12.342 80.5872 12.8544 80.2493 13.2792 79.8148C14.0318 78.8757 14.4422 77.706 14.4422 76.4999C14.4422 75.2939 14.0318 74.1241 13.2792 73.185C12.8544 72.7506 12.342 72.4127 11.7765 72.194C11.2109 71.9754 10.6054 71.8811 10.0006 71.9175C9.39576 71.8811 8.79021 71.9754 8.22467 72.194C7.65914 72.4127 7.14674 72.7506 6.72197 73.185C5.91991 74.096 5.50062 75.2843 5.55234 76.4999Z" fill="#ED564C"/>
<path d="M24 67.4666H29.7038V70.4492H29.7785C30.2822 69.4254 31.0248 68.5394 31.9431 67.8667C32.8823 67.263 33.9826 66.9619 35.0966 67.0039C35.4263 67.0039 35.756 67.0039 36.0856 67.0476C36.3944 67.0692 36.7005 67.1194 37 67.1977V72.4688C36.6129 72.3399 36.2182 72.2355 35.8182 72.1562C35.4066 72.0924 34.9906 72.061 34.5742 72.0624C33.689 72.0261 32.8065 72.1818 31.9866 72.5189C31.3916 72.7884 30.8847 73.2221 30.5249 73.7694C30.1644 74.3701 29.9373 75.042 29.8593 75.7391C29.7563 76.5687 29.7064 77.4041 29.71 78.2402V86H24V67.4666Z" fill="#ED564C"/>
<path d="M58 85.5418H52.7822V83.1263H52.7079C52.4467 83.4901 52.148 83.8255 51.8166 84.1271C51.426 84.486 50.9938 84.7971 50.5292 85.0538C50.0138 85.3404 49.4677 85.5683 48.9013 85.7333C48.2986 85.9116 47.6731 86.0011 47.0445 85.999C45.7716 86.0176 44.5081 85.778 43.3307 85.2947C42.2515 84.8507 41.279 84.1832 40.4773 83.3363C39.6602 82.472 39.0284 81.4503 38.6205 80.3339C38.1894 79.1078 37.9798 77.8151 38.0015 76.5159C38.0052 75.255 38.2143 74.0031 38.6205 72.8092C38.9921 71.6911 39.5555 70.6459 40.2855 69.7203C41.0005 68.8215 41.8967 68.0827 42.916 67.5518C44.0029 66.9956 45.2105 66.7155 46.4317 66.7363C47.5591 66.7273 48.6794 66.9133 49.7431 67.2862C50.7489 67.6367 51.625 68.2828 52.2561 69.1395H52.3365V57H58V85.5418ZM52.7822 76.3677C52.8376 75.1349 52.4091 73.9292 51.5876 73.0069C50.6706 72.1795 49.4784 71.7213 48.2422 71.7213C47.0059 71.7213 45.8138 72.1795 44.8967 73.0069C44.1237 73.957 43.7018 75.1437 43.7018 76.3677C43.7018 77.5916 44.1237 78.7783 44.8967 79.7284C45.8138 80.5559 47.0059 81.014 48.2422 81.014C49.4784 81.014 50.6706 80.5559 51.5876 79.7284C52.4001 78.8024 52.8197 77.5971 52.7574 76.3677H52.7822Z" fill="#ED564C"/>
<path d="M80.1262 82.423C79.2069 83.5662 78.0166 84.4738 76.6582 85.0675C75.2884 85.6817 73.7991 85.9997 72.2919 85.9998C70.9205 86.0084 69.5583 85.7794 68.2687 85.3234C67.0579 84.9045 65.9446 84.254 64.994 83.4101C64.0601 82.5679 63.3129 81.5475 62.7984 80.4122C62.2713 79.1722 62 77.8428 62 76.5002C62 75.1577 62.2713 73.8283 62.7984 72.5883C63.3129 71.453 64.0601 70.4327 64.994 69.5904C65.9459 68.7466 67.0586 68.0944 68.2687 67.671C69.5595 67.2199 70.9211 66.9931 72.2919 67.0007C73.5276 66.9852 74.7538 67.2132 75.8972 67.671C76.948 68.1013 77.886 68.7574 78.6417 69.5904C79.4163 70.4683 80.0056 71.4871 80.3757 72.5883C80.8013 73.8502 81.012 75.1717 80.9995 76.5002V78.249H67.7385C67.9209 79.2405 68.4447 80.1413 69.223 80.8021C70.012 81.4454 71.0152 81.7837 72.0424 81.7527C72.8805 81.7814 73.7089 81.5696 74.4251 81.1434C75.0867 80.7231 75.6621 80.1858 76.1217 79.5591L80.1262 82.423ZM75.2859 74.4529C75.3092 74.0041 75.2363 73.5556 75.072 73.1359C74.9076 72.7162 74.6555 72.3346 74.3316 72.0156C74.0025 71.6819 73.6054 71.4194 73.166 71.2451C72.7265 71.0709 72.2545 70.9888 71.7804 71.0041C71.2065 70.9949 70.6363 71.0963 70.1025 71.3026C69.6438 71.4851 69.2216 71.745 68.855 72.0704C68.5167 72.3733 68.2451 72.7402 68.0566 73.1489C67.8651 73.5532 67.755 73.9897 67.7323 74.4346L75.2859 74.4529Z" fill="#ED564C"/>
<path d="M85 67.486H90.5383V69.9778H90.6139C90.8184 69.589 91.0768 69.2305 91.3817 68.9126C91.7339 68.5417 92.1363 68.221 92.5774 67.9595C93.0711 67.6672 93.5996 67.437 94.1508 67.2742C94.7762 67.0929 95.425 67.0027 96.0767 67.0063C97.2916 66.958 98.5016 67.1861 99.6136 67.6729C100.475 68.09 101.201 68.7374 101.709 69.5417C102.236 70.3899 102.583 71.3351 102.729 72.3201C102.917 73.4651 103.007 74.6237 103 75.7837V85.9875H97.2284V76.9423C97.2284 76.4066 97.2284 75.8522 97.1717 75.2853C97.1421 74.743 97.0252 74.2089 96.8256 73.703C96.6468 73.2361 96.3421 72.8267 95.9445 72.5194C95.4387 72.1884 94.838 72.0288 94.2326 72.0647C93.6038 72.0399 92.9792 72.1772 92.4201 72.4634C91.9759 72.716 91.6101 73.0845 91.3628 73.5286C91.1139 73.9989 90.9519 74.5094 90.8845 75.0361C90.8075 75.6165 90.7697 76.2013 90.7712 76.7866V86H85V67.486Z" fill="#ED564C"/>
<path d="M106.001 76.4999C105.982 75.1555 106.26 73.8225 106.815 72.5878C107.34 71.4524 108.103 70.4321 109.055 69.5898C110.026 68.746 111.162 68.0937 112.396 67.6703C115.053 66.7766 117.948 66.7766 120.605 67.6703C121.841 68.0937 122.979 68.7459 123.952 69.5898C124.901 70.4337 125.661 71.4537 126.185 72.5878C126.723 73.8278 127 75.1573 127 76.4999C127 77.8426 126.723 79.172 126.185 80.412C125.661 81.5461 124.901 82.5662 123.952 83.41C122.98 84.2542 121.842 84.9046 120.605 85.3234C117.95 86.2255 115.051 86.2255 112.396 85.3234C111.161 84.9045 110.025 84.254 109.055 83.41C108.103 82.5678 107.34 81.5474 106.815 80.412C106.26 79.1773 105.982 77.8443 106.001 76.4999ZM111.836 76.4999C111.78 77.7146 112.218 78.9029 113.058 79.8148C114.002 80.6301 115.229 81.0814 116.5 81.0814C117.772 81.0814 118.999 80.6301 119.943 79.8148C120.738 78.8776 121.171 77.7072 121.171 76.4999C121.171 75.2927 120.738 74.1222 119.943 73.185C118.999 72.3697 117.772 71.9185 116.5 71.9185C115.229 71.9185 114.002 72.3697 113.058 73.185C112.218 74.0969 111.78 75.2852 111.836 76.4999Z" fill="#ED564C"/>
<path d="M60.0522 10.9253C60.3927 11.099 60.7199 11.292 61.0538 11.4979C61.1673 11.5751 61.4611 11.7102 61.5279 11.826C61.5279 11.7874 61.1205 11.5108 61.3609 11.7038L61.628 11.9161C61.9081 12.1517 62.1755 12.4008 62.4293 12.6625C62.5629 12.7976 62.6964 12.9391 62.8233 13.0871C62.8927 13.1541 62.9553 13.2274 63.0102 13.3059C62.9635 13.1965 62.6964 12.907 62.9168 13.1965C63.1377 13.4907 63.3428 13.7956 63.5311 14.1101C63.7535 14.438 63.9351 14.79 64.0719 15.1589C64.0319 15.0174 63.885 14.715 64.0118 15.0367C64.0519 15.1267 64.0853 15.2233 64.1187 15.3133C64.1855 15.5064 64.2522 15.6929 64.3057 15.886C64.3591 16.079 64.4258 16.3042 64.4726 16.5294C64.4726 16.6452 64.526 16.761 64.546 16.8768C64.5661 16.9926 64.6395 17.4816 64.546 16.8768C64.5757 17.4392 64.8125 17.973 65.2138 18.3824C65.6288 18.7781 66.1891 19 66.7729 19C67.3568 19 67.9171 18.7781 68.3321 18.3824C68.546 18.19 68.7158 17.9567 68.8308 17.6975C68.9458 17.4382 69.0033 17.1587 68.9999 16.8768C68.7676 14.7959 67.9961 12.8046 66.7563 11.0861C65.5951 9.51172 64.0764 8.21339 62.3158 7.28999C62.0659 7.14931 61.7897 7.05744 61.5029 7.01962C61.2161 6.9818 60.9245 6.99877 60.6445 7.06957C60.3645 7.14037 60.1018 7.26361 59.8713 7.43225C59.6408 7.60089 59.447 7.81163 59.301 8.05244C59.155 8.29325 59.0596 8.5594 59.0204 8.83572C58.9811 9.11203 58.9987 9.39309 59.0722 9.66284C59.1457 9.9326 59.2736 10.1858 59.4486 10.4079C59.6236 10.63 59.8423 10.8168 60.0922 10.9574L60.0522 10.9253Z" fill="#ED564C"/>
<path d="M62.7101 30.9276C62.3204 31.0371 61.9239 31.1329 61.5274 31.215L61.0489 31.304C60.3106 31.4545 61.4522 31.304 60.7002 31.3587C59.9194 31.4443 59.1334 31.4717 58.3485 31.4408C57.9999 31.4408 57.6649 31.3998 57.3094 31.3656C56.9539 31.3314 57.829 31.4614 57.1043 31.3656L56.6531 31.2903C55.901 31.1475 55.1606 30.9485 54.4382 30.695C53.1182 30.2144 51.8765 29.5411 50.7534 28.6969C50.9858 28.868 50.3227 28.3411 50.227 28.2589C49.9672 28.0331 49.7143 27.8005 49.475 27.5747C49.2357 27.3488 48.9418 27.0272 48.6888 26.733C48.5034 26.5354 48.3321 26.325 48.1761 26.1035C47.7467 25.4957 47.354 24.8628 47.0003 24.208C46.6481 23.5731 46.3684 22.9005 46.1662 22.2031C45.9507 21.5019 45.7749 20.7891 45.6398 20.0681C45.4963 19.3222 45.6398 20.2802 45.6398 19.8423C45.6125 19.6461 45.592 19.4477 45.5783 19.247C45.5783 18.8569 45.5305 18.46 45.5305 18.07C45.4849 16.6464 45.7027 15.2265 46.1731 13.8822C46.5613 12.6108 47.1498 11.4097 47.9163 10.3239L48.2445 9.85179C48.4974 9.50281 47.9163 10.2418 48.3812 9.67388C48.6 9.40473 48.8278 9.1447 49.0648 8.8938C49.6079 8.29759 50.2002 7.74823 50.8354 7.25153C50.6235 7.40891 51.3003 6.92307 51.4097 6.8478C51.7036 6.6562 52.0044 6.46461 52.3052 6.29354C52.606 6.12247 52.9889 5.91034 53.3512 5.73927L53.7887 5.54083C53.4879 5.67084 54.0827 5.43134 54.1374 5.40397C54.8644 5.13789 55.6091 4.92296 56.366 4.76075C56.4959 4.76075 57.3709 4.57599 57.0496 4.62389C57.5187 4.55769 57.9912 4.51885 58.4648 4.50756C59.811 4.4161 61.1627 4.56438 62.4572 4.9455C63.8165 5.27087 65.1079 5.83377 66.2718 6.6083C67.4033 7.32171 68.4179 8.20573 69.2798 9.2291C71.0467 11.3728 72.1408 13.9916 72.4245 16.7562C72.4963 17.6123 72.4963 18.473 72.4245 19.3291C72.4245 19.2743 72.3493 20.0134 72.3903 19.726C72.3903 19.5549 72.3219 20.1297 72.3083 20.2255C72.2331 20.6361 72.1374 21.0466 72.028 21.4572C71.6564 22.9746 70.9999 24.4074 70.0933 25.6792C69.6926 26.2809 69.2348 26.8423 68.726 27.3557C68.4594 27.6294 68.1791 27.8963 67.8988 28.1563C67.6186 28.4163 67.2562 28.7037 67.0922 28.8406C66.4223 29.3177 65.7185 29.7454 64.9866 30.1202C64.2653 30.4912 63.5068 30.7848 62.7238 30.9961C59.9482 31.8104 61.1309 36.1692 63.9201 35.3481C67.4977 34.3305 70.6724 32.2287 73.008 29.3316C75.3436 26.4345 76.7253 22.8844 76.9631 19.1693C77.201 15.4542 76.2833 11.7566 74.3363 8.58484C72.3892 5.41304 69.5084 2.92281 66.0899 1.4565C62.6714 -0.00980454 58.883 -0.380191 55.2457 0.396268C51.6083 1.17273 48.3005 3.05791 45.7771 5.79263C43.2537 8.52734 41.6385 11.9773 41.1536 15.6683C40.6688 19.3592 41.338 23.1098 43.0694 26.4045C46.9387 33.9316 55.8601 37.5857 63.9201 35.3481C66.7025 34.5064 65.5198 30.1476 62.7101 30.9276Z" fill="#ED564C"/>
</svg>
