<svg width="114" height="97" viewBox="0 0 114 97" fill="none" xmlns="http://www.w3.org/2000/svg">
<path d="M64.5252 46.1124C65.0502 43.881 63.6626 41.6476 61.4258 41.1238C59.1891 40.6001 56.9502 41.9844 56.4252 44.2157C55.9002 46.4471 57.2878 48.6806 59.5246 49.2043C61.7613 49.7281 64.0002 48.3438 64.5252 46.1124Z" fill="#52D800"/>
<path d="M80.7738 42.4439C81.3045 40.2139 79.9227 37.9769 77.6873 37.4474C75.4519 36.9179 73.2095 38.2965 72.6788 40.5264C72.148 42.7564 73.5299 44.9934 75.7653 45.5229C78.0006 46.0524 80.243 44.6738 80.7738 42.4439Z" fill="#52D800"/>
<path d="M78.613 22.5089C73.8078 15.5275 71.2923 16.2996 68.2608 18.7769C65.2293 21.2542 63.0686 23.3132 59.3599 26.4017C58.9084 26.7878 58.4891 27.0774 58.1021 27.3026C58.8439 29.1364 59.5856 30.6163 60.3919 30.9059C60.7466 31.0346 61.2304 30.938 61.8753 30.6485L66.5193 27.9138C66.0356 26.9808 65.9388 25.887 66.2936 24.8575C66.7773 23.4741 67.9383 22.2837 69.4218 21.7046L72.5501 20.4499C72.9693 20.289 73.4531 20.4499 73.6788 20.8359C73.9691 21.2863 73.8078 21.8976 73.3241 22.155L70.1313 23.7636C69.2606 24.1175 68.7123 24.6323 68.4866 25.3722C68.3576 25.7905 68.3898 26.4017 68.5511 26.7235L74.2271 23.4097C74.6786 23.1523 75.2268 23.281 75.4848 23.7314C75.7428 24.1497 75.646 24.7288 75.2268 24.9862L69.7121 28.7181C69.9378 29.0399 70.3571 29.3616 70.7763 29.4259C71.5503 29.5546 72.5178 29.2329 73.2273 28.6538L75.9686 26.3696C76.42 26.0478 77.0328 26.1765 77.323 26.6269L77.3553 26.6913C77.581 27.0774 77.5165 27.5599 77.194 27.8817L74.5496 30.3589C73.2918 31.3563 71.6793 31.8067 70.2603 31.5493C69.1638 31.3563 68.2608 30.745 67.6803 29.8764L63.3911 32.3858C62.3913 32.9649 61.5529 33.2544 60.7144 33.2544C60.3274 33.2544 59.9404 33.1901 59.5856 33.0614C56.2961 31.9354 54.4579 24.5357 54.0386 22.9915L51.5876 14.9806C52.1359 14.7232 52.4261 14.1441 52.2326 13.5328L48.4916 0.856916C48.2981 0.21347 47.6209 -0.140426 46.9759 0.0526079L43.2994 1.14647C42.6544 1.3395 42.2997 2.01512 42.4932 2.65857L46.2987 15.3988C46.4599 15.9779 47.0726 16.3318 47.6531 16.2353L50.5234 25.7261C53.8774 38.1125 55.3609 40.6862 61.7786 38.9489C67.1966 37.5012 72.3243 36.15 75.9363 35.1848C79.5805 34.1874 83.4183 29.4903 78.613 22.5089Z" fill="#52D800"/>
<path d="M44.7495 22.7985H37.5578C36.687 22.7985 36.0098 22.0907 36.0098 21.2542C36.0098 20.3856 36.7193 19.71 37.5578 19.71H44.7495C45.6202 19.71 46.2975 20.4178 46.2975 21.2542C46.3297 22.1229 45.6202 22.7985 44.7495 22.7985Z" fill="#52D800"/>
<path d="M47.3623 42.2627H42.041C41.267 42.2627 40.6543 41.6514 40.6543 40.8793V40.5254C40.6543 39.7532 41.267 39.142 42.041 39.142H47.3623C48.1363 39.142 48.749 39.7532 48.749 40.5254V40.8793C48.749 41.6514 48.1363 42.2627 47.3623 42.2627Z" fill="#52D800"/>
<path d="M45.427 33.351H34.5587C33.688 33.351 33.0107 32.6432 33.0107 31.8067C33.0107 30.9381 33.7202 30.2625 34.5587 30.2625H45.427C46.2977 30.2625 46.9749 30.9702 46.9749 31.8067C47.0072 32.6754 46.2977 33.351 45.427 33.351Z" fill="#52D800"/>
<path d="M9.14062 85.4219C6.74219 85.4219 4.84766 84.6289 3.45703 83.043C2.06641 81.4492 1.37109 79.2852 1.37109 76.5508C1.37109 73.8008 2.0625 71.6328 3.44531 70.0469C4.83594 68.4609 6.73047 67.668 9.12891 67.668C11.0508 67.668 12.6797 68.2344 14.0156 69.3672C15.3516 70.4922 16.1094 71.9375 16.2891 73.7031H13.3125C13.1016 72.6875 12.6172 71.8789 11.8594 71.2773C11.1016 70.668 10.1914 70.3633 9.12891 70.3633C7.69141 70.3633 6.55469 70.918 5.71875 72.0273C4.88281 73.1289 4.46484 74.6328 4.46484 76.5391C4.46484 78.4453 4.88281 79.9531 5.71875 81.0625C6.55469 82.1719 7.69531 82.7266 9.14062 82.7266C10.2109 82.7266 11.125 82.4492 11.8828 81.8945C12.6406 81.332 13.1211 80.5781 13.3242 79.6328H16.3008C16.0977 81.3672 15.3398 82.7656 14.0273 83.8281C12.7148 84.8906 11.0859 85.4219 9.14062 85.4219ZM19.4766 85V67.2227H22.3828V85H19.4766ZM37.2188 72.1797V85H34.418V82.9609H34.2188C33.5703 84.4922 32.293 85.2578 30.3867 85.2578C28.9883 85.2578 27.8984 84.8438 27.1172 84.0156C26.3359 83.1797 25.9453 82.0117 25.9453 80.5117V72.1797H28.8516V79.7852C28.8516 80.7695 29.0586 81.5039 29.4727 81.9883C29.8867 82.4648 30.5273 82.7031 31.3945 82.7031C32.332 82.7031 33.0508 82.4336 33.5508 81.8945C34.0586 81.3555 34.3125 80.6055 34.3125 79.6445V72.1797H37.2188ZM47.9062 85.2109C47.0078 85.2109 46.207 85.0156 45.5039 84.625C44.8008 84.2266 44.2656 83.6758 43.8984 82.9727H43.6992V85H40.8984V67.2227H43.8047V74.2188H44.0039C44.3398 73.5234 44.8555 72.9766 45.5508 72.5781C46.2461 72.1719 47.0312 71.9688 47.9062 71.9688C49.5312 71.9688 50.8125 72.5625 51.75 73.75C52.6953 74.9297 53.168 76.543 53.168 78.5898C53.168 80.6289 52.6953 82.2422 51.75 83.4297C50.8047 84.6172 49.5234 85.2109 47.9062 85.2109ZM49.3242 75.5547C48.7617 74.8125 47.9844 74.4414 46.9922 74.4414C46 74.4414 45.2109 74.8164 44.625 75.5664C44.0469 76.3086 43.7578 77.3164 43.7578 78.5898C43.7578 79.8711 44.0469 80.8828 44.625 81.625C45.2109 82.3672 46 82.7383 46.9922 82.7383C47.9844 82.7383 48.7617 82.3711 49.3242 81.6367C49.8945 80.8945 50.1797 79.8789 50.1797 78.5898C50.1797 77.3008 49.8945 76.2891 49.3242 75.5547ZM71.0156 78.2266C71.0156 80.4219 70.3477 82.1719 69.0117 83.4766C67.6758 84.7734 65.8789 85.4219 63.6211 85.4219C61.168 85.4219 59.2305 84.6289 57.8086 83.043C56.3867 81.4492 55.6758 79.2812 55.6758 76.5391C55.6758 73.8359 56.3906 71.6836 57.8203 70.082C59.25 68.4727 61.168 67.668 63.5742 67.668C65.5273 67.668 67.1641 68.1836 68.4844 69.2148C69.8047 70.2461 70.6016 71.625 70.875 73.3516H67.8633C67.5586 72.3906 67.0352 71.6523 66.293 71.1367C65.5586 70.6211 64.6523 70.3633 63.5742 70.3633C62.0977 70.3633 60.9258 70.9141 60.0586 72.0156C59.1992 73.1172 58.7695 74.6172 58.7695 76.5156C58.7695 78.4375 59.207 79.9531 60.082 81.0625C60.9648 82.1719 62.1602 82.7266 63.668 82.7266C64.957 82.7266 66.0039 82.3672 66.8086 81.6484C67.6133 80.9297 68.0273 79.9883 68.0508 78.8242L68.0625 78.4727H63.9961V76.1055H71.0156V78.2266ZM74.2266 85V72.1797H77.0273V74.1719H77.2266C77.4062 73.5312 77.8086 73.0039 78.4336 72.5898C79.0664 72.1758 79.793 71.9688 80.6133 71.9688C81.1367 71.9688 81.5391 72.0117 81.8203 72.0977V74.793C81.5234 74.6836 81.0273 74.6289 80.332 74.6289C79.3867 74.6289 78.6172 74.9023 78.0234 75.4492C77.4297 75.9883 77.1328 76.7031 77.1328 77.5938V85H74.2266ZM95.3672 72.1797V85H92.5664V82.9609H92.3672C91.7188 84.4922 90.4414 85.2578 88.5352 85.2578C87.1367 85.2578 86.0469 84.8438 85.2656 84.0156C84.4844 83.1797 84.0938 82.0117 84.0938 80.5117V72.1797H87V79.7852C87 80.7695 87.207 81.5039 87.6211 81.9883C88.0352 82.4648 88.6758 82.7031 89.543 82.7031C90.4805 82.7031 91.1992 82.4336 91.6992 81.8945C92.207 81.3555 92.4609 80.6055 92.4609 79.6445V72.1797H95.3672ZM106.055 85.2109C105.156 85.2109 104.355 85.0156 103.652 84.625C102.949 84.2266 102.414 83.6758 102.047 82.9727H101.848V85H99.0469V67.2227H101.953V74.2188H102.152C102.488 73.5234 103.004 72.9766 103.699 72.5781C104.395 72.1719 105.18 71.9688 106.055 71.9688C107.68 71.9688 108.961 72.5625 109.898 73.75C110.844 74.9297 111.316 76.543 111.316 78.5898C111.316 80.6289 110.844 82.2422 109.898 83.4297C108.953 84.6172 107.672 85.2109 106.055 85.2109ZM107.473 75.5547C106.91 74.8125 106.133 74.4414 105.141 74.4414C104.148 74.4414 103.359 74.8164 102.773 75.5664C102.195 76.3086 101.906 77.3164 101.906 78.5898C101.906 79.8711 102.195 80.8828 102.773 81.625C103.359 82.3672 104.148 82.7383 105.141 82.7383C106.133 82.7383 106.91 82.3711 107.473 81.6367C108.043 80.8945 108.328 79.8789 108.328 78.5898C108.328 77.3008 108.043 76.2891 107.473 75.5547Z" fill="#52D800"/>
</svg>
