<svg width="346" height="69" viewBox="0 0 346 69" fill="none" xmlns="http://www.w3.org/2000/svg">
<path fill-rule="evenodd" clip-rule="evenodd" d="M60.6028 34.1365C60.1195 36.4165 59.3145 38.4629 58.0363 40.321C55.9572 43.3434 52.8519 44.7949 49.53 45.9084C46.5929 46.8929 43.5762 47.3693 40.4688 47.3793C35.2345 47.3962 29.9957 47.186 24.767 47.499C21.5723 47.6904 18.3703 47.8756 15.203 48.3893C13.4605 48.672 12.9009 49.3531 12.8973 51.1636C12.894 52.8287 13.4512 53.5254 15.1312 53.7856C19.1488 54.4075 23.2039 54.7765 27.2582 54.8127C37.9827 54.9088 48.7085 54.8444 59.4338 54.8494C59.8053 54.8496 60.1894 54.7671 60.5843 54.946C59.5658 59.7674 57.1297 63.5046 52.4771 65.5064C48.8431 67.0701 45.1133 68.1592 41.0702 68.0569C36.4086 67.9386 31.7407 68.093 27.0775 68.0134C21.1299 67.9116 15.3411 66.8794 9.83269 64.565C5.51758 62.7518 2.42269 59.7044 0.979708 55.1919C-1.02745 48.9144 1.74992 42.1395 7.65775 38.731C10.9997 36.8027 14.6709 35.8254 18.4221 35.104C22.0774 34.4009 25.7616 34.1013 29.4905 34.1197C39.4857 34.169 49.4813 34.1365 59.4768 34.1365C59.8244 34.1365 60.1721 34.1365 60.6028 34.1365Z" fill="#367238"/>
<path fill-rule="evenodd" clip-rule="evenodd" d="M60.9099 13.5723C60.6295 14.751 60.323 15.8677 59.8756 16.9441C58.397 20.5018 55.827 22.9436 52.2823 24.3925C48.6133 25.8923 44.8434 26.855 40.8337 26.7758C37.3774 26.7075 33.9186 26.78 30.4611 26.7576C24.1348 26.7166 17.8695 27.487 11.5957 28.1437C7.83692 28.537 4.13109 29.2034 0.539888 30.4151C-0.212664 30.669 0.0163613 30.2151 0.0942968 29.8434C1.56341 22.8317 5.67084 18.2104 12.5356 16.0616C17.5277 14.4989 22.6154 13.5652 27.8623 13.5696C38.5207 13.5785 49.179 13.5722 59.8374 13.5722C60.1848 13.5723 60.5324 13.5723 60.9099 13.5723Z" fill="#223E1D"/>
<path fill-rule="evenodd" clip-rule="evenodd" d="M68.7164 15.3522C68.7281 16.7037 67.6864 17.76 66.3399 17.7622C64.9931 17.7644 63.9469 16.7116 63.9544 15.3616C63.9615 14.0525 64.977 13.0231 66.2831 13.0009C67.6378 12.9778 68.7049 14.009 68.7164 15.3522Z" fill="#2B2A2A"/>
<path fill-rule="evenodd" clip-rule="evenodd" d="M72.5765 17.7619C71.2388 17.7419 70.2112 16.6656 70.2386 15.3133C70.2653 13.986 71.3633 12.9593 72.7112 13.0012C74.0069 13.0416 75.0084 14.0916 74.9998 15.4008C74.9909 16.7427 73.9242 17.7819 72.5765 17.7619Z" fill="#2B2B2A"/>
<path d="M92 15.16H106.49V18.52H95.51V24.34H105.29V27.7H95.51V33.64H106.91V37H92V15.16ZM151.695 15.16V37H148.215V27.7H137.475V37H133.965V15.16H137.475V24.37H148.215V15.16H151.695ZM157.875 26.11C157.875 24.59 158.165 23.16 158.745 21.82C159.325 20.48 160.125 19.29 161.145 18.25C162.165 17.21 163.345 16.4 164.685 15.82C166.045 15.22 167.495 14.92 169.035 14.92C170.555 14.92 171.985 15.22 173.325 15.82C174.685 16.4 175.875 17.21 176.895 18.25C177.935 19.29 178.745 20.48 179.325 21.82C179.925 23.16 180.225 24.59 180.225 26.11C180.225 27.65 179.925 29.1 179.325 30.46C178.745 31.8 177.935 32.98 176.895 34C175.875 35.02 174.685 35.82 173.325 36.4C171.985 36.96 170.555 37.24 169.035 37.24C167.475 37.24 166.025 36.96 164.685 36.4C163.345 35.82 162.165 35.03 161.145 34.03C160.125 33.01 159.325 31.83 158.745 30.49C158.165 29.13 157.875 27.67 157.875 26.11ZM161.475 26.11C161.475 27.19 161.665 28.2 162.045 29.14C162.445 30.08 162.995 30.91 163.695 31.63C164.395 32.33 165.205 32.88 166.125 33.28C167.045 33.68 168.045 33.88 169.125 33.88C170.165 33.88 171.135 33.68 172.035 33.28C172.955 32.88 173.755 32.33 174.435 31.63C175.115 30.91 175.645 30.08 176.025 29.14C176.425 28.2 176.625 27.19 176.625 26.11C176.625 25.01 176.425 23.99 176.025 23.05C175.625 22.11 175.085 21.28 174.405 20.56C173.725 19.84 172.925 19.28 172.005 18.88C171.085 18.48 170.095 18.28 169.035 18.28C167.975 18.28 166.985 18.48 166.065 18.88C165.145 19.28 164.335 19.84 163.635 20.56C162.955 21.28 162.425 22.12 162.045 23.08C161.665 24.02 161.475 25.03 161.475 26.11ZM197.849 19.6C197.069 19.2 196.239 18.86 195.359 18.58C194.479 18.28 193.639 18.13 192.839 18.13C191.759 18.13 190.899 18.37 190.259 18.85C189.639 19.33 189.329 19.99 189.329 20.83C189.329 21.43 189.539 21.96 189.959 22.42C190.399 22.86 190.959 23.25 191.639 23.59C192.339 23.91 193.069 24.22 193.829 24.52C194.489 24.76 195.139 25.05 195.779 25.39C196.439 25.71 197.029 26.11 197.549 26.59C198.069 27.07 198.479 27.67 198.779 28.39C199.079 29.09 199.229 29.96 199.229 31C199.229 32.14 198.939 33.19 198.359 34.15C197.799 35.09 196.979 35.84 195.899 36.4C194.819 36.96 193.509 37.24 191.969 37.24C191.049 37.24 190.149 37.14 189.269 36.94C188.409 36.74 187.589 36.47 186.809 36.13C186.029 35.77 185.309 35.37 184.649 34.93L186.209 32.2C186.689 32.56 187.239 32.89 187.859 33.19C188.479 33.49 189.119 33.73 189.779 33.91C190.439 34.09 191.059 34.18 191.639 34.18C192.259 34.18 192.869 34.08 193.469 33.88C194.089 33.66 194.599 33.32 194.999 32.86C195.419 32.4 195.629 31.79 195.629 31.03C195.629 30.41 195.449 29.88 195.089 29.44C194.749 29 194.289 28.62 193.709 28.3C193.129 27.96 192.499 27.66 191.819 27.4C191.139 27.14 190.449 26.85 189.749 26.53C189.049 26.21 188.389 25.82 187.769 25.36C187.169 24.88 186.679 24.3 186.299 23.62C185.919 22.94 185.729 22.1 185.729 21.1C185.729 19.9 186.009 18.86 186.569 17.98C187.129 17.1 187.899 16.4 188.879 15.88C189.879 15.36 191.029 15.08 192.329 15.04C193.869 15.04 195.179 15.23 196.259 15.61C197.359 15.97 198.329 16.41 199.169 16.93L197.849 19.6ZM211.53 15.16C213.19 15.16 214.61 15.44 215.79 16C216.97 16.56 217.87 17.36 218.49 18.4C219.13 19.44 219.45 20.7 219.45 22.18C219.45 23.04 219.31 23.9 219.03 24.76C218.77 25.62 218.35 26.4 217.77 27.1C217.21 27.8 216.45 28.36 215.49 28.78C214.55 29.2 213.39 29.41 212.01 29.41H208.86V37H205.35V15.16H211.53ZM212.01 26.05C212.77 26.05 213.41 25.92 213.93 25.66C214.45 25.4 214.85 25.07 215.13 24.67C215.43 24.27 215.64 23.85 215.76 23.41C215.9 22.97 215.97 22.58 215.97 22.24C215.97 21.9 215.91 21.52 215.79 21.1C215.67 20.66 215.47 20.25 215.19 19.87C214.91 19.47 214.52 19.15 214.02 18.91C213.52 18.65 212.88 18.52 212.1 18.52H208.86V26.05H212.01ZM225.189 15.16H228.699V37H225.189V15.16ZM234.651 15.16H249.261V18.52H243.621V37H240.141V18.52H234.651V15.16ZM251.193 37L260.853 14.26H261.063L270.723 37H266.703L259.923 19.72L262.413 18.04L254.613 37H251.193ZM257.253 28.87H264.723L265.923 31.87H256.203L257.253 28.87ZM275.949 15.16H279.459V33.64H290.199V37H275.949V15.16ZM296.346 15.16H299.856V37H296.346V15.16ZM305.807 15.16H320.417V18.52H314.777V37H311.297V18.52H305.807V15.16ZM332.117 29.92L324.047 15.16H328.337L334.487 26.92L333.437 26.98L339.497 15.16H343.787L335.597 29.92V37H332.117V29.92Z" fill="#262626"/>
<path d="M91.248 51.324H96.396V52.44H92.412V55.212H95.904V56.316H92.412V60H91.248V51.324ZM99.7544 51.324H100.918V60H99.7544V51.324ZM112.363 60.276L105.655 53.472L105.991 53.556L106.015 60H104.851V51.06H104.911L111.547 57.888L111.271 57.828L111.247 51.324H112.399V60.276H112.363ZM115.47 60L119.262 50.964H119.334L123.114 60H121.782L118.95 52.788L119.778 52.248L116.61 60H115.47ZM117.69 56.712H120.918L121.302 57.72H117.354L117.69 56.712ZM133.7 60.276L126.992 53.472L127.328 53.556L127.352 60H126.188V51.06H126.248L132.884 57.888L132.608 57.828L132.584 51.324H133.736V60.276H133.7ZM144.043 59.352C143.899 59.448 143.703 59.556 143.455 59.676C143.207 59.796 142.915 59.896 142.579 59.976C142.251 60.056 141.891 60.096 141.499 60.096C140.827 60.088 140.219 59.968 139.675 59.736C139.139 59.504 138.683 59.188 138.307 58.788C137.931 58.388 137.639 57.928 137.431 57.408C137.231 56.88 137.131 56.32 137.131 55.728C137.131 55.08 137.235 54.484 137.443 53.94C137.659 53.388 137.959 52.912 138.343 52.512C138.727 52.104 139.179 51.788 139.699 51.564C140.227 51.34 140.803 51.228 141.427 51.228C141.947 51.228 142.419 51.3 142.843 51.444C143.267 51.58 143.631 51.744 143.935 51.936L143.467 53.016C143.227 52.856 142.935 52.704 142.591 52.56C142.255 52.416 141.879 52.344 141.463 52.344C141.039 52.344 140.639 52.428 140.263 52.596C139.887 52.764 139.555 53 139.267 53.304C138.979 53.608 138.751 53.964 138.583 54.372C138.423 54.772 138.343 55.204 138.343 55.668C138.343 56.14 138.415 56.58 138.559 56.988C138.711 57.388 138.923 57.736 139.195 58.032C139.475 58.328 139.811 58.56 140.203 58.728C140.595 58.896 141.035 58.98 141.523 58.98C141.963 58.98 142.355 58.912 142.699 58.776C143.043 58.64 143.327 58.488 143.551 58.32L144.043 59.352ZM147.443 51.324H153.083V52.44H148.607V55.08H152.603V56.196H148.607V58.884H153.251V60H147.443V51.324ZM161.804 51.492H162.824V62.82H161.804V51.492ZM179.47 51.324C180.102 51.324 180.642 51.432 181.09 51.648C181.538 51.856 181.882 52.16 182.122 52.56C182.37 52.96 182.494 53.444 182.494 54.012C182.494 54.356 182.442 54.696 182.338 55.032C182.234 55.36 182.066 55.66 181.834 55.932C181.61 56.196 181.314 56.408 180.946 56.568C180.578 56.728 180.13 56.808 179.602 56.808H178.318V60H177.154V51.324H179.47ZM179.59 55.692C179.934 55.692 180.218 55.636 180.442 55.524C180.666 55.412 180.842 55.272 180.97 55.104C181.098 54.928 181.19 54.744 181.246 54.552C181.302 54.36 181.33 54.188 181.33 54.036C181.33 53.86 181.302 53.68 181.246 53.496C181.19 53.304 181.094 53.132 180.958 52.98C180.83 52.82 180.658 52.692 180.442 52.596C180.234 52.492 179.974 52.44 179.662 52.44H178.318V55.692H179.59ZM185.731 51.324H186.895V58.884H191.299V60H185.731V51.324ZM193.772 60L197.564 50.964H197.636L201.416 60H200.084L197.252 52.788L198.08 52.248L194.912 60H193.772ZM195.992 56.712H199.22L199.604 57.72H195.656L195.992 56.712ZM212.002 60.276L205.294 53.472L205.63 53.556L205.654 60H204.49V51.06H204.55L211.186 57.888L210.91 57.828L210.886 51.324H212.038V60.276H212.002ZM223.485 60.276L216.777 53.472L217.113 53.556L217.137 60H215.973V51.06H216.033L222.669 57.888L222.393 57.828L222.369 51.324H223.521V60.276H223.485ZM227.456 51.324H228.62V60H227.456V51.324ZM240.064 60.276L233.356 53.472L233.692 53.556L233.716 60H232.552V51.06H232.612L239.248 57.888L238.972 57.828L238.948 51.324H240.1V60.276H240.064ZM250.827 59.256C250.707 59.36 250.539 59.464 250.323 59.568C250.107 59.664 249.867 59.752 249.603 59.832C249.347 59.912 249.079 59.976 248.799 60.024C248.527 60.072 248.271 60.096 248.031 60.096C247.335 60.096 246.707 59.988 246.147 59.772C245.595 59.556 245.119 59.256 244.719 58.872C244.327 58.488 244.023 58.036 243.807 57.516C243.599 56.996 243.495 56.432 243.495 55.824C243.495 55.104 243.611 54.46 243.843 53.892C244.083 53.316 244.407 52.832 244.815 52.44C245.231 52.04 245.707 51.74 246.243 51.54C246.779 51.332 247.347 51.228 247.947 51.228C248.451 51.228 248.919 51.288 249.351 51.408C249.783 51.528 250.163 51.68 250.491 51.864L250.095 52.932C249.935 52.836 249.735 52.748 249.495 52.668C249.263 52.588 249.023 52.524 248.775 52.476C248.527 52.42 248.295 52.392 248.079 52.392C247.567 52.392 247.103 52.472 246.687 52.632C246.271 52.784 245.915 53.008 245.619 53.304C245.323 53.592 245.095 53.944 244.935 54.36C244.775 54.768 244.695 55.228 244.695 55.74C244.695 56.212 244.775 56.644 244.935 57.036C245.095 57.428 245.323 57.768 245.619 58.056C245.915 58.336 246.267 58.556 246.675 58.716C247.091 58.868 247.547 58.944 248.043 58.944C248.339 58.944 248.631 58.916 248.919 58.86C249.207 58.796 249.455 58.708 249.663 58.596V56.868H247.935V55.752H250.827V59.256ZM259.58 51.492H260.6V62.82H259.58V51.492ZM276.066 59.352C275.922 59.448 275.726 59.556 275.478 59.676C275.23 59.796 274.938 59.896 274.602 59.976C274.274 60.056 273.914 60.096 273.522 60.096C272.85 60.088 272.242 59.968 271.698 59.736C271.162 59.504 270.706 59.188 270.33 58.788C269.954 58.388 269.662 57.928 269.454 57.408C269.254 56.88 269.154 56.32 269.154 55.728C269.154 55.08 269.258 54.484 269.466 53.94C269.682 53.388 269.982 52.912 270.366 52.512C270.75 52.104 271.202 51.788 271.722 51.564C272.25 51.34 272.826 51.228 273.45 51.228C273.97 51.228 274.442 51.3 274.866 51.444C275.29 51.58 275.654 51.744 275.958 51.936L275.49 53.016C275.25 52.856 274.958 52.704 274.614 52.56C274.278 52.416 273.902 52.344 273.486 52.344C273.062 52.344 272.662 52.428 272.286 52.596C271.91 52.764 271.578 53 271.29 53.304C271.002 53.608 270.774 53.964 270.606 54.372C270.446 54.772 270.366 55.204 270.366 55.668C270.366 56.14 270.438 56.58 270.582 56.988C270.734 57.388 270.946 57.736 271.218 58.032C271.498 58.328 271.834 58.56 272.226 58.728C272.618 58.896 273.058 58.98 273.546 58.98C273.986 58.98 274.378 58.912 274.722 58.776C275.066 58.64 275.35 58.488 275.574 58.32L276.066 59.352ZM278.926 55.668C278.926 55.068 279.038 54.504 279.262 53.976C279.494 53.44 279.814 52.968 280.222 52.56C280.63 52.144 281.098 51.82 281.626 51.588C282.162 51.348 282.738 51.228 283.354 51.228C283.962 51.228 284.53 51.348 285.058 51.588C285.594 51.82 286.066 52.144 286.474 52.56C286.89 52.968 287.214 53.44 287.446 53.976C287.678 54.504 287.794 55.068 287.794 55.668C287.794 56.284 287.678 56.86 287.446 57.396C287.214 57.932 286.89 58.404 286.474 58.812C286.066 59.212 285.594 59.528 285.058 59.76C284.53 59.984 283.962 60.096 283.354 60.096C282.738 60.096 282.162 59.984 281.626 59.76C281.098 59.536 280.63 59.224 280.222 58.824C279.814 58.424 279.494 57.956 279.262 57.42C279.038 56.884 278.926 56.3 278.926 55.668ZM280.126 55.68C280.126 56.136 280.21 56.564 280.378 56.964C280.546 57.356 280.778 57.704 281.074 58.008C281.37 58.312 281.714 58.552 282.106 58.728C282.498 58.896 282.922 58.98 283.378 58.98C283.826 58.98 284.246 58.896 284.638 58.728C285.03 58.552 285.37 58.312 285.658 58.008C285.946 57.704 286.174 57.356 286.342 56.964C286.51 56.564 286.594 56.132 286.594 55.668C286.594 55.212 286.51 54.784 286.342 54.384C286.174 53.976 285.942 53.62 285.646 53.316C285.35 53.012 285.006 52.776 284.614 52.608C284.222 52.432 283.802 52.344 283.354 52.344C282.898 52.344 282.474 52.432 282.082 52.608C281.69 52.784 281.346 53.024 281.05 53.328C280.754 53.632 280.526 53.988 280.366 54.396C280.206 54.796 280.126 55.224 280.126 55.68ZM289.862 60L293.654 50.964H293.726L297.506 60H296.174L293.342 52.788L294.17 52.248L291.002 60H289.862ZM292.082 56.712H295.31L295.694 57.72H291.746L292.082 56.712ZM306.483 59.352C306.339 59.448 306.143 59.556 305.895 59.676C305.647 59.796 305.355 59.896 305.019 59.976C304.691 60.056 304.331 60.096 303.939 60.096C303.267 60.088 302.659 59.968 302.115 59.736C301.579 59.504 301.123 59.188 300.747 58.788C300.371 58.388 300.079 57.928 299.871 57.408C299.671 56.88 299.571 56.32 299.571 55.728C299.571 55.08 299.675 54.484 299.883 53.94C300.099 53.388 300.399 52.912 300.783 52.512C301.167 52.104 301.619 51.788 302.139 51.564C302.667 51.34 303.243 51.228 303.867 51.228C304.387 51.228 304.859 51.3 305.283 51.444C305.707 51.58 306.071 51.744 306.375 51.936L305.907 53.016C305.667 52.856 305.375 52.704 305.031 52.56C304.695 52.416 304.319 52.344 303.903 52.344C303.479 52.344 303.079 52.428 302.703 52.596C302.327 52.764 301.995 53 301.707 53.304C301.419 53.608 301.191 53.964 301.023 54.372C300.863 54.772 300.783 55.204 300.783 55.668C300.783 56.14 300.855 56.58 300.999 56.988C301.151 57.388 301.363 57.736 301.635 58.032C301.915 58.328 302.251 58.56 302.643 58.728C303.035 58.896 303.475 58.98 303.963 58.98C304.403 58.98 304.795 58.912 305.139 58.776C305.483 58.64 305.767 58.488 305.991 58.32L306.483 59.352ZM316.747 51.324V60H315.595V56.196H311.047V60H309.883V51.324H311.047V55.092H315.595V51.324H316.747ZM320.687 51.324H321.851V60H320.687V51.324ZM333.295 60.276L326.587 53.472L326.923 53.556L326.947 60H325.783V51.06H325.843L332.479 57.888L332.203 57.828L332.179 51.324H333.331V60.276H333.295ZM344.058 59.256C343.938 59.36 343.77 59.464 343.554 59.568C343.338 59.664 343.098 59.752 342.834 59.832C342.578 59.912 342.31 59.976 342.03 60.024C341.758 60.072 341.502 60.096 341.262 60.096C340.566 60.096 339.938 59.988 339.378 59.772C338.826 59.556 338.35 59.256 337.95 58.872C337.558 58.488 337.254 58.036 337.038 57.516C336.83 56.996 336.726 56.432 336.726 55.824C336.726 55.104 336.842 54.46 337.074 53.892C337.314 53.316 337.638 52.832 338.046 52.44C338.462 52.04 338.938 51.74 339.474 51.54C340.01 51.332 340.578 51.228 341.178 51.228C341.682 51.228 342.15 51.288 342.582 51.408C343.014 51.528 343.394 51.68 343.722 51.864L343.326 52.932C343.166 52.836 342.966 52.748 342.726 52.668C342.494 52.588 342.254 52.524 342.006 52.476C341.758 52.42 341.526 52.392 341.31 52.392C340.798 52.392 340.334 52.472 339.918 52.632C339.502 52.784 339.146 53.008 338.85 53.304C338.554 53.592 338.326 53.944 338.166 54.36C338.006 54.768 337.926 55.228 337.926 55.74C337.926 56.212 338.006 56.644 338.166 57.036C338.326 57.428 338.554 57.768 338.85 58.056C339.146 58.336 339.498 58.556 339.906 58.716C340.322 58.868 340.778 58.944 341.274 58.944C341.57 58.944 341.862 58.916 342.15 58.86C342.438 58.796 342.686 58.708 342.894 58.596V56.868H341.166V55.752H344.058V59.256Z" fill="black"/>
<path d="M110.296 18C111.288 16.992 112.248 16.016 113.176 15.072C114.104 14.128 114.936 13.216 115.672 12.336C116.408 11.44 116.984 10.576 117.4 9.744C117.832 8.912 118.048 8.112 118.048 7.344C118.048 6.896 117.976 6.504 117.832 6.168C117.688 5.832 117.488 5.552 117.232 5.328C116.976 5.104 116.68 4.936 116.344 4.824C116.024 4.712 115.672 4.656 115.288 4.656C114.824 4.656 114.424 4.728 114.088 4.872C113.752 5.016 113.48 5.208 113.272 5.448C113.064 5.672 112.904 5.92 112.792 6.192C112.68 6.448 112.624 6.712 112.624 6.984C112.624 7.512 112.704 7.984 112.864 8.4C113.04 8.8 113.272 9.152 113.56 9.456L111.856 11.016C111.44 10.776 111.088 10.424 110.8 9.96C110.512 9.48 110.288 8.976 110.128 8.448C109.984 7.92 109.912 7.456 109.912 7.056C109.912 6.176 110.136 5.352 110.584 4.584C111.048 3.816 111.712 3.192 112.576 2.712C113.456 2.216 114.52 1.968 115.768 1.968C116.808 1.968 117.712 2.208 118.48 2.688C119.264 3.152 119.872 3.776 120.304 4.56C120.736 5.344 120.952 6.192 120.952 7.104C120.952 7.872 120.808 8.624 120.52 9.36C120.248 10.08 119.872 10.8 119.392 11.52C118.912 12.224 118.376 12.92 117.784 13.608C117.208 14.296 116.624 14.992 116.032 15.696L114.784 15.312H121.336V18H110.296Z" fill="#345F28"/>
</svg>
